<?xml version="1.0" encoding="utf-8"?>
<!-- Generator: Adobe Illustrator 23.1.0, SVG Export Plug-In . SVG Version: 6.00 Build 0)  -->
<svg version="1.1" xmlns="http://www.w3.org/2000/svg" xmlns:xlink="http://www.w3.org/1999/xlink" x="0px" y="0px"
	 viewBox="0 0 500 500" style="enable-background:new 0 0 500 500;" xml:space="preserve">
<style type="text/css">
	.st0{fill:#FFFFFF;}
	.st1{fill:#B0BEC5;}
	.st2{fill:#E99EC9;}
	.st3{fill:#42A5F5;}
</style>
<g id="BACKGROUND">
	<rect y="-0.99" class="st0" width="500" height="500"/>
</g>
<g id="OBJECTS">
	<g>
		<g>
			<g>
				<path class="st0" d="M376.76,233.98c18.27-18.26,18.27-47.88,0-66.14s-47.88-18.27-66.15,0l-46.85,46.85l66.17,66.12
					L376.76,233.98z"/>
				<g>
					<path class="st1" d="M340.92,154.23l-68.8,68.8l1.19,1.19l70.08-70.08C342.56,154.15,341.74,154.18,340.92,154.23z"/>
					<path class="st1" d="M358.05,156.4l-76.28,76.28l1.19,1.19l76.86-76.86C359.24,156.8,358.65,156.59,358.05,156.4z"/>
					<path class="st1" d="M370.89,162.87l-79.47,79.46l1.19,1.19l79.64-79.64C371.81,163.54,371.35,163.2,370.89,162.87z"/>
					<path class="st1" d="M380.72,172.35l-79.63,79.63l1.19,1.19l79.46-79.46C381.41,173.26,381.06,172.8,380.72,172.35z"/>
					<path class="st1" d="M387.59,184.79l-76.85,76.85l1.19,1.19l76.27-76.27C388.01,185.97,387.81,185.37,387.59,184.79z"/>
					<path class="st1" d="M390.36,203.7c0.05-0.82,0.08-1.65,0.09-2.47l-70.05,70.06l1.19,1.19L390.36,203.7z"/>
				</g>
				<path class="st2" d="M390.84,153.75c-12.67-12.67-29.27-18.99-45.88-18.99c-16.61,0-33.21,6.33-45.89,19.01l-48.12,48.12
					l12.81,12.81l46.85-46.85c9.13-9.13,21.09-13.71,33.07-13.69c11.96,0,23.93,4.55,33.07,13.69c18.27,18.27,18.27,47.87,0,66.14
					l-46.83,46.83l12.83,12.82l48.09-48.09C416.19,220.19,416.19,179.1,390.84,153.75z"/>
			</g>
			<g>
				<path class="st0" d="M261.01,376.64L118.35,233.98c-18.27-18.26-18.27-47.88,0-66.14l0,0c18.26-18.26,47.88-18.27,66.15,0
					L327.15,310.5L261.01,376.64z"/>
				<g>
					<path class="st1" d="M314.47,315.7c0.33-0.33,0.33-0.86,0-1.19L154.19,154.23c-0.82-0.05-1.64-0.08-2.47-0.09L313.28,315.7
						C313.6,316.03,314.14,316.03,314.47,315.7z"/>
					<path class="st1" d="M304.81,325.36c0.33-0.33,0.33-0.86,0-1.19L137.06,156.4c-0.59,0.19-1.19,0.39-1.77,0.61l168.34,168.34
						C303.95,325.68,304.48,325.68,304.81,325.36z"/>
					<path class="st1" d="M295.16,335.01c0.33-0.33,0.33-0.86,0-1.19L124.22,162.87c-0.46,0.33-0.91,0.67-1.36,1.02l171.12,171.12
						C294.3,335.34,294.83,335.34,295.16,335.01z"/>
					<path class="st1" d="M285.51,344.66c0.33-0.33,0.33-0.86,0-1.19L114.39,172.35c-0.35,0.45-0.69,0.9-1.02,1.36l170.94,170.94
						C284.65,344.99,285.18,344.99,285.51,344.66z"/>
					<path class="st1" d="M275.85,354.31c0.33-0.33,0.33-0.86,0-1.19L107.52,184.79c-0.22,0.59-0.42,1.18-0.61,1.78l167.75,167.75
						C274.99,354.64,275.52,354.64,275.85,354.31z"/>
					<path class="st1" d="M266.2,363.97c0.33-0.33,0.33-0.86,0-1.19L104.66,201.23c0.01,0.82,0.04,1.65,0.09,2.47l160.27,160.27
						C265.34,364.29,265.87,364.29,266.2,363.97z"/>
				</g>
				<path class="st3" d="M260.25,388.7c-3.54,3.54-9.28,3.54-12.82,0L104.27,245.54c-25.35-25.35-25.35-66.44,0-91.78
					c12.67-12.67,29.27-18.99,45.88-18.99c16.61,0,33.21,6.33,45.89,19.01L339.2,296.93c3.54,3.54,3.55,9.27,0.01,12.81
					c-3.54,3.54-9.28,3.54-12.82,0l-141.9-141.9c-9.13-9.13-21.09-13.71-33.07-13.69c-11.96,0-23.93,4.55-33.07,13.69
					c-18.27,18.27-18.27,47.87,0,66.14l141.9,141.9C263.8,379.42,263.8,385.16,260.25,388.7z"/>
			</g>
		</g>
	</g>
</g>
</svg>
