<?xml version="1.0" encoding="utf-8"?>
<!-- Generator: Adobe Illustrator 23.1.0, SVG Export Plug-In . SVG Version: 6.00 Build 0)  -->
<svg version="1.1" xmlns="http://www.w3.org/2000/svg" xmlns:xlink="http://www.w3.org/1999/xlink" x="0px" y="0px"
	 viewBox="0 0 500 500" style="enable-background:new 0 0 500 500;" xml:space="preserve">
<style type="text/css">
	.st0{fill:#FFFFFF;}
	.st1{fill:#6699CC;}
	.st2{fill:#E99EC9;}
	.st3{fill:#B0BEC5;}
</style>
<g id="BACKGROUND">
	<rect x="0" y="121.03" class="st0" width="500" height="208.9"/>
	<g>
		<g>
			<path class="st1" d="M211.8,270.56c3.89,2.24,9.8,4.2,15.95,4.2c7.69,0,11.99-3.61,11.99-9.01c0-4.98-3.34-7.92-11.69-10.95
				c-10.9-3.87-17.86-9.71-17.86-19.17c0-10.81,9.04-18.94,23.35-18.94c7.15,0,12.38,1.52,15.81,3.26l-2.88,9.72
				c-2.39-1.25-6.98-3.13-13.18-3.13c-7.65,0-10.9,4.07-10.9,7.95c0,5.06,3.82,7.44,12.62,10.8c11.46,4.38,16.97,10.13,16.97,19.61
				c0,10.61-7.99,19.82-25.02,19.82c-6.98,0-14.23-1.98-17.83-4.19L211.8,270.56z"/>
			<path class="st1" d="M289.23,283.71l-0.82-5.31h-0.29c-2.89,3.76-7.88,6.39-14.04,6.39c-9.67,0-15.02-6.91-15.02-14.17
				c0-12.02,10.71-18.11,28.27-18.04v-0.79c0-3.13-1.24-8.34-9.68-8.31c-4.67,0-9.56,1.51-12.81,3.56l-2.39-7.82
				c3.6-2.19,9.77-4.23,17.27-4.23c15.28,0,19.65,9.64,19.65,20.09v17.16c0,4.33,0.22,8.54,0.74,11.48H289.23z M287.63,260.37
				c-8.5-0.11-16.63,1.68-16.63,8.94c0,4.67,3.06,6.86,6.87,6.86c4.81,0,8.27-3.1,9.43-6.59c0.26-0.84,0.34-1.78,0.34-2.62V260.37z"
				/>
			<path class="st1" d="M312.15,250.22c0-5.5-0.17-10.04-0.39-14.17h10.53l0.59,7.15h0.28c2.11-3.7,7.27-8.23,15.19-8.23
				c8.31,0,16.94,5.35,16.94,20.42v28.31h-12.06v-26.89c0-6.84-2.51-12.05-9.09-12.05c-4.8,0-8.11,3.39-9.38,7.07
				c-0.37,0.99-0.55,2.45-0.55,3.82v28.04h-12.06V250.22z"/>
			<path class="st1" d="M394.94,283.71l-0.82-5.31h-0.29c-2.89,3.76-7.88,6.39-14.04,6.39c-9.67,0-15.02-6.91-15.02-14.17
				c0-12.02,10.71-18.11,28.27-18.04v-0.79c0-3.13-1.24-8.34-9.68-8.31c-4.67,0-9.56,1.51-12.81,3.56l-2.39-7.82
				c3.6-2.19,9.77-4.23,17.27-4.23c15.28,0,19.65,9.64,19.65,20.09v17.16c0,4.33,0.22,8.54,0.74,11.48H394.94z M393.34,260.37
				c-8.5-0.11-16.63,1.68-16.63,8.94c0,4.67,3.06,6.86,6.87,6.86c4.81,0,8.27-3.1,9.43-6.59c0.26-0.84,0.34-1.78,0.34-2.62V260.37z"
				/>
		</g>
	</g>
	<g>
		<g>
			<path class="st2" d="M266.91,193.28c2.01-0.41,5.65-0.74,9.18-0.74c4.62,0,7.51,0.6,9.85,2.19c2.13,1.31,3.55,3.52,3.55,6.48
				c0,3.16-1.97,6.05-5.73,7.42v0.13c3.64,0.92,6.97,3.79,6.97,8.53c0,3.06-1.32,5.43-3.29,7.11c-2.45,2.12-6.48,3.18-12.79,3.18
				c-3.5,0-6.1-0.23-7.73-0.45V193.28z M273.15,206.87h3.22c4.36,0,6.79-2.06,6.79-4.96c0-3.23-2.45-4.72-6.41-4.72
				c-1.86,0-2.92,0.13-3.6,0.28V206.87z M273.15,222.66c0.82,0.15,1.88,0.18,3.33,0.18c4.02,0,7.64-1.51,7.64-5.76
				c0-4-3.52-5.64-7.84-5.65h-3.13V222.66z"/>
			<path class="st2" d="M319.73,214.55c0,9.14-6.42,13.24-12.77,13.24c-7.01,0-12.44-4.84-12.44-12.81
				c0-8.16,5.37-13.18,12.87-13.18C314.78,201.8,319.73,207.02,319.73,214.55z M300.97,214.82c0,4.78,2.39,8.4,6.18,8.4
				c3.6,0,6.11-3.48,6.11-8.48c0-3.91-1.73-8.37-6.07-8.37C302.79,206.37,300.97,210.68,300.97,214.82z"/>
			<path class="st2" d="M348.53,214.55c0,9.14-6.42,13.24-12.77,13.24c-7.01,0-12.44-4.84-12.44-12.81
				c0-8.16,5.37-13.18,12.87-13.18C343.58,201.8,348.53,207.02,348.53,214.55z M329.78,214.82c0,4.78,2.39,8.4,6.18,8.4
				c3.6,0,6.11-3.48,6.11-8.48c0-3.91-1.73-8.37-6.07-8.37C331.59,206.37,329.78,210.68,329.78,214.82z"/>
			<path class="st2" d="M359.99,213.27h0.1c0.59-0.97,1.31-2.03,1.96-2.92l6.06-7.98h7.55l-9.22,10.15l10.52,14.71h-7.71
				l-7.15-10.99l-2.12,2.52v8.47h-6.28v-36.26h6.28V213.27z"/>
		</g>
	</g>
</g>
<g id="OBJECTS">
	<g>
		<g>
			<g>
				<path class="st0" d="M185.09,216.42c7.75-7.75,7.75-20.32,0-28.07c-7.75-7.75-20.32-7.75-28.07,0l-19.88,19.88l28.08,28.06
					L185.09,216.42z"/>
				<g>
					<path class="st3" d="M169.88,182.57l-29.2,29.2l0.51,0.51l29.74-29.74C170.58,182.54,170.23,182.55,169.88,182.57z"/>
					<path class="st3" d="M177.15,183.49l-32.37,32.37l0.51,0.51l32.62-32.62C177.66,183.66,177.4,183.57,177.15,183.49z"/>
					<path class="st3" d="M182.6,186.24l-33.72,33.72l0.51,0.51l33.8-33.8C182.99,186.52,182.8,186.38,182.6,186.24z"/>
					<path class="st3" d="M186.77,190.26l-33.79,33.79l0.51,0.51l33.72-33.72C187.06,190.64,186.92,190.45,186.77,190.26z"/>
					<path class="st3" d="M189.69,195.54l-32.61,32.61l0.51,0.51l32.36-32.36C189.86,196.04,189.78,195.79,189.69,195.54z"/>
					<path class="st3" d="M190.86,203.56c0.02-0.35,0.03-0.7,0.04-1.05l-29.73,29.73l0.51,0.5L190.86,203.56z"/>
				</g>
				<path class="st2" d="M191.07,182.37c-5.38-5.38-12.42-8.06-19.47-8.06c-7.05,0-14.09,2.69-19.47,8.07l-20.42,20.42l5.44,5.43
					l19.88-19.88c3.87-3.87,8.95-5.82,14.03-5.81c5.08,0,10.15,1.93,14.03,5.81c7.75,7.75,7.75,20.31,0,28.07l-19.87,19.87
					l5.44,5.44l20.41-20.41C201.82,210.56,201.82,193.13,191.07,182.37z"/>
			</g>
			<g>
				<path class="st0" d="M135.97,276.96l-60.54-60.54c-7.75-7.75-7.75-20.32,0-28.07l0,0c7.75-7.75,20.32-7.75,28.07,0l60.54,60.54
					L135.97,276.96z"/>
				<g>
					<path class="st3" d="M158.66,251.09c0.14-0.14,0.14-0.37,0-0.51l-68.02-68.02c-0.35-0.02-0.7-0.03-1.05-0.04l68.56,68.56
						C158.29,251.23,158.52,251.23,158.66,251.09z"/>
					<path class="st3" d="M154.56,255.19c0.14-0.14,0.14-0.37,0-0.51l-71.19-71.19c-0.25,0.08-0.5,0.17-0.75,0.26l71.44,71.44
						C154.19,255.33,154.42,255.33,154.56,255.19z"/>
					<path class="st3" d="M150.46,259.29c0.14-0.14,0.14-0.37,0-0.51l-72.54-72.54c-0.19,0.14-0.39,0.29-0.58,0.43l72.62,72.62
						C150.1,259.43,150.32,259.43,150.46,259.29z"/>
					<path class="st3" d="M146.37,263.38c0.14-0.14,0.14-0.37,0-0.51l-72.62-72.62c-0.15,0.19-0.29,0.38-0.43,0.58l72.54,72.54
						C146,263.52,146.23,263.52,146.37,263.38z"/>
					<path class="st3" d="M142.27,267.48c0.14-0.14,0.14-0.37,0-0.51l-71.44-71.44c-0.09,0.25-0.18,0.5-0.26,0.75l71.19,71.19
						C141.9,267.62,142.13,267.62,142.27,267.48z"/>
					<path class="st3" d="M138.17,271.58c0.14-0.14,0.14-0.37,0-0.51l-68.56-68.56c0,0.35,0.02,0.7,0.04,1.05l68.01,68.01
						C137.81,271.72,138.03,271.72,138.17,271.58z"/>
				</g>
				<path class="st1" d="M135.65,282.07c-1.5,1.5-3.94,1.5-5.44,0l-60.76-60.76c-10.76-10.76-10.76-28.19,0-38.95
					c5.38-5.38,12.42-8.06,19.47-8.06c7.05,0,14.09,2.69,19.47,8.07l60.75,60.76c1.5,1.5,1.51,3.93,0.01,5.44
					c-1.5,1.5-3.94,1.5-5.44,0l-60.22-60.22c-3.87-3.87-8.95-5.82-14.03-5.81c-5.08,0-10.15,1.93-14.03,5.81
					c-7.75,7.75-7.75,20.31,0,28.07l60.22,60.22C137.15,278.14,137.15,280.57,135.65,282.07z"/>
			</g>
		</g>
	</g>
</g>
</svg>
