<svg xmlns="http://www.w3.org/2000/svg" viewBox="0 0 100 100"><defs><style>.cls-1{fill:#0064f4;}.cls-2,.cls-4{fill:#0099f5;}.cls-2,.cls-5{stroke:#231f20;stroke-width:1.5px;}.cls-2{stroke-linejoin:bevel;}.cls-3{fill:#ffd44d;}.cls-5{fill:none;stroke-miterlimit:10;}</style></defs><g id="Layer_2" data-name="Layer 2"><circle class="cls-1" cx="63.09" cy="36.75" r="6.22"/><circle class="cls-1" cx="36.92" cy="36.75" r="6.22"/><path class="cls-2" d="M81.68,73.24V81.4H18.33V73.24a17.41,17.41,0,0,1,2.54-9.08,17.7,17.7,0,0,1,6.74-6.33,17.47,17.47,0,0,1,8.07-2H64.29a16.71,16.71,0,0,1,3.08.26,17.41,17.41,0,0,1,11.79,8.07s0,0,0,.06A17.23,17.23,0,0,1,81.68,73.24Z"/><path class="cls-3" d="M61.27,55.86a11.26,11.26,0,1,1-22.52,0Z"/><circle class="cls-3" cx="50" cy="36.06" r="14.88"/><circle class="cls-4" cx="51.73" cy="46.32" r="1.49"/><path class="cls-5" d="M64.05,30.6a6.23,6.23,0,0,1-1,12.38"/><path class="cls-5" d="M36.92,43a6.23,6.23,0,0,1-.83-12.4"/><path class="cls-5" d="M81.68,73.24V81.4H18.33V73.24a17.41,17.41,0,0,1,2.54-9.08,17.7,17.7,0,0,1,6.74-6.33,17.47,17.47,0,0,1,8.07-2H64.29a16.71,16.71,0,0,1,3.08.26,17.41,17.41,0,0,1,11.79,8.07s0,0,0,.06A17.23,17.23,0,0,1,81.68,73.24Z"/><path class="cls-5" d="M38.75,55.86H61.27a11.26,11.26,0,0,1-19.1,8.08"/><path class="cls-5" d="M63.71,41.85a14.88,14.88,0,1,1,1.17-5.79"/><line class="cls-5" x1="66.25" y1="40.56" x2="52.25" y2="47.71"/><path class="cls-5" d="M53.15,46.78a1.49,1.49,0,1,1-2.84-.92,1.5,1.5,0,0,1,1.88-1"/></g></svg>