<?xml version="1.0" encoding="utf-8"?>
<!-- Generator: Adobe Illustrator 23.1.0, SVG Export Plug-In . SVG Version: 6.00 Build 0)  -->
<svg version="1.1" id="Layer_1" xmlns="http://www.w3.org/2000/svg" xmlns:xlink="http://www.w3.org/1999/xlink" x="0px" y="0px"
	 viewBox="0 0 500 500" style="enable-background:new 0 0 500 500;" xml:space="preserve">
<style type="text/css">
	.st0{fill:#F5C7E0;}
	.st1{fill:#E264AB;}
</style>
<g id="Layer_10">
	<polygon class="st0" points="87.6,142.7 289.8,427.8 268.7,454.4 60.8,172.7 	"/>
	<circle class="st0" cx="273.7" cy="285.9" r="50.5"/>
</g>
<g id="Layer_3">
	<path class="st1" d="M266.4,460.4c-2.2,0-4.4-1.1-5.7-2.9l-208-286.9c-2.3-3.1-1.6-7.5,1.6-9.8l58.4-42.4c3.1-2.3,7.5-1.6,9.8,1.6
		c9.2,11.7,26.1,13.7,37.8,4.5c11-8.7,13.5-24.4,5.7-36.1c-2.3-3.1-1.6-7.5,1.6-9.8L226,36.3c3.1-2.3,7.5-1.6,9.8,1.6c0,0,0,0,0,0
		l208.1,286.9c2.3,3.1,1.6,7.5-1.6,9.8L270.5,459.1C269.3,459.9,267.9,460.4,266.4,460.4z M68.1,168L268,443.6l160.4-116.3
		L228.6,51.7L181,86.2c9.9,20.3,1.5,44.8-18.8,54.7c-15.5,7.5-34,4.6-46.4-7.4L68.1,168z"/>
	<path class="st1" d="M145.6,237.7c-3.9,0-7-3.1-7-7c0-2.3,1.1-4.4,2.9-5.7l116.1-84.2c3.1-2.3,7.5-1.6,9.8,1.6s1.6,7.5-1.6,9.8l0,0
		l-116.1,84.2C148.5,237.2,147,237.7,145.6,237.7z"/>
	<path class="st1" d="M323.9,307.9c-0.8,0-1.5-0.1-2.2-0.4L226.2,275c-3.6-1.2-5.5-5.1-4.3-8.7s5.1-5.5,8.7-4.3l0,0l95.5,32.5
		c3.6,1.2,5.5,5.1,4.3,8.7C329.5,306,326.9,307.9,323.9,307.9L323.9,307.9z"/>
	<path class="st1" d="M288.8,271.3c-2.6,0-5.2-0.4-7.7-1.3c-12.4-4.2-19-17.7-14.8-30.1c4.2-12.4,17.7-19,30.1-14.8
		c6,2,10.9,6.3,13.7,12l0,0c5.8,11.8,0.9,26-10.9,31.8C296,270.5,292.4,271.3,288.8,271.3z M288.8,237.7c-5.5,0-9.9,4.4-9.9,9.9
		s4.4,9.9,9.9,9.9c4.3,0,8-2.7,9.4-6.7c0.9-2.5,0.7-5.2-0.5-7.6l0,0C296.1,239.8,292.6,237.7,288.8,237.7z"/>
	<path class="st1" d="M263.5,345.5c-13.1,0-23.7-10.6-23.8-23.7c0-13.1,10.6-23.7,23.7-23.8c9.1,0,17.3,5.1,21.3,13.2l0,0
		c5.8,11.8,0.9,26-10.8,31.8C270.7,344.7,267.2,345.5,263.5,345.5z M263.5,311.9c-1.5,0-3,0.3-4.4,1c-4.9,2.4-7,8.4-4.5,13.3
		c2.4,4.9,8.4,7,13.3,4.5c4.9-2.4,7-8.4,4.5-13.3c0,0,0,0,0,0l0,0c-1.2-2.4-3.2-4.2-5.7-5C265.7,312.1,264.6,311.9,263.5,311.9
		L263.5,311.9z"/>
</g>
</svg>
