<?xml version="1.0" encoding="utf-8"?>
<!-- Generator: Adobe Illustrator 23.1.0, SVG Export Plug-In . SVG Version: 6.00 Build 0)  -->
<svg version="1.1" id="Layer_1" xmlns="http://www.w3.org/2000/svg" xmlns:xlink="http://www.w3.org/1999/xlink" x="0px" y="0px"
	 viewBox="0 0 500 500" style="enable-background:new 0 0 500 500;" xml:space="preserve">
<style type="text/css">
	.st0{fill:#E264AB;}
	.st1{fill:#FFFFFF;}
</style>
<title>ECommerce</title>
<path class="st0" d="M410.5,347.9l44.6-44.6c4.4-4.4,4.4-11.6,0-16L297.9,130.1c-4.1,1.8-8.9,0-10.7-4.1c-0.9-2.1-0.9-4.5,0-6.6
	l-74.5-74.5c-4.4-4.4-11.6-4.4-16,0l-45.8,45.8c12.5,20.3,6.2,46.9-14.1,59.5c-13.9,8.6-31.5,8.6-45.4,0l-46.5,46.5
	c-4.4,4.4-4.4,11.6,0,16l74.1,74.1l8.8-8.8c3.2-3.2,8.3-3.2,11.5,0c3.2,3.2,3.2,8.3,0,11.5l-8.8,8.8l156.8,156.8
	c4.4,4.4,11.6,4.4,16,0l47.9-47.9c-12.4-20.4-6-47,14.4-59.4C379.4,339.4,396.7,339.4,410.5,347.9L410.5,347.9z M162.3,266.5
	c-3.2,3.2-8.3,3.2-11.5,0s-3.2-8.3,0-11.5l11.5-11.5c3.2-3.2,8.3-3.2,11.5,0s3.2,8.3,0,11.5L162.3,266.5z M196.8,232
	c-3.2,3.2-8.3,3.2-11.5,0s-3.2-8.3,0-11.5l0,0l11.5-11.5c3.2-3.2,8.3-3.2,11.5,0s3.2,8.3,0,11.5L196.8,232z M231.4,197.5
	c-3.2,3.2-8.3,3.2-11.5,0s-3.2-8.3,0-11.5l11.5-11.5c3.2-3.1,8.4-3,11.5,0.2c3,3.1,3,8.1,0,11.3L231.4,197.5z M265.9,163
	c-3.2,3.2-8.3,3.2-11.5,0c-3.2-3.2-3.2-8.3,0-11.5l11.5-11.5c3.2-3.2,8.3-3.2,11.5,0s3.2,8.3,0,11.5L265.9,163z"/>
<path class="st1" d="M213.5,295.8c-2-2-2-5.2,0-7.2c0.9-0.9,2.2-1.5,3.6-1.5l156.4-0.4c2.8,0,5.1,2.3,5.1,5.1c0,2.8-2.3,5.1-5.1,5.1
	c0,0,0,0,0,0l-156.4,0.4C215.8,297.3,214.5,296.7,213.5,295.8z"/>
<path class="st1" d="M272,257.2c-9.7-9.8-9.7-25.6,0.1-35.4c9.8-9.7,25.6-9.7,35.4,0.1c9.7,9.8,9.7,25.5,0,35.3
	C297.6,267,281.8,267,272,257.2z M300.3,228.9c-5.8-5.8-15.3-5.8-21.1,0s-5.8,15.3,0,21.1s15.3,5.8,21.1,0c0,0,0,0,0,0
	C306.1,244.2,306.1,234.8,300.3,228.9L300.3,228.9z"/>
<path class="st1" d="M283.2,362.3c-9.7-9.8-9.7-25.6,0.1-35.4c9.8-9.7,25.6-9.7,35.4,0.1c9.7,9.8,9.7,25.5,0,35.3
	C308.8,372,293,372,283.2,362.3z M311.5,334c-5.8-5.8-15.3-5.8-21.1,0s-5.8,15.3,0,21.1s15.3,5.8,21.1,0c0,0,0,0,0,0
	C317.3,349.3,317.3,339.8,311.5,334z"/>
</svg>
