<?xml version="1.0" encoding="utf-8"?>
<!-- Generator: Adobe Illustrator 23.1.0, SVG Export Plug-In . SVG Version: 6.00 Build 0)  -->
<svg version="1.1" id="Layer_1" xmlns="http://www.w3.org/2000/svg" xmlns:xlink="http://www.w3.org/1999/xlink" x="0px" y="0px"
	 viewBox="0 0 100 100" style="enable-background:new 0 0 100 100;" xml:space="preserve">
<style type="text/css">
	.st0{fill:#E264AB;stroke:#231F20;stroke-width:1.5;stroke-miterlimit:10;}
	.st1{fill:#221F20;stroke:#221F20;stroke-width:1.5;stroke-miterlimit:10;}
	.st2{fill:#5D8DBD;stroke:#231F20;stroke-width:1.5;stroke-linejoin:bevel;}
	.st3{fill:#FFD44D;}
	.st4{fill:#221F20;stroke:#221F20;stroke-width:1.5;stroke-linejoin:round;}
	.st5{fill:#F5C7E0;stroke:#221F20;stroke-width:1.5;stroke-linejoin:bevel;}
</style>
<g>
	<path class="st0" d="M80.5,41.7l-1.3,0.8l-11.3,7c-0.7,0.4-1.6,0.2-2-0.5l-7.7-12.5c-2.1-3.5-1.1-8,2.4-10.1c1.7-1,3.6-1.3,5.5-0.9
		c1.9,0.4,3.5,1.6,4.6,3.3l0.8,1.2l1.3-0.8c3.4-2.1,8-1.1,10.1,2.4C85.1,35,84,39.6,80.5,41.7C80.6,41.7,80.6,41.7,80.5,41.7z"/>
	<path class="st0" d="M48.3,36.8L47.3,38l-8.3,10.3c-0.5,0.6-1.4,0.7-2,0.2l-11.5-9.2c-3.2-2.5-3.7-7.1-1.2-10.3c0,0,0,0,0,0
		c2.5-3.2,7.2-3.7,10.3-1.1l1.2,0.9l0.9-1.2c2.5-3.2,7.2-3.7,10.3-1.1C50.3,29,50.8,33.6,48.3,36.8C48.3,36.8,48.3,36.8,48.3,36.8z"
		/>
	<polygon class="st1" points="59,21.9 60.8,32.2 70.3,36.6 61.1,41.5 59.9,51.9 52.3,44.6 42.1,46.7 46.7,37.3 41.5,28.2 51.9,29.6 
		56.3,21.9 	"/>
	<polygon class="st2" points="56.3,21.9 58.2,32.2 67.7,36.6 58.5,41.5 57.3,51.9 49.7,44.6 39.5,46.7 44,37.3 38.9,28.2 49.3,29.6 
			"/>
	<path class="st3" d="M69.7,52.5c-0.8,0.8-0.3-0.8-1.4-0.3s-2.6,2.1-3.8,2.5c-1.4,0.5-2.1,0.6-2.5,1.2c0,0-2,3.4-1.7,3.8
		s3.4-1.6,3.4-0.7s-0.7,2.3,1.5,1c2.2-1.3,3.8-2.8,4.6-5.3S70.5,51.7,69.7,52.5z"/>
	<path class="st3" d="M65.2,46.1c-0.5,0.3-1.7,0.7-1.7,1.1c0,0,0,1.5,0.4,1.9c0.4,0.4,1.3,0.6,1.5,0.2s1.3-1.7,1.1-2.1
		s-0.5-0.7-0.2-1.1S66.3,45,66.1,45S65.7,45.8,65.2,46.1z"/>
	<path class="st3" d="M64.6,50.5c-1-0.4-2.5-0.7-2.3,0c0,0,1.4,0.4,2.5,0.6c1.1,0.2,2.9,0.2,2.7-0.2S65.6,50.9,64.6,50.5z"/>
	<path class="st3" d="M67.3,48.1c0,0-0.7-0.1-0.9,0.2s-0.6,1.2-0.4,1.5s0.5-0.9,0.6-0.6s0.3,1.1,0.5,0.4s0-1,0.2-1.1
		S67.7,48.2,67.3,48.1z"/>
	<path class="st3" d="M67.1,47.6c0,0,1-0.1,1.1-0.4S66.5,47.3,67.1,47.6z"/>
	<path class="st3" d="M71.8,50.4c0.4-0.5,0.1-1.1-0.2-1.7s-0.7,0-1.1-0.1s-0.6-1.3-1.2-0.5c0.1,0.2,0.2,0.4,0.4,0.6
		c0.2,0.2-0.1,0.6,0.3,1s-0.1,0.9,0,1.2s0.5,0.7,0.8,0.3s0.5-0.4,0.5,0s0.2,0.9,0.5,0.5S71.4,51,71.8,50.4z"/>
	<polygon class="st4" points="18.5,77.2 30.7,77.2 29.8,73.6 18.4,73.6 	"/>
	<path class="st1" d="M70.2,79.2H40.4l-7.9-37.9h48.9L74.1,76C73.7,77.8,72.1,79.2,70.2,79.2z"/>
	<path class="st1" d="M83.6,42.2L82.1,49c-0.3,1.5-1.6,2.5-3.1,2.5h-4.3l-1.9-9.3H83.6z"/>
	<path class="st5" d="M60.1,79.2H34.2c-1.9,0-3.5-1.3-3.9-3.2L23,41.3h49l-7.1,34C64.4,77.6,62.4,79.2,60.1,79.2z"/>
	<path class="st5" d="M73.8,42.2l-1.5,7.3c-0.2,1.2-1.3,2-2.5,2h-46c-1.2,0-2.2-0.8-2.5-2l-1.5-7.3H73.8z"/>
	<path class="st0" d="M32.4,58l12.4-12.3c0.9-0.9,2.4-0.9,3.4,0l0,0c0.9,0.9,0.9,2.4,0,3.4L20.4,76.5c-1,1-2.7,1-3.7,0l-0.1-0.2
		c-0.8-0.7-0.8-2,0-2.7c0,0,0,0,0,0l8-7.9"/>
</g>
</svg>
