<svg id="visual" viewBox="0 0 900 450" width="900" height="450" xmlns="http://www.w3.org/2000/svg" xmlns:xlink="http://www.w3.org/1999/xlink" version="1.1"><rect x="0" y="0" width="900" height="450" fill="#c2dcf7"></rect><defs><linearGradient id="grad1_0" x1="50%" y1="100%" x2="100%" y2="0%"><stop offset="10%" stop-color="#f6d5e7" stop-opacity="1"></stop><stop offset="90%" stop-color="#f6d5e7" stop-opacity="1"></stop></linearGradient></defs><defs><linearGradient id="grad1_1" x1="50%" y1="100%" x2="100%" y2="0%"><stop offset="10%" stop-color="#f6d5e7" stop-opacity="1"></stop><stop offset="90%" stop-color="#e8d6f1" stop-opacity="1"></stop></linearGradient></defs><defs><linearGradient id="grad1_2" x1="50%" y1="100%" x2="100%" y2="0%"><stop offset="10%" stop-color="#d5d9f7" stop-opacity="1"></stop><stop offset="90%" stop-color="#e8d6f1" stop-opacity="1"></stop></linearGradient></defs><defs><linearGradient id="grad1_3" x1="50%" y1="100%" x2="100%" y2="0%"><stop offset="10%" stop-color="#d5d9f7" stop-opacity="1"></stop><stop offset="90%" stop-color="#c2dcf7" stop-opacity="1"></stop></linearGradient></defs><defs><linearGradient id="grad2_0" x1="0%" y1="100%" x2="50%" y2="0%"><stop offset="10%" stop-color="#f6d5e7" stop-opacity="1"></stop><stop offset="90%" stop-color="#f6d5e7" stop-opacity="1"></stop></linearGradient></defs><defs><linearGradient id="grad2_1" x1="0%" y1="100%" x2="50%" y2="0%"><stop offset="10%" stop-color="#e8d6f1" stop-opacity="1"></stop><stop offset="90%" stop-color="#f6d5e7" stop-opacity="1"></stop></linearGradient></defs><defs><linearGradient id="grad2_2" x1="0%" y1="100%" x2="50%" y2="0%"><stop offset="10%" stop-color="#e8d6f1" stop-opacity="1"></stop><stop offset="90%" stop-color="#d5d9f7" stop-opacity="1"></stop></linearGradient></defs><defs><linearGradient id="grad2_3" x1="0%" y1="100%" x2="50%" y2="0%"><stop offset="10%" stop-color="#c2dcf7" stop-opacity="1"></stop><stop offset="90%" stop-color="#d5d9f7" stop-opacity="1"></stop></linearGradient></defs><g transform="translate(900, 450)"><path d="M-427.5 0C-421 -54.7 -414.4 -109.4 -395 -163.6C-375.5 -217.8 -343.1 -271.6 -297 -297C-250.9 -322.3 -191.1 -319.3 -139.3 -336.3C-87.5 -353.3 -43.8 -390.4 0 -427.5L0 0Z" fill="#ccdbf8"></path><path d="M-320.6 0C-315.7 -41 -310.8 -82 -296.2 -122.7C-281.6 -163.4 -257.3 -203.7 -222.7 -222.7C-188.2 -241.8 -143.3 -239.5 -104.5 -252.2C-65.6 -265 -32.8 -292.8 0 -320.6L0 0Z" fill="#dfd7f5"></path><path d="M-213.7 0C-210.5 -27.3 -207.2 -54.7 -197.5 -81.8C-187.7 -108.9 -171.5 -135.8 -148.5 -148.5C-125.4 -161.2 -95.5 -159.6 -69.6 -168.1C-43.8 -176.7 -21.9 -195.2 0 -213.7L0 0Z" fill="#f0d5ed"></path><path d="M-106.9 0C-105.2 -13.7 -103.6 -27.3 -98.7 -40.9C-93.9 -54.5 -85.8 -67.9 -74.2 -74.2C-62.7 -80.6 -47.8 -79.8 -34.8 -84.1C-21.9 -88.3 -10.9 -97.6 0 -106.9L0 0Z" fill="#f6d5e7"></path></g><g transform="translate(0, 0)"><path d="M427.5 0C424.1 58.7 420.6 117.4 395 163.6C369.3 209.8 321.4 243.3 280 280C238.6 316.7 203.6 356.5 158 381.6C112.5 406.7 56.2 417.1 0 427.5L0 0Z" fill="#ccdbf8"></path><path d="M320.6 0C318 44 315.5 88.1 296.2 122.7C277 157.3 241.1 182.5 210 210C178.9 237.5 152.7 267.3 118.5 286.2C84.3 305 42.2 312.8 0 320.6L0 0Z" fill="#dfd7f5"></path><path d="M213.8 0C212 29.4 210.3 58.7 197.5 81.8C184.7 104.9 160.7 121.7 140 140C119.3 158.3 101.8 178.2 79 190.8C56.2 203.3 28.1 208.5 0 213.8L0 0Z" fill="#f0d5ed"></path><path d="M106.9 0C106 14.7 105.2 29.4 98.7 40.9C92.3 52.4 80.4 60.8 70 70C59.6 79.2 50.9 89.1 39.5 95.4C28.1 101.7 14.1 104.3 0 106.9L0 0Z" fill="#f6d5e7"></path></g></svg>