<svg id="visual" viewBox="0 0 900 450" width="900" height="450" xmlns="http://www.w3.org/2000/svg" xmlns:xlink="http://www.w3.org/1999/xlink" version="1.1"><path d="M0 325L21.5 330.8C43 336.7 86 348.3 128.8 354.2C171.7 360 214.3 360 257.2 353.2C300 346.3 343 332.7 385.8 326.7C428.7 320.7 471.3 322.3 514.2 327C557 331.7 600 339.3 642.8 338.8C685.7 338.3 728.3 329.7 771.2 331.3C814 333 857 345 878.5 351L900 357L900 451L878.5 451C857 451 814 451 771.2 451C728.3 451 685.7 451 642.8 451C600 451 557 451 514.2 451C471.3 451 428.7 451 385.8 451C343 451 300 451 257.2 451C214.3 451 171.7 451 128.8 451C86 451 43 451 21.5 451L0 451Z" fill="#f5c7e0"></path><path d="M0 328L21.5 333.8C43 339.7 86 351.3 128.8 355.2C171.7 359 214.3 355 257.2 355.2C300 355.3 343 359.7 385.8 362.2C428.7 364.7 471.3 365.3 514.2 362.2C557 359 600 352 642.8 347.3C685.7 342.7 728.3 340.3 771.2 339.7C814 339 857 340 878.5 340.5L900 341L900 451L878.5 451C857 451 814 451 771.2 451C728.3 451 685.7 451 642.8 451C600 451 557 451 514.2 451C471.3 451 428.7 451 385.8 451C343 451 300 451 257.2 451C214.3 451 171.7 451 128.8 451C86 451 43 451 21.5 451L0 451Z" fill="#e9cced"></path><path d="M0 353L21.5 356.2C43 359.3 86 365.7 128.8 371.3C171.7 377 214.3 382 257.2 383.3C300 384.7 343 382.3 385.8 381.3C428.7 380.3 471.3 380.7 514.2 380.5C557 380.3 600 379.7 642.8 381.5C685.7 383.3 728.3 387.7 771.2 386.8C814 386 857 380 878.5 377L900 374L900 451L878.5 451C857 451 814 451 771.2 451C728.3 451 685.7 451 642.8 451C600 451 557 451 514.2 451C471.3 451 428.7 451 385.8 451C343 451 300 451 257.2 451C214.3 451 171.7 451 128.8 451C86 451 43 451 21.5 451L0 451Z" fill="#dbd2f5"></path><path d="M0 404L21.5 403.8C43 403.7 86 403.3 128.8 401.5C171.7 399.7 214.3 396.3 257.2 392.3C300 388.3 343 383.7 385.8 381.7C428.7 379.7 471.3 380.3 514.2 382.3C557 384.3 600 387.7 642.8 392C685.7 396.3 728.3 401.7 771.2 403.8C814 406 857 405 878.5 404.5L900 404L900 451L878.5 451C857 451 814 451 771.2 451C728.3 451 685.7 451 642.8 451C600 451 557 451 514.2 451C471.3 451 428.7 451 385.8 451C343 451 300 451 257.2 451C214.3 451 171.7 451 128.8 451C86 451 43 451 21.5 451L0 451Z" fill="#cdd7f8"></path><path d="M0 404L21.5 406.3C43 408.7 86 413.3 128.8 415.2C171.7 417 214.3 416 257.2 414.7C300 413.3 343 411.7 385.8 409.5C428.7 407.3 471.3 404.7 514.2 405C557 405.3 600 408.7 642.8 411.8C685.7 415 728.3 418 771.2 416.8C814 415.7 857 410.3 878.5 407.7L900 405L900 451L878.5 451C857 451 814 451 771.2 451C728.3 451 685.7 451 642.8 451C600 451 557 451 514.2 451C471.3 451 428.7 451 385.8 451C343 451 300 451 257.2 451C214.3 451 171.7 451 128.8 451C86 451 43 451 21.5 451L0 451Z" fill="#c2dcf7"></path></svg>