<svg id="visual" viewBox="0 0 500 70" width="500" height="70" xmlns="http://www.w3.org/2000/svg" xmlns:xlink="http://www.w3.org/1999/xlink" version="1.1"><path d="M0 58L6.3 58.8C12.7 59.7 25.3 61.3 38.2 58.3C51 55.3 64 47.7 76.8 44.2C89.7 40.7 102.3 41.3 115.2 44.5C128 47.7 141 53.3 153.8 55.7C166.7 58 179.3 57 192.2 53.8C205 50.7 218 45.3 230.8 42.8C243.7 40.3 256.3 40.7 269.2 42.3C282 44 295 47 307.8 50.7C320.7 54.3 333.3 58.7 346.2 59.5C359 60.3 372 57.7 384.8 56.2C397.7 54.7 410.3 54.3 423.2 51.7C436 49 449 44 461.8 43.7C474.7 43.3 487.3 47.7 493.7 49.8L500 52" fill="none" stroke-linecap="round" stroke-linejoin="miter" stroke="#f5c7e0" stroke-width="60"></path></svg>