<?xml version="1.0" standalone="no"?><svg xmlns="http://www.w3.org/2000/svg" viewBox="0 0 1440 320"><path fill="#E99EC9" fill-opacity="1" d="M0,288L13.3,266.7C26.7,245,53,203,80,186.7C106.7,171,133,181,160,160C186.7,139,213,85,240,64C266.7,43,293,53,320,85.3C346.7,117,373,171,400,170.7C426.7,171,453,117,480,117.3C506.7,117,533,171,560,208C586.7,245,613,267,640,277.3C666.7,288,693,288,720,261.3C746.7,235,773,181,800,170.7C826.7,160,853,192,880,208C906.7,224,933,224,960,192C986.7,160,1013,96,1040,85.3C1066.7,75,1093,117,1120,144C1146.7,171,1173,181,1200,192C1226.7,203,1253,213,1280,202.7C1306.7,192,1333,160,1360,165.3C1386.7,171,1413,213,1427,234.7L1440,256L1440,0L1426.7,0C1413.3,0,1387,0,1360,0C1333.3,0,1307,0,1280,0C1253.3,0,1227,0,1200,0C1173.3,0,1147,0,1120,0C1093.3,0,1067,0,1040,0C1013.3,0,987,0,960,0C933.3,0,907,0,880,0C853.3,0,827,0,800,0C773.3,0,747,0,720,0C693.3,0,667,0,640,0C613.3,0,587,0,560,0C533.3,0,507,0,480,0C453.3,0,427,0,400,0C373.3,0,347,0,320,0C293.3,0,267,0,240,0C213.3,0,187,0,160,0C133.3,0,107,0,80,0C53.3,0,27,0,13,0L0,0Z"></path></svg>