<svg id="visual" viewBox="0 0 500 50" width="500" height="50" xmlns="http://www.w3.org/2000/svg" xmlns:xlink="http://www.w3.org/1999/xlink" version="1.1"><path d="M0 41L6.3 41.7C12.7 42.3 25.3 43.7 38.2 41.5C51 39.3 64 33.7 76.8 31C89.7 28.3 102.3 28.7 115.2 31C128 33.3 141 37.7 153.8 39.5C166.7 41.3 179.3 40.7 192.2 38.3C205 36 218 32 230.8 30.2C243.7 28.3 256.3 28.7 269.2 29.8C282 31 295 33 307.8 35.7C320.7 38.3 333.3 41.7 346.2 42.3C359 43 372 41 384.8 39.8C397.7 38.7 410.3 38.3 423.2 36.5C436 34.7 449 31.3 461.8 31.2C474.7 31 487.3 34 493.7 35.5L500 37" fill="none" stroke-linecap="round" stroke-linejoin="miter" stroke="#f5c7e0" stroke-width="50"></path></svg>