<svg xmlns="http://www.w3.org/2000/svg" viewBox="0 0 400 300" data-imageid="surfing-c" imageName="Balloon" class="illustrations_image" style="width: 219px;"><g id="_25" data-name="#25"><path d="M93.48,237.24H67.12c-5.34,0-9.69-3.57-9.69-8,0-4.2,4-7.68,9.11-7.93.81-6.86,7.93-12.17,16.43-12.17a20.28,20.28,0,0,1,2.92.21,10.56,10.56,0,0,1,9.1-4.64c5.41,0,9.84,3.49,10.12,7.87a12.12,12.12,0,0,1,3.66-.56c5.59,0,10.14,3.73,10.14,8.32a7,7,0,0,1-.2,1.63.5.5,0,0,1-.61.37.51.51,0,0,1-.36-.61,6,6,0,0,0,.17-1.39c0-4-4.1-7.32-9.14-7.32a10.94,10.94,0,0,0-4,.74.5.5,0,0,1-.47-.06.49.49,0,0,1-.21-.43l0-.24c0-4-4.1-7.32-9.14-7.32-3.65,0-6.94,1.73-8.39,4.42a.5.5,0,0,1-.52.26,19,19,0,0,0-3.11-.25c-8.17,0-15,5.14-15.48,11.7a.52.52,0,0,1-.49.46c-4.73.05-8.57,3.16-8.57,6.94s3.9,7,8.69,7H93.48a.5.5,0,1,1,0,1Z" fill="#d1d3d4"/><path d="M149.06,122.53a.5.5,0,0,1,0-1c6.36,0,11.53-4.15,11.53-9.25s-5.1-9.18-11.37-9.25a.49.49,0,0,1-.49-.46c-.68-8.67-9.65-15.46-20.43-15.46a25.36,25.36,0,0,0-4.09.33.5.5,0,0,1-.52-.26c-1.93-3.57-6.29-5.87-11.12-5.87-6.68,0-12.12,4.37-12.12,9.74a.92.92,0,0,0,0,.16v.16a.5.5,0,0,1-.68.49,14.44,14.44,0,0,0-5.26-1c-6.69,0-12.13,4.37-12.13,9.74a8.11,8.11,0,0,0,.23,1.87.45.45,0,0,1-.08.4.47.47,0,0,1-.35.21c-5.76.57-10.11,4.52-10.11,9.18,0,5.1,5.17,9.25,11.53,9.25h26.57a.5.5,0,0,1,0,1H83.62c-6.91,0-12.53-4.6-12.53-10.25,0-5,4.46-9.29,10.45-10.11a9.11,9.11,0,0,1-.14-1.55c0-5.92,5.89-10.74,13.13-10.74a15.75,15.75,0,0,1,4.93.79c.24-5.74,6-10.36,13.11-10.36,5.05,0,9.65,2.38,11.83,6.09a25.32,25.32,0,0,1,3.9-.29c11.11,0,20.4,7,21.38,15.93,6.61.27,11.91,4.78,11.91,10.24C161.59,117.93,156,122.53,149.06,122.53Z" fill="#d1d3d4"/><path d="M238.86,115.89a.38.38,0,0,1-.37-.33l-6.77-47.83a.39.39,0,0,1,.32-.42.37.37,0,0,1,.43.32l6.76,47.83a.37.37,0,0,1-.31.42Z" fill="#d1d3d4"/><path d="M237.88,116.17a.38.38,0,0,1-.29-.14l-45.1-53.56a.38.38,0,0,1,0-.53.39.39,0,0,1,.53,0l45.1,53.57a.38.38,0,0,1-.29.62Z" fill="#d1d3d4"/><path d="M239.43,115.82a.32.32,0,0,1-.14,0,.37.37,0,0,1-.21-.49l17.55-43.45a.37.37,0,0,1,.49-.21.38.38,0,0,1,.21.49l-17.56,43.45A.35.35,0,0,1,239.43,115.82Z" fill="#d1d3d4"/><path d="M238.86,115.89a.4.4,0,0,1-.32-.18L195.09,44a.37.37,0,1,1,.64-.38l43.45,71.68a.37.37,0,0,1-.12.51A.36.36,0,0,1,238.86,115.89Z" fill="#d1d3d4"/><ellipse cx="198.31" cy="41.32" rx="20.59" ry="23.06" transform="translate(8.38 111.74) rotate(-32.11)" fill="#fff"/><path d="M200.52,64.18a21.54,21.54,0,0,1-6-.87,25.5,25.5,0,0,1-17.66-28.14,19.83,19.83,0,0,1,8.94-13.77c9.83-6.17,23.44-2.25,30.33,8.73a24.85,24.85,0,0,1,3.62,17.34,19.87,19.87,0,0,1-8.94,13.77A19.29,19.29,0,0,1,200.52,64.18Zm-4.41-44.79a18.4,18.4,0,0,0-9.81,2.78,19,19,0,0,0-8.53,13.15A23.94,23.94,0,0,0,181.26,52a24,24,0,0,0,13.52,10.41,18.6,18.6,0,0,0,24.08-15.11,23.89,23.89,0,0,0-3.5-16.7h0C210.86,23.44,203.39,19.39,196.11,19.39Z" fill="#231f20"/><ellipse cx="261.76" cy="55.31" rx="24.69" ry="19.02" transform="matrix(0.25, -0.97, 0.97, 0.25, 141.57, 294.33)" fill="#fff"/><path d="M259.3,80.14a15.57,15.57,0,0,1-4-.51c-5-1.34-9.12-5.13-11.46-10.69a29.05,29.05,0,0,1-1-18.6,29,29,0,0,1,10-15.7c4.77-3.69,10.18-5,15.24-3.65s9.13,5.13,11.47,10.69a29.09,29.09,0,0,1,1,18.59h0A29.1,29.1,0,0,1,270.6,76,18.56,18.56,0,0,1,259.3,80.14Zm4.93-48.74a17.68,17.68,0,0,0-10.75,4,28.17,28.17,0,0,0-9.67,15.22,28.14,28.14,0,0,0,.92,18c2.23,5.29,6.08,8.89,10.86,10.15s9.9,0,14.45-3.48A28.28,28.28,0,0,0,279.72,60h0a28.27,28.27,0,0,0-.92-18c-2.23-5.29-6.09-8.9-10.86-10.15A14.15,14.15,0,0,0,264.23,31.4Z" fill="#231f20"/><ellipse cx="193.06" cy="60.68" rx="23.21" ry="29.57" transform="translate(-1.07 117.85) rotate(-33.86)" fill="#fff"/><path d="M198.71,88.88c-9.05,0-18.89-5.46-25.3-15a34.28,34.28,0,0,1-6.08-21.44c.53-7.22,3.73-13.14,9-16.68,10.83-7.26,27.15-2,36.38,11.76h0c9.22,13.75,7.91,30.85-2.92,38.12A19.73,19.73,0,0,1,198.71,88.88ZM187.42,33.39a18.8,18.8,0,0,0-10.58,3.11c-5,3.38-8.09,9.06-8.6,16a33.38,33.38,0,0,0,5.93,20.86c8.94,13.34,24.69,18.5,35.11,11.51S220.89,61.34,212,48C205.71,38.71,196.16,33.39,187.42,33.39Z" fill="#231f20"/><ellipse cx="229.51" cy="46.43" rx="29.77" ry="37.76" transform="translate(-3.22 20.61) rotate(-5.11)" fill="#68e1fd" class="target-color"/><path d="M232.08,128.68a25.52,25.52,0,0,0,1.23-4.06c0-.67-1.08-3-.59-5s1.73-3.44,2.92-3.5,3.53-.49,3.53-.49a2,2,0,0,1,1.35-2,5.07,5.07,0,0,1,4,1.15,18.64,18.64,0,0,1,1.16,7.79c-.43,2.1-3.28,3.87-4.78,5.93a13.16,13.16,0,0,0-2,4.2" fill="#fff"/><path d="M238.91,133.08h-.11a.46.46,0,0,1-.34-.55,13.47,13.47,0,0,1,2.09-4.37,17.83,17.83,0,0,1,2.1-2.27c1.21-1.18,2.36-2.3,2.6-3.48.41-2-.71-6.94-1.06-7.41a4.77,4.77,0,0,0-3.54-1,1.53,1.53,0,0,0-1,1.58.46.46,0,0,1-.37.48c-.1,0-2.39.43-3.6.5-.88,0-2,1.14-2.5,3.14a8.19,8.19,0,0,0,.39,3.94,6,6,0,0,1,.22,1,22,22,0,0,1-1.26,4.25.46.46,0,0,1-.59.26.44.44,0,0,1-.27-.58,22.82,22.82,0,0,0,1.2-3.87,4.32,4.32,0,0,0-.18-.77,9,9,0,0,1-.39-4.4c.51-2.19,1.88-3.77,3.33-3.85.87,0,2.42-.3,3.12-.42a2.32,2.32,0,0,1,1.68-2.1,5.53,5.53,0,0,1,4.48,1.29c.56.66,1.7,6,1.26,8.18-.3,1.46-1.6,2.73-2.86,4a19,19,0,0,0-2,2.16,12.68,12.68,0,0,0-1.94,4A.46.46,0,0,1,238.91,133.08Z" fill="#231f20"/><path d="M236.71,124.12a.45.45,0,0,1-.32-.13.46.46,0,0,1,0-.65,2.65,2.65,0,0,0-.56-4.12.46.46,0,0,1,.17-.85,10.82,10.82,0,0,0,3.9-1.09,2,2,0,0,0-.58-.88,1,1,0,0,0-.77-.27.46.46,0,0,1-.16-.9,2.19,2.19,0,0,1,2.12,1.19c.16.27.5.94.17,1.36-.54.68-2.37,1.12-3.55,1.33A3.55,3.55,0,0,1,237,124,.47.47,0,0,1,236.71,124.12Z" fill="#231f20"/><path d="M241.43,125a1.63,1.63,0,0,1-.82-.26c-1.3-.78-2.5-5.19-2.46-6.44a.47.47,0,0,1,.48-.44.46.46,0,0,1,.44.47c0,1.22,1.17,5.12,2,5.63a.68.68,0,0,0,.37.12,1,1,0,0,0,.35-.15,10.42,10.42,0,0,0,1.79-1.36.46.46,0,1,1,.63.66,11.25,11.25,0,0,1-1.95,1.48,1.73,1.73,0,0,1-.74.28Z" fill="#231f20"/><path d="M163.42,210.3a13.4,13.4,0,0,0-1,4.1c.09,1.36,1.09,3.64.54,5.18-.26.76-2.59-2-2.78-2.47a11.68,11.68,0,0,0-.33,4.22,2.78,2.78,0,0,1-.72,2.27c-.84.66-2.07.22-3-.26-3.22-1.57-2.25-4.5-1.85-7.6a40.78,40.78,0,0,1,2.43-9.62" fill="#fff"/><path d="M158.1,224.39a5.35,5.35,0,0,1-2.2-.63c-3.1-1.52-2.68-4.25-2.28-6.89.06-.39.13-.79.18-1.19a41.71,41.71,0,0,1,2.46-9.73.46.46,0,0,1,.85.33,40.55,40.55,0,0,0-2.41,9.52c0,.41-.11.81-.17,1.21-.41,2.63-.73,4.7,1.77,5.92,1.24.61,2,.7,2.55.31a2.44,2.44,0,0,0,.54-1.9v-.68a9.73,9.73,0,0,1,.37-3.71.44.44,0,0,1,.42-.3h0a.44.44,0,0,1,.42.3,9.53,9.53,0,0,0,2,2.21,7.8,7.8,0,0,0-.33-3,10.3,10.3,0,0,1-.32-1.69,14,14,0,0,1,1-4.3.47.47,0,0,1,.6-.25.46.46,0,0,1,.25.59,12.83,12.83,0,0,0-1,3.9,10.54,10.54,0,0,0,.3,1.54,7.17,7.17,0,0,1,.22,3.82.62.62,0,0,1-.6.44c-.64,0-1.73-1.12-2.42-2a14,14,0,0,0-.08,2.44l0,.7a3.18,3.18,0,0,1-.89,2.62A2.06,2.06,0,0,1,158.1,224.39Z" fill="#231f20"/><path d="M206.09,264.35s2,6.41,1.5,9.82-5.05,13.92-7.92,12-1.36-18.69-1.36-18.69Z" fill="#fff"/><path d="M200.41,286.87a1.73,1.73,0,0,1-1-.31c-3-2-1.72-17.37-1.57-19.11a.48.48,0,0,1,.29-.39l7.78-3.14a.5.5,0,0,1,.36,0,.47.47,0,0,1,.24.28c.09.26,2.08,6.56,1.52,10-.47,2.95-3.86,11.15-6.78,12.43A2.08,2.08,0,0,1,200.41,286.87Zm-1.67-19.07c-.55,6.42-.71,16.74,1.19,18a.91.91,0,0,0,1,0c2.43-1.06,5.76-8.71,6.25-11.74.44-2.74-.89-7.61-1.34-9.14Z" fill="#231f20"/><path d="M213,271.49s-1.09,7.64.91,12.19,5.46,5.46,7.46,1.82,2.36-9.46.54-15.47" fill="#fff"/><path d="M218.27,288.2h-.14c-1.8-.08-3.5-1.66-4.68-4.34-2-4.61-1-12.12-.95-12.44A.46.46,0,0,1,213,271a.45.45,0,0,1,.39.51c0,.08-1,7.57.87,11.95,1,2.31,2.48,3.72,3.89,3.79,1,0,2-.67,2.76-2,2-3.68,2.22-9.47.51-15.11a.46.46,0,1,1,.87-.27c1.78,5.87,1.56,11.93-.58,15.82A4.09,4.09,0,0,1,218.27,288.2Z" fill="#231f20"/><path d="M150.84,189.17a25.75,25.75,0,0,1-10.63-2c-4.68-2.1-8.1-5.95-9.13-10.3-1.76-7.44,3.51-14.51,8.56-18.31a67.84,67.84,0,0,1,10.22-6c2.65-1.36,5.4-2.76,7.92-4.39,4.67-3,8.14-7.25,11.49-11.34,4.48-5.46,9.11-11.1,16.57-13.76,1.09-.38,4.6-1.42,6.48.58a5.19,5.19,0,0,1,5.44-.48,10.92,10.92,0,0,1,4.25,4.07,29.62,29.62,0,0,1,4.65,19.88.46.46,0,0,1-.51.4.47.47,0,0,1-.4-.51,28.65,28.65,0,0,0-4.5-19.26,10.13,10.13,0,0,0-3.87-3.75,4.24,4.24,0,0,0-4.77.63.42.42,0,0,1-.36.14.48.48,0,0,1-.35-.19c-1.39-2-4.75-1-5.75-.65-7.22,2.57-11.57,7.87-16.17,13.48-3.4,4.14-6.92,8.43-11.7,11.53a89.72,89.72,0,0,1-8,4.43,68,68,0,0,0-10.09,5.9c-4.83,3.63-9.88,10.36-8.22,17.37a14.78,14.78,0,0,0,8.62,9.67c3.66,1.64,8,2.25,13.34,1.84a.44.44,0,0,1,.49.42.46.46,0,0,1-.42.49C152.91,189.13,151.85,189.17,150.84,189.17Z" fill="#231f20"/><polygon points="210.81 197.27 205.06 150.88 183.4 152.61 185.89 199.38 210.81 197.27" fill="#fff"/><path d="M185.89,199.83a.48.48,0,0,1-.3-.11.44.44,0,0,1-.15-.32L183,152.63a.45.45,0,0,1,.42-.48L205,150.43a.44.44,0,0,1,.49.4l5.75,46.38a.45.45,0,0,1-.09.34.46.46,0,0,1-.32.17l-24.92,2.11Zm-2-46.8,2.44,45.85,24-2-5.64-45.48Z" fill="#231f20"/><path d="M183.57,199.25s-.55,26.75.27,37.39,13.51,36,13.51,36l10.1-6.28s-5.59-33-5-45c0,0,9.65,37,9.1,50.49a6.32,6.32,0,0,0,6.73,2.73c4.78-.82,5.74-2.45,5.74-2.45s1.09-54.87-7.37-77.52" fill="#231f20"/><path d="M216.85,275.15a6.67,6.67,0,0,1-5.73-3.08.48.48,0,0,1-.06-.24c.44-10.86-5.88-37.52-8.23-47,.38,13.74,5,41.16,5.06,41.46a.44.44,0,0,1-.21.45l-10.09,6.28a.5.5,0,0,1-.36.05.44.44,0,0,1-.27-.23c-.52-1-12.74-25.58-13.56-36.19s-.28-37.17-.27-37.44a.46.46,0,0,1,.45-.43.44.44,0,0,1,.43.45c0,.26-.54,26.85.27,37.35.75,9.68,11.58,32,13.25,35.43l9.44-5.86c-.55-3.31-5.52-33.53-5-44.84a.44.44,0,0,1,.4-.42.43.43,0,0,1,.47.33c.09.37,9.59,37,9.12,50.49a5.89,5.89,0,0,0,6.21,2.41c3.84-.66,5.1-1.86,5.37-2.17.05-3.12.78-55.46-7.35-77.22a.45.45,0,0,1,.26-.57.46.46,0,0,1,.57.26c8.39,22.48,7.41,77.14,7.4,77.68a.55.55,0,0,1-.06.22c-.11.18-1.2,1.84-6,2.67A9.63,9.63,0,0,1,216.85,275.15Z" fill="#231f20"/><path d="M178.42,174.94l-1.63,25.92,14.81,1.58-.48-46.86,9.83,1.09c0,.47,5.34,32.65,6.6,42.9l13.8-2.69L214.72,173s-6.08-25.2-5.77-25.2c-.31,0-30.5,2.56-36.06,10S178.42,174.94,178.42,174.94Z" fill="#68e1fd" class="target-color"/><path d="M199.93,147.71s2.29,7.43,2.29,7.43.61,4.4-4.33,4.62a9.84,9.84,0,0,1-7.75-3.37s-5.29-18.28-5.65-19.62c.87.12,3.29.27,4-.3s.05-3.13-.11-4a10.3,10.3,0,0,1,2.49,3.08l3.11-.87a9,9,0,0,0-.56-3.59A8.22,8.22,0,0,1,195.7,134c.87-.27,4-1.8,4.71-1.26,1.11.79,3.9,7.82,2.7,11S199.93,147.71,199.93,147.71Z" fill="#fff"/><path d="M197.46,160.22a10.24,10.24,0,0,1-7.68-3.55.8.8,0,0,1-.08-.16c-.21-.74-5.29-18.3-5.65-19.62a.45.45,0,0,1,.1-.42.41.41,0,0,1,.4-.15c1.19.16,3.18.18,3.64-.2.15-.12.31-.69-.2-3.18l-.07-.36a.46.46,0,0,1,.22-.48.45.45,0,0,1,.52,0,10.55,10.55,0,0,1,2.42,2.9l2.45-.69a8.56,8.56,0,0,0-.55-3.08.46.46,0,0,1,.16-.53.45.45,0,0,1,.55,0,8.52,8.52,0,0,1,2.24,2.71l.57-.23c1.93-.79,3.45-1.35,4.17-.83,1.32.93,4.12,8.2,2.87,11.51a7.78,7.78,0,0,1-3.06,4c.19.64.73,2.37,2.18,7.07a4.87,4.87,0,0,1-1,3.6,5,5,0,0,1-3.78,1.6Zm-6.91-4.05a9.54,9.54,0,0,0,7.32,3.13A4.13,4.13,0,0,0,201,158a4.08,4.08,0,0,0,.78-2.83s-2.24-7.22-2.28-7.35a.45.45,0,0,1,.26-.56,6.38,6.38,0,0,0,2.93-3.7c1.13-3-1.65-9.81-2.54-10.44-.39-.25-2.57.64-3.29.93a10.44,10.44,0,0,1-1,.39.46.46,0,0,1-.55-.24,7.65,7.65,0,0,0-1-1.59,9.75,9.75,0,0,1,.13,2.09.45.45,0,0,1-.33.41L191,136a.45.45,0,0,1-.53-.22,9.87,9.87,0,0,0-1.36-2c.22,1.33.27,2.52-.32,3s-2.63.55-3.66.47C186.07,140.66,190.18,154.88,190.55,156.17Z" fill="#231f20"/><path d="M187.15,141.7a2.75,2.75,0,0,0-1.3-1.15,4.84,4.84,0,0,0-1.61-.3,1.91,1.91,0,0,0-.89.09,1.55,1.55,0,0,0-.51.37,2.1,2.1,0,0,0-.68,1.3,2.51,2.51,0,0,0,.28,1.16,4.92,4.92,0,0,0,.66,1.13,3.33,3.33,0,0,0,2.25,1.21,3.37,3.37,0,0,0,2.44-.76" fill="#fff"/><path d="M185.66,145.92h-.34a3.79,3.79,0,0,1-2.53-1.35,5.69,5.69,0,0,1-.72-1.23,3,3,0,0,1-.31-1.35,2.47,2.47,0,0,1,.8-1.55,2.07,2.07,0,0,1,.64-.46,2.29,2.29,0,0,1,1.06-.12,5.39,5.39,0,0,1,1.75.33,3.12,3.12,0,0,1,1.48,1.32.39.39,0,0,1-.14.54.4.4,0,0,1-.55-.14,2.28,2.28,0,0,0-1.1-1,4.53,4.53,0,0,0-1.48-.28,1.65,1.65,0,0,0-.72.07,1.13,1.13,0,0,0-.38.28,1.77,1.77,0,0,0-.56,1,2.18,2.18,0,0,0,.24,1,4.26,4.26,0,0,0,.61,1,2.92,2.92,0,0,0,2,1.06,3,3,0,0,0,2.15-.66.4.4,0,0,1,.51.61A3.73,3.73,0,0,1,185.66,145.92Z" fill="#231f20"/><path d="M200.7,150.68s-2.78,1.82-5.37.45a5.5,5.5,0,0,1-3-3.5s4.75,1.71,7.6.23Z" fill="#231f20"/><path d="M197.45,152.09a4.91,4.91,0,0,1-2.33-.57,5.89,5.89,0,0,1-3.2-3.81.44.44,0,0,1,.15-.42.45.45,0,0,1,.43-.08c.05,0,4.6,1.63,7.25.26a.45.45,0,0,1,.63.28l.75,2.82a.45.45,0,0,1-.18.48A7,7,0,0,1,197.45,152.09Zm-4.39-3.78a5.55,5.55,0,0,0,2.47,2.43,5.16,5.16,0,0,0,4.66-.27l-.53-2C197.43,149.33,194.5,148.71,193.06,148.31Z" fill="#231f20"/><path d="M194.78,137s3.56,2.79,3.19,3.6-2.09.91-2.09.91" fill="#fff"/><path d="M195.88,141.92a.44.44,0,0,1,0-.88c.59,0,1.55-.28,1.72-.66a12.23,12.23,0,0,0-3.06-3.06.44.44,0,1,1,.54-.7c1.75,1.37,3.75,3.2,3.33,4.13s-2.27,1.16-2.47,1.17Z" fill="#231f20"/><path d="M199.35,142.33s-1.11,3.88-5.88,2" fill="#fff"/><path d="M195.82,145.32a7.22,7.22,0,0,1-2.51-.52.44.44,0,0,1,.32-.83,4.53,4.53,0,0,0,3.68.13,3.41,3.41,0,0,0,1.62-1.89.44.44,0,0,1,.85.24,4.06,4.06,0,0,1-4,2.87Z" fill="#231f20"/><line x1="182.06" y1="194.01" x2="187.43" y2="190.37" fill="#fff"/><path d="M182.06,194.47a.46.46,0,0,1-.38-.2.46.46,0,0,1,.12-.64l5.37-3.64a.45.45,0,0,1,.63.12.46.46,0,0,1-.12.64l-5.36,3.64A.5.5,0,0,1,182.06,194.47Z" fill="#231f20"/><line x1="209.66" y1="188.64" x2="218.09" y2="192.09" fill="#fff"/><path d="M218.09,192.55a.38.38,0,0,1-.17,0l-8.43-3.45a.44.44,0,0,1-.25-.59.46.46,0,0,1,.59-.25l8.44,3.45a.46.46,0,0,1,.25.59A.46.46,0,0,1,218.09,192.55Z" fill="#231f20"/><path d="M205.36,148.66c1.32.56,10.7-4.78,26.22-21l8.69,3.27s-10.55,24.64-35.06,40.23Z" fill="#68e1fd" class="target-color"/><path d="M172.38,158.67c.09,1.13-18.2,32.75-18.2,52.41l10.56.54s10.58-27.49,16.55-36.21Z" fill="#68e1fd" class="target-color"/><line x1="179.38" y1="172.54" x2="178.8" y2="161.52" fill="#fff"/><path d="M179.38,173a.45.45,0,0,1-.46-.43l-.57-11a.46.46,0,1,1,.91,0l.57,11a.46.46,0,0,1-.43.48Z" fill="#231f20"/><path d="M189,139a.43.43,0,0,1-.22-.06.44.44,0,0,1-.17-.6c.51-.9,1.92-2.4,3.66-1.67a.45.45,0,0,1-.35.82c-1.44-.61-2.49,1.21-2.54,1.29A.44.44,0,0,1,189,139Z" fill="#231f20"/><path d="M197.19,136.79a.43.43,0,0,1-.26-.09.44.44,0,0,1-.09-.62c.52-.7,1.86-1.79,3.19-1a.44.44,0,0,1,.14.61.46.46,0,0,1-.61.14c-1-.62-2,.68-2,.73A.44.44,0,0,1,197.19,136.79Z" fill="#231f20"/><path d="M242.76,157.6a.38.38,0,0,1-.36-.26c-1.78-5.46-2.4-21-2.73-29.28-.08-2.06-.15-3.68-.2-4.51a.36.36,0,0,1,.32-.4.37.37,0,0,1,.42.29c.46,2.22.85,4.49,1.25,6.9,1.29,7.68,2.62,15.61,6.77,21.68a.38.38,0,0,1-.62.43c-4.24-6.21-5.59-14.23-6.89-22-.09-.53-.18-1.06-.26-1.57.34,8.45,1,23,2.66,28.21a.38.38,0,0,1-.24.47A.25.25,0,0,1,242.76,157.6Z" fill="#d1d3d4"/><path d="M247.25,140.87a.37.37,0,0,1-.3-.16c-2.47-3.51-4-7.92-5.45-12.19-.55-1.59-1.06-3.09-1.62-4.55a.37.37,0,0,1,.21-.48.38.38,0,0,1,.49.21c.56,1.47,1.08,3,1.63,4.58,1.45,4.22,2.95,8.58,5.35,12a.37.37,0,0,1-.09.52A.36.36,0,0,1,247.25,140.87Z" fill="#d1d3d4"/><path d="M186,211a.44.44,0,0,1-.33-.15.46.46,0,0,1,0-.64,9.64,9.64,0,0,0,2.68-5.35.45.45,0,0,1,.5-.4.45.45,0,0,1,.4.5,10.29,10.29,0,0,1-3,5.92A.43.43,0,0,1,186,211Z" fill="#fff"/><path d="M217.56,204h-.07a13.09,13.09,0,0,1-5.28-2.34.46.46,0,0,1,.56-.73,12.26,12.26,0,0,0,4.85,2.17.45.45,0,0,1,.39.51A.46.46,0,0,1,217.56,204Z" fill="#fff"/><path d="M202.4,221.81a.45.45,0,0,1-.45-.39l-2.68-19.29a.46.46,0,1,1,.91-.13l2.67,19.29a.46.46,0,0,1-.39.52Z" fill="#fff"/><path d="M341.52,227.24a.5.5,0,0,1,0-1c7.8,0,14.14-5.1,14.14-11.37,0-5.73-5.33-10.58-12.4-11.28a.5.5,0,0,1-.36-.21.47.47,0,0,1-.07-.4,10.12,10.12,0,0,0,.28-2.3c0-6.6-6.67-12-14.86-12a17.59,17.59,0,0,0-6.45,1.2.5.5,0,0,1-.68-.49v-.2a1.23,1.23,0,0,0,0-.2c0-6.59-6.67-12-14.87-12-5.91,0-11.26,2.83-13.63,7.21a.5.5,0,0,1-.52.25,30.63,30.63,0,0,0-5-.4c-13.18,0-24.14,8.31-25,18.91a.52.52,0,0,1-.49.47c-7.69.08-13.94,5.18-13.94,11.36a.5.5,0,0,1-.5.5.5.5,0,0,1-.5-.5c0-6.6,6.45-12.07,14.47-12.35,1.14-10.91,12.42-19.39,25.93-19.39a32.15,32.15,0,0,1,4.81.36c2.62-4.52,8.2-7.42,14.33-7.42,8.63,0,15.66,5.65,15.86,12.66a18.73,18.73,0,0,1,6.11-1c8.74,0,15.86,5.81,15.86,13a11.15,11.15,0,0,1-.19,2c7.3,1,12.74,6.12,12.74,12.21C356.66,221.69,349.87,227.24,341.52,227.24Z" fill="#d1d3d4"/></g></svg>