<?xml version="1.0" encoding="utf-8"?>
<!-- Generator: Adobe Illustrator 23.1.0, SVG Export Plug-In . SVG Version: 6.00 Build 0)  -->
<svg version="1.1" id="Layer_1" xmlns="http://www.w3.org/2000/svg" xmlns:xlink="http://www.w3.org/1999/xlink" x="0px" y="0px"
	 viewBox="0 0 400 300" style="enable-background:new 0 0 400 300;" xml:space="preserve">
<style type="text/css">
	.st0{fill:#FFFFFF;}
	.st1{fill:#D1D3D4;}
	.st2{fill:#231F20;}
	.st3{fill:#E6E7E8;}
	.st4{fill:none;}
	.st5{fill:#F5C7E0;}
	.st6{fill:#C2DCF7;}
</style>
<g id="_014">
	<rect x="72.3" y="200.9" class="st0" width="255.4" height="53.8"/>
	<path class="st1" d="M327.7,255.2H72.3c-0.3,0-0.5-0.2-0.5-0.5l0,0V201c0-0.3,0.2-0.5,0.5-0.5h0h255.4c0.3,0,0.5,0.2,0.5,0.5v53.8
		C328.2,255.1,328,255.2,327.7,255.2z M72.7,254.3h254.5v-52.9H72.7L72.7,254.3z"/>
	<path class="st0" d="M72.3,200.9h255.3c2.2,0,4,1.8,4,4v0.8c0,2.2-1.8,4-4,4H72.3c-2.2,0-4-1.8-4-4v-0.8
		C68.4,202.7,70.1,200.9,72.3,200.9z"/>
	<path class="st1" d="M327.7,210.1H72.3c-2.4,0-4.4-2-4.4-4.4v-0.8c0-2.4,2-4.4,4.4-4.4h255.3c2.4,0,4.4,2,4.4,4.4v0.8
		C332.1,208.1,330.1,210.1,327.7,210.1L327.7,210.1z M72.3,201.4c-1.9,0-3.5,1.6-3.5,3.5v0.8c0,1.9,1.6,3.5,3.5,3.5h255.3
		c1.9,0,3.5-1.6,3.5-3.5v-0.8c0-1.9-1.6-3.5-3.5-3.5H72.3z"/>
	<rect x="90.1" y="187.1" class="st2" width="80" height="13.4"/>
	<path class="st2" d="M170.1,200.9h-80c-0.2,0-0.4-0.2-0.4-0.4l0,0v-13.4c0-0.2,0.2-0.4,0.4-0.4c0,0,0,0,0,0h80
		c0.2,0,0.4,0.2,0.4,0.4l0,0v13.4C170.5,200.7,170.3,200.9,170.1,200.9L170.1,200.9z M90.5,200h79.1v-12.4H90.5V200z"/>
	<rect x="126.5" y="187.1" class="st0" width="43.6" height="13.4"/>
	<path class="st2" d="M170.1,200.9h-43.6c-0.3,0-0.5-0.2-0.4-0.5v-13.4c0-0.2,0.2-0.4,0.4-0.4h43.6c0.2,0,0.4,0.2,0.4,0.4v13.4
		C170.5,200.7,170.3,200.9,170.1,200.9z M127,200h42.7v-12.4H127V200z"/>
	<rect x="104.2" y="177.4" class="st2" width="64.8" height="9.9"/>
	<path class="st2" d="M168.9,187.8h-64.8c-0.2,0-0.4-0.2-0.4-0.4l0,0v-9.9c0-0.2,0.2-0.4,0.4-0.4c0,0,0,0,0,0h64.8
		c0.2,0,0.4,0.2,0.4,0.4v9.9C169.4,187.6,169.2,187.8,168.9,187.8C168.9,187.8,168.9,187.8,168.9,187.8z M104.6,186.9h63.9v-9h-63.9
		L104.6,186.9z"/>
	<rect x="141.3" y="177.4" class="st0" width="27.6" height="9.9"/>
	<path class="st2" d="M168.9,187.8h-27.6c-0.3,0-0.5-0.2-0.5-0.5v0v-9.9c0-0.3,0.2-0.5,0.5-0.5h27.6c0.3,0,0.5,0.2,0.5,0.5v0v9.9
		C169.4,187.6,169.2,187.8,168.9,187.8C168.9,187.8,168.9,187.8,168.9,187.8z M141.7,186.9h26.7v-9h-26.7L141.7,186.9z"/>
	<rect x="95" y="167.8" class="st2" width="64.8" height="9.9"/>
	<path class="st2" d="M159.8,178.1H95c-0.2,0-0.4-0.2-0.4-0.4l0,0v-9.9c0-0.2,0.2-0.4,0.4-0.4c0,0,0,0,0,0h64.8
		c0.2,0,0.4,0.2,0.4,0.4l0,0v9.9C160.2,178,160,178.1,159.8,178.1z M95.5,177.3h63.9v-9H95.5L95.5,177.3z"/>
	<rect x="132.1" y="167.8" class="st0" width="27.6" height="9.9"/>
	<path class="st2" d="M159.8,178.2h-27.7c-0.2,0-0.5-0.2-0.5-0.4c0,0,0,0,0,0v-9.9c0-0.3,0.2-0.5,0.4-0.5h27.7
		c0.3,0,0.5,0.2,0.4,0.5v9.9C160.3,178,160.1,178.2,159.8,178.2C159.8,178.2,159.8,178.2,159.8,178.2z M132.6,177.3h26.7v-9h-26.7
		V177.3z"/>
	<circle class="st0" cx="127.2" cy="172.8" r="2.1"/>
	<path class="st2" d="M127.2,175.4c-1.4,0-2.6-1.1-2.6-2.5c0-1.4,1.1-2.6,2.5-2.6c1.4,0,2.6,1.1,2.6,2.6l0,0
		C129.8,174.3,128.6,175.4,127.2,175.4z M127.2,171.2c-0.9,0-1.6,0.7-1.6,1.6c0,0.9,0.7,1.6,1.6,1.6s1.6-0.7,1.6-1.6
		C128.8,172,128.1,171.2,127.2,171.2z"/>
	<path class="st0" d="M110.5,186.1c-0.3,0-0.5-0.2-0.5-0.5V179c0-0.3,0.2-0.5,0.5-0.5h0c0.2,0,0.5,0.2,0.5,0.4c0,0,0,0,0,0v6.7
		C110.9,185.9,110.7,186.1,110.5,186.1z"/>
	<path class="st0" d="M119.2,199.4c-0.3,0-0.5-0.2-0.5-0.5l0,0v-10.5c0-0.3,0.3-0.4,0.5-0.4c0.2,0,0.4,0.2,0.4,0.4v10.5
		C119.6,199.2,119.4,199.4,119.2,199.4C119.2,199.4,119.2,199.4,119.2,199.4z"/>
	<polygon class="st3" points="131.4,50.8 134.9,48.1 149.6,54.3 179.4,44.2 182.1,48.3 150.9,66.2 	"/>
	<polygon class="st0" points="142.3,98.9 130.3,49.6 149.5,57.8 184.2,45.3 193.1,95.1 161.1,106.1 	"/>
	<path class="st2" d="M161.1,106.6c-0.1,0-0.1,0-0.2,0l-18.8-7.2c-0.1-0.1-0.2-0.2-0.3-0.3l-12.1-49.4c0-0.2,0-0.3,0.1-0.5
		c0.1-0.1,0.3-0.1,0.5-0.1l19,8.2L184,44.8c0.1-0.1,0.3-0.1,0.4,0c0.1,0.1,0.2,0.2,0.2,0.3l8.9,49.8c0,0.2-0.1,0.4-0.3,0.5l-32,11
		L161.1,106.6z M142.7,98.6l18.4,7.1l31.4-10.8l-8.8-48.9l-34.2,12.4c-0.1,0-0.2,0-0.3,0l-18.4-7.9L142.7,98.6z"/>
	<line class="st4" x1="149.5" y1="57.8" x2="158.3" y2="103.5"/>
	<path class="st2" d="M158.3,104c-0.2,0-0.4-0.2-0.4-0.4L149,57.9c0-0.2,0.1-0.5,0.4-0.5c0,0,0,0,0,0c0.2,0,0.5,0.1,0.5,0.4
		c0,0,0,0,0,0l8.9,45.7C158.8,103.7,158.7,103.9,158.3,104C158.4,104,158.4,104,158.3,104L158.3,104z"/>
	<path class="st0" d="M171.1,115c0,0-3.5-5.5-3-7c0.4-1.4,0.7-2.9,0.8-4.4l-3.8,0.9c0,0-3.9-9.7-4.3-13.1s-7.6-0.3-7.9,2.3
		s-0.4,9.3,1.7,13.2s7.9,13.2,7.9,13.2"/>
	<path class="st2" d="M162.6,120.6c-0.2,0-0.3-0.1-0.4-0.2c-0.1-0.1-5.9-9.4-7.9-13.2s-2-10.5-1.7-13.4c0.2-2.1,3.9-4.2,6.4-4.2l0,0
		c1.2-0.2,2.2,0.7,2.4,1.8c0,0,0,0,0,0.1c0.3,2.9,3.4,10.8,4.1,12.6l3.4-0.8c0.1,0,0.3,0,0.4,0.1c0.1,0.1,0.2,0.2,0.2,0.4
		c-0.2,1.5-0.4,3-0.9,4.5c-0.3,0.7,1.3,4,3,6.6c0.1,0.2,0,0.5-0.2,0.6c-0.2,0.1-0.4,0-0.6-0.1c-0.6-0.9-3.6-5.8-3.1-7.4
		c0.4-1.2,0.6-2.4,0.7-3.7l-3.1,0.8c-0.2,0-0.4-0.1-0.5-0.3c-0.2-0.4-3.9-9.8-4.3-13.2c0-0.3-0.1-1.1-1.5-1.1l0,0
		c-2.2,0-5.3,2-5.5,3.4c-0.3,2.9-0.3,9.3,1.6,12.9c2,3.8,7.8,13.1,7.9,13.2c0.1,0.2,0.1,0.5-0.1,0.6
		C162.8,120.6,162.7,120.6,162.6,120.6z"/>
	<path class="st2" d="M282,120.5c-0.2,0-0.5-0.2-0.5-0.4c0-0.1,0-0.1,0-0.2c3.7-9.9,1.6-21.1-5.6-28.9c-0.4-0.4-0.7-0.8-1.1-1.1
		c-2.3-2.3-4.9-5-4.7-8.3c0.1-0.7,0.2-1.4,0.4-2.1c0.1-0.6,0.2-1.1,0.3-1.7c0.3-3.6-2.7-6.7-5.2-8.5c-0.6-0.5-1.3-0.9-1.9-1.3
		c-2.4-1.7-4.9-3.4-6.4-5.9c-1.8-3-2-6.5-2.3-9.9c-0.2-3-0.4-6.2-1.8-8.9c-4.6-9.7-16.2-13.8-25.9-9.1c-1.3,0.6-2.5,1.3-3.6,2.2
		c-2.4,1.8-4.2,4.1-5.4,6.8c-1.1,3.1-1.7,6.3-1.7,9.6c-0.4,6.8-1,13.4-4.7,19c-1.2,1.6-2.4,3.2-3.8,4.6c-2.6,2.8-5,5.5-5.8,9
		c-0.8,3.8,0.7,7.7,3.7,10.2c0.2,0.1,0.2,0.4,0.1,0.6c0,0,0,0,0,0c-0.2,0.2-0.4,0.2-0.6,0.1c-3.3-2.6-4.8-6.9-4-11.1
		c0.8-3.8,3.4-6.7,6-9.5c1.4-1.4,2.6-2.9,3.7-4.6c3.6-5.4,4.3-11.8,4.6-18.5c0-3.4,0.6-6.7,1.8-9.9c1.2-2.9,3.2-5.3,5.6-7.2
		c8.9-6.9,21.6-5.3,28.5,3.6c0.9,1.1,1.6,2.4,2.3,3.7c1.4,2.9,1.6,6.2,1.9,9.3c0.2,3.4,0.5,6.7,2.1,9.5c1.4,2.4,3.8,4.1,6.1,5.7
		c0.7,0.4,1.3,0.9,1.9,1.4c2.8,2,6,5.3,5.6,9.4c-0.1,0.6-0.2,1.2-0.3,1.8c-0.2,0.6-0.3,1.3-0.3,1.9c-0.1,3,2.2,5.3,4.5,7.7
		c0.4,0.4,0.8,0.8,1.1,1.2c7.5,8,9.8,19.7,5.8,29.9C282.4,120.4,282.2,120.5,282,120.5z"/>
	<path class="st5" d="M211,92.2l-18.8,41.2l-18.3-20.5l-15.3,7.2c0,0,33.7,50.9,43,46.3s22.6-45.7,22.6-45.7L211,92.2z"/>
	<path class="st5" d="M235.3,80.7c0,0-20.4,2.2-25.2,12.1s-3.7,55.6-3.7,55.6l75.3,8.1c0,0-1.9-37.6-5.5-54.3S261.8,74.5,235.3,80.7
		z"/>
	<polygon class="st2" points="229.2,85.7 236.8,126.5 247.3,81.8 	"/>
	<path class="st2" d="M236.8,127L236.8,127c-0.2,0-0.4-0.2-0.4-0.4l-7.6-40.9c0-0.2,0.1-0.5,0.3-0.5l18.1-3.9c0.1,0,0.3,0,0.4,0.1
		c0.1,0.1,0.1,0.3,0.1,0.4l-10.5,44.7C237.2,126.8,237,127,236.8,127z M229.8,86l7.1,38.3l9.8-42L229.8,86z"/>
	<path class="st0" d="M229.3,73.8l-0.1,11.9c0,0,1.2,6.7,8.4,4.6c4.3-1.3,7.9-4.4,9.6-8.5l-0.8-20.6c0-0.9-3.6-4.2-3.4-11.7
		c-5.2,0-10.1-2.3-13.5-6.1c0,0-3,4.5-4.3,6c-1.1,1.1-2,2.3-2.7,3.6c-1.2,2.3-1.2,5.2-1.1,7.7c0,3,0.3,6,0.9,9
		C223.4,75.2,229.3,73.8,229.3,73.8z"/>
	<path class="st2" d="M235.1,91.2c-1.2,0-2.3-0.3-3.3-0.9c-1.5-1-2.6-2.7-3-4.5l0.1-11.4c-1.6,0.2-3.2-0.1-4.6-0.9
		c-1.3-0.9-2.2-2.3-2.4-3.8c-0.6-3-0.9-6-0.9-9c-0.1-2.5-0.1-5.5,1.2-7.9c0.8-1.4,1.7-2.6,2.8-3.7c1.3-1.4,4.3-5.9,4.3-5.9
		c0.1-0.1,0.2-0.2,0.4-0.2c0.1,0,0.3,0,0.4,0.2c3.4,3.7,8.1,5.9,13.2,6c0.1,0,0.2,0.1,0.3,0.1c0.1,0.1,0.1,0.2,0.1,0.3
		c-0.2,3.7,0.8,7.3,2.8,10.4c0.3,0.4,0.5,0.8,0.6,1.3l0,0c0,0,0,0.5,0.8,20.6c0,0.1,0,0.1,0,0.2c-1.8,4.3-5.4,7.5-9.9,8.8
		C236.9,91,236,91.2,235.1,91.2z M229.7,85.7c0.4,1.5,1.3,2.9,2.6,3.8c1.6,0.9,3.6,1,5.3,0.4c4.1-1.2,7.5-4.2,9.3-8.2
		c-0.1-1.5-0.8-20.4-0.8-20.5c-0.1-0.3-0.3-0.6-0.5-0.9c-2-3.1-3-6.7-2.9-10.4c-4.9-0.2-9.6-2.2-13-5.8c-1.3,1.9-2.6,3.8-4.1,5.5
		c-1,1.1-1.9,2.2-2.6,3.5c-1.2,2.2-1.1,5-1.1,7.5c0,3,0.3,6,0.9,8.9c0.2,1.3,0.9,2.5,2,3.2c1.4,0.7,2.9,1,4.4,0.6
		c0.1,0,0.3,0,0.4,0.1c0.1,0.1,0.2,0.2,0.2,0.4L229.7,85.7L229.7,85.7z"/>
	<path class="st2" d="M229.4,79.6c0,0,4.8,0.2,7.9-3c1.8-1.7,2.8-4,2.7-6.5c0,0-5.2,3.5-10.6,3.6L229.4,79.6z"/>
	<path class="st2" d="M229.6,80.1h-0.2c-0.2,0-0.4-0.2-0.4-0.4l-0.1-5.8c0-0.2,0.2-0.4,0.4-0.4c5.2-0.1,10.4-3.5,10.4-3.6
		c0.1-0.1,0.3-0.1,0.4,0c0.1,0.1,0.2,0.2,0.3,0.3c0,0.1,0.4,3.5-2.8,6.8C235.4,79,232.6,80.1,229.6,80.1z M229.8,74.2l0.1,5
		c2.7,0,5.2-1.1,7.2-2.9c1.5-1.4,2.4-3.3,2.5-5.3C236.6,72.8,233.2,73.9,229.8,74.2z"/>
	<path class="st0" d="M230.6,56.3c0,0-3.8,5.7-2.9,6.7s3.5,0.3,3.5,0.3"/>
	<path class="st2" d="M229.5,64c-0.8,0.1-1.5-0.2-2.1-0.7c-1-1.1,1.4-5,2.9-7.3c0.1-0.2,0.4-0.3,0.6-0.1s0.3,0.4,0.1,0.6
		c0,0,0,0,0,0c-1.9,2.8-3.3,5.7-2.9,6.2c0.6,0.7,2.4,0.4,3,0.2c0.2,0,0.5,0.1,0.5,0.4c0,0.2-0.1,0.4-0.3,0.5
		C230.7,63.9,230.1,64,229.5,64z"/>
	<path class="st0" d="M226.6,66.2c0,0,3.4,5.1,9.5,0.2"/>
	<path class="st2" d="M231,69c-0.3,0-0.6,0-0.9-0.1c-1.6-0.3-3-1.1-4-2.5c-0.1-0.2-0.1-0.5,0.1-0.6c0.2-0.1,0.5-0.1,0.6,0.1
		c0,0,0,0,0,0c0.8,1.1,2,1.8,3.4,2.1c1.7,0.3,3.5-0.4,5.4-2c0.2-0.2,0.5-0.1,0.6,0.1c0,0,0,0,0,0c0.2,0.2,0.1,0.5,0,0.6c0,0,0,0,0,0
		C234.8,68.1,233,68.9,231,69z"/>
	<path class="st2" d="M215.3,147.9L215.3,147.9c-0.2,0-0.4-0.2-0.4-0.5l2.8-47.2c0-0.2,0.2-0.4,0.4-0.4c0,0,0,0,0,0
		c0.2,0,0.4,0.2,0.4,0.4c0,0,0,0,0,0l-2.8,47.2C215.8,147.7,215.6,147.9,215.3,147.9C215.3,147.9,215.3,147.9,215.3,147.9z"/>
	<path class="st6" d="M269.4,153.5c0.4,1,11.7,33.7-1.3,45.4c-13.8,12.4-83.8,5.9-83.8,5.9l-7.6-23.6c-0.9-8.4-1.3-14.3,15.1-15.8
		l22.9-4.7l0.6-13.2L269.4,153.5z"/>
	<path class="st2" d="M222.6,206.9H221c-19-0.1-36.6-1.7-36.7-1.7c-0.2,0-0.3-0.1-0.4-0.3l-7.6-23.6c-0.5-4.4-0.9-8.4,1.6-11.4
		c2.2-2.7,6.6-4.3,13.9-5l22.5-4.6l0.6-12.9c0-0.1,0.1-0.2,0.2-0.3c0.1-0.1,0.2-0.1,0.3-0.1l54.1,6c0.2,0,0.3,0.1,0.4,0.3l-0.4,0.1
		l0.4-0.1c1.2,3.5,11.2,34.4-1.5,45.8C262.7,204.3,247.3,206.9,222.6,206.9z M184.7,204.3c4.9,0.4,70.1,6,83.2-5.8
		c12-10.8,2.7-40.4,1.3-44.6l-53.4-5.9l-0.6,12.7c0,0.2-0.2,0.4-0.4,0.4l-22.9,4.7c-7.1,0.7-11.3,2.1-13.3,4.6
		c-2.2,2.7-1.8,6.6-1.4,10.7L184.7,204.3z"/>
	<path class="st0" d="M195.9,183.4c0,0-3.6-17.5-16.8-13.5s16.2,69,16.2,73.3s-11.2,17.2-11.2,17.2c3.2-0.2,6.4-0.5,9.6-1
		c3.5-0.7,13-14.5,13.4-16S200.4,196,195.9,183.4z"/>
	<path class="st2" d="M184.1,260.8c-0.2,0-0.3-0.1-0.4-0.3c-0.1-0.2-0.1-0.4,0.1-0.5c3.1-3.5,11.1-13.5,11.1-16.9
		c0-1-1.9-6.1-4.3-12.5c-7-18.6-18.7-49.7-14.3-58.8c0.5-1.2,1.5-2.1,2.7-2.4c3.1-1.1,6.5-0.7,9.3,0.9c6,3.6,8,12.3,8.1,13
		c4.3,12.1,11.5,58.2,11.1,60.1c-0.3,1.4-10,15.6-13.7,16.4C190.5,260.3,187.3,260.7,184.1,260.8L184.1,260.8z M182.8,169.8
		c-1.2,0-2.4,0.2-3.6,0.6c-1,0.3-1.8,1-2.2,2c-4.3,8.7,7.8,40.8,14.3,58.1c2.9,7.6,4.4,11.7,4.4,12.8c0,3.8-8.1,13.7-10.6,16.6
		c1.9-0.1,5.9-0.4,8.4-0.9c3.2-0.6,12.7-14.2,13-15.7s-6.5-46.9-11-59.6c0,0,0,0,0-0.1s-1.9-9-7.7-12.4
		C186.3,170.3,184.6,169.8,182.8,169.8L182.8,169.8z"/>
	<path class="st5" d="M183.4,259.2c-1.9,0.2-3.5,1.4-4.3,3.1c-1.2,2.9,4,4.5,8.8,4.7c4.2,0.2,8.4-0.4,12.4-1.5
		c1.6-0.8,3-1.9,4.2-3.3c0,0,0,3.5,1.2,3.4c1.7-0.1,3.5-0.3,5.2-0.5c0.4-0.2-1.4-13.9-3.9-21.7c0,0-10,14.1-13.1,14.8
		S183.4,259.2,183.4,259.2z"/>
	<path class="st2" d="M189.3,267.5c-0.5,0-0.9,0-1.4,0c-3.4-0.1-7.7-1.1-9-3.1c-0.4-0.7-0.5-1.5-0.1-2.2c0.8-1.9,2.6-3.2,4.7-3.4
		l0,0c0.1,0,7.3-0.5,10.4-1.1c2.5-0.5,10.1-10.7,12.9-14.6c0.1-0.1,0.3-0.2,0.4-0.2c0.2,0,0.3,0.1,0.4,0.3c1.3,4.5,2.3,9.1,3,13.7
		c1.3,8.1,0.9,8.3,0.6,8.5c-1.4,0.3-2.8,0.5-4.2,0.5l-1.1,0.1c-0.3,0-0.6-0.1-0.8-0.3c-0.5-0.7-0.8-1.6-0.8-2.5
		c-1,1.1-2.3,2-3.6,2.6C196.9,267,193.1,267.5,189.3,267.5z M183.4,259.7c-1.7,0.2-3.2,1.2-3.9,2.8c-0.2,0.5-0.2,1,0.1,1.4
		c0.9,1.4,4.3,2.5,8.3,2.7c4.1,0.2,8.3-0.4,12.3-1.5c1.5-0.8,2.9-1.8,4-3.2c0.2-0.2,0.4-0.2,0.6-0.1c0.1,0.1,0.2,0.2,0.2,0.3
		c0,1,0.2,2.5,0.6,2.9c0,0,0.1,0.1,0.1,0l1.1-0.1c1-0.1,3.1-0.2,3.7-0.4c0.1-1.8-1.5-13.1-3.7-20.4c-2.2,3.1-10,13.6-12.9,14.2
		C190.5,259.1,187,259.5,183.4,259.7z"/>
	<path class="st0" d="M226.3,243.4c0,0-5.7-56.6-8.4-67.1s-17.8-13.9-22.4-1.1s18.3,62.9,16.5,68.2s-8.4,15.6-8.4,15.6s7,3.5,12.1,0
		S226.3,243.4,226.3,243.4z"/>
	<path class="st2" d="M210.3,261.1c-2.4-0.1-4.7-0.6-6.9-1.6c-0.1-0.1-0.2-0.2-0.2-0.3c0-0.1,0-0.3,0.1-0.4
		c0.1-0.1,6.6-10.4,8.3-15.5c0.6-1.9-2.6-11.3-6-21.2c-6-17.4-13.4-39-10.5-47c2-5.6,6.4-8.8,11.7-8.6c5.6,0.4,10.3,4.3,11.6,9.7
		c2.6,10.5,8.3,66.6,8.4,67.2c0,0.1,0,0.2,0,0.2c-0.2,0.5-5.6,12.3-10.7,15.8C214.4,260.5,212.4,261.1,210.3,261.1z M204.3,258.8
		c1.6,0.7,7.1,2.6,11.2-0.2c4.6-3.2,9.8-14.1,10.4-15.3c-0.3-3-5.8-56.8-8.3-66.9c-1.3-5-5.6-8.7-10.8-9c-4.8-0.3-8.9,2.7-10.8,8
		c-2.8,7.7,4.9,30.1,10.5,46.4c4.3,12.5,6.7,19.7,6,21.8C210.9,248.3,205.6,256.8,204.3,258.8L204.3,258.8z"/>
	<path class="st6" d="M203.6,259c-2,0.9-3.8,2.2-5.4,3.8c-1.8,2.1-3.5,3.1-1,4.8s18,0.5,20.1-0.2s5.8-5.8,5.8-5.8s-0.2,5.8,0.5,5.9
		c1.5-0.1,2.9-0.3,4.3-0.6c0.5-7.9-0.1-15.8-1.6-23.5c0,0-5.4,12.1-12.1,14.5S203.6,259,203.6,259z"/>
	<path d="M204.3,268.9c-3.4,0-6.3-0.2-7.3-0.9c-0.7-0.4-1.2-1-1.4-1.8c-0.1-0.9,0.6-1.7,1.5-2.7l0.8-0.9c1.6-1.6,3.5-3,5.5-3.9
		c0.1,0,0.2,0,0.3,0c0,0,3.8,1.4,10.3-1s11.7-14.3,11.8-14.4c0.1-0.2,0.3-0.3,0.4-0.3c0.2,0,0.3,0.2,0.4,0.4
		c1.6,7.8,2.1,15.7,1.7,23.7c0,0.2-0.2,0.4-0.3,0.4c-1.5,0.4-3,0.6-4.5,0.7c-0.3-0.1-0.9-0.2-0.9-5c-1.2,1.6-3.5,4.3-5.2,4.8
		C213.2,268.6,208.7,268.9,204.3,268.9z M203.7,259.5c-1.9,0.9-3.6,2.1-5.1,3.6c-0.3,0.3-0.6,0.7-0.8,1c-0.8,0.8-1.4,1.5-1.3,2
		c0,0.4,0.4,0.7,1,1.2c2.2,1.5,17.4,0.5,19.8-0.2c1.6-0.5,4.6-4.2,5.6-5.6c0.1-0.2,0.4-0.2,0.6-0.1c0.1,0.1,0.2,0.2,0.2,0.4
		c-0.1,1.8,0,3.7,0.3,5.5c1.2-0.1,2.5-0.3,3.7-0.6c0.4-7.3-0.1-14.6-1.4-21.8c-1.6,3.2-6.1,11.6-11.7,13.6
		C208.3,260.7,204.5,259.8,203.7,259.5z"/>
	<path class="st0" d="M272.4,177.5c0.7,1,2.9,22.6,2.9,22.6s24.5,2.2,24.9,0.5s-12.5-6.1-12.5-6.1l-4-17.1"/>
	<path class="st2" d="M295.2,201.8c-1.8,0-4.3-0.1-7.6-0.3c-6.1-0.3-12.3-0.9-12.3-0.9c-0.2,0-0.4-0.2-0.4-0.4
		c-0.8-8.2-2.3-21.5-2.8-22.4c-0.1-0.2-0.1-0.5,0.1-0.6c0,0,0,0,0,0c0.2-0.1,0.5-0.1,0.6,0.1c0.7,1,2.4,17,2.9,22.5
		c10.9,1,22.6,1.5,24,0.8c-0.4-1-6.6-3.6-12.2-5.5c-0.1,0-0.3-0.2-0.3-0.3l-4-17.2c-0.1-0.2,0.1-0.5,0.3-0.6
		c0.2-0.1,0.5,0.1,0.5,0.4l4,16.9c5,1.7,12.9,4.7,12.6,6.5C300.5,201.2,300.4,201.8,295.2,201.8z"/>
	<path class="st5" d="M275.5,101l16.7,81.6l-23.1,0.6c0,0-8-43.2-8.5-49.7S275.5,101,275.5,101z"/>
	<circle class="st0" cx="224.4" cy="55.2" r="5.2"/>
	<path class="st2" d="M224.4,60.9h-0.2c-3.1-0.1-5.6-2.7-5.4-5.9c0.1-3.1,2.7-5.6,5.9-5.4c3.1,0.1,5.6,2.7,5.4,5.9c0,0,0,0,0,0h-0.5
		h0.5C229.9,58.5,227.4,60.9,224.4,60.9L224.4,60.9z M224.4,50.5c-2.8,0.1-5.1,2.4-5.1,5.2c0.1,2.8,2.4,5.1,5.2,5.1s5.1-2.4,5.1-5.2
		c-0.1-2.8-2.3-5-5.1-5.1H224.4z"/>
	<circle class="st0" cx="235.8" cy="55.7" r="5.2"/>
	<path class="st2" d="M235.8,61.4h-0.2c-3.1-0.1-5.6-2.8-5.4-5.9c0.1-1.5,0.7-2.9,1.8-3.9c2.3-2.1,5.9-2,8,0.3
		c1,1.1,1.6,2.6,1.5,4.1l0,0C241.4,59,238.9,61.4,235.8,61.4L235.8,61.4z M235.8,50.9c-2.6,0-4.8,2-4.8,4.7s2,4.8,4.7,4.8
		c1.3,0.1,2.5-0.4,3.4-1.3c0.9-0.9,1.5-2,1.5-3.3l0,0c0.1-2.6-2-4.8-4.6-4.9L235.8,50.9z"/>
	<path class="st2" d="M199.1,141.4c-0.1,0-0.2-0.1-0.3-0.1l-22.3-25.7c-0.2-0.2-0.1-0.5,0-0.6c0,0,0,0,0,0c0.2-0.2,0.4-0.2,0.6,0
		c0,0,0,0,0,0l22.3,25.7c0.2,0.2,0.1,0.4,0,0.6c0,0,0,0,0,0C199.3,141.4,199.2,141.4,199.1,141.4z"/>
	<polygon class="st3" points="157.9,65.8 179,57.7 180.9,67.3 159.6,74.2 	"/>
	
		<ellipse transform="matrix(3.925982e-02 -0.9992 0.9992 3.925982e-02 160.7317 276.4892)" class="st2" cx="224.1" cy="54.7" rx="1.2" ry="0.7"/>
	
		<ellipse transform="matrix(3.925982e-02 -0.9992 0.9992 3.925982e-02 171.3244 288.9193)" class="st2" cx="235.9" cy="55.4" rx="1.2" ry="0.7"/>
	<path class="st2" d="M251.4,59.9c-0.2,0-0.4-0.2-0.4-0.4c-0.2-2.7-7.2-2.8-9.9-2.6c-0.2,0-0.5-0.2-0.5-0.4c0,0,0,0,0,0
		c0-0.2,0.2-0.4,0.4-0.5c1.1-0.1,10.5-0.7,10.9,3.5C251.9,59.7,251.7,59.9,251.4,59.9C251.5,59.9,251.5,59.9,251.4,59.9L251.4,59.9z
		"/>
	<path class="st0" d="M242.2,60.2c0.2-0.9,0.7-1.7,1.3-2.3c0.7-0.5,1.4-0.9,2.2-1.2c0.4-0.2,0.9-0.3,1.3-0.3c0.3,0,0.6,0.1,0.9,0.3
		c0.7,0.3,1.3,0.9,1.6,1.6c0.2,0.6,0.2,1.2,0.1,1.8c-0.1,0.7-0.2,1.3-0.4,2c-1,2.6-3.9,3.9-6.4,2.9c0,0-0.1,0-0.1-0.1"/>
	<path class="st2" d="M244.6,65.6c-0.7,0-1.4-0.1-2-0.4c-0.2-0.1-0.3-0.3-0.3-0.5c0.1-0.2,0.3-0.3,0.5-0.3c0,0,0,0,0,0
		c2.4,1,5.1-0.2,6.1-2.5c0,0,0-0.1,0-0.1c0.2-0.6,0.3-1.2,0.4-1.8c0.1-0.5,0.1-1.1-0.1-1.6c-0.3-0.6-0.8-1.1-1.4-1.3
		c-0.2-0.1-0.5-0.2-0.8-0.3c-0.4,0-0.8,0.1-1.1,0.3c-0.8,0.3-1.5,0.6-2.1,1.1c-0.6,0.5-1,1.3-1.2,2.1c0,0.2-0.3,0.3-0.5,0.3
		c-0.2,0-0.4-0.3-0.3-0.5c0.2-1,0.7-1.8,1.5-2.5c0.7-0.6,1.5-1,2.3-1.3c0.5-0.2,1-0.3,1.5-0.3c0.4,0,0.7,0.2,1.1,0.3
		c0.8,0.4,1.4,1,1.8,1.8c0.2,0.6,0.3,1.3,0.2,2c-0.1,0.7-0.2,1.4-0.4,2.1c-0.5,1.3-1.6,2.4-2.9,3C246.1,65.5,245.4,65.6,244.6,65.6z
		"/>
	<line class="st4" x1="268.8" y1="181.2" x2="255.2" y2="98.3"/>
	<path class="st2" d="M268.8,181.6c-0.2,0-0.4-0.2-0.5-0.4l-13.6-82.9c0-0.2,0.1-0.5,0.4-0.5c0,0,0,0,0,0c0.2,0,0.5,0.1,0.5,0.4
		c0,0,0,0,0,0l13.6,82.9C269.3,181.4,269.1,181.6,268.8,181.6C268.9,181.6,268.9,181.6,268.8,181.6L268.8,181.6z"/>
	<path class="st0" d="M227.8,161.7c-0.1,0-0.1,0-0.2,0c-5.2-2.3-12.7-0.6-12.8-0.5c-0.3,0.1-0.5-0.1-0.6-0.4c0,0,0,0,0,0
		c-0.1-0.3,0.1-0.5,0.4-0.6c0,0,0,0,0,0c0.3-0.1,7.9-1.9,13.5,0.6c0.3,0.1,0.4,0.4,0.3,0.7C228.2,161.7,228,161.8,227.8,161.7z"/>
	<line class="st4" x1="245.5" y1="138.5" x2="256.7" y2="145.1"/>
	<path class="st2" d="M256.7,145.6c-0.1,0-0.2,0-0.2-0.1l-11.3-6.6c-0.2-0.1-0.3-0.4-0.2-0.6c0.1-0.2,0.4-0.3,0.6-0.2l11.3,6.6
		c0.2,0.1,0.3,0.4,0.2,0.6C257.1,145.5,256.9,145.6,256.7,145.6z"/>
	<line class="st4" x1="226.9" y1="135.7" x2="220.1" y2="141.2"/>
	<path class="st2" d="M220.1,141.6c-0.1,0-0.3-0.1-0.4-0.2c-0.2-0.2-0.1-0.5,0.1-0.6c0,0,0,0,0,0l6.8-5.4c0.2-0.2,0.5-0.2,0.7,0
		c0.2,0.2,0.2,0.5,0,0.7c0,0-0.1,0.1-0.1,0.1l-6.8,5.4C220.3,141.6,220.2,141.6,220.1,141.6z"/>
	<path class="st0" d="M137.7,233.8c2.1-1.9,4.6-3.5,7.2-4.7c0.2,7.7-2.9,14.7-5.8,19.6h-9.4"/>
	<path class="st2" d="M139.1,249.2h-9.4c-0.3,0-0.5-0.2-0.5-0.5c0,0,0,0,0,0c0-0.3,0.2-0.5,0.5-0.5c0,0,0,0,0,0h9.1
		c2.6-4.4,5.6-11,5.6-18.2c-2.3,1.1-4.4,2.6-6.3,4.3c-0.2,0.2-0.5,0.2-0.7,0c-0.2-0.2-0.2-0.5,0-0.7c2.2-2,4.6-3.6,7.3-4.8
		c0.3-0.1,0.6,0,0.7,0.3c0,0.1,0,0.1,0,0.2c0.2,7.9-3.1,15.1-5.9,19.8C139.4,249.1,139.3,249.2,139.1,249.2z"/>
	<path class="st0" d="M124.3,235.8c2.3-12,11.7-19.5,11.7-19.5c1.8,5.6,2.3,11.6,1.7,17.5c-0.5,5.1-1.6,10.1-3.2,14.9h-10.1"/>
	<path class="st2" d="M134.5,249.2h-10.1c-0.3,0-0.5-0.2-0.5-0.5c0,0,0,0,0,0c0-0.3,0.2-0.5,0.5-0.5h9.7c1.6-4.7,2.6-9.5,3.1-14.4
		c0.6-5.5,0.1-11.2-1.4-16.5c-2.1,1.9-9,8.8-10.9,18.7c0,0.3-0.3,0.5-0.6,0.4c-0.3,0-0.5-0.3-0.4-0.6c0,0,0,0,0-0.1
		c2.3-12,11.8-19.8,11.9-19.8c0.1-0.1,0.3-0.1,0.5-0.1c0.2,0,0.3,0.2,0.3,0.3c1.8,5.7,2.4,11.7,1.7,17.7c-0.5,5.1-1.6,10.1-3.3,15
		C134.9,249,134.7,249.2,134.5,249.2z"/>
	<path class="st0" d="M119.3,248.6h8.9c0.1-2.6-0.5-6.6-3.4-11.8c-0.2-0.4-0.4-0.7-0.6-1c-5.2-8.7-9.9-8.6-9.9-8.6
		C112.4,236.4,116.6,244.6,119.3,248.6z"/>
	<path class="st2" d="M128.2,249.2h-8.9c-0.2,0-0.3-0.1-0.4-0.2c-2.7-4.1-7-12.5-5-21.9c0-0.2,0.2-0.4,0.5-0.4c0.2,0,5.1,0,10.3,8.9
		c0.2,0.3,0.4,0.7,0.6,1c3,5.4,3.5,9.6,3.4,12.1C128.7,248.9,128.5,249.1,128.2,249.2z M119.6,248.2h8.1c0-2.4-0.6-6.2-3.3-11
		l-0.6-1c-4.1-6.9-7.8-8.1-9-8.3C113.1,236.4,117,244.1,119.6,248.2L119.6,248.2z"/>
	<polygon class="st2" points="120.9,262.8 138.4,262.8 141.2,248.6 118.1,248.6 	"/>
</g>
</svg>
