<svg xmlns="http://www.w3.org/2000/svg" viewBox="0 0 400 300" data-imageid="customer-service-1" imageName="Birthday" class="illustrations_image" style="width: 394px;"><g id="_39_birthday" data-name="#39_birthday"><path d="M343.35,220.18H46a.5.5,0,0,1-.5-.5.5.5,0,0,1,.5-.5H343.35a.5.5,0,0,1,.5.5A.5.5,0,0,1,343.35,220.18Z" fill="#d1d3d4"/><path d="M189.09,131.06s-.59-20-6.57-28.58c-8-11.56-25.83-11.11-34-5.44s-5.33,22.09.62,26.19c17,11.74,38.59,4.31,38.59,4.31s-16.47,1.25-25.91-9.75,2.94-15.87,10.37-10.32C175.34,109.85,189.09,131.06,189.09,131.06Z" fill="#ffdafb" class="target-color"/><path d="M202.91,117a4.06,4.06,0,0,0-2.35-2.58,7.2,7.2,0,0,0-2.78-.22c-4.66.3-11.52,1-12.27,6.8a7,7,0,0,0,5,7.47,10.73,10.73,0,0,0,2.59.31c4,.11,10.09-.21,10.74-5.15a14.14,14.14,0,0,0-.36-4.53A11.43,11.43,0,0,0,202.91,117Z" fill="#ffdafb" class="target-color"/><path d="M196.72,124.54s2.79-14.63,11.14-22.45,18.56-6.63,26.92-2.72,12.06,11.39,1.62,19.73-37.82,9-37.82,9,20.19-5.44,27.38-11.56,3.25-10-2.32-10S196.72,124.54,196.72,124.54Z" fill="#ffdafb" class="target-color"/><rect x="136.95" y="149.3" width="115.48" height="85.74" fill="#fff"/><path d="M252.43,235.49H137a.46.46,0,0,1-.46-.45V149.3a.47.47,0,0,1,.46-.46H252.43a.47.47,0,0,1,.46.46V235A.46.46,0,0,1,252.43,235.49Zm-115-.91H252V149.76H137.41Z" fill="#231f20"/><path d="M142.05,185.27a.5.5,0,0,1-.33-.88l35.2-30.13a.5.5,0,0,1,.65.76l-35.2,30.13A.49.49,0,0,1,142.05,185.27Z" fill="#d1d3d4"/><path d="M140.64,221a.51.51,0,0,1-.39-.19.49.49,0,0,1,.08-.7l84.91-67.8a.49.49,0,0,1,.7.08.49.49,0,0,1-.08.7L141,220.92A.51.51,0,0,1,140.64,221Z" fill="#d1d3d4"/><path d="M169.08,230.88a.5.5,0,0,1-.39-.18.5.5,0,0,1,.07-.7l76.18-63.29a.5.5,0,1,1,.64.76l-76.18,63.3A.56.56,0,0,1,169.08,230.88Z" fill="#d1d3d4"/><path d="M209.79,230.94a.48.48,0,0,1-.39-.19.49.49,0,0,1,.07-.7l38-30.69a.49.49,0,0,1,.7.08.49.49,0,0,1-.07.7l-38,30.69A.51.51,0,0,1,209.79,230.94Z" fill="#d1d3d4"/><rect x="131.67" y="126.13" width="126.05" height="23.05" fill="#fff"/><path d="M257.71,149.64h-126a.47.47,0,0,1-.46-.46V126.13a.46.46,0,0,1,.46-.45h126a.45.45,0,0,1,.46.45v23.05A.46.46,0,0,1,257.71,149.64Zm-125.59-.91H257.26V126.59H132.12Z" fill="#231f20"/><rect x="183.09" y="124.59" width="23.2" height="113.15" fill="#ffdafb" class="target-color"/><path d="M206.29,125h-23.2a.46.46,0,1,1,0-.91h23.2a.46.46,0,1,1,0,.91Z" fill="#231f20"/><path d="M67.36,154s1.53,13.26,2.26,23.72,10.55,65.27,10.55,65.27l7.55-.29,2.33-67.45,23.54,66.14L123.9,240S107.31,155.41,106,146.4Z" fill="#231f20"/><path d="M80.17,243.38a.45.45,0,0,1-.44-.36c-.09-.55-9.83-55-10.55-65.31S66.93,154.14,66.92,154a.43.43,0,0,1,.35-.48L105.92,146a.46.46,0,0,1,.34.08.43.43,0,0,1,.18.29c1.29,8.9,17.73,92.77,17.9,93.62a.46.46,0,0,1-.08.34.45.45,0,0,1-.3.18l-10.32,1.31a.46.46,0,0,1-.47-.29l-22.76-64-2.25,65.14a.44.44,0,0,1-.42.43l-7.56.29ZM67.84,154.31c.26,2.31,1.57,14,2.22,23.33.69,9.87,9.6,60,10.47,64.84l6.77-.26,2.31-67a.45.45,0,0,1,.38-.42.43.43,0,0,1,.48.29l23.41,65.81,9.5-1.21c-1.3-6.65-16.09-82.17-17.74-92.73Z" fill="#231f20"/><path d="M80.17,242.94s-9.24,6.24-7.56,6.74,16.08-2,16.08-2l-1-5" fill="#fff"/><path d="M73.33,250.24a3.59,3.59,0,0,1-.87-.08.75.75,0,0,1-.55-.6c-.19-1.24,4.24-4.51,8-7a.5.5,0,0,1,.69.14.49.49,0,0,1-.13.69c-3.22,2.17-6.75,4.89-7.44,5.89,1.84.13,9.85-1.07,15.09-2l-.87-4.52a.5.5,0,0,1,.4-.58.48.48,0,0,1,.58.39l1,5a.45.45,0,0,1-.08.37.49.49,0,0,1-.33.21C87.44,248.4,76.77,250.24,73.33,250.24Z" fill="#231f20"/><path d="M113.59,241.34s1.07,5.83,1.9,5.83,16.59-1,15.59-2.18-7.18-5-7.18-5" fill="#fff"/><path d="M115.49,247.67c-.34,0-1.25,0-2.4-6.24a.5.5,0,0,1,.41-.58.5.5,0,0,1,.58.4,21.65,21.65,0,0,0,1.52,5.42c1.76,0,12.65-.85,14.8-1.64a73.94,73.94,0,0,0-6.76-4.57.5.5,0,0,1,.53-.85c.63.39,6.26,3.86,7.29,5a.66.66,0,0,1,.1.71C130.83,247,115.64,247.67,115.49,247.67Z" fill="#231f20"/><path d="M60.82,160.85s1.39,3.49,2.26,5.2,2.93,4.51,1.72,5-3.12-2.51-3.12-2.51-3.24,7.19-4.83,6.5.19-5.74-.18-7.71a76.08,76.08,0,0,0-2.76-7.88" fill="#fff"/><path d="M57.05,175.59a.93.93,0,0,1-.4-.09c-1.33-.57-1-2.73-.69-5a11.75,11.75,0,0,0,.22-3.06,75,75,0,0,0-2.74-7.78.5.5,0,0,1,.93-.38,74,74,0,0,1,2.79,8,11.91,11.91,0,0,1-.21,3.39c-.21,1.47-.53,3.68.1,4s2.46-2.45,4.17-6.25a.52.52,0,0,1,.42-.29.54.54,0,0,1,.46.23c.8,1.25,2,2.52,2.51,2.31.2-.5-.7-2.07-1.25-3-.27-.47-.53-.92-.73-1.31-.87-1.72-2.22-5.1-2.28-5.25a.5.5,0,0,1,.28-.65.51.51,0,0,1,.65.28s1.39,3.49,2.24,5.16c.19.38.45.82.71,1.26,1,1.75,1.66,3,1.37,3.8a1,1,0,0,1-.61.64c-1.15.46-2.48-1-3.22-2C60.66,171.87,58.65,175.59,57.05,175.59Z" fill="#231f20"/><path d="M88.34,88.17a14.72,14.72,0,0,0,4.4,5.29l2.79-3L90,83.3Z" fill="#fff"/><path d="M92.74,94a.51.51,0,0,1-.31-.11,14.86,14.86,0,0,1-4.55-5.5.44.44,0,0,1,0-.34l1.6-4.87a.5.5,0,0,1,.39-.34.49.49,0,0,1,.48.19l5.59,7.15a.49.49,0,0,1,0,.64l-2.79,3A.49.49,0,0,1,92.74,94Zm-3.86-5.82a14.83,14.83,0,0,0,3.81,4.63l2.19-2.35-4.75-6.08Z" fill="#231f20"/><path d="M95,88s-5.52,4.5-4.94,5.52,8.43,6.68,8.43,6.68-19.62-.58-37.63,5.23-24.26,20.21-20.57,30.93c1.34,3.91,12.39,26.47,12.39,26.47l11.13-2.27s-9.12-23.2-9.12-29.9,10.06-9.38,10.06-9.38L67.36,154s28.77.87,40.39-6.68l-6.43-35.52s19.51,3.41,21.83-5.31S95,88,95,88Z" fill="#ffdafb" class="target-color"/><path d="M80.76,98l1.95,6.51s.05,3.23-4.62,3.52-6.22-2.49-6.22-2.49L68.66,93.25s2.16-2.69-1-9.38A37.56,37.56,0,0,0,81.25,81a108.27,108.27,0,0,1,3,11.4C84.81,96,80.76,98,80.76,98Z" fill="#fff"/><path d="M77.41,108.54c-4.37,0-5.91-2.65-6-2.77l-.05-.12-3.2-12.27a.5.5,0,0,1,.09-.44s1.9-2.6-1-8.86a.5.5,0,0,1,.45-.71A37.51,37.51,0,0,0,81,80.59a.49.49,0,0,1,.41,0,.45.45,0,0,1,.27.3,102,102,0,0,1,3.07,11.48c.47,3.21-2.39,5.23-3.44,5.86l1.84,6.13a.59.59,0,0,1,0,.13s0,3.71-5.08,4C77.88,108.54,77.64,108.54,77.41,108.54Zm-5.08-3.21c.23.35,1.74,2.45,5.73,2.19s4.13-2.53,4.15-3l-1.93-6.44a.51.51,0,0,1,.25-.59s3.73-1.91,3.27-5a96.93,96.93,0,0,0-2.86-10.79,37.58,37.58,0,0,1-12.47,2.63c2.34,5.45,1.18,8.22.73,9Z" fill="#231f20"/><path d="M70.61,92.27a3,3,0,0,0-1.43-1.22,5.24,5.24,0,0,0-1.76-.29,2.06,2.06,0,0,0-1,.12,1.72,1.72,0,0,0-.55.41,2.28,2.28,0,0,0-.71,1.42A2.69,2.69,0,0,0,65.53,94a5.45,5.45,0,0,0,.74,1.22,3.59,3.59,0,0,0,5.11.38" fill="#fff"/><path d="M69,97h-.3a4.15,4.15,0,0,1-2.82-1.44,5.38,5.38,0,0,1-.81-1.33,3.17,3.17,0,0,1-.38-1.49A2.73,2.73,0,0,1,65.55,91a2.28,2.28,0,0,1,.7-.53,2.75,2.75,0,0,1,1.19-.16,5.62,5.62,0,0,1,1.92.33A3.48,3.48,0,0,1,71,92a.51.51,0,0,1-.17.69.5.5,0,0,1-.69-.17,2.36,2.36,0,0,0-1.19-1,4.86,4.86,0,0,0-1.59-.26,1.9,1.9,0,0,0-.74.07,1.37,1.37,0,0,0-.39.31,1.83,1.83,0,0,0-.57,1.1,2.3,2.3,0,0,0,.28,1,5.28,5.28,0,0,0,.67,1.1A3.17,3.17,0,0,0,68.78,96a3.08,3.08,0,0,0,2.27-.76.49.49,0,0,1,.7,0,.51.51,0,0,1,0,.71A4.1,4.1,0,0,1,69,97Z" fill="#231f20"/><path d="M79.55,87.21s3.42,2.57,3.09,3.34-2,.9-2,.9" fill="#fff"/><path d="M80.68,92a.5.5,0,0,1,0-1c.56,0,1.4-.28,1.54-.6a13.25,13.25,0,0,0-2.93-2.74.5.5,0,0,1-.09-.7.49.49,0,0,1,.7-.1c2.47,1.86,3.56,3.19,3.24,3.94-.43,1-2.06,1.17-2.38,1.2Z" fill="#231f20"/><path d="M74.26,86.51a1.55,1.55,0,0,1,2.51-.76" fill="#fff"/><path d="M74.26,87a.39.39,0,0,1-.18,0,.49.49,0,0,1-.29-.64,2.44,2.44,0,0,1,1.4-1.42,2.09,2.09,0,0,1,1.87.44.49.49,0,0,1,.12.69.5.5,0,0,1-.7.12,1.15,1.15,0,0,0-1-.29,1.49,1.49,0,0,0-.76.81A.49.49,0,0,1,74.26,87Z" fill="#231f20"/><path d="M79,85.17s.25-1.26,2.18-.34" fill="#fff"/><path d="M79,85.66h-.11a.49.49,0,0,1-.38-.58,1.37,1.37,0,0,1,.72-.91,2.45,2.45,0,0,1,2.16.22.5.5,0,1,1-.43.9c-.76-.36-1.12-.3-1.27-.24a.43.43,0,0,0-.21.24A.5.5,0,0,1,79,85.66Z" fill="#231f20"/><path d="M80.76,98s-3.41.94-5.24.45c0,0,2.38,3.52,6.35,3.49Z" fill="#231f20"/><path d="M81.81,102.42c-4.15,0-6.6-3.55-6.71-3.7a.51.51,0,0,1,0-.57.48.48,0,0,1,.53-.19c1.69.44,5-.44,5-.45a.5.5,0,0,1,.62.34l1.11,3.94a.5.5,0,0,1-.08.43.49.49,0,0,1-.4.2Zm-5.1-3.34a7.59,7.59,0,0,0,4.49,2.32l-.79-2.81A18.16,18.16,0,0,1,76.71,99.08Z" fill="#231f20"/><path d="M63.67,90.77a.51.51,0,0,1-.45-.27,8.49,8.49,0,0,1,.89-9l.09-.12a2.48,2.48,0,0,0,.38-.55,3.38,3.38,0,0,0,.11-.52l0-.16a7.47,7.47,0,0,1,3.52-4.93,16.46,16.46,0,0,1,5.62-2A12.65,12.65,0,0,1,78.57,73a5.52,5.52,0,0,1,4,2.73,3.72,3.72,0,0,1-1.12,4.71.5.5,0,0,1-.53-.85,2.69,2.69,0,0,0,.75-3.41A4.47,4.47,0,0,0,78.39,74a11.57,11.57,0,0,0-4.34.26,15.54,15.54,0,0,0-5.28,1.88,6.47,6.47,0,0,0-3.07,4.25l0,.15a3.53,3.53,0,0,1-.18.73,2.81,2.81,0,0,1-.52.82l-.08.11A7.56,7.56,0,0,0,64.11,90a.49.49,0,0,1-.22.67A.46.46,0,0,1,63.67,90.77Z" fill="#231f20"/><polygon points="109.61 67.32 80.04 94.72 117.15 80.22 109.61 67.32" fill="#fff"/><path d="M80,95.22a.52.52,0,0,1-.43-.24.5.5,0,0,1,.09-.63L109.27,67a.48.48,0,0,1,.41-.13.5.5,0,0,1,.36.24L117.58,80a.52.52,0,0,1,0,.42.51.51,0,0,1-.29.3L80.22,95.18A.39.39,0,0,1,80,95.22Zm29.45-27.11L82.31,93.29,116.42,80Z" fill="#231f20"/><path d="M88.34,88.17c1.76-.21,3.65-2,3.5-3.85-.19-2.44-2.5-1.37-3.57-.17-.58.67-2,3-1.06,3.79A1.49,1.49,0,0,0,88.34,88.17Z" fill="#fff"/><path d="M88,88.69a1.75,1.75,0,0,1-1.14-.36,1.42,1.42,0,0,1-.49-1,6.17,6.17,0,0,1,1.5-3.51c.68-.77,2.12-1.78,3.29-1.39.47.16,1.06.61,1.15,1.85.17,2.18-2,4.15-3.94,4.38h0Zm2.61-5.34a3.21,3.21,0,0,0-2,1.14,5.19,5.19,0,0,0-1.25,2.76.35.35,0,0,0,.13.3,1,1,0,0,0,.75.12h0c1.49-.18,3.19-1.7,3.06-3.32,0-.55-.2-.88-.47-1A.8.8,0,0,0,90.64,83.35Z" fill="#231f20"/><path d="M78.36,93.38s2.68.67,1.93,2.76" fill="#fff"/><path d="M80.29,96.64a.47.47,0,0,1-.17,0,.49.49,0,0,1-.3-.64,1.25,1.25,0,0,0,0-1.06,2.66,2.66,0,0,0-1.55-1,.5.5,0,0,1-.36-.61.5.5,0,0,1,.6-.36,3.72,3.72,0,0,1,2.19,1.55,2.24,2.24,0,0,1,.09,1.87A.51.51,0,0,1,80.29,96.64Z" fill="#231f20"/><ellipse cx="113.07" cy="73.52" rx="4.19" ry="7.93" transform="translate(-18.59 44.24) rotate(-20.5)" fill="#231f20"/><path d="M115,81.59c-2.28,0-4.91-2.58-6.35-6.43-1.66-4.42-1-8.61,1.44-9.53s5.68,1.83,7.34,6.25a12.71,12.71,0,0,1,.84,5.92c-.24,1.87-1,3.16-2.28,3.62A2.79,2.79,0,0,1,115,81.59Zm-3.91-15.14a1.74,1.74,0,0,0-.65.11c-1.88.7-2.27,4.48-.86,8.26s4.18,6.36,6.06,5.67c.87-.33,1.45-1.33,1.64-2.82a11.74,11.74,0,0,0-.78-5.44C115.27,68.87,112.94,66.45,111.12,66.45Z" fill="#231f20"/><path d="M110.28,109.37a.46.46,0,0,1-.23-.05c-8.35-4.34-18-13.4-18-13.49a.5.5,0,1,1,.68-.72c.1.09,9.6,9,17.82,13.32a.5.5,0,0,1,.21.67A.48.48,0,0,1,110.28,109.37Z" fill="#231f20"/><path d="M284.61,91c.05-.5.11-1,.17-1.52,1.59-12.95,21.54-9,28.15-2.23,8,8.24,3.63,23.33,10.55,31.19,5,5.65,15.48.46,21.34,5.2,3,2.4,3.7,6.63,3.61,10.45a33.83,33.83,0,0,1-16.36,28.09c-6.41,4-14.27,4.64-21.81,5.18-5.63.4-11.6.74-16.61-1.86-10.88-5.62-20.9-18.79-20.72-31.33.12-8.37,4.45-16,7.91-23.61C284,103.57,283.87,98,284.61,91Z" fill="#fff"/><path d="M304.28,168.14A23.48,23.48,0,0,1,293.42,166c-10.32-5.34-21.18-18.3-21-31.79.11-7.14,3.23-13.76,6.25-20.16.58-1.22,1.15-2.43,1.7-3.65,2.53-5.56,2.92-10.16,3.37-15.48.11-1.27.22-2.57.36-3.92h0c.05-.5.11-1,.17-1.53a9.36,9.36,0,0,1,6.65-8.18c7.14-2.41,17.88,1.07,22.36,5.66,4.29,4.41,5.12,10.67,5.92,16.74.73,5.56,1.43,10.82,4.65,14.47,2.45,2.78,6.34,2.77,10.48,2.77,3.86,0,7.85,0,10.79,2.37,3.29,2.66,3.88,7.37,3.79,10.85a34.2,34.2,0,0,1-16.59,28.5c-6.66,4.16-14.82,4.74-22,5.25C308.42,168,306.38,168.14,304.28,168.14Zm-8-86.69a15.59,15.59,0,0,0-5,.75,8.29,8.29,0,0,0-6,7.35c-.07.51-.12,1-.18,1.51h0c-.14,1.35-.25,2.64-.35,3.9-.44,5.19-.86,10.09-3.46,15.81-.55,1.22-1.12,2.44-1.7,3.67-3,6.3-6.06,12.83-6.16,19.75-.18,13.09,10.4,25.68,20.45,30.88,5,2.61,11.31,2.16,16.35,1.8,7.09-.51,15.12-1.08,21.58-5.11a33.2,33.2,0,0,0,16.11-27.67c.09-3.26-.44-7.64-3.42-10-2.66-2.16-6.5-2.15-10.15-2.15-4.15,0-8.49,0-11.24-3.11-3.42-3.88-4.17-9.54-4.89-15-.78-5.9-1.58-12-5.65-16.17C309.26,84.21,302.36,81.45,296.25,81.45ZM284.61,91h0Z" fill="#231f20"/><path d="M284.83,106.94c-.93-.51-1.85-1-2.75-1.6A88.92,88.92,0,0,1,262.56,89.4c-1.89-2.1-4.54-4.77-5.43-7.48-.7-2.11-.79-4.63-1.18-6.82-.09-.56-.43-1.29-1-1.15s-.53.65-.54,1.08a25,25,0,0,0,.23,4.58,46.33,46.33,0,0,0-4.55-5.73.51.51,0,0,0-.26-.18c-.34-.06-.39.48-.26.8a15.45,15.45,0,0,0,1,2.17,9.29,9.29,0,0,0-1.26-1.91c-.23-.26-.55-.52-.87-.42s-.39.82-.21,1.27a20.59,20.59,0,0,0,1,2.13,9.22,9.22,0,0,0-2-1.66.66.66,0,0,0-.42-.14.54.54,0,0,0-.33.2,1.81,1.81,0,0,0,0,2A17.76,17.76,0,0,1,247.72,80c-.48-.44-.75-1.07-1.23-1.52s-1.36-.6-1.73-.06,0,1.11.26,1.6A123,123,0,0,0,266,106.16a125,125,0,0,0,12.92,10.73c4.11,3,8.19,6.11,13.54,5.69a11.72,11.72,0,0,0,1.19-.15,5.11,5.11,0,0,0,3.48-1.83c2.35-3.36-1.6-7-4.14-8.84A84.87,84.87,0,0,0,284.83,106.94Z" fill="#fff"/><path d="M291.45,123.12c-4.83,0-8.65-2.77-12.36-5.46l-.51-.37a125.11,125.11,0,0,1-13-10.77,122.79,122.79,0,0,1-21-26.25c-.19-.33-.79-1.33-.24-2.13a1.28,1.28,0,0,1,.94-.55,1.93,1.93,0,0,1,.48,0,2,2,0,0,1,.35-1.78,1,1,0,0,1,.64-.38,1.11,1.11,0,0,1,.74.21l.36.22,0-.07a2,2,0,0,1-.06-1.42.93.93,0,0,1,.57-.51,1,1,0,0,1,.71,0,1,1,0,0,1,.19-.44.7.7,0,0,1,.69-.25,1,1,0,0,1,.55.33A46.83,46.83,0,0,1,254,77.75a25,25,0,0,1,0-2.74c0-1.14.59-1.45.91-1.54a1,1,0,0,1,.82.13,2.27,2.27,0,0,1,.79,1.41c.13.75.23,1.54.33,2.34a23.74,23.74,0,0,0,.82,4.41c.75,2.29,2.9,4.64,4.63,6.53l.7.77a87.57,87.57,0,0,0,19.41,15.85c.78.49,1.62,1,2.73,1.6l1.6.88a64.2,64.2,0,0,1,6.56,4c4.63,3.32,6.18,6.8,4.26,9.54a5.5,5.5,0,0,1-3.8,2c-.42.07-.83.12-1.25.16S291.78,123.12,291.45,123.12Zm-46-44.54h-.07a.3.3,0,0,0-.23.12c-.13.19,0,.54.27,1.06a121.88,121.88,0,0,0,20.85,26,124.38,124.38,0,0,0,12.87,10.68l.51.37c3.81,2.76,7.75,5.61,12.69,5.23.38,0,.77-.08,1.15-.14a4.6,4.6,0,0,0,3.15-1.62c2.21-3.17-2.08-6.76-4-8.16a62.64,62.64,0,0,0-6.47-3.89l-1.6-.89h0c-1.12-.63-2-1.13-2.77-1.62a88.47,88.47,0,0,1-19.62-16l-.7-.77c-1.79-2-4-4.4-4.84-6.88a25.9,25.9,0,0,1-.87-4.61c-.09-.78-.19-1.55-.32-2.29a1.21,1.21,0,0,0-.35-.75c-.06,0-.17.19-.18.62a25.14,25.14,0,0,0,.22,4.5.49.49,0,0,1-.32.53.48.48,0,0,1-.59-.19,46.34,46.34,0,0,0-4-5.14q.22.51.48,1c.13.22.25.45.37.68a.5.5,0,0,1-.21.66.5.5,0,0,1-.67-.19c-.13-.22-.25-.44-.37-.66a9.61,9.61,0,0,0-.84-1.17c-.19-.22-.31-.27-.34-.27a1.27,1.27,0,0,0,.11.61,19.43,19.43,0,0,0,1,2.07.5.5,0,0,1-.16.64.48.48,0,0,1-.65-.07A8.8,8.8,0,0,0,247,76.5l-.13-.06a1.47,1.47,0,0,0,.11,1.49,6.8,6.8,0,0,0,.48.71,5.43,5.43,0,0,1,.73,1.16.5.5,0,0,1-.16.61.51.51,0,0,1-.63,0,5.3,5.3,0,0,1-.69-.84,3.88,3.88,0,0,0-.55-.68A1.09,1.09,0,0,0,245.48,78.58Z" fill="#231f20"/><path d="M293.88,108.6s-7.27,1.45-9.61,5.83-.62,28.39-.62,28.39l33,2.91s2.83-17.85,1.5-25.46S310.84,102.35,293.88,108.6Z" fill="#ffdafb" class="target-color"/><path d="M295,104.58l-2.3,6.63s-.11,4,4.29,3.67a8.79,8.79,0,0,0,6.54-3.74l2-11.92c0-.06-.61-.73-.66-.82a6.41,6.41,0,0,1-.83-2.8,32.29,32.29,0,0,1,.34-4.66,11.54,11.54,0,0,1-4.05-1c-1.3-.68-3-3.93-3-3.93-.62,2.23-6.17,4.8-6.17,4.8s-.46,7.89-.47,10.34C290.62,104.48,295,104.58,295,104.58Z" fill="#fff"/><path d="M296.5,115.35a4.21,4.21,0,0,1-3.05-1.08,4.39,4.39,0,0,1-1.23-3.07.68.68,0,0,1,0-.14l2.1-6.07c-1.71-.21-4.18-1.2-4.17-3.86,0-2.43.45-10,.47-10.37a.44.44,0,0,1,.26-.38c1.49-.7,5.46-2.85,5.92-4.51a.46.46,0,0,1,.84-.1c.47.87,1.89,3.24,2.85,3.75a11.17,11.17,0,0,0,3.87,1,.45.45,0,0,1,.42.51,33.6,33.6,0,0,0-.34,4.56,5.88,5.88,0,0,0,.76,2.6l.19.21c.47.54.58.67.54.93h0l-2,11.92a.49.49,0,0,1-.06.17,9.16,9.16,0,0,1-6.9,4Zm-3.37-4.06a3.54,3.54,0,0,0,.95,2.32,3.61,3.61,0,0,0,2.85.81,8.33,8.33,0,0,0,6.13-3.46c.18-1,1.73-10.25,2-11.64l-.3-.35a3.28,3.28,0,0,1-.27-.33,6.77,6.77,0,0,1-.9-3,27.31,27.31,0,0,1,.29-4.28,11.44,11.44,0,0,1-3.76-1c-1-.54-2.17-2.32-2.8-3.37-1.27,1.87-4.71,3.62-5.74,4.13-.09,1.4-.46,7.89-.46,10,0,2.86,3.74,3,3.9,3a.42.42,0,0,1,.36.19.43.43,0,0,1,.06.41Z" fill="#231f20"/><path d="M303.18,98.12a2.94,2.94,0,0,1,2.1-1.54,2.13,2.13,0,0,1,1.55.17,1.78,1.78,0,0,1,.8,1.37A3.26,3.26,0,0,1,307,100a3,3,0,0,1-4.12.85" fill="#fff"/><path d="M304.55,101.78a3.33,3.33,0,0,1-1.86-.56.4.4,0,1,1,.44-.66,2.56,2.56,0,0,0,3.56-.74,2.84,2.84,0,0,0,.54-1.66,1.37,1.37,0,0,0-.61-1.07,1.7,1.7,0,0,0-1.24-.12,2.57,2.57,0,0,0-1.83,1.31.4.4,0,1,1-.73-.32,3.24,3.24,0,0,1,2.37-1.76,2.43,2.43,0,0,1,1.84.21,2.19,2.19,0,0,1,1,1.68,3.53,3.53,0,0,1-.67,2.16,3.35,3.35,0,0,1-2.13,1.46A3.14,3.14,0,0,1,304.55,101.78Z" fill="#231f20"/><path d="M293.83,107.65a5.54,5.54,0,0,0,4.56-.67,4.85,4.85,0,0,0,2.29-3.39s-3.39,2-6.06,1Z" fill="#231f20"/><path d="M295.42,108.31a5.67,5.67,0,0,1-1.73-.25.43.43,0,0,1-.29-.52l.8-3.11a.44.44,0,0,1,.22-.28.42.42,0,0,1,.36,0c2.44.94,5.65-.9,5.68-.92a.44.44,0,0,1,.66.41,5.25,5.25,0,0,1-2.48,3.73A5.69,5.69,0,0,1,295.42,108.31Zm-1.05-1a5,5,0,0,0,5.64-2.9,8.08,8.08,0,0,1-5.07.68Z" fill="#231f20"/><path d="M298.15,93.62s-2.89,2.83-2.48,3.5,1.94.61,1.94.61" fill="#fff"/><path d="M297.44,98.18c-.52,0-1.71-.09-2.15-.83s.47-2,2.55-4a.43.43,0,0,1,.62,0,.44.44,0,0,1,0,.62,10.13,10.13,0,0,0-2.39,3c.15.23,1,.35,1.52.33a.45.45,0,0,1,.46.42.44.44,0,0,1-.42.46Z" fill="#231f20"/><path d="M295.38,103.56a1.88,1.88,0,0,1-1.28-.54,4,4,0,0,1-1.16-4.64.45.45,0,0,1,.45-.25l5.49.65a.43.43,0,0,1,.33.22.41.41,0,0,1,0,.39c-.16.38-1.62,3.72-3.48,4.13A2.33,2.33,0,0,1,295.38,103.56Zm-1.75-4.51a3.17,3.17,0,0,0,1.07,3.32,1,1,0,0,0,.87.28c1-.22,2.06-2,2.6-3.06Z" fill="#231f20"/><path d="M295.74,93.85h-.08a.44.44,0,0,1-.36-.51,1.06,1.06,0,0,0-.11-.64.39.39,0,0,0-.27-.13c-.66-.07-1.22.76-1.23.77a.44.44,0,0,1-.61.13.45.45,0,0,1-.13-.61A2.51,2.51,0,0,1,295,91.69a1.29,1.29,0,0,1,.87.48,1.82,1.82,0,0,1,.27,1.31A.43.43,0,0,1,295.74,93.85Z" fill="#231f20"/><path d="M302.24,94.76h0a.44.44,0,0,1-.42-.46s0-1-.66-1.22a.58.58,0,0,0-.8.34.44.44,0,0,1-.83-.29,1.45,1.45,0,0,1,1.9-.89,2.11,2.11,0,0,1,1.27,2.09A.44.44,0,0,1,302.24,94.76Z" fill="#231f20"/><path d="M283.65,142.82s-5.45,14.09-5.49,28.86,10,69.14,10,69.14l12.37-.63.28-70.35s9.38,35.5,18.08,34.29,31.15-33,31.15-33l-7.35-7.91-17.37,15.14s-3.29-21-6.08-28.24-5.34-6.53-5.34-6.53Z" fill="#231f20"/><path d="M321.14,107.53c1-.45,1.92-.91,2.86-1.4a89.39,89.39,0,0,0,20.65-14.45c2-2,4.88-4.42,6-7.06a49.1,49.1,0,0,0,1.67-6.71c.14-.56.53-1.26,1.07-1.07s.48.68.46,1.11a25.05,25.05,0,0,1-.57,4.56,46.06,46.06,0,0,1,5-5.39.53.53,0,0,1,.28-.16c.34,0,.34.51.2.82a15,15,0,0,1-1.21,2.09,9.17,9.17,0,0,1,1.41-1.81c.24-.24.58-.49.89-.35s.33.84.12,1.28q-.52,1-1.14,2a9.07,9.07,0,0,1,2.14-1.5.69.69,0,0,1,.43-.11.57.57,0,0,1,.32.23,1.82,1.82,0,0,1-.19,2,19.63,19.63,0,0,0-1.32,1.72c.51-.4.83-1,1.34-1.42s1.4-.5,1.73.07,0,1.1-.38,1.57A122.6,122.6,0,0,1,340,108.14a124.74,124.74,0,0,1-13.68,9.74c-4.31,2.65-8.62,5.49-13.92,4.68-.39-.07-.79-.15-1.18-.24a5.14,5.14,0,0,1-3.33-2.08c-2.1-3.53,2.12-6.89,4.78-8.52A83,83,0,0,1,321.14,107.53Z" fill="#fff"/><path d="M314.27,123.2a12.61,12.61,0,0,1-1.92-.15c-.41-.06-.82-.15-1.23-.25a5.51,5.51,0,0,1-3.64-2.31c-1.71-2.87.09-6.23,4.95-9.19a65.71,65.71,0,0,1,6.85-3.47l1.65-.76c1.15-.53,2-1,2.84-1.39A87.51,87.51,0,0,0,344.3,91.31l.76-.72c1.86-1.75,4.18-3.94,5.1-6.16a24.21,24.21,0,0,0,1.15-4.34c.15-.79.31-1.57.5-2.31a2.23,2.23,0,0,1,.89-1.35,1,1,0,0,1,.83-.06c.38.13.83.51.79,1.6a24.93,24.93,0,0,1-.24,2.73,47.07,47.07,0,0,1,3.79-3.94.9.9,0,0,1,.57-.29.69.69,0,0,1,.67.31.87.87,0,0,1,.16.44,1,1,0,0,1,.71,0,.93.93,0,0,1,.53.55,2,2,0,0,1-.16,1.41.16.16,0,0,0,0,.07l.37-.2a1.2,1.2,0,0,1,.75-.15,1,1,0,0,1,.62.42,2,2,0,0,1,.21,1.81,1.52,1.52,0,0,1,.48,0,1.28,1.28,0,0,1,.9.62c.49.84-.18,1.8-.4,2.11a123.16,123.16,0,0,1-22.91,24.62,126.27,126.27,0,0,1-13.73,9.78l-.54.33C322.42,120.88,318.67,123.2,314.27,123.2ZM353.2,77.31c-.09,0-.31.28-.42.72-.19.72-.34,1.48-.49,2.25a24.73,24.73,0,0,1-1.21,4.53c-1,2.42-3.4,4.69-5.33,6.51L345,92a88.75,88.75,0,0,1-20.76,14.53c-.82.43-1.71.87-2.88,1.41h0l-1.65.76a62.61,62.61,0,0,0-6.74,3.41c-2,1.25-6.59,4.51-4.62,7.83a4.57,4.57,0,0,0,3,1.85,11.5,11.5,0,0,0,1.14.23c4.89.75,9-1.8,13-4.27l.54-.33a123.94,123.94,0,0,0,13.62-9.71,122,122,0,0,0,22.72-24.41c.35-.5.47-.85.35-1s-.07-.11-.22-.14a1.06,1.06,0,0,0-.76.22,3.59,3.59,0,0,0-.59.63,5,5,0,0,1-.75.79.51.51,0,0,1-.63,0,.49.49,0,0,1-.12-.62,5.69,5.69,0,0,1,.81-1.1,6.48,6.48,0,0,0,.53-.67,1.37,1.37,0,0,0,.21-1.45s0,0-.12,0a9,9,0,0,0-2,1.43.5.5,0,0,1-.66,0,.51.51,0,0,1-.11-.65,21.74,21.74,0,0,0,1.12-2,.94.94,0,0,0,.12-.62,2.28,2.28,0,0,0-.33.27,8.87,8.87,0,0,0-.93,1.1c-.14.21-.27.43-.41.63a.51.51,0,0,1-.69.14.52.52,0,0,1-.16-.68l.42-.64c.21-.35.41-.7.6-1.06a48.87,48.87,0,0,0-4.42,4.91A.51.51,0,0,1,353,83a.5.5,0,0,1-.27-.56,25.76,25.76,0,0,0,.55-4.47C353.34,77.5,353.25,77.33,353.2,77.31Zm-32.06,30.22h0Z" fill="#231f20"/><path d="M288.12,240.82s-12.88,6.3-10.88,7.3,23.74-.94,23.74-.94l-.49-7" fill="#fff"/><path d="M280.75,248.89a12.08,12.08,0,0,1-3.74-.33.8.8,0,0,1-.48-.74c0-1.65,7.13-5.37,11.37-7.45a.51.51,0,0,1,.67.23.5.5,0,0,1-.23.67c-4.81,2.35-10.11,5.39-10.76,6.44,1.91.58,14.7-.27,22.86-1l-.45-6.5a.5.5,0,0,1,1-.07l.48,7a.5.5,0,0,1-.45.54C299.29,247.83,287.15,248.89,280.75,248.89Z" fill="#231f20"/><path d="M342.65,163.25l6.11-5s16.74,17.24,14.64,17.17-13.4-4.26-13.4-4.26" fill="#fff"/><path d="M363.42,175.92h0c-2.15-.09-13.09-4.12-13.55-4.29a.5.5,0,0,1-.3-.64.5.5,0,0,1,.64-.3c2.88,1.06,10.28,3.7,12.73,4.16-1.19-2.07-7.86-9.39-14.18-15.92l-5.75,4.7a.5.5,0,0,1-.71-.07.5.5,0,0,1,.07-.7l6.11-5a.5.5,0,0,1,.68,0c10.35,10.66,15.37,16.59,14.91,17.63A.65.65,0,0,1,363.42,175.92Z" fill="#231f20"/><path d="M292.42,80.72l11.44-20,3,22.84A13.06,13.06,0,0,1,292.42,80.72Z" fill="#ffdafb" class="target-color"/><circle cx="304.27" cy="59.95" r="1.91" fill="#ffdafb" class="target-color"/><path d="M222.57,76a.5.5,0,0,1-.5-.5V71a.5.5,0,0,1,.5-.5.5.5,0,0,1,.5.5v4.5A.5.5,0,0,1,222.57,76Z" fill="#d1d3d4"/><path d="M147.7,68.17a.5.5,0,0,1-.41-.22.49.49,0,0,1,.12-.69,13.3,13.3,0,0,1,6.42-2.36.5.5,0,0,1,.09,1A12.34,12.34,0,0,0,148,68.08.52.52,0,0,1,147.7,68.17Z" fill="#d1d3d4"/><path d="M76.56,54.71a.51.51,0,0,1-.45-.27A4.45,4.45,0,0,1,76.42,50a.5.5,0,0,1,.69-.13.51.51,0,0,1,.13.7A3.42,3.42,0,0,0,77,54a.51.51,0,0,1-.21.68A.68.68,0,0,1,76.56,54.71Z" fill="#d1d3d4"/><path d="M267.7,66a.48.48,0,0,1-.38-.17.49.49,0,0,1,.05-.7l3.92-3.41a.5.5,0,0,1,.65.75L268,65.85A.52.52,0,0,1,267.7,66Z" fill="#d1d3d4"/><path d="M188.67,86a.48.48,0,0,1-.4-.21.51.51,0,0,1,.11-.7L193,81.83a.5.5,0,0,1,.58.82L189,85.91A.5.5,0,0,1,188.67,86Z" fill="#d1d3d4"/><path d="M120.05,129.63a.41.41,0,0,1-.16,0l-3.38-1.15a.5.5,0,0,1-.31-.63.5.5,0,0,1,.64-.31l3.37,1.14a.5.5,0,0,1-.16,1Z" fill="#d1d3d4"/><path d="M44.09,83.38a.49.49,0,0,1-.27-.91l4.42-2.94a.5.5,0,0,1,.55.84L44.37,83.3A.48.48,0,0,1,44.09,83.38Z" fill="#d1d3d4"/><path d="M120.65,170.63a.47.47,0,0,1-.35-.15.5.5,0,0,1,0-.71l2.25-2.25a.5.5,0,0,1,.71.71L121,170.48A.47.47,0,0,1,120.65,170.63Z" fill="#d1d3d4"/><path d="M263.67,176.78a.5.5,0,0,1-.17-1l1.38-.5s0-.06,0-.09a.5.5,0,0,1,.47-.52l1.54-.08a.48.48,0,0,1,.52.4.51.51,0,0,1-.32.57l-3.24,1.16Z" fill="#d1d3d4"/><path d="M353.22,116a.49.49,0,0,1-.48-.36.51.51,0,0,1,.34-.62L357,113.9a.5.5,0,1,1,.28,1L353.36,116Z" fill="#d1d3d4"/><path d="M323.93,73.2a.5.5,0,0,1-.05-1A20.26,20.26,0,0,0,331,70a.5.5,0,1,1,.46.88,21.3,21.3,0,0,1-7.5,2.3Z" fill="#d1d3d4"/><path d="M192.13,59.09a.5.5,0,0,1-.33-.88l3.94-3.38a.51.51,0,0,1,.71.05.49.49,0,0,1-.06.7L192.46,59A.52.52,0,0,1,192.13,59.09Z" fill="#d1d3d4"/><path d="M130.79,55.75a.51.51,0,0,1-.36-.15l-3.94-3.94a.48.48,0,0,1,0-.7.5.5,0,0,1,.71,0l3.94,3.94a.5.5,0,0,1-.35.85Z" fill="#d1d3d4"/><path d="M320.58,235.49a.52.52,0,0,1-.48-.37.5.5,0,0,1,.35-.61l6.19-1.72a.5.5,0,1,1,.26,1l-6.18,1.72Z" fill="#d1d3d4"/><path d="M341.86,205.51a.45.45,0,0,1-.16,0,.5.5,0,0,1-.32-.63,2.39,2.39,0,0,1,4.13-.48.5.5,0,0,1-.17.69.51.51,0,0,1-.69-.16,1.23,1.23,0,0,0-1.23-.49,1.24,1.24,0,0,0-1.09.76A.49.49,0,0,1,341.86,205.51Z" fill="#d1d3d4"/><path d="M223,249.92a.51.51,0,0,1-.31-.11.5.5,0,0,1-.08-.71,4.59,4.59,0,0,1,3.94-1.7.5.5,0,0,1,.46.54.51.51,0,0,1-.54.46,3.66,3.66,0,0,0-3.08,1.33A.52.52,0,0,1,223,249.92Z" fill="#d1d3d4"/><path d="M159.5,249.47h-.11l-7.33-1.63a.5.5,0,1,1,.22-1l7.33,1.63a.5.5,0,0,1-.11,1Z" fill="#d1d3d4"/><path d="M126.85,202.72a.41.41,0,0,1-.16,0l-3.38-1.12a.52.52,0,0,1-.32-.64.51.51,0,0,1,.64-.31l3.37,1.13a.49.49,0,0,1,.32.63A.5.5,0,0,1,126.85,202.72Z" fill="#d1d3d4"/><path d="M53.07,195.36a.49.49,0,0,1-.49-.39.51.51,0,0,1,.37-.6L58,193.2a.5.5,0,0,1,.23,1l-5.06,1.17Z" fill="#d1d3d4"/><path d="M51.35,233.11A.55.55,0,0,1,51,233a.51.51,0,0,1,0-.71,2.19,2.19,0,0,1,2.22-.64.5.5,0,0,1-.28,1,1.19,1.19,0,0,0-1.19.35A.52.52,0,0,1,51.35,233.11Z" fill="#d1d3d4"/></g></svg>