<svg xmlns="http://www.w3.org/2000/svg" viewBox="0 0 400 300" data-imageid="cocktail-3" imageName="Watermelon" class="illustrations_image" style="width: 393px;"><g id="_551_watermelon_flatline" data-name="#551_watermelon_flatline"><rect x="158.85" y="41.81" width="89.34" height="76.57" rx="30.68" fill="#68e1fd" class="target-color"/><path d="M177.32,73a24,24,0,0,1,10.94-14.15,31.46,31.46,0,0,1,17.59-4.15,26.41,26.41,0,0,1,14.78,4.86c4.2,3.17,7.12,8.25,7,13.51a17.21,17.21,0,0,1-6.05,12,30.08,30.08,0,0,1-12.19,6.15,33.63,33.63,0,0,1-16.33.77,21,21,0,0,1-13.32-9c-2.89-4.68-3.32-11-.46-15.69" fill="#231f20"/><path d="M199.25,93.12a28.54,28.54,0,0,1-6.35-.69,21.46,21.46,0,0,1-13.64-9.24,16.82,16.82,0,0,1-2.41-10,.48.48,0,0,1,0-.29c0-.09,0-.18.07-.27A14.13,14.13,0,0,1,178.8,67a.51.51,0,0,1,.66-.18A25.47,25.47,0,0,1,188,58.41a31.72,31.72,0,0,1,17.88-4.22,26.82,26.82,0,0,1,15.05,5c4.58,3.46,7.31,8.8,7.15,13.93a17.65,17.65,0,0,1-6.22,12.31,30.13,30.13,0,0,1-12.39,6.26A38.69,38.69,0,0,1,199.25,93.12ZM177.88,72.81a15.62,15.62,0,0,0,2.23,9.85,20.44,20.44,0,0,0,13,8.8,33.08,33.08,0,0,0,16.09-.77,29.28,29.28,0,0,0,12-6,16.63,16.63,0,0,0,5.88-11.6c.16-4.81-2.43-9.83-6.75-13.11-4.75-3.59-10.51-4.57-14.5-4.75a30.56,30.56,0,0,0-17.32,4.08A23.49,23.49,0,0,0,177.88,72.81Z" fill="#231f20"/><path d="M246,132.54c1.3,0,2.59,0,3.89,0a1.41,1.41,0,0,0,1.62-1.9c-.16-3.62-.11-9.43-2.7-12.34s-7.41-2.61-8.67-7.3c-.8-3,.69-6.06,1.77-9s1.65-6.58-.53-8.79c-1.32-1.35-3.43-1.85-4.46-3.44-1.94-3,1.28-6.65,1.51-10.2s-2.47-6.37-5.26-8.43c-9-6.67-16-13.08-28.14-13.19-8.24-.08-17.62,2.81-23.62,8.67-2.51,2.44-4.12,4.87-7.09,6.9-3.67,2.5-6.66,5.34-6.49,10.16.08,2.47,1,5,.24,7.35s-3.15,3.85-3.77,6.2c-1.12,4.22,2.06,8.89,1,13.62a13.57,13.57,0,0,1-1.84,4.58,20.22,20.22,0,0,1-3.54,3.74,43.65,43.65,0,0,0-7.9,8.68,21.18,21.18,0,0,0-1.81,3.55,4,4,0,0,1,.77,0h46.2c16.4,0,32.4,1.08,48.8,1.08Z" fill="#fff"/><path d="M250,133.09h-.27l-3.76,0h0c-8.21,0-16.45-.27-24.42-.54s-16.19-.54-24.38-.54H150.82a4.61,4.61,0,0,0-.52,0,.53.53,0,0,1-.33,0,.51.51,0,0,1-.29-.67h0a21.79,21.79,0,0,1,1.86-3.63,44.34,44.34,0,0,1,8-8.78l.17-.15a19.72,19.72,0,0,0,3.29-3.49,13.07,13.07,0,0,0,1.77-4.41c.52-2.27,0-4.59-.52-6.84s-1-4.59-.46-6.8a9.71,9.71,0,0,1,2-3.44,10.11,10.11,0,0,0,1.76-2.79,9.74,9.74,0,0,0,0-4.62,24.24,24.24,0,0,1-.28-2.55c-.17-5.17,3.13-8.15,6.72-10.61a25.63,25.63,0,0,0,4.67-4.35c.73-.81,1.48-1.65,2.35-2.49,5.66-5.53,14.83-8.93,24-8.82,10.94.1,17.69,5.19,25.49,11.08l3,2.22c3.77,2.78,5.66,5.85,5.47,8.88a14.72,14.72,0,0,1-1.13,4.15c-.79,2.11-1.54,4.09-.47,5.73a6.4,6.4,0,0,0,2.29,1.84,10.31,10.31,0,0,1,2.11,1.51c2.61,2.65,1.52,7,.65,9.34-.14.38-.3.77-.45,1.16-1,2.48-2,5.06-1.31,7.5.7,2.61,2.51,3.48,4.6,4.48a11.72,11.72,0,0,1,3.95,2.61c2.47,2.76,2.65,7.84,2.79,11.55l0,1.1a2.35,2.35,0,0,1-.7,2.12A2.13,2.13,0,0,1,250,133.09Zm-99.06-2.15h46.19c8.21,0,16.45.27,24.42.54s16.19.54,24.38.54h0c1.26,0,2.51,0,3.77,0h.13a1.42,1.42,0,0,0,.82-.13c.28-.2.29-.74.27-1.23l0-1.11c-.13-3.55-.31-8.42-2.53-10.9a10.68,10.68,0,0,0-3.62-2.37c-2.13-1-4.33-2.07-5.16-5.14-.74-2.77.33-5.51,1.35-8.15.15-.38.3-.76.44-1.14.79-2.12,1.79-6-.42-8.25a8.74,8.74,0,0,0-1.9-1.35,7.38,7.38,0,0,1-2.62-2.16c-1.36-2.08-.48-4.41.37-6.66a13.73,13.73,0,0,0,1-3.86c.22-3.36-2.62-6.19-5-8-1-.75-2-1.49-3-2.23-7.66-5.78-14.28-10.77-24.88-10.87h-.33c-8.76,0-17.51,3.25-22.92,8.53-.84.82-1.59,1.64-2.31,2.44A26.37,26.37,0,0,1,174.58,74c-3.87,2.64-6.42,5.3-6.27,9.71a22.29,22.29,0,0,0,.27,2.43,10.52,10.52,0,0,1-.06,5.11,10.75,10.75,0,0,1-1.92,3.1,8.87,8.87,0,0,0-1.83,3.06c-.53,2-.05,4.08.46,6.31s1.1,4.8.52,7.3a14.17,14.17,0,0,1-1.91,4.75,20.5,20.5,0,0,1-3.46,3.68l-.17.15a43.69,43.69,0,0,0-7.8,8.58A19.57,19.57,0,0,0,150.94,130.94Z" fill="#231f20"/><path d="M244.69,258.19H158.54c-9.35-64.07-13.34-105.87-3.73-115.94,3.23-3.37,8.71-5.84,14.55-7.64a126.52,126.52,0,0,1,24.57-4.39,45.26,45.26,0,0,1,16,1.47c3.81,1.19,12.78,2.06,21.83,4.93s18.41,7.85,22.46,17.19C260.23,167.71,244.69,258.19,244.69,258.19Z" fill="#68e1fd" class="target-color"/><path d="M245.19,142.25s66.86,73.66,42,91.52-47.91-26.71-47.91-26.71Z" fill="#68e1fd" class="target-color"/><path d="M279.39,218a.51.51,0,0,1-.45-.28c-7.73-16-29.67-43.82-29.89-44.09a.5.5,0,1,1,.78-.63c.22.28,22.24,28.16,30,44.28a.5.5,0,0,1-.23.67A.59.59,0,0,1,279.39,218Z" fill="#231f20"/><path d="M260.14,232.93a.56.56,0,0,1-.31-.11c-.2-.16-20.18-16.25-25.93-41.33a.49.49,0,0,1,.37-.6.5.5,0,0,1,.6.37c5.68,24.73,25.39,40.62,25.59,40.78a.5.5,0,0,1,.08.7A.53.53,0,0,1,260.14,232.93Z" fill="#231f20"/><path d="M219.43,91.06c1.64-8.39,15.71-10,14.67-.06a14.66,14.66,0,0,1-4,9.2c-2.48,2.36-6.39,3.38-9.47,1.87" fill="#fff"/><path d="M223.76,103.3a7.8,7.8,0,0,1-3.41-.76.52.52,0,0,1,.46-.93c2.72,1.34,6.37.6,8.88-1.78,2.73-2.59,3.63-6.26,3.9-8.89.36-3.42-1.24-5.74-4.27-6.2-3.74-.55-8.51,1.94-9.39,6.42a.5.5,0,0,1-.6.4.51.51,0,0,1-.41-.6c1-5,6.35-7.87,10.55-7.24,2.82.43,5.65,2.57,5.15,7.33-.3,2.8-1.26,6.72-4.22,9.53A9.77,9.77,0,0,1,223.76,103.3Z" fill="#231f20"/><path d="M188,89.85c-1.06-8.48-15-11-14.64-1.08a14.69,14.69,0,0,0,3.41,9.46c2.32,2.53,6.14,3.82,9.32,2.53" fill="#fff"/><path d="M183.46,101.78a9.74,9.74,0,0,1-7-3.2c-2.75-3-3.44-7-3.54-9.79-.17-4.79,2.8-6.73,5.64-7,4.23-.34,9.39,2.85,10,8a.52.52,0,1,1-1,.13c-.56-4.53-5.15-7.35-8.92-7-3.06.24-4.81,2.45-4.69,5.89.09,2.64.73,6.36,3.27,9.13,2.34,2.55,5.94,3.54,8.74,2.4a.51.51,0,0,1,.39,1A7.5,7.5,0,0,1,183.46,101.78Z" fill="#231f20"/><path d="M231.75,136.62a117.89,117.89,0,0,0-14.51-3.4l.06-.13-.26-5.91-.61-13.75-.58-12.84-25.23-.88-1.2,10.45-.37,3.38-2,17.41a113.67,113.67,0,0,0-17.69,3.66,32.21,32.21,0,1,0,63.15,9A32.74,32.74,0,0,0,231.75,136.62Z" fill="#fff"/><path d="M200.3,176.32a32.77,32.77,0,0,1-32.74-32.72,32.25,32.25,0,0,1,1.31-9.13.52.52,0,0,1,.34-.35,114.2,114.2,0,0,1,17.38-3.63l3.52-30.84a.53.53,0,0,1,.53-.46l25.23.88a.51.51,0,0,1,.5.49l1.44,32.24a116.08,116.08,0,0,1,14.1,3.33.52.52,0,0,1,.34.38,32.75,32.75,0,0,1-31.95,39.81ZM169.78,135A31.7,31.7,0,1,0,232,143.6a32.23,32.23,0,0,0-.68-6.58,119.7,119.7,0,0,0-14.17-3.29.55.55,0,0,1-.37-.28.52.52,0,0,1,0-.47h0l-1.42-31.9-24.28-.84L187.57,131a.52.52,0,0,1-.45.45A114.68,114.68,0,0,0,169.78,135Z" fill="#231f20"/><path d="M202,116.16l2.25.08a19.34,19.34,0,0,0,20-18.66l0-1c.1-3,.16-6,.28-9,.08-2,1-4.51-.5-6.21a11.39,11.39,0,0,0-3-2.08A31.07,31.07,0,0,1,208,64.37,34,34,0,0,1,190.1,77c-1.8.52-3.71.92-5.15,2.11-3.22,2.67-1.29,6.3-1.41,9.71l-.25,7.39A19.34,19.34,0,0,0,202,116.16Z" fill="#fff"/><path d="M204.88,116.77l-.7,0-2.25-.07h0a19.89,19.89,0,0,1-19.16-20.54l.26-7.39a17.44,17.44,0,0,0-.23-2.87c-.34-2.52-.69-5.13,1.82-7.21a12,12,0,0,1,4.59-2l.74-.21a33.3,33.3,0,0,0,17.61-12.38.52.52,0,0,1,.47-.21.51.51,0,0,1,.42.31,30.35,30.35,0,0,0,12.85,14.7l.41.24a9.89,9.89,0,0,1,2.7,2c1.28,1.45,1,3.34.79,5a15.44,15.44,0,0,0-.17,1.56c-.07,1.72-.11,3.44-.16,5.16,0,1.28-.07,2.55-.12,3.83l0,1A19.89,19.89,0,0,1,204.88,116.77ZM202,115.65l2.26.07a18.82,18.82,0,0,0,19.47-18.16l0-1,.12-3.82c0-1.72.09-3.45.16-5.17a15.88,15.88,0,0,1,.18-1.66c.22-1.59.42-3.09-.54-4.18A9.22,9.22,0,0,0,221.2,80l-.41-.23A31.48,31.48,0,0,1,207.85,65.4a34.28,34.28,0,0,1-17.61,12l-.75.21a11.22,11.22,0,0,0-4.21,1.81c-2.08,1.72-1.79,3.83-1.46,6.28a17.12,17.12,0,0,1,.24,3.05l-.26,7.39A18.86,18.86,0,0,0,202,115.65Z" fill="#231f20"/><path d="M204.19,99.34a29.64,29.64,0,0,1-4-.26.52.52,0,0,1-.44-.58.52.52,0,0,1,.58-.44,29,29,0,0,0,5.5.19.23.23,0,0,0,.21-.13c.83-1.34-1.29-7.77-2.83-11.51a.51.51,0,1,1,1-.39c.7,1.7,4.11,10.26,2.76,12.45a1.25,1.25,0,0,1-1,.61C205.34,99.32,204.75,99.34,204.19,99.34Z" fill="#231f20"/><path d="M154.81,142.25s-66.86,73.66-42,91.52,47.91-26.71,47.91-26.71Z" fill="#68e1fd" class="target-color"/><path d="M225.64,145.5a13,13,0,0,1-5.68,4.15,5.35,5.35,0,0,1-.56,1.72c-1.43,2.71-4.66,3-7.17,1.88a7.58,7.58,0,0,1-3.18-2.56,12.28,12.28,0,0,1-5.26,2.45,4.93,4.93,0,0,1-5.06,5,4.8,4.8,0,0,1-4.89-3.83,7.08,7.08,0,0,1-1.88-.12,5,5,0,0,1-.93-.27,9.06,9.06,0,0,1-1.84-.86,11.54,11.54,0,0,1-1.17-.92,8.68,8.68,0,0,1-5.29-4,4.93,4.93,0,0,1-.7-2.64H149.19a49.72,49.72,0,0,0,98.18,0Z" fill="#68e1fd" class="target-color"/><path d="M198.28,187.85a50,50,0,0,1-49.59-42.27.5.5,0,0,1,.12-.41.49.49,0,0,1,.38-.17H182a.48.48,0,0,1,.36.15.46.46,0,0,1,.14.35,4.4,4.4,0,0,0,.62,2.38,8.21,8.21,0,0,0,5,3.73.46.46,0,0,1,.22.11,10.38,10.38,0,0,0,1.12.88,7.3,7.3,0,0,0,1.46.7l.27.11a4.64,4.64,0,0,0,.84.24,7.19,7.19,0,0,0,1.75.12.5.5,0,0,1,.53.38,4.28,4.28,0,0,0,4.4,3.44,4.43,4.43,0,0,0,4.56-4.47.5.5,0,0,1,.4-.47,11.75,11.75,0,0,0,5.05-2.36.52.52,0,0,1,.38-.1.5.5,0,0,1,.34.2,7.16,7.16,0,0,0,3,2.4c2.22,1,5.21.85,6.53-1.65a5.08,5.08,0,0,0,.51-1.57.49.49,0,0,1,.34-.39,12.35,12.35,0,0,0,5.44-4,.52.52,0,0,1,.39-.17h21.73a.52.52,0,0,1,.38.17.54.54,0,0,1,.11.41A50,50,0,0,1,198.28,187.85ZM149.78,146a49.22,49.22,0,0,0,97,0H225.87a13.47,13.47,0,0,1-5.47,4,6,6,0,0,1-.55,1.57c-1.62,3.07-5.19,3.25-7.82,2.11a8,8,0,0,1-3.07-2.33,12.77,12.77,0,0,1-4.71,2.18,5.39,5.39,0,0,1-5.52,5,5.29,5.29,0,0,1-5.27-3.81,9.24,9.24,0,0,1-1.59-.15,5.36,5.36,0,0,1-1-.29l-.28-.11a8,8,0,0,1-1.66-.81,10.26,10.26,0,0,1-1.13-.88,9.16,9.16,0,0,1-5.48-4.13,5.18,5.18,0,0,1-.75-2.41Z" fill="#231f20"/><path d="M225.64,145.5a13,13,0,0,1-5.68,4.15,5.35,5.35,0,0,1-.56,1.72c-1.43,2.71-4.66,3-7.17,1.88a7.58,7.58,0,0,1-3.18-2.56,12.28,12.28,0,0,1-5.26,2.45,4.93,4.93,0,0,1-5.06,5,4.8,4.8,0,0,1-4.89-3.83,7.08,7.08,0,0,1-1.88-.12,5,5,0,0,1-.93-.27,9.06,9.06,0,0,1-1.84-.86,11.54,11.54,0,0,1-1.17-.92,8.68,8.68,0,0,1-5.29-4,4.93,4.93,0,0,1-.7-2.64H156.37a42.64,42.64,0,0,0,83.81,0Z" fill="#d1d3d4"/><path d="M198.28,180.77a43.11,43.11,0,0,1-42.4-35.18.5.5,0,0,1,.49-.59H182a.48.48,0,0,1,.36.15.46.46,0,0,1,.14.35,4.4,4.4,0,0,0,.62,2.38,8.21,8.21,0,0,0,5,3.73.46.46,0,0,1,.22.11,10.38,10.38,0,0,0,1.12.88,7.3,7.3,0,0,0,1.46.7l.27.11a4.64,4.64,0,0,0,.84.24,7.19,7.19,0,0,0,1.75.12.5.5,0,0,1,.53.38,4.28,4.28,0,0,0,4.4,3.44,4.43,4.43,0,0,0,4.56-4.47.5.5,0,0,1,.4-.47,11.75,11.75,0,0,0,5.05-2.36.52.52,0,0,1,.38-.1.5.5,0,0,1,.34.2,7.16,7.16,0,0,0,3,2.4c2.22,1,5.21.85,6.53-1.65a5.08,5.08,0,0,0,.51-1.57.49.49,0,0,1,.34-.39,12.35,12.35,0,0,0,5.44-4,.52.52,0,0,1,.39-.17h14.54a.5.5,0,0,1,.39.18.54.54,0,0,1,.11.41A43.11,43.11,0,0,1,198.28,180.77ZM157,146a42.14,42.14,0,0,0,82.6,0H225.87a13.47,13.47,0,0,1-5.47,4,6,6,0,0,1-.55,1.57c-1.62,3.07-5.19,3.25-7.82,2.11a8,8,0,0,1-3.07-2.33,12.77,12.77,0,0,1-4.71,2.18,5.39,5.39,0,0,1-5.52,5,5.29,5.29,0,0,1-5.27-3.81,9.24,9.24,0,0,1-1.59-.15,5.36,5.36,0,0,1-1-.29l-.28-.11a8,8,0,0,1-1.66-.81,10.26,10.26,0,0,1-1.13-.88,9.16,9.16,0,0,1-5.48-4.13,5.18,5.18,0,0,1-.75-2.41Z" fill="#231f20"/><path d="M225.64,145.5a13,13,0,0,1-5.68,4.15,5.35,5.35,0,0,1-.56,1.72c-1.43,2.71-4.66,3-7.17,1.88a7.58,7.58,0,0,1-3.18-2.56,12.28,12.28,0,0,1-5.26,2.45,4.93,4.93,0,0,1-5.06,5,4.8,4.8,0,0,1-4.89-3.83,7.08,7.08,0,0,1-1.88-.12,5,5,0,0,1-.93-.27,9.06,9.06,0,0,1-1.84-.86,11.54,11.54,0,0,1-1.17-.92,8.68,8.68,0,0,1-5.29-4,4.93,4.93,0,0,1-.7-2.64h-21.1a38.17,38.17,0,0,0,74.7,0Z" fill="#fff"/><path d="M198.28,176.31a38.81,38.81,0,0,1-37.84-30.71.49.49,0,0,1,.1-.42.48.48,0,0,1,.39-.18H182a.48.48,0,0,1,.36.15.46.46,0,0,1,.14.35,4.4,4.4,0,0,0,.62,2.38,8.21,8.21,0,0,0,5,3.73.46.46,0,0,1,.22.11,10.38,10.38,0,0,0,1.12.88,7.3,7.3,0,0,0,1.46.7l.27.11a4.64,4.64,0,0,0,.84.24,7.19,7.19,0,0,0,1.75.12.5.5,0,0,1,.53.38,4.28,4.28,0,0,0,4.4,3.44,4.43,4.43,0,0,0,4.56-4.47.5.5,0,0,1,.4-.47,11.75,11.75,0,0,0,5.05-2.36.52.52,0,0,1,.38-.1.5.5,0,0,1,.34.2,7.16,7.16,0,0,0,3,2.4c2.22,1,5.21.85,6.53-1.65a5.08,5.08,0,0,0,.51-1.57.49.49,0,0,1,.34-.39,12.35,12.35,0,0,0,5.44-4,.52.52,0,0,1,.39-.17h10a.5.5,0,0,1,.39.18.53.53,0,0,1,.1.42A38.82,38.82,0,0,1,198.28,176.31ZM161.55,146A37.67,37.67,0,0,0,235,146h-9.14a13.47,13.47,0,0,1-5.47,4,6,6,0,0,1-.55,1.57c-1.62,3.07-5.19,3.25-7.82,2.11a8,8,0,0,1-3.07-2.33,12.77,12.77,0,0,1-4.71,2.18,5.39,5.39,0,0,1-5.52,5,5.29,5.29,0,0,1-5.27-3.81,9.24,9.24,0,0,1-1.59-.15,5.36,5.36,0,0,1-1-.29l-.28-.11a8,8,0,0,1-1.66-.81,10.26,10.26,0,0,1-1.13-.88,9.16,9.16,0,0,1-5.48-4.13,5.18,5.18,0,0,1-.75-2.41Z" fill="#231f20"/><path d="M173.6,150.17a1,1,0,0,0-.31-.65,1,1,0,0,0-1.35.06l-1.43,1.73a1.06,1.06,0,0,0-.25.7,1,1,0,0,0,1,.9.94.94,0,0,0,.65-.3l1.43-1.74A1,1,0,0,0,173.6,150.17Z" fill="#d1d3d4"/><path d="M222.08,156.85a10.09,10.09,0,0,0-1.42-2.33,1,1,0,0,0-1.63.67l0,.26a1.06,1.06,0,0,0,.18.33,9.39,9.39,0,0,1,1.19,2,.93.93,0,0,0,.57.44,1,1,0,0,0,.74-.09,1,1,0,0,0,.44-.57l0-.26A.91.91,0,0,0,222.08,156.85Z" fill="#d1d3d4"/><path d="M206.37,160a1,1,0,0,0-1,1v2.51a1,1,0,0,0,1,.95,1,1,0,0,0,1-.95v-2.51A1,1,0,0,0,206.37,160Z" fill="#d1d3d4"/><path d="M188.41,158.49a1,1,0,0,0-.44-.57.94.94,0,0,0-.73-.1.91.91,0,0,0-.57.44l-1.26,2.87a1.05,1.05,0,0,0-.1.74,1,1,0,0,0,.44.57,1,1,0,0,0,.74.09.92.92,0,0,0,.57-.43l1.26-2.87A1.06,1.06,0,0,0,188.41,158.49Z" fill="#d1d3d4"/><path d="M197.27,166.3a1.09,1.09,0,0,0-.28-.68,1,1,0,0,0-.68-.28,1,1,0,0,0-.67.28.93.93,0,0,0-.28.68,8,8,0,0,1,0,1.76c0,.17,0,.34-.09.5a1,1,0,0,0,.1.74.94.94,0,0,0,.57.44,1,1,0,0,0,1.17-.67A8.61,8.61,0,0,0,197.27,166.3Z" fill="#d1d3d4"/><path d="M216.58,164.45,216,163a.76.76,0,0,0-.17-.32.72.72,0,0,0-.27-.25.66.66,0,0,0-.36-.11.7.7,0,0,0-.38,0,1,1,0,0,0-.57.44,1,1,0,0,0-.09.74l.54,1.43a.59.59,0,0,0,.17.33.69.69,0,0,0,.26.25.76.76,0,0,0,.36.11.7.7,0,0,0,.38,0,.94.94,0,0,0,.57-.44A.9.9,0,0,0,216.58,164.45Z" fill="#d1d3d4"/><path d="M180.25,161.81a1,1,0,0,0-.28-.67,1,1,0,0,0-1.35,0,7.77,7.77,0,0,0-1.1,1.78.77.77,0,0,0-.12.35.7.7,0,0,0,0,.38,1,1,0,0,0,.44.58,1,1,0,0,0,.73.09.93.93,0,0,0,.58-.44,7.06,7.06,0,0,1,.85-1.45.7.7,0,0,0,.15-.25A.67.67,0,0,0,180.25,161.81Z" fill="#d1d3d4"/><path d="M179.36,153.5l-.56-.41a.82.82,0,0,0-.49,0,1.14,1.14,0,0,0-.57.44l-2.36,3.22a.94.94,0,0,0-.09.73,1,1,0,0,0,.44.58,1,1,0,0,0,.73.09,1.08,1.08,0,0,0,.57-.44l2.36-3.21a1,1,0,0,0,.09-.74A1,1,0,0,0,179.36,153.5Z" fill="#d1d3d4"/><path d="M229.08,152.62l-3.23-3.23a1,1,0,0,0-1.35,1.35l3.23,3.23a1,1,0,1,0,1.35-1.35Z" fill="#d1d3d4"/><path d="M151.64,168.29q2.06-4.69,4.57-9.18a5.82,5.82,0,0,1,1.57-2,2,2,0,0,1,2.4-.06,2.76,2.76,0,0,1,.54,2.57,14.24,14.24,0,0,1-2.41,5.89,12.37,12.37,0,0,1,3.26-5.93,2.69,2.69,0,0,1,2.29-1,2.12,2.12,0,0,1,1.15.75c1.81,2.14.65,5.38-.59,7.9a8.68,8.68,0,0,1,4-4.85,1.77,1.77,0,0,1,1.92-.12c.54.44.44,1.28.27,2a35.33,35.33,0,0,1-1.85,5.42,6.93,6.93,0,0,1,2.62-3.42c1.29-.69,3.3-.14,3.5,1.31a3.72,3.72,0,0,1-.7,2.21,22.08,22.08,0,0,0-2.47,7.43,2.28,2.28,0,0,0,.15,1.51,5.91,5.91,0,0,0,.81.85c1.09,1.21.42,3.15-.58,4.43a11.88,11.88,0,0,1-13.72,3.46C151.68,184.43,148.77,174.83,151.64,168.29Z" fill="#fff"/><path d="M162.86,188.81a11.59,11.59,0,0,1-4.67-1c-6.64-2.91-10.12-12.71-7-19.77,1.37-3.13,2.91-6.23,4.59-9.22a6.2,6.2,0,0,1,1.73-2.18,2.53,2.53,0,0,1,3,0,2.77,2.77,0,0,1,.79,2.45A3,3,0,0,1,164,158a2.63,2.63,0,0,1,1.44.93,5.06,5.06,0,0,1,1,4.26,9.1,9.1,0,0,1,1.83-1.33,2.18,2.18,0,0,1,2.5-.07c.88.73.55,2.05.44,2.49s-.31,1.16-.49,1.74a3.84,3.84,0,0,1,.52-.33,3.29,3.29,0,0,1,3,0,2.24,2.24,0,0,1,1.27,1.7,4,4,0,0,1-.71,2.44l0,.09a21.15,21.15,0,0,0-2.41,7.26,1.91,1.91,0,0,0,.08,1.17,2.21,2.21,0,0,0,.4.42c.12.11.25.23.36.35,1.26,1.39.63,3.56-.57,5.09A12.31,12.31,0,0,1,162.86,188.81Zm-3.75-31.61a1.85,1.85,0,0,0-1,.33,5.11,5.11,0,0,0-1.42,1.84c-1.66,2.95-3.19,6-4.55,9.12h0c-2.88,6.59.33,15.71,6.49,18.42a11.28,11.28,0,0,0,13.1-3.31c.9-1.14,1.47-2.81.61-3.76a2.4,2.4,0,0,0-.28-.27,3,3,0,0,1-.6-.66,2.8,2.8,0,0,1-.21-1.85,22.48,22.48,0,0,1,2.52-7.6l.06-.1a3.18,3.18,0,0,0,.59-1.8,1.27,1.27,0,0,0-.72-.93,2.33,2.33,0,0,0-2,0,6.39,6.39,0,0,0-2.39,3.19.51.51,0,0,1-.68.25.5.5,0,0,1-.26-.67,35,35,0,0,0,1.82-5.34c.19-.75.16-1.24-.1-1.45s-1.12.07-1.34.19a8.11,8.11,0,0,0-3.08,3c-.23.57-.48,1.12-.73,1.63a.51.51,0,0,1-.65.25.52.52,0,0,1-.3-.64,9.15,9.15,0,0,1,.75-1.69c.78-2,1.23-4.19-.06-5.71a1.72,1.72,0,0,0-.87-.59c-.51-.1-1.12.2-1.82.9a11.1,11.1,0,0,0-1,1.16,14.77,14.77,0,0,1-2.2,4.7.51.51,0,0,1-.63.18.53.53,0,0,1-.3-.59,12.84,12.84,0,0,1,2.19-4.76c.09-.36.16-.73.22-1.09.17-1,0-1.74-.37-2.1A1.11,1.11,0,0,0,159.11,157.2Zm-7.47,11.09h0Z" fill="#231f20"/><path d="M245.47,168q-2.06-4.7-4.56-9.17a5.68,5.68,0,0,0-1.58-2,2,2,0,0,0-2.39-.06,2.74,2.74,0,0,0-.55,2.57,14.26,14.26,0,0,0,2.42,5.89,12.37,12.37,0,0,0-3.26-5.93,2.74,2.74,0,0,0-2.29-1,2.08,2.08,0,0,0-1.15.76c-1.82,2.13-.65,5.38.58,7.89a8.59,8.59,0,0,0-4-4.84,1.76,1.76,0,0,0-1.92-.13c-.54.44-.44,1.29-.26,2a33.3,33.3,0,0,0,1.85,5.42,7,7,0,0,0-2.62-3.42c-1.3-.69-3.31-.14-3.51,1.31a3.83,3.83,0,0,0,.71,2.22,21.7,21.7,0,0,1,2.46,7.43,2.36,2.36,0,0,1-.14,1.51,6.57,6.57,0,0,1-.82.85c-1.09,1.2-.41,3.15.59,4.42a11.86,11.86,0,0,0,13.71,3.46C245.43,184.16,248.34,174.56,245.47,168Z" fill="#fff"/><path d="M234.25,188.54A12.33,12.33,0,0,1,224.6,184c-1.19-1.53-1.83-3.69-.56-5.09.11-.12.23-.23.35-.34a1.75,1.75,0,0,0,.4-.43,1.83,1.83,0,0,0,.08-1.17,21.17,21.17,0,0,0-2.41-7.25l-.05-.1a4,4,0,0,1-.71-2.44,2.23,2.23,0,0,1,1.28-1.7,3.33,3.33,0,0,1,3,0,4.45,4.45,0,0,1,.51.33q-.27-.87-.48-1.74c-.11-.43-.45-1.76.43-2.49a2.19,2.19,0,0,1,2.5.07,9.21,9.21,0,0,1,1.83,1.33,5.06,5.06,0,0,1,1-4.26,2.62,2.62,0,0,1,1.44-.92,3,3,0,0,1,2.66,1.08,2.81,2.81,0,0,1,.79-2.46,2.55,2.55,0,0,1,3,0,6,6,0,0,1,1.73,2.18c1.67,3,3.21,6.08,4.58,9.21,3.1,7.06-.38,16.86-7,19.77A11.64,11.64,0,0,1,234.25,188.54Zm-9.78-22.41a2.19,2.19,0,0,0-1,.24,1.24,1.24,0,0,0-.73.92,3.33,3.33,0,0,0,.6,1.81l.05.09a22,22,0,0,1,2.52,7.61,2.72,2.72,0,0,1-.21,1.84,3,3,0,0,1-.6.67,3.45,3.45,0,0,0-.28.26c-.86,1-.28,2.62.61,3.76a11.29,11.29,0,0,0,13.1,3.31c6.16-2.71,9.38-11.83,6.49-18.41h0c-1.36-3.1-2.89-6.17-4.54-9.13a5.33,5.33,0,0,0-1.42-1.84,1.54,1.54,0,0,0-1.77-.08c-.41.35-.54,1-.37,2.09.06.37.14.73.23,1.1a12.94,12.94,0,0,1,2.18,4.75.53.53,0,0,1-.29.59.51.51,0,0,1-.63-.17,14.73,14.73,0,0,1-2.21-4.71,11,11,0,0,0-1-1.15c-.69-.71-1.31-1-1.82-.9a1.67,1.67,0,0,0-.86.58c-1.29,1.52-.84,3.76-.07,5.71a9.18,9.18,0,0,1,.76,1.69.52.52,0,0,1-1,.39c-.25-.5-.5-1.05-.73-1.63a8.09,8.09,0,0,0-3.07-3c-.22-.12-1-.49-1.35-.18s-.28.69-.09,1.44a34.64,34.64,0,0,0,1.82,5.34.51.51,0,0,1-.94.42c-.66-1.39-1.29-2.6-2.4-3.18A2.08,2.08,0,0,0,224.47,166.13Z" fill="#231f20"/><path d="M120.61,218a.59.59,0,0,1-.22,0,.5.5,0,0,1-.23-.67c7.77-16.12,29.79-44,30-44.28a.5.5,0,1,1,.78.63c-.22.27-22.16,28.06-29.89,44.09A.51.51,0,0,1,120.61,218Z" fill="#231f20"/><path d="M139.86,232.93a.53.53,0,0,1-.4-.19.5.5,0,0,1,.08-.7c.2-.16,19.91-16,25.59-40.78a.5.5,0,0,1,.6-.37.49.49,0,0,1,.37.6c-5.75,25.08-25.73,41.17-25.93,41.33A.56.56,0,0,1,139.86,232.93Z" fill="#231f20"/><path d="M201.12,83c0,4.82-4.24,8.74-9.47,8.74s-9.47-3.92-9.47-8.74,4.24-6.34,9.47-6.34S201.12,78.13,201.12,83Z" fill="#231f20"/><path d="M191.65,92.19c-5.49,0-10-4.15-10-9.24,0-3.12,1.73-6.84,10-6.84s10,3.72,10,6.84C201.62,88,197.15,92.19,191.65,92.19Zm0-15.08c-6,0-9,2-9,5.84,0,4.55,4,8.24,9,8.24s9-3.69,9-8.24C200.62,79.07,197.6,77.11,191.65,77.11Z" fill="#231f20"/><path d="M225.77,83c0,4.82-4.24,8.74-9.47,8.74s-9.47-3.92-9.47-8.74,4.24-6.34,9.47-6.34S225.77,78.13,225.77,83Z" fill="#231f20"/><path d="M216.3,92.19c-5.5,0-10-4.15-10-9.24,0-3.12,1.73-6.84,10-6.84s10,3.72,10,6.84C226.27,88,221.8,92.19,216.3,92.19Zm0-15.08c-6,0-9,2-9,5.84,0,4.55,4,8.24,9,8.24s9-3.69,9-8.24C225.27,79.07,222.25,77.11,216.3,77.11Z" fill="#231f20"/><path d="M206.83,83.45a.57.57,0,0,1-.28-.08c-3.24-2.17-5-.18-5.05-.1a.5.5,0,1,1-.76-.64s2.4-2.75,6.37-.09a.5.5,0,0,1-.28.91Z" fill="#231f20"/><path d="M203.45,107a5.93,5.93,0,0,1-5.41-3,.52.52,0,0,1,.24-.69.51.51,0,0,1,.69.24c.85,1.74,3,2.44,4.74,2.36a7.77,7.77,0,0,0,6.82-5.17.52.52,0,1,1,1,.32,8.72,8.72,0,0,1-7.75,5.88Z" fill="#231f20"/><path d="M195.54,106.13a.52.52,0,0,1-.07-1,2.64,2.64,0,0,0,1.93-1.37,2.69,2.69,0,0,0,.22-2.36.52.52,0,1,1,.95-.41,3.89,3.89,0,0,1-3,5.17Z" fill="#231f20"/><path d="M191.23,104.46a7.1,7.1,0,0,0-.95.77,1.76,1.76,0,0,0-.6,1,.71.71,0,0,0,.62.82.92.92,0,0,0,.68-.52,3.13,3.13,0,0,0,.35-2.2" fill="#d1d3d4"/><path d="M193,100.82a7.13,7.13,0,0,0-1.21-.14,1.73,1.73,0,0,0-1.12.26.71.71,0,0,0-.15,1,.93.93,0,0,0,.86.12,3.16,3.16,0,0,0,1.81-1.29" fill="#d1d3d4"/><path d="M220.62,214.67h0c-23.68-.32-47.22-13-47.45-13.13a.5.5,0,0,1,.48-.88c.23.13,23.56,12.69,47,13a.5.5,0,0,1,0,1Z" fill="#231f20"/></g></svg>