<svg xmlns="http://www.w3.org/2000/svg" viewBox="0 0 400 300" data-imageid="dream-14" imageName="Day dreaming" class="illustrations_image" style="width: 394px;"><g id="_396_day_dreaming_flatline" data-name="#396_day_dreaming_flatline"><rect x="136.31" y="63.66" width="127.23" height="161.22" fill="#fff"/><path d="M263.53,225.32H136.31a.44.44,0,0,1-.44-.44V63.66a.44.44,0,0,1,.44-.44H263.53a.44.44,0,0,1,.44.44V224.88A.44.44,0,0,1,263.53,225.32Zm-126.79-.88H263.1V64.09H136.74Z" fill="#231f20"/><path d="M176.66,159.06a28.06,28.06,0,0,0-14,5.81c-6.78,5.32-8.71,24.2-8.71,24.2l12.82,5.08-6.53,44.28h69l3.63-46.22,15.73-16s1.21-15.49-19.85-16.22C204.25,159.18,176.66,159.06,176.66,159.06Z" fill="#ffdafb" class="target-color"/><path d="M231.43,146.41c2.13-1.32,3.89-3,4.21-4.33a8.93,8.93,0,0,0-.48-4.38c-4.08-15.15-2.12-32.06-9.71-45.79a12.65,12.65,0,0,0-4-4.73,5.58,5.58,0,0,0-5.9-.29c-6.7-13-25.46-5.1-31.23,4.75-6.1,10.43-10,22.58-14.76,33.68-1.47,3.43-3,7-2.76,10.75s2.63,7.63,6.32,8.2l2.16-3.32c-1,.89-.8,2.64.1,3.65a7.62,7.62,0,0,0,3.56,1.88c12.91,4.07,26.83,7.52,39.83,3.76,2-.59,4.41-2.17,3.74-4.15C223.47,149.63,228,148.55,231.43,146.41Z" fill="#fff"/><path d="M206.83,152.28c-9.31,0-18.85-2.49-28-5.38a7.91,7.91,0,0,1-3.75-2,3.63,3.63,0,0,1-.81-1.57l-.76,1.18a.46.46,0,0,1-.44.2c-4.08-.63-6.49-4.9-6.69-8.6-.2-3.91,1.39-7.65,2.8-10.95s2.76-6.76,4.08-10.1c3.14-8,6.4-16.27,10.7-23.63,3.93-6.7,13.23-12,20.77-11.78a12.33,12.33,0,0,1,11,6.64,6.22,6.22,0,0,1,6,.53,13.29,13.29,0,0,1,4.13,4.89c4.7,8.5,5.79,18.36,6.84,27.89a119.92,119.92,0,0,0,2.91,18l.06.2a8.88,8.88,0,0,1,.42,4.39c-.33,1.35-2.06,3.15-4.4,4.6h0c-2.95,1.81-5.79,2.47-7.59,1.76a3.13,3.13,0,0,1-1.19-.82,1.87,1.87,0,0,1-.12.25,6.45,6.45,0,0,1-3.86,2.69A43.21,43.21,0,0,1,206.83,152.28ZM175.12,142a2.07,2.07,0,0,0-.07.41,2.65,2.65,0,0,0,.67,1.89,7.18,7.18,0,0,0,3.36,1.75c13.06,4.12,26.89,7.43,39.58,3.76a5.74,5.74,0,0,0,3.33-2.25,1.62,1.62,0,0,0,.16-1.17l-.06-.2a.44.44,0,0,1,.84-.26c0,.08,0,.15.06.22a2.39,2.39,0,0,0,1.41,1.57c1.52.6,4.13,0,6.8-1.7h0c2.12-1.31,3.74-2.94,4-4.06a8.09,8.09,0,0,0-.42-3.95l0-.2a121.22,121.22,0,0,1-2.94-18.13c-1-9.45-2.11-19.22-6.73-27.57a12.4,12.4,0,0,0-3.84-4.57,5.15,5.15,0,0,0-5.43-.3.44.44,0,0,1-.63-.16,11.55,11.55,0,0,0-10.47-6.58c-7.27-.18-16.21,4.9-20,11.36-4.28,7.29-7.52,15.53-10.65,23.5-1.32,3.35-2.68,6.81-4.09,10.12s-2.92,6.86-2.73,10.56c.18,3.27,2.22,7,5.68,7.74l1.4-2.16a2.35,2.35,0,0,1,.68-1,.44.44,0,0,1,.66.56Z" fill="#231f20"/><path d="M228.68,160s-8.7,10.41-26.86,10.17-25.16-11.13-25.16-11.13a41.61,41.61,0,0,0,10.75-6.37,5,5,0,0,0,.86-.89c2.9-4.11,1.94-15.25,1.94-15.25l20.57-.24s-.31,5.05-.32,9.75c0,3.3.14,6.42.64,7.52C212.31,156.23,228.68,160,228.68,160Z" fill="#fff"/><path d="M202.43,170.63h-.61c-18.18-.25-25.46-11.22-25.53-11.34a.44.44,0,0,1,0-.37.46.46,0,0,1,.26-.27,41.78,41.78,0,0,0,10.63-6.29,4.41,4.41,0,0,0,.78-.81c2.78-3.94,1.88-14.85,1.87-15a.44.44,0,0,1,.11-.33.48.48,0,0,1,.32-.15l20.56-.24c.12,0,.24,0,.33.14a.43.43,0,0,1,.11.33s-.3,5.09-.31,9.73c0,5,.32,6.72.6,7.33.81,1.79,11,4.75,17.28,6.2a.43.43,0,0,1,.32.28.48.48,0,0,1-.08.42C228.93,160.41,220.17,170.63,202.43,170.63Zm-25.09-11.38c1.54,2,8.86,10.3,24.49,10.5,15.32.23,23.94-7.38,26-9.48-3.48-.83-16-4-17.15-6.51-.45-1-.68-3.52-.68-7.7,0-3.83.22-7.94.3-9.31l-19.64.23c.15,2.2.6,11.32-2.05,15.07a5.59,5.59,0,0,1-.94,1A42.53,42.53,0,0,1,177.34,159.25Z" fill="#231f20"/><path d="M210.78,136.31s-.31,5.05-.32,9.75c-6.81,5.42-16.15,6.62-23.05,6.63a5,5,0,0,0,.86-.89c2.9-4.11,1.94-15.25,1.94-15.25Z" fill="#231f20"/><path d="M187.41,153.22a.54.54,0,0,1-.5-.35.53.53,0,0,1,.16-.58,5,5,0,0,0,.77-.79c2.76-3.91,1.86-14.79,1.85-14.91a.47.47,0,0,1,.13-.39.53.53,0,0,1,.39-.18l20.56-.24a.41.41,0,0,1,.39.17.56.56,0,0,1,.15.39s-.31,5.09-.32,9.73a.51.51,0,0,1-.2.41c-7,5.55-16.57,6.73-23.38,6.74Zm3.37-16.15c.16,2.37.55,11.31-2.08,15l0,.05c6.45-.15,15-1.44,21.26-6.34,0-3.68.21-7.54.29-9Z" fill="#231f20"/><path d="M184.73,120.94a8.54,8.54,0,0,0-.62-3.51c-.72-1.94-2.12-3.86-3.87-3.74-1.39.09-2.54,1.5-3,3.11a10.82,10.82,0,0,0,.15,5c.7,3.13,2.31,6.33,4.91,7.13" fill="#fff"/><path d="M182.35,129.33l-.13,0c-3.43-1.06-4.78-5.57-5.21-7.46a10.86,10.86,0,0,1-.14-5.16c.5-1.93,1.87-3.34,3.34-3.44,2-.12,3.55,2,4.31,4a9,9,0,0,1,.65,3.7.45.45,0,0,1-.47.4.42.42,0,0,1-.4-.46,8.12,8.12,0,0,0-.6-3.33c-.62-1.66-1.89-3.58-3.43-3.46-1.09.08-2.16,1.25-2.56,2.78a10.25,10.25,0,0,0,.15,4.76c.82,3.63,2.54,6.17,4.61,6.81a.44.44,0,0,1,.29.55A.44.44,0,0,1,182.35,129.33Z" fill="#231f20"/><path d="M201.16,144.45l-2.09-.1a18,18,0,0,1-17.16-18.84c.27-5.68,2.52-16.41,2.52-16.41s8.48-2.5,15.13-4.59C210.74,101,214,95.27,214,95.27a44.48,44.48,0,0,0,1.9,11.65,52.06,52.06,0,0,0,4.45,7.78s-.2,8.89-.37,12.6A18,18,0,0,1,201.16,144.45Z" fill="#fff"/><path d="M202,144.91l-.88,0-2.09-.09a18.48,18.48,0,0,1-17.57-19.3c.26-5.66,2.5-16.37,2.52-16.48a.44.44,0,0,1,.3-.33c.09,0,8.56-2.52,15.13-4.58,10.86-3.4,14.19-9,14.22-9a.44.44,0,0,1,.49-.21.43.43,0,0,1,.32.42,44.61,44.61,0,0,0,1.88,11.5,52,52,0,0,0,4.4,7.69.43.43,0,0,1,.07.25c0,.09-.19,8.94-.37,12.61A18.47,18.47,0,0,1,202,144.91ZM184.8,109.44c-.34,1.66-2.21,11-2.45,16.09a17.6,17.6,0,0,0,16.74,18.39l2.09.09h0a17.61,17.61,0,0,0,18.39-16.73c.16-3.41.34-11.3.37-12.45a49.67,49.67,0,0,1-4.42-7.76,44,44,0,0,1-1.88-10.51c-1.52,1.86-5.52,5.73-13.95,8.37C193.75,106.79,186.26,109,184.8,109.44Z" fill="#231f20"/><path d="M201.53,126.22a23.26,23.26,0,0,1-3.82-.3,1.22,1.22,0,0,1-.88-.65c-1.24-2.31,2.73-11.6,3.53-13.44a.55.55,0,1,1,1,.44c-1.78,4.07-4.33,11.06-3.57,12.48.05.08.08.09.11.09a23.92,23.92,0,0,0,5.08.24.54.54,0,0,1,.59.5.55.55,0,0,1-.5.59S202.42,126.22,201.53,126.22Z" fill="#231f20"/><polygon points="137.16 224.88 263.57 224.88 283.86 247.54 116.87 247.54 137.16 224.88" fill="#fff"/><path d="M283.86,248h-167a.44.44,0,0,1-.4-.26.45.45,0,0,1,.07-.47l20.29-22.66a.45.45,0,0,1,.33-.15H263.57a.46.46,0,0,1,.33.15l20.29,22.66a.45.45,0,0,1,.07.47A.44.44,0,0,1,283.86,248Zm-166-.87h165l-19.5-21.79h-126Z" fill="#231f20"/><rect x="117.06" y="247.54" width="166.8" height="7.04" fill="#fff"/><path d="M283.86,255H117.06a.44.44,0,0,1-.44-.44v-7a.44.44,0,0,1,.44-.43h166.8a.44.44,0,0,1,.44.43v7A.44.44,0,0,1,283.86,255Zm-166.36-.88H283.42V248H117.5Z" fill="#231f20"/><path d="M192.27,115.61a4.46,4.46,0,0,1-3.21-1.46.54.54,0,1,1,.84-.69c.09.1,1.93,2.22,4.83.14a.55.55,0,0,1,.64.89A5.33,5.33,0,0,1,192.27,115.61Z" fill="#231f20"/><path d="M210.09,115.12a5.47,5.47,0,0,1-3.55-1.15.55.55,0,1,1,.73-.81c.11.09,2.48,2.1,6.87-.32a.56.56,0,0,1,.75.22.55.55,0,0,1-.22.74A9.46,9.46,0,0,1,210.09,115.12Z" fill="#231f20"/><path d="M203.1,132.11a32.55,32.55,0,0,1-12.38-2.61.54.54,0,1,1,.45-1c.11,0,10.85,4.87,20,1a.54.54,0,0,1,.71.29.55.55,0,0,1-.29.72A21.68,21.68,0,0,1,203.1,132.11Z" fill="#231f20"/><path d="M218.34,121.61a4.34,4.34,0,0,1,8.45,1.92,7,7,0,0,1-1.17,2.6,15,15,0,0,1-6.94,5.51" fill="#fff"/><path d="M218.68,132.08a.44.44,0,0,1-.16-.85,14.49,14.49,0,0,0,6.73-5.34,6.08,6.08,0,0,0,1.1-2.43,3.9,3.9,0,0,0-7.59-1.73.44.44,0,0,1-.54.31.44.44,0,0,1-.3-.54,4.77,4.77,0,0,1,9.3,2.1,7.4,7.4,0,0,1-1.24,2.78,15.48,15.48,0,0,1-7.14,5.67A.45.45,0,0,1,218.68,132.08Z" fill="#231f20"/><path d="M155.36,183s-10.73,49.4.73,52.75c15.87,4.64,60.25-2.18,60.25-2.18s-.4,4,7,3.39,7.42-4,11.62-1.45,10.24,1.85,9-1.7-8.87-13.39-20.81-13.06-47.92-3.39-47.92-3.39l4.12-29.52" fill="#fff"/><path d="M172.6,237.84c-6.58,0-12.52-.45-16.64-1.65-11.71-3.43-1.47-51.23-1-53.27a.45.45,0,0,1,.52-.33.44.44,0,0,1,.34.52,251.93,251.93,0,0,0-3.93,25.08c-1.61,16.47-.11,25.86,4.35,27.16,15.59,4.56,59.62-2.12,60.07-2.19a.4.4,0,0,1,.36.12.43.43,0,0,1,.14.36,2.26,2.26,0,0,0,.73,1.71c1,1,3,1.44,5.81,1.2a18,18,0,0,0,6.29-1.65c1.82-.8,3-1.32,5.6.26,2.87,1.76,6.54,1.84,7.9.73a1.56,1.56,0,0,0,.41-1.91c-1.23-3.38-8.66-13.13-20.39-12.78s-47.61-3.35-48-3.39a.43.43,0,0,1-.3-.16.49.49,0,0,1-.09-.33l4.12-29.53a.43.43,0,1,1,.86.13L175.7,217c4.19.43,36.36,3.65,47.41,3.34,12.23-.34,19.95,9.82,21.23,13.36a2.41,2.41,0,0,1-.68,2.88c-1.82,1.49-5.91,1.18-8.91-.67-2.18-1.34-3.06-1-4.79-.2a19,19,0,0,1-6.56,1.72c-3.11.26-5.31-.23-6.53-1.47a3.3,3.3,0,0,1-.94-1.85C212.24,234.65,190.17,237.84,172.6,237.84Z" fill="#231f20"/><path d="M248.53,176.24s-.24,47.19-25.89,49.85c-22.25,2.31-22.75-20.08-23-39.44-.3-23.46,4.11-39,5.08-41.39s9.44-6.69,11.37-9.43,2.42-9.6,2.66-10.49,3.07-1.94,2.58,1.29c0,0,.17-2,1.21-1.21a1.74,1.74,0,0,1,.41,2.1s.89-2.42,1.69-1.53.41,3.22.41,3.22,1.12-2.9,1.69-1.29-.16,11.13-2.9,14.6-9.93,7.95-9.93,7.95l9.2,45.61,3.39-17.66" fill="#fff"/><path d="M219.62,226.69c-4.9,0-8.91-1.36-12-4.06-8.1-7.22-8.3-23.17-8.46-36-.29-23.16,4-38.66,5.11-41.55.56-1.4,3.15-3.18,5.89-5.07,2.29-1.59,4.67-3.22,5.54-4.45,1.45-2.06,2.07-6.72,2.37-9,.1-.7.16-1.16.22-1.38a2.09,2.09,0,0,1,2.27-1.19,1.42,1.42,0,0,1,1,.88l.1,0a1,1,0,0,1,1.07.21,1.85,1.85,0,0,1,.6.73,1.3,1.3,0,0,1,.69-.44.91.91,0,0,1,.86.32,2.9,2.9,0,0,1,.6,1.71,1,1,0,0,1,.76-.4c.26,0,.61.14.83.78.59,1.69-.1,11.38-3,15-2.5,3.16-8.45,7-9.78,7.89l8.7,43.14,3-15.48a.44.44,0,0,1,.51-.35.44.44,0,0,1,.35.51l-3.39,17.67a.44.44,0,0,1-.43.35h0a.44.44,0,0,1-.43-.35l-9.19-45.62a.42.42,0,0,1,.19-.45c.07,0,7.15-4.48,9.81-7.85s3.37-12.67,2.84-14.18a1.14,1.14,0,0,1-.06-.15,4.78,4.78,0,0,0-.82,1.45.43.43,0,0,1-.52.26.44.44,0,0,1-.32-.49c.15-.83.19-2.33-.29-2.86-.23,0-.6.53-.86,1.14a2.85,2.85,0,0,1-.12.29.44.44,0,0,1-.56.21.43.43,0,0,1-.24-.55c0-.07.06-.16.1-.26a1.18,1.18,0,0,0-.36-1.34c-.13-.1-.19-.1-.19-.1h0a1.43,1.43,0,0,0-.29.75l0,.28a.44.44,0,0,1-.49.36.42.42,0,0,1-.38-.46c0-.07,0-.18,0-.31.05-.56,0-1.29-.52-1.4a1.32,1.32,0,0,0-1.25.57c0,.16-.11.67-.19,1.27-.33,2.49-1,7.12-2.53,9.35-1,1.36-3.29,3-5.75,4.66s-5.12,3.53-5.58,4.69c-1.14,2.85-5.34,18.2-5,41.21.16,12.64.36,28.38,8.17,35.33,3.5,3.12,8.19,4.32,14.34,3.69,25-2.59,25.5-48.95,25.5-49.42a.44.44,0,0,1,.44-.44h0a.45.45,0,0,1,.44.44c0,.48-.55,47.61-26.29,50.28A29.41,29.41,0,0,1,219.62,226.69Z" fill="#231f20"/><path d="M226,212.73a.44.44,0,0,1-.43-.35c-.64-3.4-3.88-20.41-3.88-21.14a.44.44,0,0,1,.88,0c0,.67,2.33,12.91,3.86,21a.44.44,0,0,1-.35.52Zm-3.43-21.49h0Z" fill="#231f20"/><polygon points="335.92 243.44 263.69 225.21 263.69 63.66 335.92 45.42 335.92 243.44" fill="#fff"/><path d="M335.92,243.88h-.11l-72.22-18.24a.43.43,0,0,1-.33-.42V63.66a.42.42,0,0,1,.33-.42L335.81,45a.41.41,0,0,1,.38.08.43.43,0,0,1,.16.34v198a.44.44,0,0,1-.16.34A.46.46,0,0,1,335.92,243.88Zm-71.79-19,71.35,18V46L264.13,64Z" fill="#231f20"/><path d="M324.43,229.41a.39.39,0,0,1-.15,0l-52.66-11.67a.64.64,0,0,1-.51-.64v-41.6a.65.65,0,0,1,.71-.65l52.66,4.48a.65.65,0,0,1,.6.65v48.79a.69.69,0,0,1-.24.52A.68.68,0,0,1,324.43,229.41Zm-52-12.86,51.35,11.38V180.56l-51.35-4.36Zm52-43.34h-.05l-52.66-3.53a.66.66,0,0,1-.61-.66V119.84a.66.66,0,0,1,.61-.66l52.66-3.53a.65.65,0,0,1,.7.66v56.24a.65.65,0,0,1-.65.66Zm-52-4.8,51.35,3.44V117l-51.35,3.44ZM271.77,114a.65.65,0,0,1-.66-.65V71.78a.64.64,0,0,1,.51-.64l52.66-11.67a.7.7,0,0,1,.56.13.69.69,0,0,1,.24.52V108.9a.65.65,0,0,1-.6.65L271.82,114Zm.65-41.72v40.35l51.35-4.36V60.93Z" fill="#d1d3d4"/><polygon points="335.92 45.42 342.58 48.61 342.58 240.23 335.92 243.42 335.92 45.42" fill="#fff"/><path d="M335.92,243.86a.55.55,0,0,1-.24-.07.45.45,0,0,1-.2-.37v-198a.45.45,0,0,1,.2-.37.44.44,0,0,1,.43,0l6.66,3.19a.43.43,0,0,1,.25.39V240.23a.43.43,0,0,1-.25.39l-6.66,3.19A.45.45,0,0,1,335.92,243.86Zm.43-197.75V242.73l5.8-2.78V48.89Z" fill="#231f20"/><polygon points="64.08 243.44 136.31 225.21 136.31 63.66 64.08 45.42 64.08 243.44" fill="#fff"/><path d="M64.08,243.88a.46.46,0,0,1-.27-.09.44.44,0,0,1-.16-.34v-198a.43.43,0,0,1,.16-.34.41.41,0,0,1,.38-.08l72.22,18.24a.42.42,0,0,1,.33.42V225.21a.43.43,0,0,1-.33.42L64.19,243.87ZM64.52,46v196.9l71.35-18V64Z" fill="#231f20"/><path d="M75.57,229.41a.68.68,0,0,1-.41-.14.69.69,0,0,1-.24-.52V180a.65.65,0,0,1,.6-.65l52.66-4.48a.65.65,0,0,1,.71.65v41.6a.64.64,0,0,1-.51.64L75.72,229.39A.39.39,0,0,1,75.57,229.41Zm.66-48.85v47.37l51.35-11.38V176.2Zm-.66-7.35a.65.65,0,0,1-.65-.66V116.31a.66.66,0,0,1,.2-.48.68.68,0,0,1,.5-.18l52.66,3.53a.66.66,0,0,1,.61.66V169a.66.66,0,0,1-.61.66l-52.66,3.53Zm.66-56.2v54.84l51.35-3.44v-48Zm52-3h0l-52.66-4.48a.65.65,0,0,1-.6-.65V60.12a.69.69,0,0,1,.24-.52.7.7,0,0,1,.56-.13l52.66,11.67a.64.64,0,0,1,.51.64v41.6a.65.65,0,0,1-.66.65Zm-52-5.73,51.35,4.36V72.31L76.23,60.93Z" fill="#d1d3d4"/><polygon points="64.08 45.42 57.42 48.61 57.42 240.23 64.08 243.42 64.08 45.42" fill="#fff"/><path d="M64.08,243.86a.45.45,0,0,1-.19-.05l-6.66-3.19a.43.43,0,0,1-.25-.39V48.61a.43.43,0,0,1,.25-.39L63.89,45a.44.44,0,0,1,.43,0,.45.45,0,0,1,.2.37v198a.45.45,0,0,1-.2.37A.55.55,0,0,1,64.08,243.86ZM57.85,240l5.8,2.78V46.11l-5.8,2.78Z" fill="#231f20"/></g></svg>