<?xml version="1.0" encoding="utf-8"?>
<!-- Generator: Adobe Illustrator 23.1.0, SVG Export Plug-In . SVG Version: 6.00 Build 0)  -->
<svg version="1.1" id="Layer_1" xmlns="http://www.w3.org/2000/svg" xmlns:xlink="http://www.w3.org/1999/xlink" x="0px" y="0px"
	 viewBox="0 0 400 300" style="enable-background:new 0 0 400 300;" xml:space="preserve">
<style type="text/css">
	.st0{fill:#231F20;}
	.st1{fill:#E6E7E8;}
	.st2{fill:#FFDAFB;}
	.st3{fill:#FFFFFF;}
	.st4{fill:#D1D3D4;}
	.st5{fill:none;}
</style>
<g id="_282_happy_face_flatline">
	<path class="st0" d="M139.1,146c-0.9,0-1.9-0.2-2.6-0.8C72.3,102,59.9,60.6,59.3,58.8c-0.6-2.5,0.9-5,3.3-5.7
		c2.4-0.6,4.7,0.8,5.5,3.1c0.1,0.4,12.3,40.1,73.4,81.3c2.1,1.4,2.7,4.3,1.3,6.5C142,145.3,140.5,146,139.1,146L139.1,146z"/>
	<path class="st0" d="M300.7,140.5c-24,0-61-30.3-65.7-34.4c-2.1-1.4-2.7-4.3-1.3-6.5c1.4-2.1,4.3-2.7,6.5-1.3
		c0.2,0.2,0.6,0.4,0.7,0.6c8.7,7.1,17.8,13.7,27.5,19.6c17.7,10.7,31.5,15.1,37.8,11.5c13.9-7.9,13.1-39.8,11.6-51.3
		c-0.4-2.6,1.5-4.8,4-5.2c2.6-0.4,4.8,1.5,5.2,4c0.9,8.3,1.1,16.5,0.5,24.8c-1.5,18.4-7.1,30.5-16.6,35.8
		C307.6,139.9,304.2,140.6,300.7,140.5z"/>
	<path class="st0" d="M116.3,239.8c-2.6,0-4.6-2.1-4.6-4.6c0-2.6,2.1-4.6,4.6-4.6c14.2-0.2,25-4.5,32.3-12.5
		c12.3-13.5,10.9-33.3,10.9-33.5c-0.2-2.6,1.8-4.7,4.3-5s4.7,1.8,5,4.3c0.1,0.9,1.6,24.1-13.3,40.4
		C146.1,234.2,133,239.4,116.3,239.8L116.3,239.8z"/>
	<path class="st0" d="M290.8,230.1c-2.2,0-4-1.5-4.5-3.5c-7.7-33.9-55.1-35.1-55.6-35.1c-2.6,0-4.6-2.2-4.5-4.7
		c0.1-2.6,2.2-4.6,4.7-4.5c9.6,0.4,19.2,2.2,28.2,5.4c19.8,7.1,32.3,19.8,36.2,36.9c0.6,2.5-1.1,5-3.4,5.5
		C291.6,230,291.2,230.1,290.8,230.1z"/>
	<ellipse class="st1" cx="205.2" cy="287.6" rx="55.6" ry="8.8"/>
	<circle class="st2" cx="199.7" cy="132.3" r="75.8"/>
	<path class="st0" d="M199.7,56.5c41.8,0,75.9,33.9,75.9,75.8S241.6,208,199.8,208s-75.9-33.9-75.9-75.8l0,0
		C124,90.4,157.8,56.5,199.7,56.5 M199.7,55.3c-42.5,0-77,34.5-77,77s34.5,77,77,77s77-34.5,77-77l0,0
		C276.7,89.8,242.2,55.3,199.7,55.3L199.7,55.3z"/>
	<path class="st0" d="M180.8,114.7c-0.9,0-1.8-0.8-1.8-1.8c0-7.6-2.6-12.5-4.3-12.5c-1.8,0-4.3,5-4.3,12.5c0,0.9-0.8,1.8-1.8,1.8
		c-1,0-1.8-0.8-1.8-1.8c0-7.8,2.8-15.9,7.8-15.9s7.8,8.3,7.8,15.9C182.5,113.9,181.7,114.7,180.8,114.7z"/>
	<path class="st0" d="M230.8,114.7c-0.9,0-1.8-0.8-1.8-1.8c0-7.6-2.6-12.5-4.3-12.5s-4.3,5-4.3,12.5c0,0.9-0.8,1.8-1.8,1.8
		s-1.8-0.8-1.8-1.8c0-7.8,2.8-15.9,7.8-15.9c5,0,7.8,8.3,7.8,15.9C232.4,113.9,231.6,114.7,230.8,114.7z"/>
	<path class="st0" d="M242,148.2c0,17.7-18.9,32-42.3,32s-42.3-14.4-42.3-32H242z"/>
	<path class="st3" d="M309.7,95.1c-5.2-3.1-8.4-14.7-7.6-21.1s3.9-5.4,7.4-6c-0.4-2.7-0.6-5.5,1.1-7.7c0.9-1.1,2.1-1.9,3.3-2.4
		c7.2-3.1,15.3-3.2,22.6-0.5c1.4,0.5,2.7,1.3,3.7,2.4c0.8,1.2,1.4,2.5,1.6,3.8c3.1,13-3.3,21.4-4.8,33.4L322.5,96
		c-3.2-0.2-9.6,0.7-12.5-0.9C309.8,95.1,309.7,95.1,309.7,95.1z"/>
	<path class="st0" d="M336.9,97.8L336.9,97.8l-14.6-1.1c-0.9-0.1-2.2,0-3.4,0c-3.3,0.1-7.1,0.1-9.2-1.1l-0.1-0.1l0,0
		c-5.7-3.4-8.6-15.5-7.8-21.6c0.8-5.8,3.4-6,6.4-6.4l1.1-0.1c-0.4-2.7-0.5-5.4,1.2-7.4c0.9-1.1,2.2-2,3.5-2.5
		c7.3-3.1,15.5-3.2,22.9-0.5c1.5,0.5,2.8,1.3,3.9,2.5c0.9,1.2,1.5,2.6,1.8,4c2,8.5,0,15-2.1,21.7c-1.3,3.8-2.2,7.8-2.8,11.8
		C337.5,97.6,337.1,97.8,336.9,97.8z M320.8,95.6c0.6,0,1.1,0,1.5,0l14,0.9c0.6-3.9,1.5-7.8,2.8-11.5c2.1-6.7,3.9-13,2.1-21.2
		c-0.2-1.3-0.7-2.6-1.5-3.5c-0.9-0.9-2.1-1.8-3.3-2.1c-7.2-2.7-15.1-2.6-22.1,0.5c-1.2,0.5-2.4,1.2-3.1,2.1
		c-1.5,1.9-1.3,4.5-0.9,7.2c0,0.4-0.1,0.6-0.5,0.7c-0.6,0.1-1.2,0.1-1.8,0.2c-2.7,0.2-4.6,0.5-5.2,5.3c-0.9,6.5,2.5,17.6,7.2,20.5
		l0.1,0.1c1.9,1.1,5.7,0.9,8.7,0.9H320.8z"/>
	<path class="st3" d="M339.6,99.7l-30.9,0.9c-2.6,0.1-4.6-2-4.7-4.5v-0.6c-0.1-2.6,2-4.6,4.5-4.7l30.9-0.9c2.6-0.1,4.6,2,4.7,4.5
		v0.6C344.2,97.4,342.1,99.6,339.6,99.7z"/>
	<path class="st0" d="M308.4,101.9c-2.8,0-5.1-2.2-5.2-5.1v-0.6c-0.1-2.9,2.2-5.3,5.1-5.4l30.9-0.9c1.4,0,2.8,0.5,3.7,1.4
		c1.1,0.9,1.6,2.2,1.6,3.5v0.6c0.1,2.9-2.2,5.3-5,5.3l0,0l-30.9,1.1L308.4,101.9L308.4,101.9z M308.3,92.1c-2.2,0.1-3.9,2-3.9,4.1
		v0.6c0.1,2.2,2,3.9,4.1,3.9l0,0l30.9-1.1c2.2-0.1,3.9-1.9,3.9-4l0,0V95c-0.1-2.2-2-3.9-4.1-3.9L308.3,92.1L308.3,92.1z M308.3,91.5
		L308.3,91.5z"/>
	<ellipse class="st3" cx="148.3" cy="128.6" rx="9.2" ry="5.9"/>
	<ellipse class="st3" cx="251.2" cy="128.6" rx="9.2" ry="5.9"/>
	<path class="st3" d="M309.6,68.1c0,0,19.9-2.8,17.9,2.7c-2,5.4-16.3,8.5-16.3,8.5s12.7-3.4,15.7,6.1"/>
	<path class="st0" d="M327,85.8c-0.2,0-0.5-0.1-0.6-0.5c-1.2-3.7-4-5.8-8.5-6.3c-1.9-0.1-3.8,0-5.7,0.4l-0.9,0.2
		c-0.4,0-0.6-0.2-0.7-0.6c0-0.2,0.1-0.5,0.4-0.6l0.8-0.1c2.9-0.7,13.6-3.4,15.2-7.9c0.2-0.4,0.1-0.8-0.1-1.2
		c-1.8-2.1-11.5-1.5-17.1-0.8c-0.4,0.1-0.7-0.1-0.7-0.4c0-0.2,0.1-0.7,0.4-0.7h0.1c1.6-0.2,15.6-2.1,18.3,1.2
		c0.6,0.7,0.7,1.5,0.4,2.4c-1.2,3.2-6.3,5.5-10.5,7.1c3.8,0.2,8.4,1.9,9.9,7.1c0.1,0.4-0.1,0.7-0.4,0.7l0,0
		C327.1,85.8,327.1,85.8,327,85.8z"/>
	<path class="st3" d="M89.5,73.7c3.2-5.1,0.9-16.9-2.7-22.2s-6-3.1-9.3-2.1c-0.8-2.6-1.9-5.2-4.3-6.4c-1.3-0.5-2.7-0.7-4-0.6
		c-7.8,0.5-15.1,3.9-20.4,9.6c-1.1,1.1-1.9,2.4-2.2,3.7c-0.2,1.4-0.1,2.8,0.2,4.1C50,72.8,59.3,77.5,66,87.6l12.6-7.4
		C81.6,78.6,87.6,76.4,89.5,73.7L89.5,73.7z"/>
	<path class="st0" d="M66,88.2c-0.2,0-0.4-0.1-0.5-0.2c-2.4-3.3-5-6.5-7.8-9.3c-4.8-5.2-9.5-10.2-11.6-18.5
		c-0.5-1.4-0.5-2.9-0.2-4.4c0.5-1.5,1.3-2.9,2.5-4c5.4-5.8,12.9-9.3,20.8-9.8c1.5-0.1,2.9,0,4.3,0.6c2.5,1.2,3.4,3.5,4.4,6.1
		l0.9-0.4c2.7-1.1,5.2-2,8.5,2.9c3.4,5.1,6.3,17.2,2.7,22.8l0,0l-0.1,0.1C88.5,76,85,77.6,82,79c-1.2,0.6-2.4,1.1-3.1,1.5L66.1,88
		C66.2,88.2,66.1,88.3,66,88.2z M70.2,43h-0.9c-7.7,0.5-14.9,3.8-19.9,9.3c-0.9,0.9-1.8,2.2-2.1,3.4c-0.2,1.3-0.1,2.6,0.2,3.8
		c2,8.1,6.5,13,11.2,18.1c2.8,2.8,5.3,5.8,7.7,9.1l12.2-7.1c0.8-0.5,2-1.1,3.2-1.6c2.8-1.3,6.1-2.9,7.3-4.6l0.1-0.1l0,0
		c3.1-4.6,1.1-16.1-2.7-21.6c-2.7-4-4.5-3.3-7.1-2.5c-0.5,0.2-1.1,0.4-1.6,0.6c-0.4,0.1-0.6-0.1-0.7-0.4c-0.8-2.6-1.9-5-3.9-6
		C72,43.3,71.1,43,70.2,43L70.2,43z"/>
	<path class="st3" d="M61,82.7l28.1-12.9c2.4-1.1,5.1,0,6.1,2.4l0.2,0.6c1.1,2.4,0,5.1-2.4,6.1L65.1,91.7c-2.4,1.1-5.1,0-6.1-2.4
		l-0.2-0.6C57.7,86.6,58.7,83.8,61,82.7z"/>
	<path class="st0" d="M63.3,92.7c-0.6,0-1.3-0.1-1.9-0.4c-1.3-0.5-2.4-1.5-2.9-2.7L58.4,89c-1.2-2.7-0.1-5.7,2.6-7l0,0l28-12.8
		c2.7-1.2,5.8-0.1,7,2.6l0,0l0.2,0.6c1.2,2.7,0.1,5.7-2.6,7l0,0L65.3,92.3C64.6,92.6,64,92.7,63.3,92.7z M91,70
		c-0.6,0-1.2,0.1-1.6,0.4l0,0L61.3,83.3c-2,0.9-2.9,3.3-2,5.3l0,0l0.2,0.6c0.9,2,3.3,2.9,5.3,2l0,0L93,78.3c2-0.9,2.9-3.3,2-5.3
		l-0.2-0.6C94.1,70.9,92.7,70,91,70L91,70z M89.1,69.9L89.1,69.9z"/>
	<path class="st3" d="M77.5,49.4c0,0-19.1,6.4-14.9,10.4S81,60,81,60s-13,2.6-11.3,12.5"/>
	<path class="st0" d="M69.7,73.1c-0.4,0-0.6-0.2-0.6-0.5c-0.9-5.4,2.5-8.8,5.8-10.7c-4.4,0.6-10,0.7-12.5-1.6
		c-0.6-0.6-0.9-1.4-0.8-2.2c0.9-4.1,14.3-8.7,15.8-9.2c0.4-0.1,0.7,0.1,0.8,0.4c0.1,0.4,0,0.7-0.4,0.7l0,0
		c-5.5,1.9-14.5,5.7-15.1,8.4c-0.1,0.4,0.1,0.8,0.4,1.1c3.4,3.1,14.1,0.9,17,0.2c0.5-0.1,0.7-0.2,0.8-0.2c0.4-0.1,0.6,0.1,0.7,0.5
		c0.1,0.4-0.1,0.6-0.5,0.7l0,0l-0.9,0.2c-1.9,0.5-3.5,1.3-5.2,2.2c-3.8,2.4-5.4,5.4-4.7,9.3C70.4,72.8,70.1,73,69.7,73.1L69.7,73.1z
		"/>
	<path class="st3" d="M295.9,199.7c0,0-21.1,5-26,24l27.7,38.4l37.7-52.5l-27.7,9.5L295.9,199.7z"/>
	<path class="st0" d="M297.8,262.6c-0.2,0-0.4-0.1-0.5-0.2L269.5,224c-0.1-0.1-0.1-0.4-0.1-0.5c4.8-19.1,26.2-24.3,26.4-24.4
		c0.2-0.1,0.5,0,0.6,0.2l11.5,18.8l27.4-9.3c0.4-0.1,0.7,0,0.8,0.4c0.1,0.2,0,0.4-0.1,0.6l-37.7,52.5
		C298.2,262.5,298,262.6,297.8,262.6z M270.7,223.6l27.1,37.4l36.1-50.4l-26.1,9c-0.2,0.1-0.6,0-0.7-0.2l-11.4-18.8
		C292.7,201.2,275,206.7,270.7,223.6z"/>
	<path class="st4" d="M299.2,263.4c-10.3-8.1,1.1-20.9,11.8-35.2c7.8-10.3,22.1-22.9,29-17.5C348.2,217,311.5,273.1,299.2,263.4z"/>
	<path class="st0" d="M302.7,265.2c-1.3,0-2.7-0.5-3.7-1.3l0,0c-9.8-7.8-0.7-19.8,9.1-32.5l2.7-3.7c6.4-8.5,16.6-17.9,24.2-18.9
		c2-0.4,4,0.1,5.7,1.4c1.2,0.9,1.6,2.7,1.3,5.3c-1.8,12-21.8,43.3-35.5,48.7C305,264.8,303.9,265,302.7,265.2z M299.7,262.9
		c1.5,1.2,3.5,1.3,6.1,0.2c12.3-5,33-35.2,34.7-47.8c0.2-1.5,0.2-3.3-0.8-4.1c-1.4-1.1-3.1-1.5-4.7-1.2c-7,0.9-17.1,9.9-23.5,18.4
		l-2.8,3.5C299.1,244.8,290.7,255.9,299.7,262.9L299.7,262.9z"/>
	<path class="st3" d="M124.4,247.7l-4.1-28.9c-12.3,3.2-25,5.1-37.8,5.2c0,0-6.7,45.6-3.5,45.8c3.1,0.2,14.4-19.4,14.4-19.4
		S102.7,254.4,124.4,247.7z"/>
	<path class="st0" d="M78.8,270.2L78.8,270.2c-0.2,0-0.6-0.1-0.7-0.4c-2.5-2.9,2.7-38.8,3.8-46c0-0.4,0.2-0.5,0.6-0.5
		c12.7-0.2,25.4-2,37.7-5.2c0.1,0,0.4,0,0.5,0.1c0.1,0.1,0.2,0.2,0.2,0.5l4.1,28.9c0,0.4-0.1,0.6-0.5,0.7
		c-19.1,5.9-28.9,3.4-31.2,2.8C90.4,256.1,82,270.2,78.8,270.2z M83,224.5C79.9,244.8,77.6,267,79,269c1.9-0.4,8.4-9.8,13.7-19.1
		c0.1-0.2,0.5-0.4,0.8-0.2c0.1,0,9.6,3.9,30.3-2.5l-3.9-27.7C107.7,222.6,95.3,224.2,83,224.5L83,224.5z"/>
	<path class="st0" d="M120.2,218.7c0,0-4,3.9-4,16.3c0,6.7,4.6,15.4,8.3,12.6C128,244.9,129.7,218.7,120.2,218.7z"/>
	<path class="st0" d="M123,248.8c-0.5,0-0.9-0.1-1.4-0.4c-3.1-1.5-6-8-6-13.5c0-12.5,4-16.5,4.1-16.8c0.1-0.1,0.2-0.1,0.5-0.1
		c2.8,0,4.8,2,6.1,5.5c2.7,7.7,1.3,22.1-1.6,24.4C124.3,248.5,123.7,248.8,123,248.8z M120.5,219.4c-0.7,0.9-3.7,5.2-3.7,15.7
		c0,5,2.7,11,5.3,12.3c0.6,0.4,1.4,0.2,2-0.2c2.1-1.6,3.9-15.2,1.3-23C124.2,221.1,122.5,219.5,120.5,219.4L120.5,219.4z"/>
	<line class="st5" x1="286.2" y1="23.1" x2="260.7" y2="49.4"/>
	<path class="st4" d="M260.7,50c-0.4,0-0.6-0.2-0.6-0.6c0-0.1,0.1-0.4,0.1-0.5l25.5-26.3c0.2-0.2,0.6-0.2,0.8,0l0,0
		c0.2,0.2,0.2,0.6,0,0.8L261,49.7C261.1,49.9,261,50,260.7,50z"/>
	<line class="st5" x1="205.7" y1="36.2" x2="204.4" y2="4.2"/>
	<path class="st4" d="M205.7,36.9c-0.4,0-0.6-0.2-0.6-0.6l-1.3-32.1c0-0.4,0.2-0.6,0.6-0.6l0,0c0.4,0,0.6,0.2,0.6,0.6l1.4,32.1
		C206.3,36.5,206.2,36.9,205.7,36.9L205.7,36.9z"/>
	<line class="st5" x1="132.1" y1="59.7" x2="100.5" y2="25.3"/>
	<path class="st4" d="M132.1,60.3c-0.1,0-0.4-0.1-0.5-0.2L100,25.7c-0.2-0.2-0.2-0.6-0.1-0.8c0.2-0.2,0.6-0.2,0.8-0.1l0.1,0.1
		l31.6,34.4c0.2,0.2,0.2,0.6,0,0.8C132.3,60.2,132.2,60.3,132.1,60.3z"/>
	<line class="st5" x1="100.5" y1="154.5" x2="22.6" y2="159.6"/>
	<path class="st4" d="M22.6,160.2c-0.4-0.1-0.5-0.5-0.5-0.7c0-0.2,0.2-0.4,0.5-0.5l77.8-5.1c0.4-0.1,0.7,0,0.8,0.4
		c0.1,0.4,0,0.7-0.4,0.8c-0.1,0-0.2,0-0.4,0L22.6,160.2L22.6,160.2z"/>
	<line class="st5" x1="95.8" y1="194.6" x2="63.9" y2="208"/>
	<path class="st4" d="M63.9,208.6c-0.2,0-0.5-0.1-0.6-0.4c-0.1-0.4,0-0.7,0.4-0.8l32-13.5c0.4-0.1,0.7,0.1,0.7,0.5
		c0.1,0.2,0,0.6-0.2,0.7l-32,13.5C64,208.6,63.9,208.6,63.9,208.6z"/>
	<line class="st5" x1="313.5" y1="155.9" x2="392.5" y2="140.5"/>
	<path class="st4" d="M313.5,156.4c-0.2,0-0.6-0.2-0.6-0.5c-0.1-0.4,0.1-0.6,0.5-0.7l0,0l79-15.3c0.4-0.1,0.6,0.1,0.7,0.5l0,0
		c0.1,0.4-0.1,0.7-0.5,0.7L313.5,156.4L313.5,156.4z"/>
	<line class="st5" x1="318.2" y1="186.9" x2="367.7" y2="199.7"/>
	<path class="st4" d="M367.7,200.3L367.7,200.3l-49.4-12.9c-0.4,0-0.6-0.4-0.5-0.7c0-0.4,0.4-0.6,0.7-0.5h0.1l49.3,12.9
		c0.4,0.1,0.5,0.5,0.4,0.8C368.2,200.1,367.9,200.3,367.7,200.3z"/>
	<line class="st5" x1="162.2" y1="36.2" x2="157.5" y2="23.1"/>
	<path class="st4" d="M162.2,36.9c-0.2,0-0.5-0.1-0.6-0.4l-4.7-13.1c-0.1-0.4,0-0.7,0.4-0.8l0,0c0.4-0.1,0.7,0,0.8,0.4l4.7,13.1
		c0.1,0.4,0,0.7-0.4,0.8H162.2z"/>
	<line class="st5" x1="79.8" y1="122.7" x2="56.2" y2="113"/>
	<path class="st4" d="M79.8,123.3c-0.1,0-0.1,0-0.2,0l-23.5-9.8c-0.4-0.1-0.5-0.5-0.4-0.8c0.1-0.4,0.5-0.5,0.8-0.4l23.5,9.8
		c0.4,0.1,0.5,0.5,0.4,0.8C80.3,123.2,80,123.3,79.8,123.3z"/>
</g>
</svg>
