<?xml version="1.0" encoding="utf-8"?>
<!-- Generator: Adobe Illustrator 23.1.0, SVG Export Plug-In . SVG Version: 6.00 Build 0)  -->
<svg version="1.1" id="Layer_1" xmlns="http://www.w3.org/2000/svg" xmlns:xlink="http://www.w3.org/1999/xlink" x="0px" y="0px"
	 viewBox="0 0 400 300" style="enable-background:new 0 0 400 300;" xml:space="preserve">
<style type="text/css">
	.st0{fill:#231F20;}
	.st1{fill:#E6E7E8;}
	.st2{fill:#F5C7E0;}
	.st3{fill:#FFFFFF;}
</style>
<g id="_284_heart_face_flatline">
	<path class="st0" d="M228.1,257.7c-2.4,0-4.5-1.8-4.9-4.2c-7.6-42.6-36.2-65.8-36.5-66c-2.2-1.7-2.5-4.9-0.8-7.1s4.9-2.5,7.1-0.8
		c1.3,1,31.9,25.6,40.2,72.1c0.5,2.7-1.3,5.4-4.1,5.8C228.8,257.7,228.4,257.7,228.1,257.7z"/>
	<path class="st0" d="M163.4,258c-2.1,0-4-1.3-4.7-3.3c-13.4-35.4-0.5-68,0-69.4c1-2.6,4-3.8,6.6-2.8c2.6,1,3.8,4,2.8,6.6
		c-0.1,0.4-11.9,30.5,0,62.1c1,2.6-0.3,5.5-2.9,6.5C164.6,257.9,164,258,163.4,258z"/>
	<path class="st0" d="M232,219.7c-0.9,0-1.8-0.1-2.7-0.4c-12-3.6-15.1-33.2-15.9-45.7c-0.2-2.8,1.9-5.2,4.7-5.3
		c2.8-0.2,5.2,1.9,5.3,4.7c1.1,17,5,34,8.4,36.5c1.7-1.4,6-8.5,9.8-29.4l0.1-0.8c0.5-2.7,3.1-4.5,5.9-4c2.7,0.5,4.5,3.1,4,5.9
		c0,0,0,0.1,0,0.1l-0.1,0.6c-5.6,30.8-12.5,35-14.7,36.4C235.5,219.2,233.8,219.7,232,219.7z"/>
	<path class="st0" d="M135.1,219.2c-2.2,0-5.3-1-7.9-5.5c-4.3-7.4-6.9-23-8.1-31.7c-3.2-23.6-1.1-25.5,0.3-26.9
		c2-1.9,5.2-1.8,7.1,0.2c1.4,1.4,1.8,3.5,1,5.3c-0.2,2.5,0.3,12.6,2.2,24.8c1.9,11.8,3.9,18.4,5.3,21.7c3.1-7.3,6.7-28.3,8.2-54.3
		c0.2-2.8,2.5-4.9,5.3-4.8c2.8,0.2,4.9,2.5,4.8,5.3c0,0.6-0.9,14.9-2.8,29.8c-3.6,27.4-7.9,34.1-13.2,35.7
		C136.6,219.1,135.9,219.2,135.1,219.2z M126.4,162.4L126.4,162.4z"/>
	<ellipse class="st1" cx="200.2" cy="286.7" rx="68.3" ry="9.6"/>
	<circle class="st2" cx="192.4" cy="114.4" r="82.4"/>
	<path class="st0" d="M192.4,32c45.5,0,82.4,36.9,82.4,82.4s-36.9,82.4-82.4,82.4S110,159.9,110,114.4l0,0
		C110,68.9,146.9,32,192.4,32 M192.4,30.7c-46.2,0-83.7,37.5-83.7,83.7s37.5,83.7,83.7,83.7s83.7-37.5,83.7-83.7l0,0
		C276.1,68.2,238.6,30.8,192.4,30.7L192.4,30.7z"/>
	<ellipse transform="matrix(0.3618 -0.9323 0.9323 0.3618 5.7275 193.9574)" class="st3" cx="144.5" cy="92.8" rx="6.4" ry="10"/>
	<ellipse transform="matrix(0.3618 -0.9323 0.9323 0.3618 46.39 313.0286)" class="st3" cx="251.8" cy="122.6" rx="6.4" ry="10"/>
	<path d="M237.9,79.5l0.7-0.6c1.5-1.4,3.3-2.3,5.3-2.6c3.9-0.6,7.8,1.1,9.8,4.5c1,1.7,1.5,3.7,1.3,5.6c-0.1,1.3-0.4,2.5-0.9,3.7
		c-0.4,1.2-0.9,2.3-1.6,3.3c-1.1,1.6-2.5,3-4.1,4.1c-1.7,1.1-3.4,2.1-5.2,3c-3.1,1.6-6.1,3.2-9.2,4.8c-0.9,0.5-1.8,1-2.7,1.5
		l-0.2,0.1c-0.2-0.2-0.3-0.4-0.4-0.6c-1.9-2.9-3.9-5.7-5.9-8.5c-1.3-1.8-2.6-3.7-3.8-5.6c-0.9-1.4-1.6-2.9-2.1-4.4
		c-0.5-1.7-0.7-3.4-0.5-5.1c0.1-1.3,0.3-2.5,0.7-3.8c1-3.7,4.2-6.4,8-6.8c3.8-0.4,7.5,1.4,9.4,4.8c0.5,0.8,0.9,1.6,1.2,2.5
		C237.9,79.3,237.9,79.4,237.9,79.5z"/>
	<path d="M183.1,62.7l0.7-0.6c1.6-1.2,3.5-2,5.6-2.2c1.6-0.1,3.1,0.1,4.6,0.7c2.1,0.9,3.9,2.5,4.8,4.6c0.9,1.8,1.1,3.8,0.8,5.7
		c-0.3,1.2-0.7,2.5-1.3,3.6c-0.5,1.2-1.1,2.2-1.8,3.2c-1.2,1.5-2.7,2.8-4.4,3.8c-1.7,1-3.5,1.8-5.4,2.5l-9.5,4
		c-0.9,0.4-1.9,0.8-2.8,1.3l-0.2,0.1l-0.4-0.7c-1.6-3-3.4-6-5.2-9c-1.1-1.9-2.3-3.9-3.3-5.9c-0.8-1.5-1.3-3-1.7-4.6
		c-0.4-1.7-0.4-3.5-0.1-5.2c0.2-1.3,0.5-2.6,1-3.8c1.3-3.6,4.7-6,8.5-6.1c3.8-0.1,7.4,2.1,9,5.6c0.4,0.8,0.8,1.7,1,2.7
		C183.1,62.6,183.1,62.6,183.1,62.7z"/>
	<path class="st1" d="M102.6,53.5l0.3-0.4c0.6-0.8,1.4-1.4,2.3-1.7c0.7-0.3,1.5-0.4,2.2-0.3c2.1,0.2,3.8,1.9,4,4.1
		c0.1,0.6,0,1.2-0.1,1.8c-0.1,0.6-0.2,1.2-0.4,1.7c-0.4,0.9-0.9,1.7-1.5,2.3c-0.7,0.7-1.4,1.3-2.2,1.9l-3.9,3.2l-1.1,1l0,0l-0.3-0.3
		c-1.2-1.3-2.4-2.3-3.6-3.5c-0.8-0.7-1.6-1.5-2.3-2.3c-0.5-0.6-1-1.2-1.4-1.9c-0.4-0.7-0.6-1.5-0.7-2.4c-0.1-0.6-0.1-1.3,0-1.9
		c0.1-1.9,1.4-3.4,3.2-4c1.8-0.6,3.7,0,4.9,1.4C102.1,52.6,102.4,53,102.6,53.5C102.6,53.4,102.6,53.4,102.6,53.5z"/>
	<path class="st1" d="M309.2,96l0.6-0.4c1.3-0.8,2.9-1.1,4.4-1.1c3,0.2,5.6,2.1,6.5,5c0.5,1.4,0.5,3,0,4.4c-0.3,0.9-0.7,1.7-1.3,2.5
		c-0.5,0.8-1.1,1.5-1.7,2.2c-1.1,1-2.3,1.8-3.7,2.4c-1.4,0.5-2.9,1-4.3,1.4l-7.6,2.1c-0.7,0.2-1.5,0.4-2.2,0.7h-0.1
		c-0.1-0.2-0.1-0.4-0.2-0.5c-0.9-2.5-1.9-4.9-3-7.3c-0.7-1.6-1.3-3.2-1.9-4.8c-0.4-1.2-0.7-2.4-0.8-3.6c-0.1-1.3,0-2.6,0.5-3.9
		c0.3-0.9,0.7-1.8,1.1-2.7c1.3-2.6,4.2-4.1,7.1-3.7c2.9,0.3,5.3,2.3,6.2,5.1c0.2,0.7,0.4,1.4,0.5,2.1
		C309.2,95.9,309.2,95.9,309.2,96z"/>
	<path class="st1" d="M299.3,34.5c0.3-0.2,0.5-0.4,0.8-0.5c1.8-1.1,3.8-1.6,5.8-1.6c4,0.1,7.5,2.6,9,6.3c0.7,1.9,0.7,3.9,0.2,5.8
		c-0.4,1.2-0.9,2.4-1.6,3.5c-0.6,1.1-1.4,2.1-2.2,3c-1.4,1.4-3.1,2.6-4.9,3.3c-1.9,0.8-3.8,1.5-5.7,2l-10.1,3.1c-1,0.3-2,0.7-2.9,1
		h-0.2c-0.1-0.3-0.2-0.5-0.3-0.7c-1.3-3.2-2.8-6.5-4.3-9.6c-1-2.1-1.9-4.2-2.7-6.3c-0.6-1.6-1-3.2-1.3-4.8c-0.2-1.8,0-3.5,0.5-5.2
		c0.3-1.3,0.8-2.5,1.4-3.7c1.7-3.5,5.4-5.6,9.3-5.2c3.9,0.3,7.2,2.9,8.5,6.6c0.3,0.9,0.6,1.8,0.7,2.8
		C299.2,34.4,299.2,34.5,299.3,34.5z"/>
	<path class="st1" d="M125.9,16.5c0.2-0.1,0.4-0.3,0.6-0.4c1.2-0.9,2.6-1.5,4.1-1.6c1.1-0.1,2.3,0.1,3.4,0.5
		c1.6,0.6,2.8,1.8,3.6,3.3c0.6,1.3,0.8,2.8,0.6,4.2c-0.2,0.9-0.5,1.8-0.9,2.6c-0.4,0.8-0.8,1.6-1.4,2.3c-0.9,1.1-2,2-3.2,2.7
		c-1.3,0.7-2.6,1.3-4,1.9l-7,3c-0.7,0.3-1.4,0.6-2,0.9h-0.1l-0.3-0.5c-1.2-2.2-2.5-4.4-3.8-6.6c-0.8-1.4-1.7-2.8-2.4-4.3
		c-0.6-1.1-1-2.2-1.3-3.4c-0.3-1.2-0.3-2.5-0.1-3.8c0.2-0.9,0.4-1.9,0.7-2.7c1-2.7,3.5-4.4,6.3-4.5c2.8-0.1,5.4,1.5,6.6,4.1
		c0.3,0.6,0.6,1.3,0.7,2L125.9,16.5z"/>
	<path class="st1" d="M243.1,8.2l0.4-0.3c0.9-0.6,1.9-1,2.9-1.1c0.8-0.1,1.7,0.1,2.4,0.4c2.2,0.9,3.4,3.2,3,5.4
		c-0.1,0.7-0.3,1.3-0.6,1.9c-0.3,0.6-0.6,1.2-1,1.7c-0.6,0.8-1.4,1.5-2.3,2c-0.9,0.5-1.9,1-2.8,1.4l-5,2.1l-1.5,0.7h-0.1
		c-0.1-0.1-0.1-0.2-0.2-0.4c-0.9-1.6-1.8-3.2-2.7-4.8c-0.6-1-1.3-2-1.8-3.1c-0.4-0.8-0.7-1.6-0.9-2.4c-0.2-0.9-0.2-1.8,0-2.7
		c0.1-0.7,0.3-1.3,0.5-2c0.7-1.9,2.5-3.2,4.5-3.2c2-0.1,3.9,1.1,4.7,2.9c0.2,0.4,0.4,0.9,0.5,1.4C243.2,8.2,243.1,8.2,243.1,8.2z"/>
	<path class="st0" d="M248,143.1l-109.5-34c0,0-13.8,41.3,36.4,59.1S248,143.1,248,143.1z"/>
	<path class="st3" d="M143,180.5c0,0,0.5-14.5-7.2-20.6c-7.7-6.1-18.4-9-18.4-9s-3.2-19.1-8.8-20s-9.7,12.4-8.2,21.8
		c1.5,9.4,15.9,21.1,15.9,21.1L143,180.5z"/>
	<path class="st0" d="M143,181.1h-0.2l-26.8-6.8c-0.1,0-0.2-0.1-0.3-0.1c-0.6-0.5-14.6-12-16.1-21.5c-1.2-7.4,1.1-17.2,4.8-21
		c1-1.2,2.6-1.8,4.2-1.6c5.6,0.9,8.7,16.9,9.3,20.1c2.1,0.6,11.3,3.6,18.3,9.1c7.9,6.2,7.5,20.5,7.4,21.1c0,0.2-0.1,0.4-0.3,0.5
		C143.3,181.1,143.2,181.1,143,181.1z M116.6,173l25.8,6.6c0-3.1-0.6-14.2-7-19.3c-7.6-6-18.1-8.9-18.2-9c-0.2-0.1-0.4-0.3-0.5-0.5
		c-0.9-5.2-4-18.8-8.3-19.5c-1.2-0.1-2.3,0.4-3,1.3c-3.4,3.4-5.6,12.9-4.5,19.8C102.4,161.1,115.2,172,116.6,173L116.6,173z"/>
	<path class="st3" d="M146,181.1l-33.6,1.8c-2.8,0.2-5.1-2-5.3-4.7l0-0.7c-0.2-2.8,2-5.1,4.7-5.3l33.6-1.8c2.8-0.2,5.1,2,5.3,4.7
		l0,0.7C150.9,178.6,148.8,180.9,146,181.1z"/>
	<path class="st0" d="M112.2,183.5c-1.4,0-2.7-0.5-3.8-1.4c-1.1-1-1.8-2.4-1.9-3.9v-0.7c-0.2-3.1,2.2-5.8,5.4-6l0,0l33.5-1.9
		c3.1-0.2,5.8,2.2,6,5.4v0.7c0.1,1.5-0.4,3-1.4,4.1c-1,1.1-2.4,1.8-3.9,1.9l-33.5,1.9H112.2z M111.9,172.8c-2.4,0.1-4.3,2.2-4.1,4.6
		v0.7c0.1,2.4,2.2,4.3,4.6,4.1l33.6-1.8c2.4-0.1,4.2-2.2,4.1-4.6v-0.7c-0.1-2.4-2.2-4.2-4.6-4.1L111.9,172.8z"/>
	<path class="st3" d="M232.9,196c0,0-0.5-14.5,7.2-20.6c7.7-6.1,18.4-9.1,18.4-9.1s3.2-19.1,8.8-20c5.6-0.9,9.7,12.4,8.2,21.8
		c-1.5,9.4-15.9,21.1-15.9,21.1L232.9,196z"/>
	<path class="st0" d="M232.9,196.7c-0.1,0-0.3,0-0.4-0.1c-0.2-0.1-0.3-0.3-0.3-0.5c0-0.6-0.4-14.9,7.4-21.1c7-5.5,16.2-8.5,18.3-9.1
		c0.6-3.3,3.7-19.2,9.3-20.1c1.6-0.2,3.1,0.4,4.2,1.6c3.8,3.8,6,13.5,4.8,21c-1.5,9.5-15.5,21-16.1,21.5c-0.1,0.1-0.2,0.1-0.3,0.1
		l-26.8,6.8L232.9,196.7z M267.9,146.9c-0.2,0-0.3,0-0.5,0c-4.2,0.7-7.4,14.3-8.3,19.5c0,0.2-0.2,0.4-0.5,0.5c-0.1,0-10.7,3-18.2,9
		c-6.3,5-6.9,16.2-7,19.3l25.8-6.6c1.3-1.1,14.1-12,15.5-20.6c1.1-7-1-16.4-4.4-19.8C269.8,147.4,268.9,147,267.9,146.9z"/>
	<path class="st3" d="M227.9,187.7l33.6,1.8c2.8,0.2,4.9,2.5,4.7,5.3l0,0.7c-0.2,2.8-2.5,4.9-5.3,4.7l-33.6-1.8
		c-2.8-0.2-4.9-2.5-4.7-5.3l0-0.7C222.8,189.7,225.1,187.5,227.9,187.7z"/>
	<path class="st0" d="M261.2,200.9h-0.3l-33.6-1.8c-3.1-0.2-5.5-2.8-5.4-6v-0.7c0.2-3.1,2.8-5.5,6-5.4l33.6,1.8l0,0
		c3.1,0.2,5.5,2.8,5.4,6v0.7C266.6,198.5,264.2,200.9,261.2,200.9z M227.6,188.3c-2.3,0-4.2,1.8-4.4,4.1v0.7
		c-0.1,1.2,0.3,2.3,1.1,3.2c0.8,0.9,1.9,1.4,3,1.4l33.6,1.8c2.4,0.1,4.5-1.7,4.6-4.1v-0.7c0.1-2.4-1.7-4.5-4.1-4.6l-33.6-1.8
		L227.6,188.3z"/>
	<path class="st3" d="M211.6,245.7c0,0,25-18.7,26.8-15.7c1.8,3,12.7,29.2,12.7,29.2s38.5,1.8,34.8,6.1
		c-3.7,4.3-54.1,21.4-54.1,21.4L211.6,245.7z"/>
	<path class="st0" d="M231.9,287.3c-0.2,0-0.5-0.1-0.6-0.4L211,246c-0.1-0.3,0-0.6,0.2-0.8c2.3-1.7,22.8-17,26.9-16.1
		c0.4,0.1,0.7,0.3,0.9,0.6c1.7,2.8,11.2,25.5,12.6,28.9c6.5,0.3,33.5,1.8,35.2,5.6c0.2,0.5,0.1,1.1-0.3,1.5
		c-3.8,4.4-52.3,20.9-54.4,21.6C232,287.3,232,287.3,231.9,287.3z M212.5,245.9l19.8,39.9c14.3-4.9,50.4-17.6,53.2-21
		c0.1-0.1,0.1-0.1,0.1-0.2c-0.9-2.1-18.2-4.1-34.4-4.8c-0.3,0-0.5-0.2-0.6-0.4c-0.1-0.3-11-26.2-12.7-29.1
		C236.3,229.4,223.6,237.7,212.5,245.9L212.5,245.9z"/>
	<path class="st3" d="M175.5,238.5c0,0-31-4.3-31.1-0.9s2.9,31.7,2.9,31.7s-32.9,20.1-27.6,22.1c5.3,2,57.7-7.3,57.7-7.3
		L175.5,238.5z"/>
	<path class="st0" d="M122.5,292.4c-1,0.1-2,0-3-0.3c-0.6-0.2-1-0.7-1-1.3c-0.1-0.8-0.3-2.9,14.2-12.8c6.1-4.2,12.4-8.1,13.8-9
		c-0.4-3.6-3-28.1-2.9-31.4c0-0.4,0.2-0.7,0.5-1c3.1-2.7,28.4,0.8,31.3,1.3c0.3,0,0.5,0.3,0.6,0.6l1.9,45.7c0,0.3-0.2,0.6-0.5,0.7
		C175.7,285.2,134.9,292.4,122.5,292.4z M150.3,237c-3,0-4.9,0.2-5.2,0.8c-0.1,3.4,2.9,31.3,2.9,31.6c0,0.2-0.1,0.5-0.3,0.6
		c-13.8,8.5-28.1,18.6-27.9,20.9c0,0,0,0.1,0.2,0.1c4.2,1.6,41.9-4.6,56.8-7.2l-1.9-44.5C166.8,237.9,158.5,237.2,150.3,237
		L150.3,237z"/>
</g>
</svg>
