<?xml version="1.0" encoding="utf-8"?>
<!-- Generator: Adobe Illustrator 23.1.0, SVG Export Plug-In . SVG Version: 6.00 Build 0)  -->
<svg version="1.1" id="Layer_1" xmlns="http://www.w3.org/2000/svg" xmlns:xlink="http://www.w3.org/1999/xlink" x="0px" y="0px"
	 viewBox="0 0 400 300" style="enable-background:new 0 0 400 300;" xml:space="preserve">
<style type="text/css">
	.st0{fill:#FFFFFF;}
	.st1{fill:#231F20;}
	.st2{fill:#F5C7E0;}
	.st3{fill:#C2DCF7;}
	.st4{fill:#D1D3D4;}
	.st5{fill:none;}
</style>
<g id="_004">
	<polyline class="st0" points="284.9,279.6 286,246.6 261.2,242.8 259.7,280 	"/>
	<path class="st1" d="M259.7,280.5L259.7,280.5c-0.3,0-0.5-0.2-0.5-0.5l1.5-37.2c0-0.1,0.1-0.3,0.2-0.4c0.1-0.1,0.3-0.1,0.4-0.1
		l24.8,3.8c0.2,0,0.4,0.3,0.4,0.5l-1.1,33c0,0.3-0.2,0.5-0.5,0.5c0,0,0,0,0,0c-0.3,0-0.5-0.2-0.5-0.5c0,0,0,0,0,0l1.1-32.5
		l-23.8-3.6l-1.5,36.6C260.2,280.3,260,280.5,259.7,280.5z"/>
	<polyline class="st0" points="164,265.3 192.3,231.7 217.7,237.9 185.4,271 	"/>
	<path class="st1" d="M185.4,271.5c-0.1,0-0.3-0.1-0.4-0.1c-0.2-0.2-0.2-0.5,0-0.7c0,0,0,0,0,0l31.7-32.4l-24.2-5.9l-28.1,33.4
		c-0.2,0.2-0.5,0.2-0.7,0.1c-0.2-0.2-0.2-0.5-0.1-0.7l28.4-33.6c0.1-0.1,0.3-0.2,0.5-0.2l25.3,6.2c0.2,0,0.3,0.2,0.4,0.4
		c0,0.2,0,0.4-0.1,0.5l-32.3,33C185.7,271.4,185.5,271.5,185.4,271.5z"/>
	<path class="st2" d="M273.8,96.2c0,0-38.5,10.6-38.1,12.1s7.9,29.3,7.9,29.3l24-6L273.8,96.2z"/>
	<path class="st2" d="M274.6,95.9c0,0-12.2,3.3-19.7,7.6s-5.4,50.4-5.4,50.4l55.6,11.2c0,0,10.6-29.9,9.9-43.6
		S305.7,88.5,274.6,95.9z"/>
	<path class="st1" d="M246.9,131.5c-0.1,0-0.1,0-0.2,0c-0.3-0.1-0.4-0.4-0.3-0.7c3.6-8.9,9.1-22.6,9.3-23.5c0-0.3,0.2-0.5,0.5-0.5
		c0,0,0,0,0,0c0.3,0,0.5,0.2,0.5,0.5c0,0.9-6.5,17-9.3,23.8C247.3,131.4,247.1,131.5,246.9,131.5z"/>
	<path class="st0" d="M278,90.3l-3.9,11.8c0,0-0.1,7,7.7,6.4c4.6-0.4,8.9-2.9,11.5-6.8l3.3-21.1c-1.2-1-1.9-2.5-2.1-4.1
		c-0.2-1.2-0.1-2.4,0.1-3.5c0.4-1.6,0.9-3.1,1.7-4.5c-3.7-0.6-7.1-2.4-9.6-5.2c-0.6-0.7-1.2-1.5-1.7-2.3c-0.2-0.4-5.2,1.9-5.7,2.2
		c-2.5,1.1-4.7,2.9-6.2,5.3c-1,2-1.7,4.2-1.9,6.4c-0.6,3.1-0.9,6.2-0.9,9.3C270.3,90.3,278,90.3,278,90.3z"/>
	<path class="st1" d="M280.8,109c-1.8,0.1-3.6-0.5-5-1.8c-1.3-1.4-2.1-3.2-2.1-5.1c0,0,0-0.1,0-0.1l3.7-11.2
		c-1.9-0.2-7.5-1.2-7.6-6.4c0-3.1,0.3-6.3,0.9-9.4c0.3-2.3,0.9-4.5,2-6.6c1.5-2.4,3.7-4.3,6.3-5.4c5.8-2.8,6.1-2.3,6.3-2
		c0,0,1,1.6,1.6,2.2c2.5,2.7,5.8,4.5,9.4,5c0.2,0,0.4,0.3,0.4,0.5c0,0,0,0.1,0,0.1c-0.8,1.4-1.3,2.8-1.7,4.3
		c-0.2,1.1-0.3,2.3-0.1,3.4c0.2,1.4,0.8,2.8,1.9,3.8c0.1,0.1,0.2,0.3,0.2,0.4l-3.3,21.1c0,0.1,0,0.1-0.1,0.2c-2.7,4-7,6.6-11.8,7
		C281.4,109,281.1,109,280.8,109z M274.5,102.2c0,1.6,0.7,3.2,1.9,4.4c1.5,1.2,3.4,1.8,5.3,1.5c4.5-0.4,8.5-2.8,11.1-6.5l3.2-20.8
		c-1.2-1.1-1.9-2.6-2.1-4.2c-0.2-1.2-0.2-2.4,0.1-3.6c0.3-1.4,0.8-2.7,1.5-4c-3.6-0.7-6.8-2.5-9.3-5.2c-0.5-0.6-1.3-1.7-1.6-2.2
		c-1.8,0.6-3.5,1.3-5.2,2.2c-2.4,1.1-4.5,2.9-6,5.1c-1,2-1.6,4.1-1.9,6.3c-0.6,3-0.9,6.1-0.9,9.2c0.1,5.4,7,5.6,7.3,5.6
		c0.1,0,0.3,0.1,0.4,0.2c0.1,0.1,0.1,0.3,0.1,0.4L274.5,102.2z"/>
	<path class="st0" d="M292.4,78.7c0.4-0.8,1-1.5,1.8-2c0.8-0.4,1.6-0.7,2.5-0.8c0.5-0.1,0.9-0.1,1.4,0c0.3,0.1,0.6,0.3,0.9,0.5
		c0.6,0.5,1.1,1.1,1.3,1.9c0.1,0.6,0,1.3-0.2,1.9c-0.2,0.7-0.5,1.3-0.8,1.9c-1.5,2.4-4.8,3.2-7.2,1.6c0,0,0,0-0.1,0"/>
	<path class="st1" d="M294.8,84.9c-1.1,0-2.2-0.3-3.1-0.9c-0.2-0.1-0.2-0.4-0.1-0.6c0.1-0.2,0.4-0.2,0.5-0.1c0,0,0,0,0,0
		c1.1,0.7,2.4,0.9,3.7,0.7c1.2-0.3,2.3-1.1,3-2.1c0.3-0.6,0.6-1.2,0.8-1.8c0.2-0.5,0.3-1.1,0.2-1.7c-0.2-0.7-0.6-1.3-1.2-1.7
		c-0.2-0.2-0.5-0.3-0.7-0.4c-0.4-0.1-0.8-0.1-1.2,0c-0.8,0.1-1.6,0.4-2.3,0.7c-0.7,0.4-1.3,1.1-1.6,1.8c-0.1,0.2-0.3,0.3-0.5,0.2
		c0,0,0,0,0,0c-0.2-0.1-0.3-0.3-0.2-0.5c0,0,0,0,0,0c0.4-0.9,1.1-1.7,2-2.2c0.8-0.4,1.7-0.7,2.6-0.8c0.5-0.1,1.1-0.1,1.6,0
		c0.4,0.1,0.7,0.3,1,0.6c0.7,0.5,1.2,1.3,1.5,2.1c0.1,0.7,0,1.4-0.2,2.1c-0.2,0.7-0.5,1.4-0.9,2c-0.8,1.3-2.1,2.2-3.5,2.5
		C295.6,84.8,295.2,84.9,294.8,84.9z"/>
	<path class="st1" d="M276,96.6c2.9,0.3,5.7-0.4,8.1-2c3.8-2.7,4-6,4-6c-3.2,1.4-6.6,2-10.1,1.8L276,96.6z"/>
	<path class="st1" d="M277.1,97.1c-0.4,0-0.8,0-1.2-0.1c-0.2,0-0.4-0.3-0.4-0.5c0,0,0-0.1,0-0.1l2-6.2c0.1-0.2,0.2-0.3,0.4-0.3
		c3.4,0.2,6.8-0.5,9.9-1.8c0.1-0.1,0.3-0.1,0.4,0c0.1,0.1,0.2,0.2,0.2,0.4c0,0.2-0.2,3.6-4.2,6.4C282.2,96.3,279.7,97.1,277.1,97.1z
		 M276.6,96.2c2.6,0.1,5.1-0.6,7.3-2c1.8-1.2,3.1-2.9,3.7-4.9c-2.9,1.1-6.1,1.7-9.2,1.6L276.6,96.2z"/>
	<path class="st0" d="M283.2,70.1c0,0-5,5-4.3,6.2s3.5,1,3.5,1"/>
	<path class="st1" d="M282,77.8c-0.9,0-2.8-0.1-3.5-1.3c-0.8-1.3,2.8-5.2,4.4-6.8c0.2-0.2,0.4-0.2,0.6,0c0,0,0,0,0,0
		c0.2,0.2,0.2,0.5,0,0.6c-2.5,2.6-4.5,5.2-4.3,5.7c0.5,0.8,2.4,0.8,3,0.8c0.2,0,0.4,0.2,0.5,0.4c0,0.2-0.2,0.4-0.4,0.5c0,0,0,0,0,0
		L282,77.8z"/>
	<path class="st1" d="M275.5,80.3l9.7-0.1c0,0-0.4,6.6-6.1,7S275.5,80.3,275.5,80.3z"/>
	<path class="st0" d="M285.5,70.1c0.3-0.6,0.8-0.9,1.4-1c1.1-0.2,1.7,1.1,1.7,1.1"/>
	<path class="st1" d="M288.6,70.7c-0.2,0-0.3-0.1-0.4-0.3c0,0-0.4-1-1.2-0.9c-0.5,0-0.9,0.3-1.1,0.7c-0.1,0.2-0.3,0.4-0.6,0.3
		c-0.2-0.1-0.3-0.3-0.3-0.6c0.3-0.7,1-1.2,1.8-1.3c1.4-0.2,2.1,1.3,2.2,1.4c0.1,0.2,0,0.5-0.2,0.6c0,0,0,0,0,0L288.6,70.7z"/>
	<path class="st0" d="M276.5,69.3c0.3-0.6,0.8-0.9,1.4-1c1.1-0.2,1.7,1.1,1.7,1.1"/>
	<path class="st1" d="M279.6,69.8c-0.2,0-0.3-0.1-0.4-0.3c0,0-0.4-1-1.2-0.9c-0.5,0-0.9,0.3-1.1,0.7c-0.1,0.2-0.3,0.4-0.6,0.3
		c-0.2-0.1-0.3-0.3-0.3-0.6c0.3-0.7,1-1.2,1.8-1.3c1.4-0.2,2.1,1.3,2.2,1.4c0.1,0.2,0,0.5-0.2,0.6c0,0,0,0,0,0
		C279.7,69.8,279.7,69.8,279.6,69.8z"/>
	<polygon class="st1" points="303.9,164.4 295.9,270.6 163.6,243.6 251.6,153.3 	"/>
	<polygon class="st1" points="246.9,86.5 91.5,112.4 159.9,42.9 	"/>
	<path class="st1" d="M91.5,112.9c-0.3,0-0.5-0.2-0.5-0.5c0-0.1,0.1-0.3,0.1-0.4l68.4-69.5c0.2-0.2,0.4-0.2,0.6-0.1l87,43.6
		c0.2,0.1,0.3,0.3,0.3,0.5c0,0.2-0.2,0.4-0.4,0.4L91.5,112.9L91.5,112.9z M160,43.5l-67,68.1l152.3-25.4L160,43.5z"/>
	<polygon class="st1" points="261.3,190.7 114.7,217.1 91.7,113.3 247.1,87.4 	"/>
	<path class="st1" d="M114.7,217.6c-0.2,0-0.4-0.2-0.5-0.4l-23-103.8c0-0.1,0-0.3,0.1-0.4c0.1-0.1,0.2-0.2,0.3-0.2L247,86.9
		c0.1,0,0.3,0,0.4,0.1c0.1,0.1,0.2,0.2,0.2,0.3l14.2,103.3c0,0.3-0.1,0.5-0.4,0.6c0,0,0,0,0,0L114.7,217.6L114.7,217.6z M92.3,113.7
		l22.8,102.8l145.6-26.2L246.6,88L92.3,113.7z"/>
	<path class="st3" d="M127,182.8c0,0-27-83.3-40-108.7l144.7-39.4l9,129L127,182.8z"/>
	<path class="st0" d="M112.3,88.7c-0.2,0-0.4-0.2-0.5-0.4c-0.1-0.3,0.1-0.5,0.3-0.6l106.4-27.6c0.3-0.1,0.6,0.1,0.6,0.4
		s-0.1,0.6-0.4,0.6L112.5,88.6L112.3,88.7z"/>
	<path class="st0" d="M116.8,106.1c-0.2,0-0.4-0.2-0.5-0.4c-0.1-0.3,0.1-0.5,0.4-0.6c0,0,0,0,0,0L219.8,82c0.3-0.1,0.5,0.1,0.6,0.4
		c0.1,0.3-0.1,0.5-0.4,0.6l-103,23.1L116.8,106.1z"/>
	<path class="st0" d="M125.7,122.4c-0.2,0-0.4-0.2-0.5-0.4c-0.1-0.3,0.1-0.5,0.4-0.6c0,0,0,0,0,0l98.6-19.1c0.3-0.1,0.5,0.1,0.6,0.4
		c0,0,0,0,0,0c0.1,0.3-0.1,0.5-0.4,0.6c0,0,0,0,0,0L125.7,122.4L125.7,122.4z"/>
	<path class="st0" d="M130.4,143.3c-0.3,0-0.5-0.2-0.5-0.5c0-0.3,0.2-0.5,0.5-0.5l93.5-15.2c0.3,0,0.5,0.1,0.6,0.4
		c0,0.3-0.1,0.5-0.4,0.6L130.4,143.3L130.4,143.3z"/>
	<polygon class="st0" points="179.6,153.4 91.7,113.3 114.7,217.1 261.3,190.7 247.1,87.4 	"/>
	<path class="st1" d="M114.7,217.6c-0.2,0-0.4-0.2-0.5-0.4l-23-103.8c-0.1-0.3,0.1-0.5,0.4-0.6c0.1,0,0.2,0,0.3,0l87.6,40L246.7,87
		c0.2-0.2,0.5-0.2,0.7,0c0.1,0.1,0.1,0.2,0.1,0.3l14.2,103.3c0,0.3-0.1,0.5-0.4,0.6c0,0,0,0,0,0L114.7,217.6L114.7,217.6z
		 M92.4,114.2l22.7,102.4l145.6-26.2l-14-101.9L180,153.8c-0.1,0.1-0.4,0.2-0.6,0.1L92.4,114.2z"/>
	<polygon class="st0" points="261.3,190.7 114.7,217.1 179.7,153.4 	"/>
	<path class="st1" d="M114.7,217.6c-0.2,0-0.4-0.1-0.4-0.3c-0.1-0.2-0.1-0.4,0.1-0.6l65-63.7c0.1-0.1,0.4-0.2,0.6-0.1l81.6,37.3
		c0.2,0.1,0.3,0.3,0.3,0.5c0,0.2-0.2,0.4-0.4,0.4L114.7,217.6L114.7,217.6z M179.8,154.1l-63.6,62.3l143.4-25.8L179.8,154.1z"/>
	<polygon class="st0" points="261.3,190.7 114.7,217.1 179.7,153.4 	"/>
	<path class="st1" d="M114.7,217.6c-0.2,0-0.4-0.1-0.4-0.3c-0.1-0.2-0.1-0.4,0.1-0.6l65-63.7c0.1-0.1,0.4-0.2,0.6-0.1l81.6,37.3
		c0.2,0.1,0.3,0.3,0.3,0.5c0,0.2-0.2,0.4-0.4,0.4L114.7,217.6L114.7,217.6z M179.8,154.1l-63.6,62.3l143.4-25.8L179.8,154.1z"/>
	<path class="st4" d="M251.1,47.7c0,0-2.1,8-8.9,8.2c0,0,7.1,2,8.6,8.7c1.3-3.7,4.4-6.6,8.2-7.7C255.1,55.2,252.2,51.8,251.1,47.7z"
		/>
	<path class="st4" d="M57.8,108.5c0,0,5.4,7.7,0.6,13.6c0,0,6.9-4.7,13.7-1.1c-2.3-3.9-2.5-8.6-0.7-12.7
		C71.5,108.3,65.7,111.8,57.8,108.5z"/>
	<path class="st4" d="M106,45.9c0,0,1.1,13.4-9,17.3c0,0,11.9-0.8,17.8,8.5c0,0-0.4-10.2,8.3-16.2C123.1,55.5,113.3,55.7,106,45.9z"
		/>
	<path class="st0" d="M298.5,113.2c0,0-77.7,39.4-89.5,41.7s-25.9-1.7-25.3,1.7s7.3,5.1,7.3,5.1s-21.4,3.4-20.3,5.6
		s15.2-0.6,15.2-0.6s-17.5,5.1-13.5,7.3s16.3-2.8,16.3-2.8s-18.6,9.6-13.5,10.1s14.1-4.5,14.1-4.5s-14.1,7.3-8.4,7.9
		s89.5-29.3,117.7-46.2"/>
	<path class="st1" d="M180.9,185.2h-0.2c-1.1-0.1-1.6-0.5-1.8-1.1c-0.2-0.9,1.1-2.2,2.8-3.4c-2.1,0.8-4.4,1.2-6.7,1.1
		c-0.8-0.1-1.2-0.4-1.3-0.9c-0.3-1.5,4.6-4.7,9.2-7.3c-3.9,1.1-8.6,2.1-10.9,0.8c-0.5-0.2-0.9-0.8-0.8-1.3c0.2-1.6,4.3-3.4,8.2-4.9
		c-4.1,0.5-8.5,0.7-9.2-0.8c-0.1-0.3-0.1-0.6,0-0.8c1-2,13.1-4.3,18.6-5.2c-2.1-0.8-5.3-2.4-5.7-4.8c-0.1-0.4,0-0.8,0.3-1.2
		c1-1.1,4.1-0.9,8.7-0.7c4.9,0.3,11,0.6,16.7-0.4c11.6-2.2,88.6-41.2,89.4-41.6c0.2-0.1,0.6,0,0.7,0.2c0.1,0.2,0,0.5-0.2,0.7
		c-3.2,1.6-77.9,39.5-89.7,41.7c-5.8,1.1-12,0.7-17,0.5c-3.7-0.2-7.3-0.4-7.9,0.3c-0.1,0.1-0.1,0.2-0.1,0.3c0.4,2.5,5.1,4.2,6.9,4.7
		c0.3,0,0.5,0.2,0.5,0.5c0,0.3-0.2,0.5-0.5,0.5c-9.2,1.4-19.4,3.8-19.9,5c0.6,1.1,8.1,0.4,14.7-0.9c0.3-0.1,0.6,0.1,0.6,0.4
		c0.1,0.3-0.1,0.6-0.4,0.6c-6.5,1.9-13.6,4.7-13.7,6.1c0,0.1,0.2,0.3,0.3,0.4c3.1,1.8,12.5-1.5,15.9-2.9c0.3-0.1,0.5,0,0.6,0.3
		c0.1,0.2,0,0.5-0.2,0.6c-6.7,3.5-14,7.9-14.1,9.1c0.1,0,0.3,0.1,0.4,0.1c3.8,0.4,10-2.5,12.6-3.8l1.2-0.6c0.2-0.1,0.5,0,0.7,0.2
		c0.1,0.2,0,0.5-0.2,0.7c0,0,0,0,0,0c-0.1,0-0.5,0.3-1.3,0.7c-4.7,2.5-8.4,5.2-8.3,6c0,0,0.2,0.2,0.9,0.3h0.2c3,0,23.5-6.5,50-16.5
		c14.5-5.5,50-19.3,67.2-29.6c0.2-0.2,0.5-0.1,0.7,0.1c0.2,0.2,0.1,0.5-0.1,0.7c0,0,0,0-0.1,0C271.6,155.3,188.9,185.2,180.9,185.2z
		"/>
	<path class="st2" d="M284.1,146.5c0,0-12-28.2-10.9-28.5s24-15.4,25.9-14.3s9,22.9,6.8,29.3S284.1,146.5,284.1,146.5z"/>
	<path class="st1" d="M287.1,146.7c-0.2,0-0.4-0.1-0.5-0.4c-0.1-0.3,0.1-0.6,0.3-0.6c0.2-0.1,16.8-5.7,23.4-14.1
		c0.2-0.2,0.5-0.3,0.7-0.1c0,0,0,0,0,0c0.2,0.2,0.3,0.5,0.1,0.7c0,0,0,0,0,0c-6.8,8.7-23.2,14.2-23.9,14.4
		C287.2,146.7,287.2,146.7,287.1,146.7z"/>
	<path class="st1" d="M300.4,85.5c-0.3,0-0.5-0.2-0.5-0.5c0-0.2,0.2-0.4,0.4-0.5c3.8-1.1,6.8-3.9,8.3-7.6c1.5-3.7,1.8-7.7,1-11.6
		c-0.6-3.8-2.2-7.3-4.7-10.1c-2.5-2.8-6.2-4.3-10-4l-0.7,0.1c-0.5,0.1-1.1,0.1-1.6,0.2c-0.7,0-1.3-0.1-2-0.3l-0.4-0.1
		c-11.6-2.3-22.8,5.2-25.1,16.7c-0.6,3.1-0.5,6.3,0.2,9.3c0.2,1,0.8,2.6,2,2.7c0.3,0,0.5,0.3,0.5,0.5c0,0,0,0,0,0
		c0,0.3-0.3,0.5-0.6,0.5c0,0,0,0,0,0c-1.4-0.2-2.4-1.4-2.9-3.5c-3-12,4.3-24.1,16.3-27.1c3.2-0.8,6.6-0.9,9.8-0.2l0.5,0.1
		c0.6,0.2,1.2,0.2,1.8,0.3c0.5,0,1-0.1,1.5-0.1c0.3,0,0.5-0.1,0.8-0.1c4.1-0.3,8.1,1.3,10.8,4.3c2.7,3,4.4,6.7,5,10.7
		c0.8,4.1,0.5,8.3-1.1,12.2c-1.6,3.9-4.9,7-9,8.2L300.4,85.5z"/>
	<path class="st1" d="M292.6,50.9c0,0,5.2-3.9,13.6-1.8s11.6,17.5,3.8,25.7C310,74.8,311.2,52.3,292.6,50.9z"/>
	<path class="st1" d="M322.7,99.2L322.7,99.2c-4.1-0.2-7.9-1.7-11-4.2c-3.2-2.5-5.1-6.4-5-10.5c0-0.3,0.2-0.5,0.5-0.5c0,0,0,0,0,0
		c0.3,0,0.5,0.2,0.5,0.5c0,0,0,0,0,0c-0.1,3.8,1.6,7.3,4.6,9.7c2.4,1.9,5.3,3.2,8.4,3.7c-0.8-0.9-1.4-2.1-1.5-3.4
		c-0.2-1.9,0.1-3.8,0.9-5.6c1.2-3,2.7-5.9,4.4-8.6c2.5-4.3,4.8-8.3,5.4-12.9c1-9.1-5.5-17.3-14.6-18.3c-2.1-0.2-4.2-0.1-6.2,0.5
		c-0.3,0.1-0.6-0.1-0.6-0.4c-0.1-0.3,0.1-0.6,0.4-0.6c0,0,0,0,0,0c9.4-2.6,19.1,3,21.7,12.4c0.6,2.2,0.8,4.4,0.5,6.6
		c-0.5,4.9-3.1,9.2-5.5,13.3c-1.7,2.7-3.1,5.5-4.3,8.4c-0.7,1.6-1,3.3-0.8,5.1c0.2,1.7,1.2,3.1,2.7,3.8c0.3,0.1,0.4,0.4,0.3,0.7
		C323.1,99.1,322.9,99.2,322.7,99.2L322.7,99.2z"/>
	<path class="st1" d="M276.8,122.2c-0.3,0-0.6-0.1-0.6-0.4c0-0.2,0.1-0.5,0.3-0.6l20.5-12.7c0.2-0.1,0.6-0.1,0.7,0.2
		c0.2,0.2,0.1,0.6-0.2,0.7c0,0,0,0,0,0L277,122C277,122.1,276.9,122.2,276.8,122.2z"/>
	<line class="st5" x1="84.2" y1="157.4" x2="53.2" y2="159.1"/>
	<path class="st4" d="M53.2,159.5c-0.3,0-0.5-0.2-0.5-0.5c0-0.3,0.2-0.5,0.5-0.5l31-1.7c0.2,0,0.5,0.1,0.5,0.4c0,0,0,0,0,0.1
		c0,0.3-0.2,0.5-0.4,0.5L53.2,159.5L53.2,159.5z"/>
	<line class="st5" x1="142.8" y1="230.6" x2="127.6" y2="254.3"/>
	<path class="st4" d="M127.6,254.7c-0.1,0-0.2,0-0.3-0.1c-0.2-0.1-0.3-0.4-0.1-0.6l15.2-23.6c0.1-0.2,0.4-0.3,0.6-0.2
		c0.2,0.1,0.3,0.4,0.2,0.6c0,0,0,0,0,0L128,254.5C127.9,254.6,127.7,254.7,127.6,254.7z"/>
	<line class="st5" x1="93.2" y1="203" x2="70.1" y2="216"/>
	<path class="st4" d="M70.1,216.4c-0.2,0-0.3-0.1-0.4-0.2c-0.1-0.2,0-0.5,0.2-0.6c0,0,0,0,0,0l23.1-13c0.2-0.1,0.5,0,0.6,0.2
		c0.1,0.2,0.1,0.5-0.2,0.6c0,0,0,0,0,0l-23.1,13C70.3,216.4,70.2,216.4,70.1,216.4z"/>
	<line class="st5" x1="241.3" y1="36.3" x2="246.9" y2="21.1"/>
	<path class="st4" d="M241.3,36.8c-0.3,0-0.5-0.2-0.5-0.5c0-0.1,0-0.1,0-0.2l5.6-15.2c0.1-0.2,0.4-0.3,0.6-0.2
		c0.2,0.1,0.3,0.3,0.3,0.5l-5.6,15.2C241.7,36.7,241.5,36.8,241.3,36.8z"/>
	<line class="st5" x1="326.4" y1="128.1" x2="350.6" y2="124.2"/>
	<path class="st4" d="M326.4,128.6c-0.2,0-0.4-0.2-0.5-0.4c0-0.3,0.1-0.5,0.4-0.5c0,0,0,0,0,0l24.2-4c0.3,0,0.5,0.1,0.5,0.4
		c0,0.3-0.1,0.5-0.4,0.5c0,0,0,0,0,0L326.4,128.6L326.4,128.6z"/>
	<line class="st5" x1="310.6" y1="209.2" x2="325.8" y2="228.4"/>
	<path class="st4" d="M325.8,228.8c-0.1,0-0.3-0.1-0.4-0.2l-15.2-19.1c-0.2-0.2-0.1-0.5,0.1-0.6c0.2-0.2,0.5-0.1,0.6,0.1
		c0,0,0,0,0,0l15.2,19.1c0.2,0.2,0.1,0.5-0.1,0.6c0,0,0,0,0,0C326,228.8,325.9,228.8,325.8,228.8z"/>
	<line class="st5" x1="89.1" y1="65.8" x2="78.2" y2="56.4"/>
	<path class="st4" d="M89.1,66.2c-0.1,0-0.2,0-0.3-0.1l-10.9-9.3c-0.2-0.2-0.2-0.5,0-0.7c0.2-0.2,0.4-0.2,0.6-0.1c0,0,0,0,0,0
		l10.9,9.3c0.2,0.2,0.2,0.4,0.1,0.6c0,0,0,0,0,0C89.4,66.2,89.2,66.3,89.1,66.2z"/>
	<path class="st0" d="M280.5,182.1c-0.1,0-0.2,0-0.2-0.1c-0.2-0.1-0.3-0.4-0.2-0.7c0,0,0,0,0,0l10.9-19.9c0.1-0.2,0.3-0.3,0.6-0.2
		c0.2,0.1,0.4,0.3,0.4,0.5v17.6c0,0.3-0.2,0.5-0.5,0.5s-0.5-0.2-0.5-0.5v-15.7l-10,18.2C280.8,182,280.6,182.1,280.5,182.1z"/>
</g>
</svg>
