<?xml version="1.0" encoding="utf-8"?>
<!-- Generator: Adobe Illustrator 23.1.0, SVG Export Plug-In . SVG Version: 6.00 Build 0)  -->
<svg version="1.1" id="Layer_1" xmlns="http://www.w3.org/2000/svg" xmlns:xlink="http://www.w3.org/1999/xlink" x="0px" y="0px"
	 viewBox="0 0 400 300" style="enable-background:new 0 0 400 300;" xml:space="preserve">
<style type="text/css">
	.st0{fill:#FFFFFF;}
	.st1{fill:#231F20;}
	.st2{fill:#D1D3D4;}
	.st3{fill:#F5C7E0;}
	.st4{fill:#E264AB;}
</style>
<g id="_271_order_confirmed_flatline">
	<polygon class="st0" points="48.9,52.6 351.1,52.6 351.1,229.8 106.1,229.8 88,257 88,229.8 48.9,229.8 	"/>
	<path class="st1" d="M88,258.1h-0.1c-0.2-0.1-0.4-0.3-0.4-0.5v-26.8H48.9c-0.3,0-0.5-0.2-0.5-0.5V53.2c0-0.3,0.2-0.5,0.5-0.5h302.2
		c0.3,0,0.5,0.2,0.5,0.5v177.2c0,0.3-0.2,0.5-0.5,0.5H106.4l-18,27C88.3,258,88.2,258.1,88,258.1z M49.4,229.8H88
		c0.3,0,0.5,0.2,0.5,0.5v25.6l17.3-25.9c0.1-0.1,0.2-0.2,0.4-0.2h244.4V53.7H49.4V229.8z"/>
	<ellipse class="st2" cx="117.6" cy="190.3" rx="37.1" ry="4"/>
	<polygon class="st3" points="105.9,164.6 102.1,113.7 144,111.9 147.3,164.8 	"/>
	<path class="st1" d="M163.8,178.4H97.9c-3.4,0-6.1-2.7-6.1-6.1c0-0.8,0.2-1.6,0.5-2.3l2.3-5.4l-9.3-57l-13.9-3.5
		c-0.3-0.1-0.4-0.3-0.4-0.6c0,0,0,0,0,0c0.1-0.3,0.3-0.4,0.6-0.4c0,0,0,0,0,0l14.3,3.6c0.2,0,0.3,0.2,0.4,0.4l9.4,57.4
		c0,0.1,0,0.2,0,0.3l-2.3,5.6c-1.1,2.6,0.2,5.6,2.8,6.6c0.6,0.2,1.3,0.4,1.9,0.4h65.9c0.3,0,0.5,0.2,0.5,0.5
		S164.1,178.3,163.8,178.4L163.8,178.4z"/>
	<circle class="st1" cx="150.7" cy="186.3" r="5.1"/>
	<circle class="st1" cx="102.1" cy="186.3" r="5.1"/>
	<path class="st1" d="M160.8,165.3L160.8,165.3L99.3,165c-0.3,0-0.5-0.2-0.5-0.4L94,123c0-0.1,0-0.3,0.1-0.4
		c0.1-0.1,0.2-0.2,0.4-0.2l80.2,1.3c0.3,0,0.5,0.2,0.5,0.5c0,0.1,0,0.1,0,0.2L161.3,165C161.2,165.2,161,165.3,160.8,165.3z
		 M99.7,164l60.7,0.4l13.6-39.6l-78.9-1.3L99.7,164z"/>
	<path class="st1" d="M110.1,165c-0.3,0-0.5-0.2-0.5-0.5l-2-41.3c0-0.3,0.2-0.5,0.5-0.5c0.3,0,0.5,0.2,0.5,0.5c0,0,0,0,0,0l2,41.3
		C110.6,164.8,110.4,165,110.1,165L110.1,165z"/>
	<path class="st1" d="M123,165.1c-0.3,0-0.5-0.2-0.5-0.5v-41.2c0-0.3,0.2-0.5,0.5-0.5c0.3,0,0.5,0.2,0.5,0.5v41.2
		C123.5,164.9,123.3,165.1,123,165.1z"/>
	<path class="st1" d="M137.9,165.1L137.9,165.1c-0.3,0-0.5-0.2-0.5-0.5c0,0,0,0,0,0l2.1-40.9c0-0.3,0.3-0.5,0.5-0.5c0,0,0,0,0,0
		c0.3,0,0.5,0.2,0.5,0.5c0,0,0,0,0,0l-2.1,40.9C138.4,164.9,138.2,165.1,137.9,165.1z"/>
	<path class="st1" d="M150.7,165.1L150.7,165.1c-0.3,0-0.5-0.3-0.5-0.6l5.1-40.7c0-0.3,0.3-0.5,0.6-0.4c0.3,0,0.5,0.3,0.4,0.6l0,0
		l-5.1,40.7C151.1,164.9,150.9,165.1,150.7,165.1z"/>
	<path class="st1" d="M135.4,116.3L135.4,116.3c-0.3,0-0.5-0.2-0.5-0.5c0,0,0,0,0,0c0-0.1,0.3-11.8-2.7-19.3c-0.9-2.2-2.9-3.7-5.2-4
		c-4.8-0.9-11.3,1.4-13.9,4.2c-3.8,4-0.6,17.9-0.5,18c0.1,0.3-0.1,0.5-0.4,0.6c0,0,0,0,0,0c-0.3,0.1-0.5-0.1-0.6-0.4
		c-0.1-0.6-3.4-14.6,0.8-18.9c2.8-2.9,9.6-5.5,14.8-4.5c2.7,0.4,4.9,2.1,5.9,4.6c3.1,7.6,2.8,19.2,2.8,19.7
		C135.9,116.1,135.7,116.3,135.4,116.3C135.4,116.3,135.4,116.3,135.4,116.3z"/>
	<path class="st1" d="M95.1,165.1c-0.3,0-0.5-0.2-0.5-0.5c0,0,0,0,0,0c0-0.3,0.2-0.5,0.5-0.5c0,0,0,0,0,0l4.2-0.1
		c0.3,0,0.5,0.2,0.5,0.5c0,0,0,0,0,0c0,0.3-0.2,0.5-0.5,0.5c0,0,0,0,0,0L95.1,165.1L95.1,165.1z"/>
	<circle class="st0" cx="167.4" cy="120.1" r="16.3"/>
	<path class="st1" d="M167.4,137c-9.3,0-16.8-7.5-16.8-16.8s7.5-16.8,16.8-16.8c9.3,0,16.8,7.5,16.8,16.8
		C184.2,129.5,176.7,137,167.4,137z M167.4,104.3c-8.7,0-15.8,7.1-15.8,15.8s7.1,15.8,15.8,15.8s15.8-7.1,15.8-15.8
		C183.2,111.4,176.2,104.3,167.4,104.3L167.4,104.3L167.4,104.3z"/>
	<path class="st4" d="M177.5,115.1c-0.1,0.2-0.2,0.3-0.3,0.5l-11.8,11.8c-0.4,0.4-0.7,0.4-1.1,0l-6.6-6.9c-0.3-0.2-0.4-0.6-0.2-0.9
		c0-0.1,0.1-0.1,0.2-0.2l1.7-1.5c0.2-0.3,0.6-0.3,0.9-0.1c0,0,0.1,0.1,0.1,0.1l3.9,4c0.2,0.3,0.6,0.4,0.9,0.2
		c0.1-0.1,0.2-0.1,0.2-0.2l9.2-9.1c0.2-0.3,0.6-0.4,0.9-0.2c0.1,0,0.1,0.1,0.2,0.2c0.5,0.5,1,1,1.6,1.6c0.1,0.1,0.2,0.3,0.3,0.4
		L177.5,115.1z"/>
	<path d="M230.3,111.3c0,0.6-0.1,1.2-0.3,1.8c-0.2,0.5-0.5,1-0.9,1.4c-0.4,0.4-0.9,0.7-1.4,0.9c-0.6,0.2-1.2,0.3-1.8,0.3
		c-0.6,0-1.2-0.1-1.8-0.3c-0.5-0.2-1-0.5-1.4-0.9c-0.4-0.4-0.7-0.9-0.9-1.4c-0.4-1.2-0.4-2.4,0-3.6c0.2-0.5,0.5-1,0.9-1.4
		c0.4-0.4,0.9-0.7,1.4-0.9c0.6-0.2,1.2-0.3,1.8-0.3c0.6,0,1.2,0.1,1.8,0.3c0.5,0.2,1,0.5,1.4,0.9c0.4,0.4,0.7,0.9,0.9,1.4
		C230.2,110.1,230.3,110.7,230.3,111.3z M229,111.3c0-0.4-0.1-0.9-0.2-1.3c-0.1-0.4-0.4-0.8-0.6-1.1c-0.3-0.3-0.6-0.6-1-0.7
		c-0.4-0.2-0.9-0.3-1.3-0.3c-0.5,0-0.9,0.1-1.3,0.3c-0.4,0.2-0.7,0.4-1,0.7c-0.3,0.3-0.5,0.7-0.6,1.1c-0.3,0.8-0.3,1.8,0,2.6
		c0.1,0.4,0.4,0.8,0.6,1.1c0.3,0.3,0.6,0.6,1,0.7c0.4,0.2,0.9,0.3,1.3,0.3c0.5,0,0.9-0.1,1.3-0.3c0.4-0.2,0.7-0.4,1-0.7
		c0.3-0.3,0.5-0.7,0.6-1.1C228.9,112.2,229,111.8,229,111.3z"/>
	<path d="M231.8,110.6c0-0.2,0-0.4,0-0.6h1.1c0,0.2,0,0.3,0,0.5s0,0.3,0,0.5l0,0c0.2-0.3,0.4-0.6,0.7-0.8c0.3-0.2,0.6-0.3,1-0.3
		c0.1,0,0.3,0,0.4,0v1c-0.2,0-0.3-0.1-0.5-0.1c-0.2,0-0.5,0-0.7,0.2c-0.2,0.1-0.4,0.2-0.5,0.4c-0.1,0.2-0.2,0.4-0.3,0.6
		c-0.1,0.2-0.1,0.5-0.1,0.7v3h-1.1v-4.4C231.9,111,231.8,110.8,231.8,110.6z"/>
	<path d="M240.5,114.7c-0.2,0.3-0.5,0.6-0.9,0.8c-0.4,0.2-0.8,0.3-1.2,0.3c-0.4,0-0.8-0.1-1.2-0.2c-0.3-0.1-0.6-0.4-0.9-0.6
		c-0.3-0.3-0.5-0.6-0.6-1c-0.1-0.4-0.2-0.8-0.2-1.2c0-0.4,0.1-0.8,0.2-1.2c0.1-0.4,0.3-0.7,0.6-1c0.3-0.3,0.6-0.5,0.9-0.6
		c0.4-0.2,0.8-0.2,1.2-0.2c0.4,0,0.8,0.1,1.2,0.3c0.3,0.2,0.6,0.4,0.8,0.7l0,0v-4.2h1.1v9h-1.1v-0.9L240.5,114.7z M236.8,112.7
		c0,0.3,0,0.5,0.1,0.8c0.1,0.2,0.2,0.5,0.4,0.7c0.2,0.2,0.4,0.4,0.6,0.5c0.3,0.1,0.5,0.2,0.8,0.2c0.3,0,0.5,0,0.8-0.2
		c0.5-0.2,0.8-0.6,1-1.1c0.1-0.2,0.1-0.5,0.1-0.8c0-0.3,0-0.5-0.1-0.8c-0.1-0.2-0.2-0.5-0.4-0.7c-0.2-0.2-0.4-0.3-0.6-0.4
		c-0.5-0.2-1.1-0.2-1.6,0c-0.2,0.1-0.4,0.3-0.6,0.4c-0.2,0.2-0.3,0.4-0.4,0.7C236.8,112.2,236.8,112.5,236.8,112.7L236.8,112.7z"/>
	<path d="M248.9,112.7v0.2c0,0.1,0,0.1,0,0.2h-4.5c0,0.2,0.1,0.5,0.2,0.7c0.1,0.2,0.2,0.4,0.4,0.6c0.2,0.2,0.4,0.3,0.6,0.4
		c0.2,0.1,0.5,0.1,0.7,0.1c0.4,0,0.7-0.1,1-0.3c0.3-0.2,0.5-0.4,0.7-0.6l0.8,0.6c-0.3,0.4-0.6,0.7-1.1,0.9c-0.4,0.2-0.9,0.3-1.4,0.3
		c-0.4,0-0.8-0.1-1.2-0.2c-0.7-0.3-1.3-0.8-1.6-1.5c-0.3-0.8-0.3-1.6,0-2.4c0.1-0.4,0.3-0.7,0.6-1c0.3-0.2,0.6-0.4,0.9-0.6
		c0.4-0.2,0.8-0.2,1.2-0.2c0.4,0,0.8,0.1,1.1,0.2c0.3,0.1,0.6,0.3,0.9,0.6c0.2,0.3,0.4,0.6,0.6,0.9
		C248.9,111.9,248.9,112.3,248.9,112.7z M247.8,112.3c0-0.2,0-0.4-0.1-0.6c-0.1-0.2-0.2-0.4-0.3-0.5c-0.1-0.1-0.3-0.3-0.5-0.3
		c-0.2-0.1-0.5-0.1-0.7-0.1c-0.2,0-0.5,0-0.7,0.1c-0.2,0.1-0.4,0.2-0.6,0.3c-0.2,0.1-0.3,0.3-0.4,0.5c-0.1,0.2-0.2,0.4-0.2,0.6
		H247.8z"/>
	<path d="M250.5,110.6c0-0.2,0-0.4,0-0.6h1.1c0,0.2,0,0.3,0,0.5s0,0.3,0,0.5l0,0c0.2-0.3,0.4-0.6,0.7-0.8c0.3-0.2,0.6-0.3,1-0.3
		c0.1,0,0.3,0,0.4,0v1c-0.2,0-0.3-0.1-0.5-0.1c-0.2,0-0.5,0-0.7,0.2c-0.2,0.1-0.4,0.2-0.5,0.4c-0.1,0.2-0.2,0.4-0.3,0.6
		c-0.1,0.2-0.1,0.4-0.1,0.7v3h-1.1v-4.4C250.5,111,250.5,110.8,250.5,110.6z"/>
	<path d="M265.2,114.3c-0.3,0.5-0.8,0.8-1.3,1.1c-0.6,0.3-1.3,0.5-1.9,0.4c-0.6,0-1.2-0.1-1.8-0.3c-0.5-0.2-1-0.5-1.4-0.9
		c-0.4-0.4-0.7-0.9-0.9-1.4c-0.2-0.6-0.3-1.2-0.3-1.8c0-0.6,0.1-1.2,0.4-1.8c0.2-0.5,0.5-1,0.9-1.4c0.4-0.4,0.9-0.7,1.4-0.9
		c0.6-0.2,1.2-0.3,1.8-0.3c0.3,0,0.6,0,0.9,0.1c0.3,0,0.6,0.1,0.9,0.3c0.3,0.1,0.5,0.2,0.7,0.4c0.2,0.2,0.4,0.4,0.6,0.6l-0.9,0.7
		c-0.2-0.3-0.5-0.5-0.9-0.7c-0.4-0.2-0.8-0.2-1.2-0.2c-0.5,0-0.9,0.1-1.3,0.3c-0.4,0.2-0.7,0.4-1,0.7c-0.3,0.3-0.5,0.6-0.7,1
		c-0.2,0.4-0.2,0.9-0.2,1.3c0,0.5,0.1,0.9,0.2,1.3c0.1,0.4,0.4,0.8,0.6,1.1c0.3,0.3,0.6,0.6,1,0.7c0.4,0.2,0.9,0.3,1.3,0.3
		c0.5,0,0.9-0.1,1.3-0.3c0.4-0.2,0.7-0.5,1-0.8L265.2,114.3z"/>
	<path d="M271.9,112.8c0,0.4-0.1,0.8-0.2,1.2c-0.1,0.4-0.4,0.7-0.6,1c-0.3,0.3-0.6,0.5-1,0.6c-0.8,0.3-1.6,0.3-2.4,0
		c-1.1-0.5-1.9-1.6-1.8-2.8c0-0.4,0.1-0.8,0.2-1.2c0.2-0.3,0.4-0.7,0.6-0.9c0.3-0.3,0.6-0.5,1-0.6c0.8-0.3,1.6-0.3,2.4,0
		c0.4,0.1,0.7,0.3,1,0.6c0.3,0.3,0.5,0.6,0.6,0.9C271.9,112,271.9,112.4,271.9,112.8z M270.8,112.8c0-0.3,0-0.5-0.1-0.8
		c-0.1-0.2-0.2-0.5-0.4-0.7c-0.2-0.2-0.4-0.3-0.6-0.4c-0.3-0.1-0.5-0.2-0.8-0.2c-0.3,0-0.6,0.1-0.8,0.2c-0.2,0.1-0.4,0.3-0.6,0.4
		c-0.2,0.2-0.3,0.4-0.4,0.7c-0.1,0.2-0.1,0.5-0.1,0.8c0,0.3,0,0.5,0.1,0.8c0.1,0.2,0.2,0.5,0.4,0.7c0.3,0.4,0.9,0.6,1.4,0.6
		c0.3,0,0.6,0,0.8-0.2c0.2-0.1,0.4-0.3,0.6-0.5c0.2-0.2,0.3-0.4,0.4-0.7C270.7,113.3,270.8,113,270.8,112.8z"/>
	<path d="M274.5,109.9c0,0.2,0,0.3,0,0.5s0,0.3,0,0.4l0,0c0.1-0.2,0.2-0.3,0.3-0.4c0.1-0.1,0.3-0.2,0.4-0.3c0.2-0.1,0.3-0.2,0.5-0.2
		c0.2-0.1,0.4-0.1,0.6-0.1c0.3,0,0.6,0.1,1,0.2c0.3,0.1,0.5,0.3,0.7,0.5c0.2,0.2,0.3,0.5,0.4,0.7c0.1,0.3,0.1,0.6,0.1,0.9v3.5h-1.1
		v-3.1c0-0.2,0-0.4-0.1-0.7c0-0.2-0.1-0.4-0.2-0.6c-0.1-0.2-0.2-0.3-0.4-0.4c-0.2-0.1-0.4-0.2-0.6-0.2c-0.4,0-0.8,0.2-1.1,0.5
		c-0.3,0.4-0.4,0.9-0.4,1.4v3h-1.1v-4.4c0-0.2,0-0.3,0-0.6s0-0.4,0-0.6L274.5,109.9z"/>
	<path d="M283.1,110.8h-1.3v4.7h-1.1v-4.7h-1.1v-0.9h1.1v-1.2c0-0.3,0-0.6,0.1-0.9c0.1-0.3,0.2-0.5,0.4-0.7c0.2-0.2,0.4-0.4,0.7-0.5
		c0.3-0.1,0.7-0.2,1-0.2c0.2,0,0.5,0,0.7,0.1l-0.1,1l-0.3-0.1h-0.3c-0.2,0-0.4,0-0.5,0.1c-0.1,0.1-0.2,0.2-0.3,0.3
		c-0.1,0.1-0.1,0.3-0.1,0.4c0,0.2,0,0.3,0,0.5v1.2h1.3L283.1,110.8z M285.6,107.8c0,0.2-0.1,0.4-0.2,0.5c-0.1,0.1-0.3,0.2-0.5,0.2
		c-0.2,0-0.4-0.1-0.5-0.2c-0.3-0.3-0.3-0.7,0-1c0.1-0.1,0.3-0.2,0.5-0.2c0.2,0,0.4,0.1,0.5,0.2C285.5,107.5,285.6,107.7,285.6,107.8
		L285.6,107.8z M285.4,115.6h-1.1v-5.7h1.1V115.6z"/>
	<path d="M287.4,110.6c0-0.2,0-0.4,0-0.6h1.1c0,0.2,0,0.3,0,0.5s0,0.3,0,0.5l0,0c0.2-0.3,0.4-0.6,0.7-0.8c0.3-0.2,0.6-0.3,1-0.3
		c0.1,0,0.3,0,0.5,0v1c-0.2,0-0.3-0.1-0.5-0.1c-0.2,0-0.5,0-0.7,0.2c-0.2,0.1-0.4,0.2-0.5,0.4c-0.1,0.2-0.2,0.4-0.3,0.6
		c-0.1,0.2-0.1,0.5-0.1,0.7v3h-1.1v-4.4C287.4,111,287.4,110.8,287.4,110.6z"/>
	<path d="M293.5,110.1c0.3-0.2,0.7-0.3,1.1-0.3c0.3,0,0.7,0.1,1,0.3c0.3,0.2,0.6,0.5,0.7,0.9c0.2-0.4,0.5-0.6,0.8-0.8
		c0.6-0.3,1.4-0.4,2.1-0.1c0.3,0.1,0.5,0.3,0.7,0.5c0.2,0.2,0.3,0.5,0.4,0.7c0.1,0.3,0.1,0.6,0.1,0.9v3.5h-1.1v-3.1
		c0-0.2,0-0.4-0.1-0.7c0-0.2-0.1-0.4-0.2-0.6c-0.1-0.2-0.2-0.3-0.4-0.4c-0.2-0.1-0.4-0.2-0.6-0.2c-0.2,0-0.5,0.1-0.7,0.2
		c-0.2,0.1-0.3,0.2-0.5,0.4c-0.1,0.2-0.2,0.4-0.3,0.6c-0.1,0.2-0.1,0.4-0.1,0.7v3.1h-1.1v-3.4c0-0.2,0-0.4-0.1-0.6
		c0-0.2-0.1-0.3-0.2-0.5c-0.1-0.1-0.2-0.2-0.4-0.3c-0.2-0.1-0.4-0.1-0.6-0.1c-0.4,0-0.8,0.2-1,0.5c-0.3,0.4-0.4,0.9-0.4,1.4v3h-1.1
		v-4.4c0-0.2,0-0.3,0-0.6s0-0.4,0-0.6h1.1c0,0.2,0,0.3,0,0.5s0,0.3,0,0.4l0,0C292.9,110.5,293.2,110.3,293.5,110.1z"/>
	<path d="M307.7,112.7v0.2c0,0.1,0,0.1,0,0.2h-4.5c0,0.2,0.1,0.5,0.2,0.7c0.1,0.2,0.2,0.4,0.4,0.6c0.2,0.2,0.4,0.3,0.6,0.4
		c0.2,0.1,0.5,0.1,0.7,0.1c0.4,0,0.7-0.1,1-0.3c0.3-0.2,0.5-0.4,0.7-0.6l0.8,0.6c-0.3,0.4-0.6,0.7-1.1,0.9c-0.4,0.2-0.9,0.3-1.4,0.3
		c-0.4,0-0.8-0.1-1.2-0.2c-0.7-0.3-1.3-0.8-1.6-1.5c-0.3-0.8-0.3-1.6,0-2.4c0.3-0.7,0.8-1.3,1.5-1.6c0.4-0.2,0.8-0.2,1.2-0.2
		c0.4,0,0.8,0.1,1.1,0.2c0.3,0.1,0.6,0.3,0.9,0.6c0.2,0.3,0.4,0.6,0.5,0.9C307.6,111.9,307.7,112.3,307.7,112.7z M306.5,112.3
		c0-0.2,0-0.4-0.1-0.6c-0.1-0.2-0.2-0.4-0.3-0.5c-0.1-0.1-0.3-0.3-0.5-0.3c-0.2-0.1-0.5-0.1-0.7-0.1c-0.2,0-0.5,0-0.7,0.1
		c-0.2,0.1-0.4,0.2-0.6,0.3c-0.2,0.1-0.3,0.3-0.4,0.5c-0.1,0.2-0.2,0.4-0.2,0.6H306.5z"/>
	<path d="M313.8,114.7c-0.2,0.3-0.5,0.6-0.9,0.8c-0.4,0.2-0.8,0.3-1.2,0.3c-0.4,0-0.8-0.1-1.2-0.2c-0.3-0.1-0.6-0.4-0.9-0.6
		c-0.3-0.3-0.5-0.6-0.6-1c-0.1-0.4-0.2-0.8-0.2-1.2c0-0.4,0.1-0.8,0.2-1.2c0.1-0.4,0.3-0.7,0.6-1c0.5-0.6,1.3-0.9,2.1-0.9
		c0.4,0,0.8,0.1,1.2,0.3c0.3,0.2,0.6,0.4,0.8,0.7l0,0v-4.2h1.1v9h-1.1v-0.9L313.8,114.7z M310,112.7c0,0.3,0,0.5,0.1,0.8
		c0.1,0.2,0.2,0.5,0.4,0.7c0.6,0.6,1.4,0.8,2.2,0.5c0.2-0.1,0.4-0.3,0.6-0.4c0.2-0.2,0.3-0.4,0.4-0.7c0.1-0.2,0.1-0.5,0.1-0.8
		c0-0.3,0-0.5-0.1-0.8c-0.1-0.2-0.2-0.5-0.4-0.7c-0.2-0.2-0.4-0.3-0.6-0.4c-0.2-0.1-0.5-0.2-0.8-0.2c-0.3,0-0.6,0.1-0.8,0.2
		c-0.2,0.1-0.4,0.3-0.6,0.4c-0.2,0.2-0.3,0.4-0.4,0.7C310,112.2,310,112.5,310,112.7L310,112.7z"/>
	<path d="M318.7,114.9c0,0.4-0.4,0.8-0.8,0.8c-0.2,0-0.4-0.1-0.6-0.2c-0.1-0.1-0.2-0.3-0.2-0.5c0-0.2,0.1-0.4,0.2-0.6
		c0.3-0.3,0.8-0.3,1.1,0C318.6,114.5,318.7,114.7,318.7,114.9z M318.5,113.1h-1.2v-6h1.2V113.1z"/>
	<path class="st2" d="M313,133.2h-92.3c-0.3,0-0.5-0.2-0.5-0.5s0.2-0.5,0.5-0.5H313c0.3,0,0.5,0.2,0.5,0.5S313.3,133.2,313,133.2z"
		/>
	<path class="st2" d="M301.2,153.4h-80.5c-0.3,0-0.5-0.2-0.5-0.5s0.2-0.5,0.5-0.5h80.5c0.3,0,0.5,0.2,0.5,0.5
		S301.5,153.4,301.2,153.4z"/>
	<path class="st2" d="M229.9,168.8h61c5.1,0,9.2,4.1,9.2,9.2l0,0c0,5.1-4.1,9.2-9.2,9.2h-61c-5.1,0-9.2-4.1-9.2-9.2l0,0
		C220.7,172.9,224.8,168.8,229.9,168.8z"/>
</g>
</svg>
