<?xml version="1.0" encoding="utf-8"?>
<!-- Generator: Adobe Illustrator 23.1.0, SVG Export Plug-In . SVG Version: 6.00 Build 0)  -->
<svg version="1.1" id="Layer_1" xmlns="http://www.w3.org/2000/svg" xmlns:xlink="http://www.w3.org/1999/xlink" x="0px" y="0px"
	 viewBox="0 0 400 300" style="enable-background:new 0 0 400 300;" xml:space="preserve">
<style type="text/css">
	.st0{fill:#FFFFFF;}
	.st1{fill:#231F20;}
	.st2{fill:#C2DCF7;}
	.st3{fill:#D1D3D4;}
</style>
<g id="_447_reading_a_book_flatline">
	<polygon class="st0" points="307.1,44.1 307.1,224.4 331.2,249.4 331.2,44.1 	"/>
	<polygon class="st0" points="331.2,249.4 68.8,249.4 92.9,224.4 307.1,224.4 	"/>
	<path class="st1" d="M331.2,249.9H68.8c-0.2,0-0.4-0.1-0.5-0.3c-0.1-0.2,0-0.4,0.1-0.5l24-25c0.1-0.1,0.2-0.2,0.4-0.2h214.3
		c0.1,0,0.3,0.1,0.4,0.2l24,25c0.1,0.1,0.2,0.4,0.1,0.5C331.5,249.8,331.4,249.9,331.2,249.9z M70,248.9h260l-23.1-24H93.1L70,248.9
		z"/>
	<polygon class="st0" points="68.8,44.1 68.8,249.4 92.9,224.4 92.9,44.1 	"/>
	<path class="st1" d="M93.3,174.3c-2.1,0.4-17.2,0.1-16.9,3.1s7.6,33,9.7,41.1s7.7,15,13.1,18s21.6-10.1,25.2-11
		S93.3,174.3,93.3,174.3z"/>
	<path class="st1" d="M101.2,237.4c-0.8,0-1.5-0.1-2.2-0.5c-5-2.8-11-9.6-13.3-18.3c-2.1-8.1-9.4-38.1-9.7-41.1
		c0-0.4,0.1-0.8,0.4-1.1c1.5-1.7,7.6-2.1,13.7-2.4c1.5-0.1,2.7-0.1,3.2-0.2c0.2,0,0.4,0.1,0.5,0.2c5.5,8,32.8,47.8,31.4,51.5
		c-0.1,0.3-0.3,0.4-0.6,0.5c-1.1,0.3-3.5,1.8-6.3,3.6C112.8,232.9,105.6,237.4,101.2,237.4z M93.1,174.8c-0.6,0.1-1.7,0.1-3,0.2
		c-4.1,0.2-11.7,0.5-13,2c-0.1,0.1-0.1,0.2-0.1,0.3c0.3,2.9,7.7,33.1,9.7,41c2.2,8.4,8,15,12.8,17.7c3.4,1.9,12.3-3.6,18.2-7.3
		c2-1.4,4.2-2.6,6.5-3.6C124.7,222.1,105.5,192.9,93.1,174.8L93.1,174.8z"/>
	<path class="st0" d="M149.8,155.9c0,0-70.1-2.9-70.4,2.1s34.7,78.7,39.8,79.8s5.6-3.8,7.6-3.3s21.7-5.6,28-11s-10.5-46.2-9.8-51.3
		S155.5,156.6,149.8,155.9z"/>
	<path class="st1" d="M120.5,238.5c-0.5,0-1-0.1-1.5-0.2c-3.4-0.7-16.7-27.3-22.3-38.7c-8.8-18.1-18.1-38.8-17.9-41.6
		c0.1-1.1,0.2-3.6,35.8-3.4c17.4,0.1,35,0.8,35.1,0.8l0,0c0.8,0,1.6,0.5,2,1.2c0.9,1.8-1.1,5.2-3.1,8.8c-1.5,2.6-3.1,5.2-3.3,7
		c-0.3,1.6,1.7,7.9,3.9,15.2c4.5,14.6,10,32.7,5.7,36.4c-6.3,5.4-26.3,11.6-28.4,11.1c-0.4-0.1-0.8,0.3-1.5,1
		C124,237.5,122.3,238.4,120.5,238.5z M112.5,155.5c-20.8,0-32.5,1.1-32.6,2.6c-0.1,2.3,7.9,20.7,17.8,41.1
		c12.5,25.8,19.9,37.8,21.5,38.2c2.9,0.6,4.1-0.8,5.2-2c0.7-0.8,1.4-1.6,2.5-1.3c1.7,0.4,21.3-5.5,27.5-10.9
		c3.8-3.3-2.1-22.6-6-35.3c-2.4-7.7-4.2-13.8-3.9-15.6s1.9-4.7,3.4-7.4c1.8-3,3.8-6.5,3.1-7.8c-0.3-0.4-0.7-0.7-1.2-0.6
		C135.3,155.8,122.8,155.5,112.5,155.5L112.5,155.5z"/>
	<path class="st0" d="M277.5,221.8c0,0,10.7-0.3,12.1-1s9.4-11.1,11.3-13.6s2.4-5.4,3.7-5.9s2.1-1.6,2.6,0s-2.2,13-4,19.2
		s-3.9,14.6-5.4,15.6s-5.5-0.3-6.5-1.4c-1.2-1-2.6-1.9-4-2.6c0,0-12.8,0.1-13-0.2S277.5,221.8,277.5,221.8z"/>
	<path class="st1" d="M296.3,237c-1.9-0.1-3.8-0.7-5.4-1.9c-1.2-0.9-2.4-1.8-3.7-2.4c-12.9,0.1-13.1-0.1-13.3-0.4s-0.3-0.5,3.1-10.5
		c0.1-0.2,0.2-0.3,0.5-0.3c4.1-0.1,10.9-0.5,11.9-0.9s7.1-8.2,11.1-13.4c0.7-1,1.4-2.1,1.9-3.3c0.6-1.3,1.1-2.4,2-2.8
		c0.3-0.1,0.5-0.2,0.7-0.4c0.6-0.3,1.1-0.6,1.7-0.4c0.4,0.2,0.8,0.7,0.9,1.1c0.6,1.9-2.5,14.6-4,19.5c-0.3,1-0.6,2.1-0.9,3.2
		c-2,7.1-3.4,11.8-4.7,12.7C297.5,236.9,296.9,237,296.3,237z M287.3,231.7c0.1,0,0.1,0,0.2,0c1.5,0.7,2.8,1.6,4.1,2.7
		c1,1,4.7,2.1,5.9,1.3s2.9-7.3,4.3-12.1c0.3-1.1,0.6-2.2,0.9-3.2c2.1-7.3,4.4-17.7,4-18.9c-0.1-0.4-0.3-0.5-0.3-0.5
		s-0.6,0.2-0.8,0.4s-0.5,0.3-0.8,0.4c-0.5,0.2-1,1.2-1.5,2.3c-0.5,1.2-1.2,2.4-2,3.5c-0.4,0.5-9.8,12.9-11.5,13.7
		c-1.4,0.7-9.9,1-12,1c-1.1,3.1-2.6,7.8-3,9.2C276.5,231.6,283,231.6,287.3,231.7L287.3,231.7z"/>
	<path class="st1" d="M161.6,236.9c0,0,54.4-6.9,58.3-7.2s59.1,3.9,61.1,3.6s2.5-12.8,2.5-12.8s-53.5-14.4-68.6-13.7
		c-8.8,0.4-37.2,0-37.2,0L161.6,236.9z"/>
	<path class="st1" d="M161.6,237.4c-0.3,0-0.5-0.2-0.5-0.5c0-0.1,0-0.2,0.1-0.3l16.1-30.1c0.1-0.2,0.3-0.3,0.4-0.3
		c0.3,0,28.5,0.4,37.2,0c15.1-0.7,66.6,13.1,68.8,13.7c0.2,0.1,0.4,0.3,0.4,0.5c-0.2,3.9-0.8,12.9-3,13.3
		c-0.9,0.1-10.9-0.5-27.1-1.6c-15-1-32-2.1-34.1-2C216.1,230.4,162.2,237.3,161.6,237.4L161.6,237.4z M178,207.3l-15.5,29
		c7.5-1,53.8-6.9,57.4-7.1c2.1-0.2,18.4,0.9,34.2,2c12.8,0.9,26,1.7,26.8,1.6s1.8-5.6,2.1-11.9c-4.9-1.3-53.9-14.2-68.1-13.6
		C206.7,207.7,181.1,207.3,178,207.3z"/>
	<path class="st0" d="M236.6,217.1c0,0,5.4,8.6,5.9,10.4s0.6,6.7,1.8,8.9s34.9,1.8,34.8,0.5s-14.6-7.3-18.4-10S247,210,247,210
		L236.6,217.1z"/>
	<path class="st1" d="M261.5,238.5c-8.4,0-16.9-0.4-17.6-1.8s-1.1-3.8-1.3-5.9c-0.1-1-0.3-2.1-0.5-3.1c-0.5-1.4-4.1-7.3-5.9-10.3
		c-0.1-0.2-0.1-0.5,0.1-0.7l10.4-7.1c0.2-0.2,0.5-0.1,0.7,0.1c0.1,0.1,10,14.2,13.6,16.8c3,1.8,6,3.4,9.2,4.8
		c7.2,3.5,9.3,4.6,9.4,5.5c0,0.4-0.2,0.6-0.7,0.8C277.4,238.1,269.5,238.5,261.5,238.5z M237.2,217.3c1.1,1.8,5.2,8.5,5.7,10.1
		c0.3,1.1,0.5,2.2,0.6,3.3c0.1,1.9,0.5,3.8,1.2,5.6c0.5,0.6,6.1,1.3,16.9,1.3c8.3,0.1,15-0.4,16.7-0.8c-2.8-1.7-5.6-3.2-8.6-4.5
		c-3.2-1.5-6.3-3.1-9.3-4.9c-3.5-2.5-11.9-14.3-13.6-16.7L237.2,217.3z"/>
	<path class="st1" d="M139.9,230c0.9,0.6,4.8,6.4,21.7,6.9s44.7-50.5,44.7-50.5l29.3,34.4l13.5-8.5c0,0-18.4-51.2-26.8-56.5
		s-22-1.4-28,2.5s-34.8,43.4-34.8,43.4L139.9,230z"/>
	<path class="st1" d="M161.9,237.4h-0.3c-15.1-0.5-20-5.2-21.6-6.7c-0.2-0.2-0.3-0.3-0.4-0.3c-0.1-0.1-0.2-0.2-0.2-0.3
		c0-0.1,0-0.3,0.1-0.4l19.7-28.2c1.2-1.6,29-39.7,34.9-43.5c5.6-3.6,19.6-8.1,28.5-2.5c8.4,5.3,26.2,54.6,27,56.7
		c0.1,0.2,0,0.5-0.2,0.6l-13.5,8.5c-0.2,0.1-0.5,0.1-0.6-0.1l-28.9-33.9c-4.8,8.6-10,16.9-15.7,24.9
		C178.7,228.9,169,237.4,161.9,237.4z M140.5,229.9l0.1,0.1c1.5,1.5,6.2,5.9,20.9,6.4h0.3c16.4,0,43.7-49.7,43.9-50.3
		c0.1-0.1,0.2-0.2,0.4-0.3c0.2,0,0.3,0,0.4,0.2l29,34.1l12.8-8.1c-1.7-4.7-18.7-51-26.4-55.8c-4.2-2.6-16.5-4.6-27.4,2.5
		c-5.8,3.8-34.4,42.9-34.7,43.3L140.5,229.9z"/>
	<path class="st0" d="M154.3,195c0-0.6,7.3-10.3,9.2-11.1c1.8-0.9,3.5-2,5.1-3.1l-2.7-6.2c0,0-2.2,0.9-1.7-1.1s-3.4-4.6-3.4-4.6
		s-5.1,4.5-5.2,9.7c-0.1,4.2-11.3,10.9-11.3,10.9L154.3,195z"/>
	<path class="st1" d="M154.3,195.5c-0.1,0-0.2,0-0.3-0.1l-10.1-5.6c-0.2-0.1-0.3-0.4-0.2-0.7c0-0.1,0.1-0.1,0.2-0.2
		c3-1.8,11-7.2,11.1-10.4c0.1-5.3,5.1-9.9,5.4-10c0.2-0.1,0.4-0.1,0.6,0c0.4,0.3,4.1,2.9,3.6,5.1c-0.1,0.4,0,0.6,0,0.6s0.7,0,1-0.1
		c0.2-0.1,0.5,0,0.6,0.3l2.7,6.2c0.1,0.2,0,0.5-0.2,0.6c-1.7,1.1-3.4,2.2-5.2,3.2c-1.6,0.8-8.5,9.9-8.9,10.8c0,0.1-0.1,0.3-0.2,0.4
		C154.4,195.5,154.4,195.5,154.3,195.5z M145.2,189.3l8.9,5c1.4-2.5,7.5-10.1,9.1-10.9c1.6-0.9,3.2-1.8,4.7-2.9l-2.4-5.4
		c-0.5,0.2-1.1,0.1-1.6-0.2c-0.4-0.4-0.5-1-0.3-1.6c0.3-1.1-1.5-2.9-2.9-3.9c-1.1,1-4.6,4.9-4.7,9.1
		C155.9,182.3,147.8,187.6,145.2,189.3L145.2,189.3z"/>
	<path class="st0" d="M140,119c-9.9-12.2-26.3-6-31.1,7.2c-1.9,5.2-3.7,10-7.3,14.3c-3.2,3.9-8.1,7.4-8.3,12.9
		c-0.1,3.8,2.4,7.4,5.7,9.4s7.2,2.6,11,2.8c8.6,0.5,17.1-0.9,25.1-3.9c3.3-1.2,7.1-3.2,8.8-6.5c2.1-3.9-0.2-6.9-1.1-11
		c-0.7-3.4,0.4-6.8,1.1-10.1C145.2,128.5,143.5,123.4,140,119z"/>
	<path class="st1" d="M113.4,166.1c-1.1,0-2.2,0-3.3-0.1c-3.3-0.2-7.6-0.7-11.3-2.9s-6.1-6.1-6-9.8c0.2-4.3,3.1-7.3,5.9-10.3
		c0.9-1,1.8-1.9,2.6-2.8c3.4-4.2,5.2-8.7,7.2-14.2c2.6-7.2,8.8-12.6,15.8-13.8c6.2-1,11.9,1.3,16.1,6.5l0,0c3.9,4.8,5.3,10,4.1,15.5
		c-0.1,0.6-0.3,1.1-0.4,1.7c-0.6,2.7-1.3,5.6-0.7,8.2c0.2,1,0.5,2.1,0.9,3.1c0.9,2.7,1.8,5.2,0.1,8.3c-1.4,2.7-4.5,4.9-9.1,6.7
		C128.4,164.7,120.9,166.1,113.4,166.1z M127.1,112.9c-0.9,0-1.8,0.1-2.7,0.2c-6.6,1.1-12.5,6.3-15,13.2c-2,5.6-3.9,10.2-7.3,14.5
		c-0.8,1-1.7,2-2.6,2.9c-2.7,2.8-5.4,5.7-5.6,9.7c-0.1,3.4,2,6.9,5.5,8.9s7.6,2.5,10.8,2.7c8.5,0.4,16.9-0.9,24.8-3.9
		c4.3-1.6,7.2-3.8,8.5-6.2c1.4-2.7,0.7-4.9-0.2-7.5c-0.4-1-0.7-2.1-0.9-3.2c-0.6-2.9,0.1-5.8,0.7-8.7c0.1-0.6,0.3-1.1,0.4-1.6
		c1.1-5.1-0.2-10-3.9-14.6l0,0C136.2,115.2,131.8,112.9,127.1,112.9z"/>
	<path class="st2" d="M103.3,155.9c-4,5.2-3.3,29.1,6.2,41.6s14.5,28.7,36.1,37.1l17.1-34.9c0,0-14.1-12.5-14.7-16.4
		s2.2-10,0.2-15.3C139.9,145.9,107.3,150.7,103.3,155.9z"/>
	<path class="st0" d="M130.4,150.6l-0.1,9.7c0,0,0.8,4-5.7,2.5s-9.3-9.5-9.3-9.5l0.6-14.2c0,0,10.1-5.4,8.7-15.8
		c2.6,4.9,8,7.7,13.6,6.9c0,0,0.2,9.3-0.6,14.3S130.4,150.6,130.4,150.6z"/>
	<path class="st1" d="M127.3,163.6c-0.9,0-1.8-0.1-2.7-0.4c-6.7-1.6-9.6-9.5-9.7-9.8c0-0.1,0-0.1,0-0.2l0.6-14.2
		c0-0.2,0.1-0.3,0.3-0.4c0.1-0.1,9.8-5.4,8.4-15.3c0-0.2,0.1-0.5,0.3-0.5c0.2-0.1,0.5,0,0.6,0.3c2.5,4.7,7.7,7.4,13,6.6
		c0.1,0,0.3,0,0.4,0.1c0.1,0.1,0.2,0.2,0.2,0.4c0,0.4,0.1,9.4-0.6,14.4c-0.7,4.6-5.6,6.1-7.1,6.4l-0.1,9.3l0,0
		c0.1,0.9-0.2,1.8-0.8,2.4C129.3,163.4,128.3,163.7,127.3,163.6z M115.9,153.2c0.3,0.9,3.2,7.7,9,9.1c2.2,0.5,3.8,0.4,4.6-0.3
		c0.4-0.4,0.6-1,0.5-1.6v-9.8c0-0.2,0.2-0.4,0.4-0.5c0.1,0,6-1.1,6.7-5.7c0.5-4.5,0.7-9.1,0.6-13.7c-4.8,0.5-9.6-1.6-12.4-5.6
		c0.1,8.5-7.3,13.3-8.8,14.2L115.9,153.2z"/>
	<path class="st0" d="M119,138.6c-0.7-2.3-2.9-3.7-5.2-3.5c-2.8,0.4-2.8,3.6-1.9,5.7c1.1,2.6,4.1,3.8,6.7,2.7c0,0,0,0,0,0"/>
	<path class="st1" d="M116.6,144.4c-2.2,0-4.3-1.3-5.2-3.4c-0.7-1.5-0.7-3.2-0.1-4.8c0.5-0.9,1.4-1.5,2.4-1.6c2.6-0.3,5,1.4,5.8,3.9
		c0.1,0.3-0.1,0.6-0.4,0.6c-0.3,0.1-0.6-0.1-0.6-0.4c-0.7-2-2.6-3.3-4.7-3.1c-0.7,0.1-1.3,0.5-1.6,1.1c-0.5,1.3-0.5,2.7,0.1,3.9
		c1,2.3,3.7,3.4,6.1,2.4c0,0,0.1,0,0.1,0c0.3-0.1,0.5,0,0.7,0.3c0.1,0.3,0,0.5-0.3,0.7c0,0,0,0,0,0
		C118.1,144.2,117.4,144.4,116.6,144.4z"/>
	<path class="st0" d="M132,135.2c0,0,3.6,4.9,2.8,5.8s-3,0.4-3,0.4"/>
	<path class="st1" d="M133.1,142.1c-0.5,0-0.9-0.1-1.4-0.1c-0.3-0.1-0.5-0.3-0.4-0.6c0.1-0.3,0.3-0.5,0.6-0.4
		c0.6,0.1,2.1,0.3,2.6-0.3c0.2-0.5-1.2-2.9-2.8-5.2c-0.2-0.2-0.1-0.5,0.1-0.7c0,0,0,0,0,0c0.2-0.2,0.5-0.1,0.7,0.1
		c1.7,2.4,3.6,5.4,2.8,6.4C134.6,141.9,133.8,142.2,133.1,142.1z"/>
	
		<ellipse transform="matrix(0.9996 -2.931733e-02 2.931733e-02 0.9996 -3.8325 3.8422)" class="st1" cx="129.1" cy="132.6" rx="0.8" ry="1.8"/>
	
		<ellipse transform="matrix(0.9996 -2.931733e-02 2.931733e-02 0.9996 -3.8525 4.0399)" class="st1" cx="135.8" cy="133.4" rx="0.8" ry="1.8"/>
	<path class="st1" d="M130.4,150.6c0,0-3.7,0.7-8.1-2.2c0,0,1.6,6.8,8,7.4L130.4,150.6z"/>
	<path class="st1" d="M130.4,156.4L130.4,156.4c-6.7-0.7-8.4-7.8-8.5-7.8c-0.1-0.2,0-0.4,0.2-0.5c0.2-0.1,0.4-0.1,0.6,0
		c2.2,1.6,5,2.4,7.7,2.1c0.1,0,0.3,0,0.4,0.1c0.1,0.1,0.2,0.2,0.2,0.4v5.2c0,0.1-0.1,0.3-0.2,0.4
		C130.7,156.3,130.6,156.4,130.4,156.4z M123.3,149.5c0.7,1.8,2.6,5.1,6.6,5.8v-4.1C127.6,151.2,125.3,150.7,123.3,149.5z"/>
	<path class="st0" d="M126.4,138.6c0,0,0,9.8,8.6,6.7"/>
	<path class="st1" d="M131.9,146.4c-1.1,0-2.2-0.3-3.1-0.9c-2.9-2-3-6.7-3-6.9c0-0.3,0.2-0.5,0.5-0.5l0,0c0.3,0,0.5,0.2,0.5,0.5
		c0,0,0,4.3,2.5,6.1c1.3,0.9,3.2,1,5.4,0.1c0.3-0.1,0.5,0.1,0.6,0.3c0.1,0.3,0,0.5-0.3,0.6C134.1,146.1,133,146.4,131.9,146.4z"/>
	<path class="st0" d="M185.9,186.4c-0.4-0.1-11.7-3-11.7-3s18.9-29.9,19.3-30s16.2-3.3,16.2-3.3L185.9,186.4z"/>
	<path class="st1" d="M185.9,186.9h-0.2c-0.3-0.1-7.2-1.8-11.7-3c-0.3-0.1-0.4-0.3-0.4-0.6c0-0.1,0-0.1,0.1-0.1
		c19-30,19.4-30.1,19.6-30.2c0.5-0.1,13.6-2.8,16.3-3.3c0.3-0.1,0.5,0.1,0.6,0.4c0,0.1,0,0.3-0.1,0.4l-23.8,36.3
		C186.2,186.8,186,186.9,185.9,186.9z M174.9,183.1c2.3,0.6,9,2.3,10.7,2.7l22.9-35c-5.9,1.2-13.8,2.8-14.9,3
		C192.6,155.3,182.1,171.8,174.9,183.1L174.9,183.1z"/>
	<polygon class="st0" points="174.1,183.4 160.7,176.1 178.9,149.7 193.5,153.4 	"/>
	<path class="st1" d="M174.1,183.9c-0.1,0-0.2,0-0.2-0.1l-13.5-7.3c-0.1-0.1-0.2-0.2-0.2-0.3c0-0.1,0-0.3,0.1-0.4l18.2-26.4
		c0.1-0.2,0.3-0.3,0.5-0.2l14.6,3.7c0.2,0,0.3,0.1,0.4,0.3c0.1,0.2,0,0.3-0.1,0.5l-19.3,30C174.5,183.8,174.3,183.9,174.1,183.9z
		 M161.4,175.9l12.6,6.8l18.7-29.1l-13.6-3.5L161.4,175.9z"/>
	<path class="st0" d="M119,190.7c0,0,13.3,22,23.8,26s40.4-26.7,40.4-26.7s3.7,1.7,7.4-3.3c2.3-3.1,4.1-6.5,5.4-10.1
		c0,0,1.9-4,1.2-6.4c-0.6-2.1-2.6,2-2.6,2s-3.4,5.2-5.3,4.7s-0.3-5.8-0.9-7.4s-3.5,4-4.2,6.4s-4.4,6.7-5.9,8.1S153,201.7,151,201.6
		s-16.4-17.7-16.4-17.7L119,190.7z"/>
	<path class="st1" d="M144.9,217.5c-0.8,0-1.5-0.1-2.3-0.4c-10.5-4-23.5-25.3-24.1-26.2c-0.1-0.1-0.1-0.3,0-0.4
		c0-0.1,0.1-0.2,0.3-0.3l15.5-6.8c0.2-0.1,0.4,0,0.6,0.1c6.9,8.4,14.8,17.3,16.1,17.5c2,0,24.9-15.5,27-17.3
		c1.6-1.4,5.2-5.7,5.8-7.9c0.5-1.7,2.9-6.9,4.4-7c0.4,0,0.7,0.2,0.8,0.6c0.2,1,0.2,2.1,0.1,3.1c-0.1,1.6-0.3,3.7,0.5,3.9
		c1.1,0.3,3.5-2.5,4.8-4.5c0.5-1.1,1.6-2.9,2.6-2.9c0.3,0,0.7,0.2,0.9,0.9c0.8,2.6-1.1,6.6-1.2,6.8c-1.3,3.6-3.1,7.1-5.5,10.1
		c-3.3,4.4-6.6,3.9-7.7,3.6C180.6,193.4,156.5,217.5,144.9,217.5z M119.7,191c2,3.2,13.9,21.7,23.3,25.3c4.1,1.6,12.3-2.5,23.7-11.8
		c8.7-7.1,16.2-14.7,16.2-14.8c0.1-0.1,0.4-0.2,0.6-0.1c0.1,0.1,3.4,1.4,6.8-3.1c2.3-3,4.1-6.4,5.4-9.9c0-0.1,1.9-3.9,1.2-6.1
		c0-0.1-0.1-0.2-0.1-0.3c-0.7,0.7-1.2,1.5-1.6,2.4c-0.6,1-3.7,5.5-5.9,5c-1.6-0.4-1.4-2.9-1.2-5c0.1-0.8,0.1-1.7,0.1-2.5
		c-0.8,0.6-2.7,4.1-3.3,6.2c-0.7,2.5-4.4,6.9-6.1,8.4c-1.3,1.1-25,17.5-27.7,17.5l0,0c-2.1-0.1-12.9-13.1-16.5-17.6L119.7,191z"/>
	<path class="st1" d="M134.5,184.4c-0.2,0-0.4-0.1-0.4-0.3l-7.8-16.1c-0.1-0.2,0-0.5,0.2-0.7c0.2-0.1,0.5,0,0.7,0.2l7.8,16.1
		c0.1,0.2,0,0.5-0.2,0.7c0,0,0,0,0,0C134.7,184.4,134.6,184.4,134.5,184.4z"/>
	<path class="st1" d="M119,191.2c-0.2,0-0.4-0.1-0.4-0.3c-0.1-0.2-9.7-19.9-11.6-22.4c-0.2-0.2-0.1-0.5,0.1-0.7
		c0.2-0.2,0.5-0.1,0.7,0.1c0,0,0,0,0,0c2,2.5,11.3,21.7,11.7,22.6c0.1,0.2,0,0.5-0.2,0.7C119.2,191.2,119.1,191.2,119,191.2z"/>
	<path class="st0" d="M164.1,237c-0.3,0-0.5-0.1-0.6-0.4s0.1-0.5,0.4-0.6c11.7-3.8,29.1-29.1,29.3-29.3c0.2-0.2,0.5-0.3,0.7-0.1
		c0.2,0.1,0.3,0.5,0.1,0.7c0,0,0,0,0,0c-0.7,1.1-17.8,25.8-29.8,29.7L164.1,237z"/>
	<path class="st0" d="M160.7,168.8c1.2-0.9,2.6-1.7,4-2.3c3.3-1.4,7.6-1.1,6.5,0.3s-8.5,4.5-8.5,4.5s0.6,3.4-3.2,4.9"/>
	<path class="st1" d="M159.5,176.7c-0.3,0-0.5-0.1-0.6-0.4s0.1-0.5,0.4-0.6c3.4-1.3,2.9-4.2,2.9-4.3c0-0.2,0.1-0.5,0.3-0.6
		c2.9-1.2,7.5-3.4,8.3-4.3c0,0,0.1-0.1,0.1-0.1c-0.3-0.4-3.3-0.6-6,0.6c-1.3,0.6-2.6,1.3-3.8,2.2c-0.2,0.2-0.5,0.2-0.7,0
		c-0.2-0.2-0.2-0.5,0-0.7c1.3-1,2.6-1.8,4.1-2.4c2.7-1.2,6.4-1.3,7.2-0.2c0.3,0.4,0.3,0.9-0.1,1.3c-1,1.4-6.8,3.8-8.3,4.5
		c0.1,2.3-1.4,4.3-3.6,5C159.6,176.6,159.5,176.7,159.5,176.7z"/>
	<path class="st3" d="M119.1,228.9c-0.2,0-0.4-0.1-0.5-0.4c-5.6-17.6-32.6-66.2-32.9-66.7c-0.1-0.3,0-0.5,0.3-0.7
		c0.2-0.1,0.5,0,0.6,0.2c0.3,0.5,27.3,49.2,33,66.9c0.1,0.3-0.1,0.5-0.3,0.6C119.2,228.9,119.1,228.9,119.1,228.9z"/>
	<rect x="68.8" y="249.4" class="st2" width="262.4" height="6.5"/>
	<path class="st1" d="M331.2,256.4H68.8c-0.3,0-0.5-0.2-0.5-0.5v-6.5c0-0.3,0.2-0.5,0.5-0.5h262.4c0.3,0,0.5,0.2,0.5,0.5v6.5
		C331.7,256.2,331.5,256.4,331.2,256.4z M69.3,255.4h261.4v-5.5H69.3V255.4z"/>
</g>
</svg>
