<?xml version="1.0" encoding="utf-8"?>
<!-- Generator: Adobe Illustrator 23.1.0, SVG Export Plug-In . SVG Version: 6.00 Build 0)  -->
<svg version="1.1" id="Layer_1" xmlns="http://www.w3.org/2000/svg" xmlns:xlink="http://www.w3.org/1999/xlink" x="0px" y="0px"
	 viewBox="0 0 400 300" style="enable-background:new 0 0 400 300;" xml:space="preserve">
<style type="text/css">
	.st0{fill:#231F20;}
	.st1{fill:#FFFFFF;}
	.st2{fill:#E6E7E8;}
	.st3{fill:#F5C7E0;}
	.st4{fill:#68E1FD;}
	.st5{fill:#D1D3D4;}
</style>
<g id="_281_sad_face_flatline">
	<path class="st0" d="M262.2,213.2H262c-2.2-0.1-3.9-2-3.8-4.2l5.6-105.2c0.1-2.2,2-3.9,4.2-3.8c2.2,0.1,3.9,2,3.8,4.2l0,0
		l-5.6,105.1C266.1,211.6,264.4,213.2,262.2,213.2z"/>
	<path class="st0" d="M129.8,174.9c-2,0-3.9-0.3-5.8-1c-7.3-2.9-9.7-7.6-10.4-11c-2.6-12.6,12.6-27.9,14.4-29.6
		c1.5-1.6,4.1-1.6,5.7-0.1c1.6,1.5,1.6,4.1,0.1,5.7c0,0-0.1,0.1-0.1,0.1c-5.4,5.3-13.4,16-12.1,22.3c0.2,0.8,0.7,3.3,5.4,5.2
		c8.6,3.4,26.1-10.4,35.1-19.9c1.6-1.5,4.1-1.5,5.7,0.1c1.4,1.5,1.5,3.8,0.1,5.4C165.4,154.6,145.7,174.9,129.8,174.9z"/>
	<path class="st1" d="M149,89.5c0,0-9-4.3-11.3,3.3s-2.8,30.1-4.9,32.7c-2.3,2.4-4.7,4.7-7.2,6.8l9.7,19.3l21.5-9.7
		C156.8,141.8,149.3,99.9,149,89.5z"/>
	<path class="st0" d="M135.2,152c-0.2,0-0.4-0.1-0.5-0.3l-9.7-19.3c-0.1-0.2-0.1-0.5,0.1-0.6c2.5-2.1,4.9-4.3,7.2-6.8
		c1-1.2,1.7-8.2,2.3-15s1.3-13.8,2.5-17.5c0.5-1.9,1.8-3.4,3.5-4.3c3.6-1.6,8.3,0.6,8.5,0.7c0.2,0.1,0.3,0.3,0.3,0.4
		c0.3,10.3,7.7,51.9,7.8,52.3c0,0.2-0.1,0.5-0.3,0.6l-21.5,9.7C135.4,152,135.3,152,135.2,152z M126.2,132.4l9.3,18.5l20.7-9.3
		c-0.8-4.3-7.3-41.4-7.7-51.7c-1-0.4-4.6-1.8-7.4-0.5c-1.5,0.7-2.6,2-2.9,3.6c-1.1,3.6-1.8,10.6-2.4,17.3
		c-0.8,8.8-1.4,14.2-2.6,15.6C131,128.1,128.7,130.3,126.2,132.4L126.2,132.4z"/>
	<path class="st0" d="M198,235.3c-2,0-3.7-1.4-4-3.4l-12.6-82.3c-0.3-2.2,1.2-4.2,3.3-4.6c2.2-0.3,4.2,1.2,4.6,3.4l12.7,82.3
		c0.3,2.2-1.2,4.2-3.3,4.6c0,0,0,0,0,0C198.4,235.3,198.2,235.3,198,235.3z"/>
	<path class="st0" d="M221.8,235.3h-0.5c-2.2-0.3-3.8-2.2-3.5-4.4c0,0,0,0,0,0c2.9-25.4,7.4-66.9,7.3-71.9c-0.5-2.2,0.8-4.3,3-4.8
		c1.6-0.4,3.3,0.3,4.2,1.6c1.2,1.7,1.5,2.2-2.5,39.9c-1.9,17.9-4,35.9-4,36.1C225.5,233.8,223.8,235.3,221.8,235.3z M225.7,160.4
		L225.7,160.4z"/>
	<ellipse class="st2" cx="208.2" cy="254.8" rx="64" ry="7.6"/>
	<circle class="st3" cx="206.6" cy="116.3" r="65.4"/>
	<path class="st0" d="M206.7,50.8c36.2,0,65.6,29.3,65.6,65.5s-29.3,65.6-65.5,65.6s-65.6-29.3-65.6-65.5c0-31.3,22-58.2,52.7-64.3
		C198.1,51.2,202.4,50.8,206.7,50.8 M206.7,49.8L206.7,49.8c-36.7,0-66.5,29.7-66.6,66.4c0,36.7,29.7,66.5,66.4,66.6
		s66.5-29.7,66.6-66.4S243.4,49.9,206.7,49.8z"/>
	
		<ellipse transform="matrix(0.9817 -0.1903 0.1903 0.9817 -16.6294 36.4746)" class="st0" cx="181.6" cy="104.8" rx="5.2" ry="12.3"/>
	<ellipse transform="matrix(0.9817 -0.1903 0.1903 0.9817 -14.2996 44.369)" class="st0" cx="223.8" cy="96.6" rx="5.2" ry="12.3"/>
	<path class="st0" d="M178.9,165.4c-0.7,0-1.3-0.5-1.5-1.2c-1.5-7.7,1-15.7,7-22.5s14.7-11.5,24.6-13.4c20.5-4.1,39.8,5.4,42.9,21.2
		c0.2,0.8-0.4,1.6-1.2,1.8c-0.8,0.2-1.6-0.4-1.8-1.2c-2.8-14.1-20.5-22.6-39.4-18.8c-9.2,1.8-17.4,6.3-22.9,12.5s-7.7,13.2-6.3,19.9
		c0.2,0.8-0.4,1.6-1.2,1.8L178.9,165.4z"/>
	<path class="st1" d="M127.1,130.9l9.9,20c0.9,1.8,0.2,4.1-1.7,5l-1,0.5c-1.8,0.9-4.1,0.2-5-1.7l-9.9-20c-0.9-1.8-0.2-4.1,1.7-5
		l1-0.5C123.9,128.3,126.2,129,127.1,130.9z"/>
	<path class="st0" d="M132.7,157.3c-1.6,0-3.1-0.9-3.8-2.4l0,0l-9.9-20c-1-2.1-0.2-4.6,1.9-5.7c0,0,0,0,0,0l1-0.5
		c1-0.5,2.2-0.6,3.2-0.2c1.1,0.4,1.9,1.1,2.4,2.1l9.9,20c1,2.1,0.2,4.6-1.9,5.7c0,0,0,0,0,0l-1,0.5
		C134,157.1,133.4,157.3,132.7,157.3z M129.8,154.5c0.8,1.6,2.7,2.2,4.3,1.4l1-0.5c1.6-0.8,2.2-2.7,1.4-4.3l-9.9-20
		c-0.4-0.8-1-1.3-1.8-1.6c-0.8-0.3-1.7-0.2-2.4,0.2l-1,0.5c-1.6,0.8-2.2,2.7-1.5,4.3c0,0,0,0,0,0L129.8,154.5z"/>
	<ellipse transform="matrix(0.9809 -0.1946 0.1946 0.9809 -20.5909 33.9251)" class="st1" cx="162.4" cy="121.8" rx="8" ry="5.1"/>
	<ellipse transform="matrix(0.9809 -0.1946 0.1946 0.9809 -15.5235 50.9416)" class="st1" cx="251.5" cy="104.5" rx="8" ry="5.1"/>
	<path class="st4" d="M169.3,99.4c0,0,13.7-6,15.4-15.1"/>
	<path class="st0" d="M169.3,100.9c-0.8,0.1-1.5-0.6-1.6-1.4c0-0.7,0.4-1.3,1-1.5c0.1-0.1,13-5.8,14.5-14.1c0.2-0.8,1-1.4,1.8-1.2
		s1.4,1,1.2,1.8c-1.8,9.8-15.6,16-16.2,16.2C169.8,100.8,169.5,100.9,169.3,100.9z"/>
	<path class="st4" d="M233.9,87c0,0-14.9-0.4-20-8.1"/>
	<path class="st0" d="M233.9,88.5L233.9,88.5c-0.6,0-15.8-0.5-21.2-8.8c-0.5-0.6-0.4-1.6,0.2-2.1c0.6-0.5,1.6-0.4,2.1,0.2
		c0.1,0.1,0.1,0.1,0.2,0.2c4.6,7,18.6,7.4,18.8,7.4c0.8,0,1.5,0.7,1.5,1.5S234.8,88.4,233.9,88.5L233.9,88.5z"/>
	<path class="st1" d="M136.1,127.6c0,0-0.4-17.2,3.6-23.5s12.7-8.6,10.9-1.8s-7,14.8-7,14.8s3.8,14.5-0.9,23.1"/>
	<path class="st0" d="M142.7,140.7c-0.1,0-0.2,0-0.3-0.1c-0.2-0.1-0.3-0.4-0.2-0.7c4.5-8.4,0.9-22.6,0.9-22.7c0-0.1,0-0.3,0.1-0.4
		c0.1-0.1,5.1-8.1,6.9-14.7c0.3-1.2,0.5-2.7-0.6-3.3c-2-0.9-6.7,1.5-9.3,5.5c-3.9,6.1-3.6,23-3.6,23.2c0,0.3-0.2,0.5-0.5,0.5
		c0,0,0,0,0,0l0,0c-0.3,0-0.5-0.2-0.5-0.5c0-0.7-0.3-17.5,3.7-23.8c2.7-4.3,7.8-7.1,10.6-5.9c0.8,0.4,2.1,1.4,1.2,4.5
		c-1.7,6.3-6.2,13.5-7,14.8c0.5,1.9,3.5,15-1,23.2C143.1,140.6,142.9,140.7,142.7,140.7z"/>
	<path class="st1" d="M272.3,192.4c0,0-2.7,15.4-3,20.2s-7.4,23.5-16.6,24.6s4.6-9.2,4.4-16s-5.4-0.8-7.4,6.3s-5.7-0.3-4-6.8
		s2.6-6.6,3.2-11.9s-0.4-22.5-0.4-22.5L272.3,192.4z"/>
	<path class="st0" d="M251.4,237.8c-1.2,0-1.9-0.3-2.3-0.9c-0.8-1.3,0.7-3.4,2.8-6.4s4.6-6.5,4.6-9.3c-0.1-1.8-0.5-2.4-0.8-2.5
		c-1.2-0.1-4.1,3.6-5.6,8.8c-0.9,3-2,3.4-2.8,3.2c-2-0.5-3.4-5.6-2.2-10.3c0.7-2.6,1.3-4.2,1.7-5.5c0.8-2,1.3-4.1,1.5-6.3
		c0.6-5.3-0.4-22.3-0.4-22.4c0-0.2,0.1-0.3,0.2-0.4c0.1-0.1,0.3-0.1,0.5-0.1l23.8,6.2c0.3,0.1,0.4,0.3,0.4,0.6
		c0,0.1-2.7,15.4-3,20.1s-7.5,23.9-17.1,25.1C252.3,237.8,251.9,237.8,251.4,237.8z M255.7,217.8h0.2c1.1,0.1,1.7,1.3,1.7,3.4
		c0.1,3.1-2.5,6.7-4.8,9.9c-1.5,2.1-3.2,4.5-2.8,5.3c0.1,0.2,0.5,0.5,2.5,0.3c8.9-1.1,15.9-19.8,16.2-24.1s2.5-17.1,2.9-19.8
		l-22.7-5.9c0.2,3.3,0.8,17.1,0.3,21.9c-0.2,2.2-0.7,4.4-1.5,6.6c-0.4,1.3-1,2.9-1.7,5.4c-1.1,4.3,0.3,8.7,1.4,9
		c0.4,0.1,1-0.5,1.6-2.5C250.4,222.7,253.4,217.8,255.7,217.8z"/>
	<path class="st1" d="M273.9,196.7l-25.8-7c-2.1-0.6-3.4-2.8-2.8-4.9l0.1-0.5c0.6-2.1,2.8-3.4,4.9-2.8l25.8,7
		c2.1,0.6,3.4,2.8,2.8,4.9l-0.1,0.5C278.2,196,276,197.3,273.9,196.7z"/>
	<path class="st0" d="M275,197.4c-0.4,0-0.8-0.1-1.2-0.2l-25.8-7c-2.4-0.7-3.8-3.1-3.2-5.5l0.1-0.5c0.6-2.4,3.1-3.8,5.5-3.2l0,0
		l25.8,7c2.4,0.6,3.8,3.1,3.2,5.5c0,0,0,0,0,0l-0.1,0.5C278.8,196,277,197.4,275,197.4L275,197.4z M249.4,181.9
		c-1.6,0-2.9,1.1-3.4,2.6l-0.1,0.5c-0.5,1.8,0.6,3.8,2.4,4.3c0,0,0,0,0,0l25.8,7c1.8,0.5,3.8-0.6,4.3-2.4c0,0,0,0,0,0l0.1-0.5
		c0.5-1.8-0.6-3.8-2.4-4.3c0,0,0,0-0.1,0l-25.8-7C249.9,181.9,249.6,181.9,249.4,181.9L249.4,181.9z"/>
	<path class="st1" d="M208.2,218.2c0,0-28.2-5.5-28.4-2.8s0.9,25.3,0.9,25.3s-27,14.5-22.8,16.3s50.4-6.7,50.4-6.7V218.2z"/>
	<path class="st0" d="M160.2,257.8c-0.9,0.1-1.7,0-2.6-0.3c-0.4-0.2-0.7-0.5-0.7-1c0-0.6-0.1-2.3,11.8-9.6
		c5.1-3.1,10.2-5.9,11.4-6.6c-0.1-2.9-1.1-22.4-0.9-25c0-0.3,0.2-0.5,0.4-0.7c2.6-2,24.3,2.1,28.7,3c0.2,0,0.4,0.3,0.4,0.5v32.2
		c0,0.2-0.2,0.5-0.4,0.5C204.1,251.7,170.4,257.8,160.2,257.8z M182.6,215.2c-1.3,0-2.1,0.1-2.3,0.4c-0.2,2.6,0.9,24.9,0.9,25.1
		c0,0.2-0.1,0.4-0.3,0.5c-11.4,6.1-23.1,13.5-23,15.3c0,0,0,0.1,0.1,0.1c3.2,1.4,36.5-4.3,49.7-6.7v-31.3
		C197.8,216.7,187.2,215.2,182.6,215.2L182.6,215.2z"/>
	<path class="st1" d="M211.3,218.2c0,0,28.2-5.5,28.4-2.8s-0.9,25.3-0.9,25.3s27,14.5,22.8,16.3s-50.4-6.7-50.4-6.7V218.2z"/>
	<path class="st0" d="M259.4,257.8c-10.1,0-43.9-6.2-48.1-6.9c-0.2,0-0.4-0.3-0.4-0.5v-32.2c0-0.2,0.2-0.5,0.4-0.5
		c4.3-0.8,26-5,28.7-3c0.2,0.2,0.4,0.4,0.4,0.7c0.2,2.6-0.8,22.1-0.9,25c4.5,2.4,23.4,12.8,23.3,16.1c0,0.5-0.3,0.8-0.7,1
		C261.1,257.8,260.2,257.9,259.4,257.8z M211.8,249.9c13.1,2.4,46.4,8.1,49.7,6.7c0.1,0,0.1-0.1,0.1-0.1c0.1-1.8-11.6-9.2-23-15.3
		c-0.2-0.1-0.3-0.3-0.3-0.5c0-0.2,1.1-22.5,0.9-25.2c-1-1.2-14.6,0.7-27.4,3.1L211.8,249.9z"/>
	<path class="st1" d="M137.5,44.4c-1.6-2.8-5.5-3.8-8.6-3s-5.8,3-8.1,5.3c-0.7,0.6-1.3,1.5-1.4,2.5c-0.1,1,0.9,2,1.8,1.7
		c-4.4-0.8-8,3.5-9.9,7.5c-1,2-1.8,4.3-0.9,6.3c0.9,2,3.3,3,5.6,3.2c4.3,0.5,8.5-0.8,11.9-3.4c4.4,4.2,11.3,4.1,15.6-0.2
		c1.2-1.2,2-2.6,2.6-4.2c-0.8,0.5,0.5,1.6,1.5,1.7c2.4,0.1,4.9,0.3,7.1-0.6c5.1-2,5.7-14.2,2.3-18.2
		C153.1,38.7,139.8,38.9,137.5,44.4z"/>
	<path class="st5" d="M117.7,68.5c-0.6,0-1.2,0-1.8-0.1c-2.9-0.3-5.1-1.6-6-3.5c-1-2.3-0.1-4.8,0.9-6.7s3.8-7.1,8.4-7.8
		c-0.2-0.4-0.3-0.8-0.3-1.2c0.2-1.1,0.7-2.1,1.6-2.8c2-2.1,4.8-4.6,8.3-5.5c2.9-0.7,6.7,0,8.7,2.5c1.2-1.9,3.8-3.2,7.2-3.8
		c4.4-0.7,10.1,0.1,12.5,2.8c2.1,2.5,2.9,8.2,1.7,13c-0.8,3.1-2.3,5.2-4.2,6c-2.4,0.9-5,0.8-7.3,0.7c-0.5,0-1.1-0.3-1.5-0.6
		c-2.7,5.7-9.6,8.1-15.3,5.4c-1-0.5-2-1.1-2.8-1.9C124.8,67.3,121.3,68.5,117.7,68.5z M120.1,51.3c-3.6,0-6.7,3.6-8.4,7.3
		c-0.8,1.7-1.7,4-0.9,5.9c1,2.2,4,2.8,5.2,2.9c4.1,0.5,8.3-0.8,11.5-3.4c0.2-0.2,0.5-0.2,0.7,0c4.1,4.1,10.7,4,14.8-0.1
		c1-1,1.7-2.1,2.2-3.4c-0.1-0.4,0.1-0.8,0.5-1c0.2-0.1,0.4-0.1,0.6,0c0.2,0.1,0.2,0.4,0.2,0.6c0,0.1-0.1,0.3-0.1,0.4
		c0.3,0.3,0.7,0.5,1.1,0.6c2.2,0.1,4.7,0.3,6.9-0.6c1.6-0.6,2.9-2.5,3.5-5.3c1.1-4.4,0.4-9.8-1.5-12.1s-6.8-3.1-11.5-2.4
		c-3.5,0.5-6,2-6.8,3.9c-0.1,0.2-0.3,0.3-0.4,0.3c-0.2,0-0.4-0.1-0.5-0.3c-1.6-2.8-5.3-3.5-8.1-2.8c-3.3,0.8-5.9,3.2-7.8,5.2
		c-0.7,0.5-1.1,1.3-1.3,2.1c0,0.4,0.2,0.8,0.5,1l0,0c0.3,0,0.6,0,0.8,0.1c0.2,0,0.4,0.2,0.4,0.5c0,0.2-0.1,0.4-0.3,0.5
		C120.9,51.5,120.4,51.4,120.1,51.3L120.1,51.3z"/>
	<path class="st5" d="M145.7,60.5c-0.6,0-1.1-0.1-1.7-0.1c-2.1-0.3-4.6-1.1-5.4-3.4c-0.1-0.3,0.1-0.6,0.3-0.7
		c0.3-0.1,0.6,0.1,0.6,0.3c0.6,1.9,3.1,2.5,4.6,2.7c1.1,0.2,2.2,0.2,3.2-0.2c0.8-0.4,1.6-1,2.1-1.7c0.9-1,1.5-2.2,2-3.5
		c0.1-0.3,0.4-0.4,0.7-0.3c0.3,0.1,0.4,0.4,0.3,0.7c-0.5,1.4-1.2,2.7-2.2,3.8c-0.7,0.9-1.6,1.6-2.6,2
		C147.1,60.4,146.4,60.6,145.7,60.5z"/>
	<path class="st1" d="M253.7,43c-3.7-0.8-7.4,1.5-8.3,5.3c-0.7,3.1,0.8,6.3,3.7,7.7c0.8,0.2,1.5,0.6,2.2,1.1c0.4,0.5,0.8,1,1.1,1.6
		c2.1,3.4,6.6,4.7,10.5,3.9s7.2-3.4,9.8-6.4c-0.7,0.6-0.7,1.7-0.1,2.4c0.6,0.6,1.4,1.1,2.3,1.3c2.7,0.7,5.8,1,8.3-0.3
		c2.6-1.2,3.9-4.1,3.3-6.9c0.5,1.7,2.7,1,3.4,0.2c1-1,0.9-3.9,0.7-5.1c-0.5-3.9-4.1-7.9-8.3-7.6c-0.8,0.2-1.7,0.2-2.5,0.1
		c-1.4-0.3-2.3-1.7-3.5-2.3c-1.6-0.7-3.3-0.5-4.7,0.4c-1.4,0.9-2.6,2.1-3.5,3.5c-0.6-1.4-2.4-1.8-3.9-1.7c-4,0-6.3,0.9-9,3.5
		C254.6,43.4,254.2,43.2,253.7,43z"/>
	<path class="st5" d="M260.8,63.4c-3.4,0.1-6.7-1.6-8.7-4.4c-0.1-0.1-0.2-0.3-0.3-0.4c-0.4-0.9-1.2-1.6-2.2-1.8l-0.6-0.3
		c-3.7-1.7-5.4-6.1-3.7-9.8c1.5-3.3,5.1-5,8.6-4.2l0,0c0.4,0.1,0.8,0.3,1.1,0.6l0,0c2.7-2.4,5-3.3,9.1-3.3c1.9,0,3.2,0.4,4,1.3
		c0.9-1.2,1.9-2.2,3.2-3.1c1.6-1,3.5-1.2,5.3-0.5c0.6,0.3,1.1,0.7,1.5,1.1c0.8,1,2.2,1.5,3.5,1.1l0.8-0.1c4.6-0.4,8.4,3.9,8.9,8
		c0,0.2,0.5,4.2-0.9,5.6c-0.8,0.7-1.9,1.1-2.9,0.9h-0.1c-0.1,2.5-1.5,4.7-3.8,5.8c-2.3,1.1-5.2,1.3-8.6,0.3c-1-0.2-1.9-0.6-2.6-1.3
		c-0.2-0.3-0.4-0.6-0.5-0.9c-2.3,2.5-5.4,4.3-8.7,5.1C262.3,63.3,261.5,63.4,260.8,63.4z M252.1,43.3c-2.8,0-5.2,1.7-6.2,4.3
		c-1,3.2,0.5,6.6,3.5,8l0.6,0.2c1.2,0.3,2.2,1.2,2.8,2.3l0.2,0.4c1.9,3,6,4.5,9.9,3.7c3.6-0.9,6.8-2.9,9.1-5.8
		c0.1-0.2,0.3-0.4,0.5-0.5c0.2-0.2,0.6-0.1,0.7,0.2c0.1,0.2,0.1,0.4,0,0.6l-0.3,0.4c0,0.1-0.1,0.2-0.1,0.3c0,0.4,0.1,0.8,0.3,1.1
		c0.6,0.5,1.3,0.9,2,1c3.2,0.9,5.9,0.8,7.9-0.3c2.4-1.1,3.6-3.7,3-6.3l0,0c-0.1-0.3,0.1-0.6,0.4-0.6c0.3-0.1,0.6,0.1,0.6,0.4l0,0
		c0.1,0.3,0.3,0.6,0.6,0.6c0.7,0.1,1.4-0.1,2-0.6c0.7-0.7,0.8-3.2,0.6-4.7c-0.5-3.6-3.9-7.4-7.8-7.1l-0.7,0.1
		c-1.6,0.4-3.2-0.1-4.3-1.3c-0.4-0.4-0.8-0.7-1.3-1c-1.4-0.6-3-0.4-4.3,0.4c-1.3,0.9-2.4,2.1-3.3,3.4c-0.2,0.2-0.5,0.3-0.7,0.1
		c-0.1-0.1-0.1-0.1-0.2-0.2c-0.5-1.3-2.4-1.4-3.5-1.4c-4,0-6.1,0.8-8.7,3.3c-0.2,0.2-0.4,0.2-0.6,0.1l-0.4-0.3
		c-0.2-0.2-0.5-0.3-0.8-0.4l0,0C253.1,43.3,252.6,43.3,252.1,43.3z"/>
	<path class="st5" d="M273.8,57.1c-0.3,0-0.7,0-1-0.1c-3.3-0.5-6-2.9-6.9-6.1c-0.1-0.3,0.1-0.6,0.4-0.6c0,0,0,0,0,0
		c0.3-0.1,0.6,0.1,0.6,0.4c1,3.9,5,6.2,8.9,5.2c1.9-0.5,3.5-1.7,4.4-3.4c0.1-0.2,0.5-0.3,0.7-0.2c0,0,0,0,0,0
		c0.2,0.1,0.3,0.5,0.2,0.7C279.6,55.5,276.8,57.1,273.8,57.1z"/>
	<path class="st1" d="M252.8,48.5c-0.4-2.2,1.1-4.2,3.3-4.6c0.8-0.1,1.6,0,2.4,0.3"/>
	<path class="st5" d="M252.8,49c-0.2,0-0.5-0.2-0.5-0.4c-0.4-2.5,1.2-4.8,3.6-5.2c0.9-0.2,1.9,0,2.7,0.4c0.3,0.1,0.3,0.5,0.2,0.7
		c-0.1,0.2-0.4,0.3-0.6,0.2c-1.7-0.8-3.8-0.1-4.6,1.7c-0.3,0.7-0.4,1.4-0.3,2.1C253.4,48.7,253.2,48.9,252.8,49L252.8,49z"/>
	<path class="st5" d="M129.1,71.8c0-0.3-0.2-0.5-0.5-0.5c-0.3,0-0.5,0.2-0.5,0.5c0.2,1.5,0.4,3,0.5,4.5c0,0.3,0.2,0.5,0.5,0.5
		c0.3,0,0.5-0.2,0.5-0.5C129.4,74.8,129.2,73.3,129.1,71.8z"/>
	<path class="st5" d="M139,78.3c-0.1-0.2-0.4-0.3-0.7-0.2s-0.3,0.4-0.2,0.7l0,0c0.1,0.2,0.2,0.4,0.3,0.6v0.1l0,0v0.1
		c0,0.1,0.1,0.2,0.1,0.3c0.1,0.2,0.1,0.4,0.1,0.6v0.1c0,0,0,0.1,0,0.1s0,0.3,0,0.4c0,0.3,0.2,0.5,0.5,0.5s0.5-0.2,0.5-0.5
		C139.7,80.2,139.5,79.2,139,78.3z"/>
	<path class="st5" d="M147,74.3c-0.1-0.8-0.3-1.5-0.4-2.3c-0.1-0.3-0.3-0.4-0.6-0.3c-0.3,0.1-0.4,0.4-0.4,0.6
		c0.1,0.8,0.3,1.5,0.4,2.3c0.1,0.3,0.4,0.4,0.6,0.3C146.9,74.8,147.1,74.6,147,74.3z"/>
	<path class="st5" d="M262.6,71.7l-0.8-2.6c-0.1-0.3-0.4-0.4-0.6-0.4c-0.3,0.1-0.4,0.4-0.4,0.6l0.8,2.6c0.1,0.3,0.4,0.4,0.6,0.4
		C262.5,72.2,262.7,72,262.6,71.7L262.6,71.7z"/>
	<path class="st5" d="M273,74.7c-0.3,0-0.5,0.2-0.5,0.5v3c0,0.3,0.2,0.5,0.5,0.5c0.3,0,0.5-0.2,0.5-0.5v-3
		C273.5,74.9,273.3,74.7,273,74.7z"/>
	<path class="st5" d="M282.9,75.2c0-0.3-0.2-0.5-0.5-0.5c-0.3,0-0.5,0.2-0.5,0.5l0.6,4.5c0,0.3,0.2,0.5,0.5,0.5s0.5-0.2,0.5-0.5
		L282.9,75.2z"/>
	<path class="st5" d="M278.3,97.2c-0.3,0-0.5,0.2-0.5,0.5v1.9c0,0.3,0.2,0.5,0.5,0.5s0.5-0.2,0.5-0.5v-1.9
		C278.8,97.5,278.5,97.2,278.3,97.2z"/>
	<path class="st5" d="M288.5,107.7c-0.4-1.3-0.8-2.5-1.1-3.8c-0.1-0.3-0.4-0.4-0.6-0.3c-0.3,0.1-0.4,0.3-0.3,0.6
		c0.4,1.3,0.8,2.5,1.1,3.8c0.1,0.3,0.4,0.4,0.6,0.4C288.5,108.3,288.6,108,288.5,107.7L288.5,107.7z"/>
	<path class="st5" d="M121.8,83.5c0-0.3-0.2-0.5-0.5-0.5c-0.3,0-0.5,0.2-0.5,0.5c0.1,1.1,0.2,2.3,0.4,3.4c0,0.3,0.2,0.5,0.5,0.5
		c0.3,0,0.5-0.2,0.5-0.5C122,85.7,121.9,84.6,121.8,83.5z"/>
	<path class="st5" d="M126.7,105.1c-0.4-1.4-0.5-2.9-0.3-4.4c0-0.3-0.2-0.5-0.5-0.5s-0.5,0.2-0.5,0.5c-0.2,1.6-0.1,3.1,0.3,4.7
		c0.1,0.3,0.4,0.4,0.6,0.3S126.7,105.4,126.7,105.1z"/>
	<path class="st5" d="M131.8,87.8c-0.3,0-0.5,0.2-0.5,0.5v2.3c0,0.3,0.2,0.5,0.5,0.5s0.5-0.2,0.5-0.5v-2.3
		C132.3,88.1,132.1,87.8,131.8,87.8z"/>
</g>
</svg>
