<?xml version="1.0" encoding="utf-8"?>
<!-- Generator: Adobe Illustrator 23.1.0, SVG Export Plug-In . SVG Version: 6.00 Build 0)  -->
<svg version="1.1" id="Layer_1" xmlns="http://www.w3.org/2000/svg" xmlns:xlink="http://www.w3.org/1999/xlink" x="0px" y="0px"
	 viewBox="0 0 400 300" style="enable-background:new 0 0 400 300;" xml:space="preserve">
<style type="text/css">
	.st0{fill:#D1D3D4;}
	.st1{fill:#FFFFFF;}
	.st2{fill:#231F20;}
	.st3{fill:#C2DCF7;}
	.st4{fill:#F5C7E0;}
	.st5{fill:#E6E7E8;}
</style>
<g id="_331_shopping_cart_flatline">
	<path class="st0" d="M332.8,230.2H67.2c-0.3,0-0.5-0.2-0.5-0.5s0.2-0.5,0.5-0.5h265.5c0.3,0,0.5,0.2,0.5,0.5S333,230.2,332.8,230.2
		z"/>
	<path class="st1" d="M130.8,247.1l-1,8.3c0,0,7.8,0.4,7.9,0s2.7-10.7,2.7-10.7L130.8,247.1z"/>
	<path class="st2" d="M135.4,256c-1.2,0-3-0.1-5.6-0.2c-0.1,0-0.3-0.1-0.4-0.2c-0.1-0.1-0.1-0.2-0.1-0.4l1-8.3
		c0-0.2,0.2-0.4,0.4-0.4l9.5-2.4c0.2,0,0.3,0,0.5,0.1c0.1,0.1,0.2,0.3,0.1,0.5c-0.3,1.1-2.6,10.4-2.7,10.8S138,256,135.4,256z
		 M130.4,254.9c3,0.1,6.1,0.2,6.9,0.1c0.3-1.1,1.5-6,2.4-9.6l-8.4,2.2L130.4,254.9z"/>
	<path class="st1" d="M88.8,234.5l-4.4,7.1c0,0,6.9,3.6,7.2,3.3s7-8.6,7-8.6L88.8,234.5z"/>
	<path class="st2" d="M91.6,245.4c-0.6,0-2.1-0.6-7.4-3.4c-0.1-0.1-0.2-0.2-0.3-0.3c0-0.1,0-0.3,0.1-0.4l4.4-7.1
		c0.1-0.2,0.3-0.3,0.5-0.2l9.7,1.8c0.3,0,0.5,0.3,0.4,0.6c0,0.1-0.1,0.2-0.1,0.2c-0.7,0.9-6.7,8.3-7,8.6
		C91.8,245.3,91.7,245.4,91.6,245.4z M85.1,241.4c2.6,1.4,5.4,2.8,6.2,3c0.7-0.9,3.9-4.8,6.3-7.7l-8.5-1.7L85.1,241.4z"/>
	<path class="st2" d="M109.7,142.2c1.9,1.1,18.8,40.5,21,44.1s-2.1,62.6-2.1,62.6H141c0,0,13.7-47.3,13.7-59.4s-16-51.7-16-51.7
		l-29,1"/>
	<path class="st2" d="M141,249.3h-12.3c-0.3,0-0.5-0.2-0.5-0.5c0,0,0,0,0,0c1.7-23.6,3.7-59.7,2.1-62.3c-0.9-1.5-4.1-8.5-7.8-16.6
		c-5.1-11.2-12-26.4-13.1-27.3c-0.2-0.1-0.3-0.4-0.2-0.7c0.1-0.2,0.5-0.3,0.7-0.2c1.1,0.7,5,9.1,13.5,27.8
		c3.7,8.1,6.8,15.1,7.7,16.5c2.2,3.6-1.4,54.2-2,62.3h11.4c1.3-4.4,13.6-47.5,13.6-58.9s-14.3-47.4-15.8-51.2l-28.7,1
		c-0.3,0-0.5-0.2-0.5-0.5s0.2-0.5,0.5-0.5l29-1c0.2,0,0.4,0.1,0.5,0.3c0.7,1.6,16.1,39.8,16.1,51.9S142,247.1,141.5,249
		C141.4,249.2,141.2,249.3,141,249.3z"/>
	<path class="st2" d="M105.2,145.3l1.8,41.3L85.3,235l10.8,6.6c0.6,1.4,28.4-38.6,31.5-50.8c2.1-8.4,0.3-48.6,0.3-48.6L105.2,145.3z
		"/>
	<path class="st2" d="M96.2,242.1c-0.1,0-0.2,0-0.3-0.1l0,0L85,235.4c-0.2-0.1-0.3-0.4-0.2-0.6l21.7-48.2l-1.7-41.2
		c0-0.3,0.2-0.5,0.4-0.5l22.6-3.1c0.3,0,0.5,0.2,0.6,0.4c0,0,0,0,0,0c0.1,1.6,1.9,40.4-0.3,48.7C125.1,202.6,98.3,242,96.2,242.1
		L96.2,242.1z M85.9,234.8l10.3,6.2c3-2.6,28-38.8,31-50.4c2-7.7,0.5-43,0.3-47.9l-21.6,3l1.7,40.9c0,0.1,0,0.2,0,0.2L85.9,234.8z"
		/>
	<path class="st3" d="M129.8,255.3l-1.1,6.4c0,0,20.5,1.3,19.9,0s-10.8-6.4-10.8-6.4L129.8,255.3z"/>
	<path d="M142.9,262.8c-4,0-9.4-0.3-14.3-0.6c-0.3,0-0.5-0.3-0.5-0.5c0,0,0,0,0-0.1l1.1-6.4c0-0.2,0.2-0.4,0.5-0.4h7.9
		c0.1,0,0.2,0,0.2,0.1c2.4,1.2,10.4,5.3,11,6.6c0.1,0.2,0.1,0.4,0,0.6C148.6,262.6,146.2,262.8,142.9,262.8z M129.2,261.2
		c7.9,0.5,16.4,0.7,18.5,0.4c-3.2-2.2-6.6-4.1-10.2-5.8h-7.4L129.2,261.2z"/>
	<path class="st4" d="M84.4,241.5l-0.6,0.7c-1.1,1.3-3.2,4-2.6,4.7c0.8,0.9,17.8,10.9,17.3,10.3s-7-12.4-7-12.4"/>
	<path d="M98.6,257.8c-0.5,0-1.9-0.7-8.8-4.8c-2-1.2-8.4-5-9-5.7c-0.3-0.3-0.9-1.1,2.6-5.3c0.4-0.4,0.6-0.7,0.6-0.7
		c0.2-0.2,0.5-0.2,0.7,0c0,0,0,0,0,0c0.2,0.2,0.2,0.5,0,0.7c0,0,0,0,0,0c0,0-0.2,0.3-0.6,0.7c-2.2,2.7-2.7,3.9-2.6,4.1
		c0.6,0.6,11.8,7.4,15.7,9.5c-1.8-3.2-6-10.6-6.2-11c-0.1-0.2,0-0.5,0.2-0.7c0,0,0,0,0,0c0.2-0.1,0.5-0.1,0.7,0.2c0,0,0,0,0,0
		c2.3,4.1,6.6,11.8,7,12.3c0.1,0.2,0.1,0.5-0.1,0.7C98.7,257.8,98.7,257.8,98.6,257.8z"/>
	
		<rect x="278.7" y="152.2" transform="matrix(1 -6.108614e-03 6.108614e-03 1 -1.0842 1.8075)" class="st5" width="33.4" height="52.4"/>
	<path class="st2" d="M278.8,205.1c-0.2,0-0.4-0.2-0.5-0.5l-0.4-52.4c0-0.2,0.2-0.5,0.4-0.5c0,0,0,0,0,0l33.4-0.2
		c0.1,0,0.2,0,0.3,0.1c0.1,0.1,0.1,0.2,0.1,0.3l0.3,52.4c0,0.2-0.2,0.5-0.4,0.5c0,0,0,0,0,0L278.8,205.1L278.8,205.1z M279,152.7
		l0.3,51.5l32.5-0.2l-0.3-51.5L279,152.7z"/>
	
		<rect x="227.2" y="166" transform="matrix(0.9893 -0.1456 0.1456 0.9893 -24.4397 38.4881)" class="st3" width="47.2" height="40.5"/>
	<path class="st2" d="M230.4,210.2c-0.2,0-0.4-0.2-0.4-0.4l-5.9-40.1c0-0.1,0-0.2,0.1-0.3c0.1-0.1,0.2-0.2,0.3-0.2l46.7-6.9
		c0.3,0,0.5,0.1,0.5,0.4l5.9,40.1c0,0.1,0,0.2-0.1,0.3c-0.1,0.1-0.2,0.2-0.3,0.2L230.4,210.2L230.4,210.2z M225,170l5.8,39.2
		l45.8-6.7l-5.8-39.2L225,170z"/>
	
		<rect x="222.5" y="139.9" transform="matrix(0.9787 -0.2054 0.2054 0.9787 -26.1771 52.7464)" class="st5" width="37" height="25.1"/>
	<path class="st2" d="M225.5,169.1c-0.2,0-0.4-0.2-0.4-0.4l-5.2-24.6c0-0.1,0-0.2,0.1-0.3c0.1-0.1,0.2-0.2,0.3-0.2l36.2-7.6
		c0.1,0,0.2,0,0.4,0.1c0.1,0.1,0.2,0.2,0.2,0.3l5.2,24.6c0.1,0.2-0.1,0.5-0.3,0.5c0,0,0,0,0,0L225.5,169.1L225.5,169.1z
		 M220.9,144.4l5,23.7l35.3-7.4l-5-23.7L220.9,144.4z"/>
	
		<rect x="262.8" y="128.9" transform="matrix(0.9887 -0.1497 0.1497 0.9887 -17.6804 42.9776)" class="st2" width="27.6" height="20.1"/>
	<path class="st2" d="M264.5,151.4c-0.1,0-0.2,0-0.3-0.1c-0.1-0.1-0.2-0.2-0.2-0.3l-3-19.9c0-0.2,0.1-0.5,0.4-0.5c0,0,0,0,0,0
		l27.3-4.1c0.2,0,0.5,0.1,0.5,0.4c0,0,0,0,0,0l3,19.9c0,0.1,0,0.2-0.1,0.3c-0.1,0.1-0.2,0.2-0.3,0.2L264.5,151.4L264.5,151.4z
		 M262,131.4l2.9,19l26.4-4l-2.9-19L262,131.4z"/>
	
		<rect x="236.5" y="120.8" transform="matrix(0.8955 -0.4451 0.4451 0.8955 -30.4428 124.7589)" class="st3" width="27.8" height="12.8"/>
	<path class="st2" d="M240.8,139.6c-0.2,0-0.3-0.1-0.4-0.3l-5.7-11.5c0-0.1,0-0.2,0-0.3c0-0.1,0.1-0.2,0.2-0.3l24.9-12.4
		c0.1,0,0.2,0,0.4,0c0.1,0,0.2,0.1,0.3,0.2l5.7,11.5c0,0.1,0,0.2,0,0.3c0,0.1-0.1,0.2-0.2,0.3L241,139.5
		C240.9,139.6,240.9,139.6,240.8,139.6z M235.7,127.9l5.3,10.6l24.1-12l-5.3-10.7L235.7,127.9z"/>
	
		<rect x="296.5" y="132.2" transform="matrix(0.9375 -0.3479 0.3479 0.9375 -29.7839 114.278)" class="st1" width="13.7" height="15.7"/>
	<path class="st2" d="M299.6,150.3c-0.1,0-0.1,0-0.2,0c-0.1,0-0.2-0.1-0.2-0.3l-5.5-14.7c-0.1-0.2,0-0.5,0.3-0.6l12.8-4.8
		c0.2-0.1,0.5,0,0.6,0.3l5.5,14.7c0.1,0.2,0,0.5-0.3,0.6c0,0,0,0,0,0l-12.8,4.8L299.6,150.3z M294.7,135.4l5.1,13.9l12-4.4
		l-5.1-13.9L294.7,135.4z"/>
	
		<rect x="258.1" y="148.1" transform="matrix(0.9917 -0.1284 0.1284 0.9917 -17.7682 35.3895)" class="st5" width="14.8" height="14.8"/>
	<path class="st2" d="M259.1,164.2c-0.2,0-0.4-0.2-0.5-0.4l-1.9-14.7c0-0.1,0-0.2,0.1-0.3c0.1-0.1,0.2-0.2,0.3-0.2l14.7-1.9
		c0.3,0,0.5,0.1,0.5,0.4l1.9,14.7c0,0.2-0.1,0.5-0.4,0.5c0,0,0,0,0,0L259.1,164.2L259.1,164.2z M257.7,149.4l1.8,13.8l13.8-1.8
		l-1.8-13.8L257.7,149.4z"/>
	<circle class="st2" cx="232.3" cy="254.9" r="7.6"/>
	<path class="st2" d="M232.3,263c-4.5,0-8.1-3.6-8.1-8.1c0-4.5,3.6-8.1,8.1-8.1c4.5,0,8.1,3.6,8.1,8.1
		C240.5,259.4,236.8,263,232.3,263z M232.3,247.8c-3.9,0-7.1,3.2-7.1,7.1c0,3.9,3.2,7.1,7.1,7.1c3.9,0,7.1-3.2,7.1-7.1
		C239.5,251,236.3,247.8,232.3,247.8z"/>
	<path class="st5" d="M230.6,243.7v9.9c0,2.6,2.9,2.7,4.3,0s4.2-10.2,4.2-10.2L230.6,243.7z"/>
	<path class="st2" d="M232.3,256c-0.2,0-0.3,0-0.5,0c-1-0.3-1.7-1.3-1.6-2.4v-9.9c0-0.2,0.2-0.4,0.4-0.5l8.4-0.3
		c0.2,0,0.3,0.1,0.4,0.2c0.1,0.1,0.1,0.3,0.1,0.4c-0.1,0.3-2.9,7.6-4.2,10.2C234.8,255.1,233.6,255.9,232.3,256z M231.1,244.2v9.4
		c0,0.8,0.3,1.3,0.9,1.5s1.8-0.3,2.5-1.7c1.1-2.2,3.2-7.6,3.9-9.5L231.1,244.2z"/>
	<circle class="st2" cx="296.4" cy="254.9" r="7.6"/>
	<path class="st2" d="M296.4,263c-4.5,0-8.1-3.6-8.1-8.1c0-4.5,3.6-8.1,8.1-8.1c4.5,0,8.1,3.6,8.1,8.1
		C304.6,259.4,300.9,263,296.4,263z M296.4,247.8c-3.9,0-7.1,3.2-7.1,7.1c0,3.9,3.2,7.1,7.1,7.1c3.9,0,7.1-3.2,7.1-7.1
		C303.6,251,300.4,247.8,296.4,247.8z"/>
	<path class="st5" d="M294.7,243.7v9.9c0,2.6,2.9,2.7,4.2,0s4.2-10.2,4.2-10.2L294.7,243.7z"/>
	<path class="st2" d="M296.4,256c-0.2,0-0.3,0-0.5,0c-1-0.3-1.7-1.3-1.6-2.4v-9.9c0-0.2,0.2-0.4,0.4-0.5l8.4-0.3
		c0.2,0,0.3,0.1,0.4,0.2c0.1,0.1,0.1,0.3,0.1,0.4c-0.1,0.3-2.9,7.6-4.2,10.2C298.9,255.1,297.7,255.9,296.4,256z M295.2,244.2v9.4
		c0,0.8,0.3,1.3,0.9,1.5s1.8-0.3,2.5-1.7c1.1-2.2,3.2-7.6,3.9-9.5L295.2,244.2z"/>
	<path class="st2" d="M321.9,163L321.9,163l-118.1-6.2c-0.3,0-0.5-0.3-0.5-0.5c0-0.3,0.3-0.5,0.5-0.5c0,0,0,0,0,0l118.1,6.2
		c0.3,0,0.5,0.3,0.5,0.5C322.4,162.8,322.2,163,321.9,163z"/>
	<path class="st2" d="M211.9,177.6c-0.3,0-0.5-0.2-0.5-0.5c0,0,0,0,0,0c0-0.3,0.2-0.5,0.5-0.5l109.1-1.1l0,0c0.3,0,0.5,0.2,0.5,0.5
		s-0.2,0.5-0.5,0.5L211.9,177.6L211.9,177.6z"/>
	<path class="st2" d="M222.9,201c-0.3,0-0.5-0.2-0.5-0.5s0.2-0.5,0.5-0.5l96-7c0.3,0,0.5,0.2,0.5,0.5s-0.2,0.5-0.5,0.5l-96,7H222.9z
		"/>
	<path class="st2" d="M231,216.4c-3.3,0-6.2-2-7.4-5.1c-14.7-37.9-24.7-62.7-26.1-65c-1.2-0.9-8.2-2.7-14.2-3.8
		c-0.8-0.1-1.4-0.9-1.3-1.7c0.1-0.8,0.9-1.4,1.7-1.3c0,0,0.1,0,0.1,0c4.1,0.8,14,2.9,15.8,4.7c0.4,0.4,1.7,1.7,26.7,66
		c0.8,2,2.8,3.3,5,3.2l80-6.8c2.2-0.2,4-1.9,4.3-4.2l4.8-40.1c0.1-0.8,0.8-1.4,1.7-1.3c0.8,0.1,1.4,0.8,1.3,1.7l-4.8,40.1
		c-0.4,3.6-3.4,6.5-7,6.8l-80,6.8L231,216.4z M197.6,146.4L197.6,146.4z"/>
	<path class="st1" d="M186.6,138l-1.9,6.8l-15.6-4.2c-1.5-0.4-2.4-2-2-3.6c0,0,0,0,0,0l0,0c0.4-1.4,1.9-2.3,3.3-2L186.6,138z"/>
	<path class="st2" d="M184.7,145.3h-0.1l-15.6-4.2c-0.9-0.2-1.6-0.8-2.1-1.6c-0.5-0.8-0.6-1.7-0.3-2.6c0.5-1.7,2.2-2.7,3.9-2.4
		l16.2,3.1c0.1,0,0.3,0.1,0.3,0.2c0.1,0.1,0.1,0.3,0.1,0.4l-1.9,6.8C185.1,145.2,184.9,145.3,184.7,145.3z M169.8,135.4
		c-1.3,0-2.4,1.1-2.4,2.4c0,1.1,0.7,2,1.7,2.3l15.1,4.1l1.6-5.8l-15.7-3C170.1,135.4,170,135.4,169.8,135.4z"/>
	<path class="st2" d="M238.8,213.9c-0.2,0-0.4-0.1-0.5-0.4l-18.2-56.2c-0.1-0.3,0.1-0.5,0.3-0.6c0.3-0.1,0.5,0,0.6,0.3c0,0,0,0,0,0
		l18.2,56.2c0.1,0.3-0.1,0.5-0.3,0.6C238.9,213.9,238.9,213.9,238.8,213.9z"/>
	<path class="st2" d="M246.9,213.5c-0.2,0-0.4-0.2-0.5-0.4L231,157.9c-0.1-0.3,0.1-0.5,0.3-0.6c0,0,0,0,0,0c0.3-0.1,0.5,0.1,0.6,0.4
		l15.4,55.2c0.1,0.3-0.1,0.5-0.3,0.6c0,0,0,0,0,0L246.9,213.5z"/>
	<path class="st2" d="M254.7,212.8c-0.2,0-0.4-0.2-0.5-0.4l-13.4-54c-0.1-0.3,0.1-0.5,0.3-0.6c0,0,0,0,0,0c0.3-0.1,0.5,0.1,0.6,0.4
		c0,0,0,0,0,0l13.4,54c0.1,0.3-0.1,0.5-0.4,0.6c0,0,0,0,0,0L254.7,212.8z"/>
	<path class="st2" d="M261.9,212.1c-0.2,0-0.5-0.2-0.5-0.4l-10.3-52.8c-0.1-0.3,0.1-0.5,0.4-0.6s0.5,0.1,0.6,0.4l10.2,52.8
		c0,0.3-0.1,0.5-0.4,0.6L261.9,212.1z"/>
	<path class="st2" d="M269.8,211.2c-0.2,0-0.5-0.2-0.5-0.4l-8.8-51.3c0-0.3,0.1-0.5,0.4-0.6c0,0,0,0,0,0c0.3-0.1,0.5,0.1,0.6,0.4
		c0,0,0,0,0,0l8.8,51.3C270.3,210.9,270.1,211.1,269.8,211.2L269.8,211.2z"/>
	<path class="st2" d="M277.7,210.2c-0.3,0-0.5-0.2-0.5-0.4l-6.8-49.9c0-0.3,0.1-0.5,0.4-0.6c0,0,0,0,0,0c0.3,0,0.5,0.2,0.6,0.4
		l6.8,49.9C278.3,209.9,278.1,210.2,277.7,210.2C277.8,210.2,277.8,210.2,277.7,210.2L277.7,210.2z"/>
	<path class="st2" d="M285.4,209.3c-0.3,0-0.5-0.2-0.5-0.5l-4.3-48.4c0-0.3,0.2-0.5,0.5-0.5c0.3,0,0.5,0.2,0.5,0.5l4.3,48.4
		C285.9,209,285.7,209.2,285.4,209.3L285.4,209.3z"/>
	<path class="st2" d="M293.6,208.2c-0.3,0-0.5-0.2-0.5-0.5l-3.1-46.8c0-0.3,0.2-0.5,0.5-0.5c0,0,0,0,0,0c0.3,0,0.5,0.2,0.5,0.5
		l3.1,46.8C294.1,207.9,293.9,208.1,293.6,208.2C293.6,208.2,293.6,208.2,293.6,208.2L293.6,208.2z"/>
	<path class="st2" d="M301.4,209.3c-0.3,0-0.5-0.2-0.5-0.5l-1.1-47.4c0-0.3,0.2-0.5,0.5-0.5c0,0,0,0,0,0c0.3,0,0.5,0.2,0.5,0.5
		l1.1,47.4C301.9,209,301.7,209.3,301.4,209.3L301.4,209.3z"/>
	<path class="st2" d="M309.9,207.9c-0.3,0-0.5-0.2-0.5-0.5v-45.5c0-0.3,0.2-0.5,0.5-0.5s0.5,0.2,0.5,0.5v45.5
		C310.4,207.7,310.2,207.9,309.9,207.9z"/>
	<path class="st2" d="M306.1,245.6h-82c-2.3,0-4.1-1.8-4.1-4.1c0-0.6,0.1-1.3,0.4-1.8l12.3-24.9c0.4-0.7,1.3-1,2-0.7
		c0.7,0.4,1,1.3,0.7,2L223.1,241c-0.3,0.6-0.1,1.2,0.5,1.5c0.2,0.1,0.3,0.1,0.5,0.1h82c0.8,0,1.5,0.7,1.5,1.5
		S306.9,245.6,306.1,245.6L306.1,245.6z"/>
	<path class="st1" d="M127.6,69.4c-1.4,0.6-3.1,0-3.8-1.4c-0.4-0.5-0.5-1.2-0.3-1.8c0.2-0.6,0.8-0.8,1.4-0.6c0.1,0,0.1,0,0.1,0.1
		c-1.4-1.7-2.6-3.7-3.4-5.8c-0.8-2.1-0.7-4.5,0.4-6.5c-1.6-0.9-3.4-1.8-4.2-3.5c-0.9-2.1-0.3-4.6,1.5-6.1c1.8-1.4,4.1-2,6.3-1.5
		c-0.3-1.1-1.1-2-2.1-2.5c2.4-2.3,6-3.1,9.4-3.2c5.6-0.2,11.5,1.2,15.6,5.1c3.2,3,4.7,7.3,4.2,11.6c-0.8,5.7-4.9,3.1-8.7,5.2
		c-1.9,1-3.2,2.9-4.8,4.3c-2.7,2.3-6.2,3-9,5C129.5,68.4,128.6,69,127.6,69.4z"/>
	<path class="st2" d="M126.3,70.1c-1.2,0-2.4-0.8-2.9-1.9c-0.5-0.7-0.6-1.5-0.3-2.3c0.2-0.4,0.6-0.8,1-0.9c-1.2-1.5-2.2-3.2-2.9-5
		c-0.8-2.1-0.7-4.4,0.2-6.5c-1.7-0.7-3.1-1.9-4-3.5c-1-2.3-0.3-5,1.6-6.7c1.6-1.3,3.8-2,5.9-1.7c-0.3-0.6-0.9-1.1-1.5-1.4
		c-0.1-0.1-0.3-0.2-0.3-0.4c0-0.2,0-0.3,0.2-0.4c2.2-2.1,5.4-3.2,9.7-3.4c6.5-0.2,12.2,1.6,16,5.2c3.3,3.1,4.9,7.5,4.4,12
		c-0.6,4-2.8,4.3-5.1,4.6c-1.3,0.1-2.6,0.4-3.8,1c-1.1,0.7-2.1,1.6-3,2.6c-0.5,0.6-1.1,1.2-1.7,1.7c-1.6,1.2-3.3,2.2-5.1,2.9
		c-1.4,0.6-2.6,1.3-3.9,2.1c-0.9,0.7-1.9,1.2-2.9,1.7l0,0C127.3,70,126.8,70.1,126.3,70.1z M127.6,69.4L127.6,69.4z M124.6,65.9
		c0,0-0.1,0-0.1,0c-0.2,0.1-0.4,0.2-0.5,0.4c-0.1,0.5,0,1,0.2,1.4c0.5,1.2,2,1.7,3.2,1.2l0,0c1-0.4,1.8-0.9,2.7-1.5
		c1.3-0.8,2.6-1.6,4-2.2c1.8-0.7,3.4-1.6,4.9-2.8c0.6-0.5,1.1-1.1,1.7-1.6c0.9-1.1,2-2,3.2-2.8c1.3-0.7,2.7-1,4.2-1.1
		c2.3-0.3,3.8-0.5,4.3-3.7c0.5-4.2-1-8.3-4.1-11.2c-4.9-4.6-11.6-5.1-15.2-5s-6.6,1-8.6,2.7c0.8,0.6,1.4,1.4,1.7,2.4
		c0.1,0.2,0,0.3-0.1,0.5c-0.1,0.1-0.3,0.2-0.4,0.2c-2.1-0.4-4.2,0.1-5.9,1.4c-1.6,1.3-2.2,3.5-1.4,5.5c0.7,1.5,2.2,2.3,4,3.3
		c0.1,0.1,0.2,0.2,0.3,0.3c0,0.1,0,0.3-0.1,0.4c-1,1.8-1.1,4-0.4,6c0.8,2,2,3.9,3.4,5.6c0.2,0.2,0.1,0.5-0.1,0.7
		c-0.2,0.1-0.4,0.1-0.6,0C124.8,65.9,124.7,65.9,124.6,65.9L124.6,65.9z"/>
	<path class="st1" d="M147.6,59.2c0,0,2.7,6,1.8,7s-3.3-0.2-3.3-0.2"/>
	<path class="st2" d="M148.3,67.2c-0.8,0-1.6-0.2-2.4-0.6c-0.2-0.1-0.4-0.4-0.2-0.7c0.1-0.2,0.4-0.4,0.7-0.2l0,0
		c0.6,0.3,2.2,0.8,2.7,0.3c0.4-0.4-0.5-3.5-1.9-6.5c-0.1-0.2,0-0.5,0.2-0.7c0.2-0.1,0.5,0,0.7,0.2c0,0,0,0,0,0.1
		c0.9,1.9,2.7,6.4,1.7,7.6C149.4,67,148.8,67.2,148.3,67.2z"/>
	<path class="st1" d="M148,51.9c2,2.2,0.7,6.1,0.2,8.6c-0.6,3.6-1.3,7.2-2.1,10.7c-0.5,2.3-6.4,1.3-7.4,0.5l-0.7,7.6
		c0,0-2.1,3.9-6.5,1s-5-6.2-5-6.2l2.1-10.3c0,0,3.9,0.7,7-3.6s4.2-11.4,4.2-11.4S146.1,49.8,148,51.9z"/>
	<path class="st2" d="M134.7,82c-1.2-0.1-2.4-0.5-3.4-1.2c-4.5-3.1-5.2-6.4-5.2-6.6c0-0.1,0-0.1,0-0.2l2.1-10.3
		c0.1-0.3,0.3-0.4,0.6-0.4c0.1,0,3.6,0.5,6.5-3.4c3-4.1,4.1-11.1,4.1-11.2c0-0.1,0.1-0.3,0.2-0.3c0.1-0.1,0.2-0.1,0.4-0.1
		c0.3,0,6.5,1,8.5,3.3l0,0c1.8,2,1.1,5.2,0.6,7.7c-0.1,0.5-0.2,1-0.3,1.4c-0.6,3.6-1.3,7.2-2.1,10.8c-0.2,0.8-0.8,1.4-1.6,1.6
		c-1.9,0.4-3.9,0.3-5.8-0.4l-0.6,6.9c0,0.1,0,0.1-0.1,0.2c-0.6,1.1-1.6,1.9-2.8,2.2C135.4,82,135.1,82,134.7,82z M127.1,74.1
		c0.1,0.5,1,3.3,4.8,5.8c1,0.8,2.3,1.2,3.6,1c0.9-0.3,1.7-0.8,2.1-1.6l0.7-7.5c0-0.3,0.3-0.5,0.6-0.5c0.1,0,0.2,0.1,0.3,0.1
		c1.7,0.8,3.7,1,5.6,0.6c0.6-0.2,0.9-0.4,1-0.8c0.8-3.5,1.5-7.1,2.1-10.7c0.1-0.4,0.2-0.9,0.3-1.4c0.5-2.3,1.1-5.1-0.4-6.8
		s-5.9-2.7-7.4-2.9c-0.3,1.7-1.5,7.4-4.2,11.1s-5.8,3.9-7,3.8L127.1,74.1z"/>
	<path class="st1" d="M146.5,68.6c0,0-3.1,1.3-4.1-1.9"/>
	<path class="st2" d="M145.1,69.3c-0.5,0-1-0.1-1.4-0.3c-0.9-0.4-1.5-1.2-1.8-2.2c-0.1-0.3,0.1-0.6,0.3-0.7s0.6,0.1,0.7,0.3
		c0.2,0.7,0.6,1.2,1.2,1.6c0.7,0.3,1.5,0.3,2.2,0c0.3-0.1,0.5,0,0.6,0.3c0.1,0.3,0,0.5-0.3,0.7C146.2,69.3,145.7,69.3,145.1,69.3z"
		/>
	<path class="st1" d="M139,59.6c0.1-0.9-0.2-1.8-0.6-2.6c-0.2-0.7-0.6-1.3-1-1.8c-0.4-0.6-1.1-0.9-1.8-0.9c-0.6,0.1-1.2,0.4-1.6,0.9
		c-0.4,0.5-0.6,1.1-0.8,1.7c-0.6,2.7,0.4,5.6,2.4,7.4l-0.2-0.3"/>
	<path class="st2" d="M135.6,64.8c-0.1,0-0.2,0-0.3-0.1c-2.2-2-3.2-5-2.6-7.9c0.1-0.7,0.4-1.4,0.8-1.9c0.5-0.6,1.2-1,2-1.1
		c0.9,0,1.7,0.4,2.2,1.1c0.5,0.6,0.8,1.3,1.1,2c0.5,0.9,0.7,1.9,0.6,2.9c0,0.3-0.3,0.5-0.5,0.4c0,0,0,0,0,0c-0.3,0-0.5-0.3-0.4-0.6
		c0-0.8-0.2-1.6-0.6-2.4c-0.2-0.6-0.6-1.2-1-1.7c-0.3-0.4-0.9-0.7-1.4-0.7c-0.5,0-0.9,0.3-1.2,0.7c-0.3,0.4-0.5,1-0.6,1.5
		c-0.5,2.4,0.2,4.8,1.9,6.6c0.1,0,0.2,0.1,0.3,0.2L136,64c0.1,0.2,0.1,0.5-0.1,0.7C135.8,64.7,135.7,64.8,135.6,64.8z"/>
	<path class="st2" d="M138.8,71.8c-1.7-0.9-3.1-2.2-4-3.8c0,0-0.7,5.5,3.7,7.9L138.8,71.8z"/>
	<path class="st2" d="M138.6,76.4c-0.1,0-0.2,0-0.2-0.1c-4.7-2.5-4-8.3-4-8.4c0-0.2,0.2-0.4,0.4-0.4c0.2,0,0.4,0.1,0.5,0.3
		c0.9,1.5,2.2,2.7,3.7,3.5c0.2,0.1,0.3,0.3,0.3,0.5l-0.3,4.1c0,0.2-0.1,0.3-0.3,0.4C138.7,76.3,138.6,76.4,138.6,76.4z M135.3,69.7
		c0.1,2.1,1.1,4.1,2.8,5.3l0.2-2.9C137.2,71.4,136.2,70.6,135.3,69.7z"/>
	<ellipse transform="matrix(0.3252 -0.9456 0.9456 0.3252 45.1805 176.0985)" class="st2" cx="146" cy="56.4" rx="1.3" ry="0.5"/>
	<path class="st4" d="M120.4,73.7c0,0,15.6,2.6,18.6,11.6s-2,38,0,40.7s7,20.2,7,20.8c0,4.9-42,6.4-42,6.4s-1.1-21.1-1.4-34
		S109,70.7,120.4,73.7z"/>
	<path class="st2" d="M143.8,138c-0.1,0-0.1,0-0.2,0c-0.2-0.1-0.3-0.3-0.3-0.5c-0.1-0.5-1.2-3.1-2.2-5.4c-1.4-3.3-2.9-6.8-3.1-7.8
		s0.2-9.2,0.8-19.5c0.3-4.5,0.5-8.4,0.6-9.9c0-3.2-0.4-6.3-0.9-9.4c-0.1-0.3,0.1-0.5,0.4-0.6s0.5,0.1,0.6,0.4c0.6,3.2,1,6.4,1,9.6
		c0,1.5-0.3,5.4-0.6,10c-0.5,7.6-1.1,18.1-0.9,19.2c0.2,0.9,1.7,4.5,3,7.6c2.4,5.6,2.4,5.7,2.3,6C144.2,137.9,144,138,143.8,138z"/>
	<path class="st4" d="M118.6,66.5c-1.2-0.8-2.6-1.4-4.1-1.7c-3.4-0.4-6.8,0.6-9.5,2.7c-3.9,2.7-8.1,5.9-9.1,10.6
		c-0.8,4.6,1.5,9.1,5.8,11c0.7,0.4,1.5,0.5,2.3,0.4c1.5-0.2,2.6-1.6,3.6-2.8c2.7-3,5.2-3.5,9-3.9c2.3-0.3,4.7-0.4,7.1-0.4
		c4.9,0.2,9.6,1.6,14.4,2.3c3,0.5,1.7-2.7,0.5-3.8c-2-1.9-4.1-3.6-6.2-5.3C128,72.3,123.4,69.3,118.6,66.5z"/>
	<path class="st1" d="M180.9,145c-0.1,0.3-0.3,0.4-0.6,0.5c-3,1.2-6.4,1.8-9.5,0.7c-3.6-1.3-5.5-4.5-9.1-5.6
		c-1.3-0.4-2.6-0.8-3.9-1.1c-1.9-0.5-3.8-1-5.7-1.5c-5.3-1.4-11.9-2.3-16.8-5c-4-2.3-15.3-22-18.5-30.3s6.6-13.1,6.6-13.1
		c5.2-4.4,19,31.8,19,31.8l19.8,9.3l4.1,1.9c0.8,0.5,1.7,0.9,2.6,1.1c2.1,0.5,4.6-0.4,6.6-0.9c0.3-0.1,0.6-0.1,0.9-0.1
		c0.2,0,0.4,0.1,0.6,0.2c0.9,0.3,1.7,0.8,2.4,1.3c0.7,0.5,1.2,1.4,1.4,2.3l-2.8-0.1c-2.2-0.1-3.1,2.6-2,4.3s3.8,1.9,4.8,3.7
		C180.8,144.7,180.9,144.8,180.9,145z"/>
	<path class="st2" d="M174.3,147.3c-1.2,0-2.5-0.2-3.7-0.6c-1.7-0.7-3.2-1.6-4.6-2.9c-1.3-1.2-2.8-2.1-4.5-2.7
		c-1.3-0.4-2.6-0.8-3.9-1.1c-1.8-0.5-3.5-0.9-5.3-1.4l-0.4-0.1c-1.4-0.4-2.9-0.7-4.4-1.1c-4.3-1-8.8-2-12.4-4
		c-4.1-2.4-15.5-22.2-18.7-30.6s6-13.3,6.8-13.7c0.5-0.4,1.2-0.6,1.8-0.4c2.6,0.7,6.4,6.4,11.4,16.9c3.3,7.1,6,14.1,6.5,15.3
		l19.6,9.2l4.1,1.9l0.7,0.3c0.6,0.3,1.2,0.6,1.8,0.8c1.5,0.4,3.4-0.1,5-0.5c0.5-0.1,1-0.3,1.4-0.4c0.3-0.1,0.7-0.1,1.1-0.1
		c0.2,0,0.5,0.1,0.7,0.2c0.9,0.3,1.7,0.8,2.5,1.4c0.9,0.6,1.4,1.6,1.5,2.6c0,0.1,0,0.3-0.1,0.4c-0.1,0.1-0.2,0.2-0.4,0.1l-2.8-0.1
		c-0.7,0-1.3,0.3-1.6,0.9c-0.5,0.8-0.5,1.8,0,2.7c0.6,0.7,1.3,1.3,2.2,1.7c1.1,0.4,2,1.1,2.6,2.1c0.2,0.2,0.2,0.5,0.2,0.8l0,0
		c-0.1,0.4-0.5,0.7-0.9,0.9C178.5,146.7,176.4,147.2,174.3,147.3z M124.4,89.6c-0.2,0-0.5,0.1-0.7,0.3l-0.1,0.1
		c-0.4,0.2-9.3,4.8-6.3,12.5c3.1,8.1,14.4,27.8,18.3,30c3.5,2,7.9,3,12.1,3.9c1.6,0.4,3,0.7,4.5,1.1l0.4,0.1
		c1.8,0.5,3.5,0.9,5.3,1.4c1.3,0.4,2.6,0.7,3.9,1.1c1.8,0.6,3.4,1.6,4.8,2.9c1.3,1.2,2.8,2.1,4.4,2.7c3.3,1.2,6.8,0.3,9.1-0.7
		c0.1,0,0.2-0.1,0.3-0.2c0-0.1-0.1-0.1-0.1-0.2c-0.6-0.8-1.3-1.3-2.2-1.7c-1-0.4-1.9-1.1-2.6-2c-0.6-1.1-0.6-2.5,0-3.7
		c0.5-0.9,1.5-1.5,2.5-1.4l2.2,0.1c-0.2-0.5-0.5-1-1-1.4c-0.7-0.5-1.5-0.9-2.3-1.2c-0.1-0.1-0.3-0.1-0.5-0.1c-0.2,0-0.5,0-0.7,0.1
		c-0.4,0.1-0.9,0.2-1.4,0.3c-1.8,0.5-3.8,1-5.5,0.6c-0.7-0.2-1.4-0.5-2-0.9l-0.6-0.3l-4.2-1.9l-19.8-9.3c-0.1-0.1-0.2-0.2-0.3-0.3
		c-3.2-8.4-12.6-30.6-17.3-31.8C124.6,89.6,124.5,89.6,124.4,89.6z M180.9,145L180.9,145z M180.9,145L180.9,145z"/>
	<path class="st2" d="M162.3,130.6l-4.5,8.8c-1.9-0.5-3.8-1-5.7-1.5c-5.3-1.4-11.9-2.3-16.8-5c-4-2.3-14.2-15-19.1-25.2
		c-6-12.6,8-21.2,8-21.2c5.2-4.4,18.2,34.8,18.2,34.8L162.3,130.6z"/>
	<path class="st2" d="M157.8,140h-0.1c-1.8-0.5-3.5-1-5.3-1.4l-0.4-0.1c-1.4-0.4-2.9-0.7-4.4-1c-4.3-1-8.8-2-12.4-4
		c-4.2-2.4-14.5-15.4-19.3-25.4c-2.5-5.3-1.9-10.8,1.8-15.8c1.8-2.4,3.9-4.4,6.4-6c0.5-0.4,1.1-0.5,1.7-0.3c1,0.3,3.9,1.1,11,18.4
		c3.2,7.7,5.8,15.4,6.2,16.7l19.6,9.2c0.1,0.1,0.2,0.2,0.3,0.3c0.1,0.1,0.1,0.3,0,0.4l-4.5,8.8C158.1,140,157.9,140,157.8,140z
		 M125.1,86.7c-0.2,0-0.4,0.1-0.6,0.2c-2.4,1.6-4.5,3.5-6.2,5.8c-3.5,4.8-4.1,9.7-1.7,14.8c5.1,10.6,15.2,22.9,18.9,25
		c3.5,2,7.9,3,12.1,3.9c1.6,0.4,3,0.7,4.5,1.1l0.4,0.1c1.6,0.4,3.3,0.9,4.9,1.3l4.1-8l-19.3-9.1c-0.1-0.1-0.2-0.2-0.3-0.3
		c-3.1-9.2-12-33.4-16.6-34.7C125.3,86.7,125.2,86.7,125.1,86.7z"/>
	<path class="st1" d="M125.9,181.5c-0.1,0-0.3-0.1-0.4-0.2c-4.8-5.2-15.8-23.1-16.3-23.9c-0.1-0.2-0.1-0.5,0.1-0.7c0,0,0,0,0,0
		c0.2-0.1,0.5-0.1,0.7,0.2c0.1,0.2,11.5,18.6,16.2,23.8c0.2,0.2,0.2,0.5,0,0.7C126.2,181.5,126,181.5,125.9,181.5z"/>
	<path class="st2" d="M109.7,85.5c-0.3,0-0.5-0.2-0.5-0.5c0-0.2,0.1-0.3,0.2-0.4c0.6-0.3,13.9-8,22.4-4.7c0.3,0.1,0.4,0.4,0.3,0.7
		c-0.1,0.3-0.4,0.4-0.6,0.3c0,0,0,0,0,0c-8-3.2-21.4,4.5-21.5,4.6C109.9,85.5,109.8,85.5,109.7,85.5z"/>
</g>
</svg>
