<svg xmlns="http://www.w3.org/2000/svg" viewBox="0 0 249.03 285.93"><defs><style>.cls-1{fill:#d1d3d4;}.cls-2{fill:#231f20;}.cls-3{fill:#f5c7e0;}.cls-4{fill:#fff;}</style></defs><title>Asset 1</title><g id="Layer_2" data-name="Layer 2"><g id="_280_smiley_face_flatline" data-name=" 280 smiley face flatline"><ellipse class="cls-1" cx="121.7" cy="276.75" rx="104.05" ry="9.18"/><path class="cls-2" d="M185.63,234.21a4.87,4.87,0,0,1-3.87-1.93c-10.39-13.66-37.34-47.86-40.24-50.88a4.68,4.68,0,0,1-.37-6.77,4.85,4.85,0,0,1,6.29-.85c2.9,1.94,41.57,52.21,41.93,52.7a4.81,4.81,0,0,1-1,6.76A4.08,4.08,0,0,1,185.63,234.21Zm-44-52.81.36.36q0-.18-.36-.36Z"/><path class="cls-2" d="M193.72,104.66a96.92,96.92,0,0,1-19.57-2.06,4.83,4.83,0,1,1,2.17-9.42h0a90,90,0,0,0,18,1.81c8.46,0,19.82-1.57,26.1-8.46s7-18.73,1.81-34.8a4.82,4.82,0,0,1,9.19-2.91c6.28,19.7,4.95,34.69-4,44.36C219,102.36,205.2,104.66,193.72,104.66Z"/><path class="cls-2" d="M33.23,171.25a5.24,5.24,0,0,1-3.38-1.33C24.9,165.08,0,140.43,0,126.17,0,110.7,35.53,101,46.41,98.37a4.87,4.87,0,0,1,2.41,9.43H48.7c-20.42,4.83-39,13.66-39,18.37,0,7.49,15.71,26,26.83,36.74a4.84,4.84,0,0,1-3.27,8.34Z"/><path class="cls-2" d="M82.06,241a4.94,4.94,0,0,1-4.72-3.51c-7.49-26.95,5-53.9,9.07-62.72a11.76,11.76,0,0,0,.84-1.93,4.78,4.78,0,0,1,5.81-3.63,4.9,4.9,0,0,1,3.74,4.23c.12,1.57-.24,2.54-1.57,5.32-3.75,8-15,32.51-8.46,55.95a4.86,4.86,0,0,1-3.38,5.93,1.53,1.53,0,0,1-1.33.36Z"/><circle class="cls-3" cx="116.02" cy="118.07" r="79.04"/><path class="cls-2" d="M116,39a79.1,79.1,0,1,1-79,79h0a79.07,79.07,0,0,1,79-79h0m0-1.21a80.37,80.37,0,1,0,80.36,80.36A80.4,80.4,0,0,0,116,37.83Z"/><ellipse class="cls-2" cx="90.03" cy="97.89" rx="6.28" ry="14.86"/><ellipse class="cls-2" cx="142.12" cy="97.89" rx="6.28" ry="14.86"/><path class="cls-2" d="M116,169.92c-25.26,0-45.93-15.83-45.93-35.17a1.82,1.82,0,0,1,3.63,0c0,17.4,19,31.54,42.3,31.54s42.29-14.14,42.29-31.54a1.82,1.82,0,0,1,3.63,0C161.94,154.09,141.27,169.92,116,169.92Z"/><path class="cls-4" d="M212.09,58.61S191.31,36.74,189.86,31.3s4.35-6.28,8.21-3.14,10.76,11.36,10.76,11.36-8.1-31.91-6.16-35.65S234.33-2.3,238,11.48a212.3,212.3,0,0,1,6,41.82Z"/><path class="cls-2" d="M212.09,59.22a.91.91,0,0,1-.48-.24c-.85-.85-20.91-22.12-22.36-27.68-.72-3,.61-4.47,1.45-5.07,2.06-1.33,5.32-.73,7.74,1.2a84.12,84.12,0,0,1,9.06,9.43c-1.93-8-7.13-30.21-5.44-33.6,1.21-2.41,10.28-3.86,18.61-3C226.47.85,236.38,3,238.56,11c5.32,19.94,6,41.69,6,41.93a.55.55,0,0,1-.48.61l-32,5.68ZM193.36,27a3.56,3.56,0,0,0-1.93.48c-1.09.73-1.33,1.94-1,3.63,1.09,4.11,14.62,19.22,21.88,26.83l31-5.32c-.12-3.5-1.2-23-6-41.09-1.93-7.25-11.36-9.3-16.8-9.79-8.46-.84-16.67.73-17.4,2.3-1.33,2.66,3,22.6,6.16,35.29.12.24-.12.6-.36.72a.74.74,0,0,1-.72-.12c-.12-.12-6.89-8.22-10.64-11.24A6.08,6.08,0,0,0,193.36,27Z"/><path class="cls-4" d="M210.88,55.83l31.79-5.43a4.8,4.8,0,0,1,5.56,4l.12.61a4.81,4.81,0,0,1-4,5.56L212.58,66A4.8,4.8,0,0,1,207,62l-.12-.61A4.8,4.8,0,0,1,210.88,55.83Z"/><path class="cls-2" d="M211.73,66.71a5.35,5.35,0,0,1-5.32-4.59l-.12-.61a5.45,5.45,0,0,1,4.47-6.28h0l31.79-5.44a5.46,5.46,0,0,1,6.28,4.35h0l.12.61A5.45,5.45,0,0,1,244.48,61h0L212.7,66.47A1.47,1.47,0,0,1,211.73,66.71ZM243.51,51h-.72L211,56.44a4.15,4.15,0,0,0-3.39,4.83h0v.61a4.07,4.07,0,0,0,4.84,3.38h0l31.78-5.44h0A4.13,4.13,0,0,0,247.62,55l-.12-.61a3.82,3.82,0,0,0-4-3.38Z"/><path class="cls-2" d="M228.65,43.14a.62.62,0,0,1-.48-.24C225,39.28,221.52,37.22,218,37a13.32,13.32,0,0,0-8.71,2.9.59.59,0,1,1-.84-.84l.12-.12a14.32,14.32,0,0,1,9.55-3.27c4,.24,7.73,2.42,11,6.41a.56.56,0,0,1,0,.84h0C228.89,43,228.77,43.14,228.65,43.14Z"/><path class="cls-4" d="M43.75,153.24s11.36,14.14,14.38,20.54-4.71,22.48-10,26.35-27.43,5-27.8,0,9.43-5.56,9.43-5.56-8.82-3.38-5.8-14.14l-6-15Z"/><path class="cls-2" d="M31.3,204.12c-3.87,0-7.37-.48-9.43-1.45a3.23,3.23,0,0,1-2.17-2.54c-.12-1.69.72-3.87,5.07-5.32a22.39,22.39,0,0,1,3-.72c-2.54-1.69-6.65-5.8-4.48-13.78l-6-14.74c-.12-.37,0-.61.36-.85l25.87-12.2a.71.71,0,0,1,.72.12c.48.6,11.48,14.26,14.5,20.66s-4.59,23-10.15,27.19C45.56,202.91,38,204.12,31.3,204.12ZM18.73,165.81l5.92,14.5v.36c-2.9,10.15,5.08,13.3,5.44,13.42a.57.57,0,0,1,.36.72.56.56,0,0,1-.6.49c-.12,0-9.06.6-8.82,4.83,0,.48.48,1.09,1.45,1.45,5.19,2.42,21,1.21,25.38-1.93,5.19-3.87,12.69-19.58,9.79-25.62-2.78-5.68-12.21-17.77-14-20.06Z"/><path class="cls-4" d="M13.78,164l27.55-16.68A5,5,0,0,1,48,148.89l.36.6a5,5,0,0,1-1.57,6.65L19.09,172.82a5,5,0,0,1-6.64-1.57l-.36-.61A4.87,4.87,0,0,1,13.78,164Z"/><path class="cls-2" d="M16.68,174.15a5,5,0,0,1-1.33-.12A5.21,5.21,0,0,1,12,171.49l-.36-.61a5.49,5.49,0,0,1,1.81-7.49l27.68-16.68a5.48,5.48,0,0,1,7.49,1.82h0l.36.6a5.47,5.47,0,0,1-1.81,7.49h0L19.58,173.3A6.73,6.73,0,0,1,16.68,174.15ZM44,147.2a5,5,0,0,0-2.18.6L14.26,164.48a4.28,4.28,0,0,0-1.45,5.8l.36.6a4.27,4.27,0,0,0,5.8,1.45l27.56-16.67h0a4.28,4.28,0,0,0,1.45-5.8l-.36-.49A4.13,4.13,0,0,0,44,147.2Z"/><path class="cls-4" d="M96.68,232.28s-34.08-6.65-34.32-3.39,1.09,30.58,1.09,30.58S30.82,277,35.89,279.17s60.91-8.1,60.91-8.1V232.28Z"/><path class="cls-2" d="M38.67,280.13a7.07,7.07,0,0,1-3.14-.36,1.32,1.32,0,0,1-.85-1.21c0-.72-.12-2.78,14.26-11.6,6.17-3.75,12.33-7.13,13.78-8-.12-3.5-1.33-27.07-1.09-30.21a1.23,1.23,0,0,1,.49-.84c3.14-2.42,29.36,2.53,34.68,3.62.24,0,.49.36.49.61v38.91c0,.24-.25.6-.49.6C91.73,272.76,50.88,280.13,38.67,280.13Zm27.07-51.48c-1.57,0-2.53.12-2.78.48-.24,3.15,1.09,30.1,1.09,30.34a.66.66,0,0,1-.36.6c-13.78,7.37-27.92,16.32-27.8,18.49a.12.12,0,0,0,.12.12c3.87,1.7,44.11-5.07,60.07-8.09V232.76C84,230.46,71.3,228.65,65.74,228.65Z"/><path class="cls-4" d="M192.27,206.05s-22,5.2-27.07,25l29,40L233.6,216.2l-29,9.91Z"/><path class="cls-2" d="M194.21,271.67a.64.64,0,0,1-.49-.24l-29-40a.72.72,0,0,1-.12-.48c5.07-19.94,27.31-25.38,27.55-25.5a.9.9,0,0,1,.73.24l12,19.58,28.52-9.79c.25-.12.49,0,.73.24a.79.79,0,0,1,0,.73l-39.28,54.86a1.1,1.1,0,0,1-.6.36ZM165.93,231l28.28,39,37.7-52.57-27.19,9.31a.58.58,0,0,1-.72-.24L192,206.9C189,207.62,170.52,213.42,165.93,231Z"/><path class="cls-1" d="M195.78,272.52c-10.76-8.46,1.09-21.87,12.33-36.74,8.09-10.75,23.08-23.93,30.33-18.25C246.9,224.06,208.59,282.55,195.78,272.52Z"/><path class="cls-2" d="M199.28,274.33a6.44,6.44,0,0,1-3.86-1.33h0c-10.28-8.09-.73-20.66,9.3-33.83,1-1.21,1.94-2.54,2.9-3.75,6.65-8.82,17.4-18.73,25.38-19.82a7.48,7.48,0,0,1,5.92,1.45c1.21,1,1.69,2.78,1.33,5.56-1.81,12.57-22.84,45.2-37.1,51A13.81,13.81,0,0,1,199.28,274.33Zm-3-2.29c1.57,1.21,3.75,1.33,6.41.24,12.81-5.08,34.44-36.74,36.25-49.91.24-1.57.24-3.51-.84-4.35a6.2,6.2,0,0,0-5-1.21c-7.25,1-17.76,10.39-24.53,19.33l-2.9,3.75c-10,13.29-18.85,24.9-9.43,32.15Z"/><ellipse class="cls-4" cx="62.36" cy="114.21" rx="9.67" ry="6.16"/><ellipse class="cls-4" cx="169.67" cy="114.21" rx="9.67" ry="6.16"/></g></g></svg>