<?xml version="1.0" encoding="utf-8"?>
<!-- Generator: Adobe Illustrator 23.1.0, SVG Export Plug-In . SVG Version: 6.00 Build 0)  -->
<svg version="1.1" id="Layer_1" xmlns="http://www.w3.org/2000/svg" xmlns:xlink="http://www.w3.org/1999/xlink" x="0px" y="0px"
	 viewBox="0 0 400 300" style="enable-background:new 0 0 400 300;" xml:space="preserve">
<style type="text/css">
	.st0{fill:#D1D3D4;}
	.st1{fill:#FFFFFF;}
	.st2{fill:#231F20;}
	.st3{fill:#F5C7E0;}
	.st4{fill:#C2DCF7;}
</style>
<g id="_337_thinking_flatline">
	<ellipse class="st0" cx="198.9" cy="248.2" rx="103.8" ry="6.6"/>
	<path class="st1" d="M215.6,143.5c2.1-1.2,4-2.6,5.9-4.1c4.1-3.1,5.3-5.9,6.5-10.8c0.8-3.3-1.7-6.4-4.1-8.8s-5.2-4.9-5.3-8.3
		c0-2.6,1.6-4.9,2.6-7.3c5.2-12.7-9.3-18.4-12.2-29s-6.3-19.4-19.4-16c-3.2,0.8-6.3,1.9-9.5,2c-3,0.2-5.9-0.5-8.9-0.5
		c-8.5,0-16.3,4.6-20.4,12.1c-1.6,3-0.6,7-2.1,9.4c-3.9,6.2-13.2,4.7-11.3,14.9c0.7,3.6,2.3,7.4,0.9,10.9c-1.8,4.4-7.2,5.7-11,8.5
		c-6.2,4.6-7.8,13.8-4.9,20.9s9.7,12.2,16.9,14.8s15.1,3,22.9,3C180.7,155.3,200,152.9,215.6,143.5z"/>
	<path class="st2" d="M162.5,155.7h-0.3c-7.6,0-15.6-0.4-23-3c-8.2-2.9-14.5-8.4-17.2-15c-3.2-7.8-1.1-17,5-21.5
		c1.3-0.9,2.6-1.7,4-2.4c2.9-1.6,5.7-3,6.8-5.9c1-2.5,0.3-5.4-0.4-8.2c-0.2-0.8-0.4-1.6-0.5-2.4c-1.3-6.7,2.1-8.6,5.7-10.6
		c2.1-1.2,4.2-2.4,5.6-4.6c0.6-1.3,0.9-2.7,0.9-4.2c0-1.8,0.4-3.5,1.2-5.1c4.1-7.5,11.9-12.2,20.5-12.3h0.3c1.3,0,2.6,0.1,3.9,0.3
		c1.7,0.2,3.3,0.3,5,0.2c2.5-0.2,4.9-0.7,7.3-1.5l2.1-0.6c13.3-3.4,16.9,5.4,19.9,16.4c1.1,3.9,3.9,7.2,6.6,10.4
		c4.4,5.3,9,10.7,5.6,18.8c-0.3,0.7-0.6,1.4-1,2.1c-0.9,1.5-1.5,3.3-1.6,5.1c0,3.1,2.7,5.7,5,7.9l0.1,0.1c3.6,3.4,4.9,6.4,4.3,9.2
		c-1.2,5-2.4,7.8-6.6,11c-1.9,1.5-3.9,2.8-6,4.1l0,0C202.6,151.8,185.2,155.7,162.5,155.7z M170.9,61.3c-8.2,0.1-15.7,4.6-19.7,11.8
		c-0.7,1.5-1,3.1-1.1,4.8c0,1.6-0.4,3.2-1.1,4.6c-1.5,2.4-3.8,3.7-6,4.9c-3.4,1.9-6.4,3.6-5.3,9.6c0.2,0.8,0.4,1.6,0.5,2.4
		c0.7,2.9,1.4,5.9,0.3,8.7c-1.3,3.1-4.3,4.8-7.2,6.3c-1.4,0.7-2.7,1.5-3.9,2.3c-5.8,4.3-7.8,13-4.7,20.4c2.7,6.4,8.8,11.7,16.7,14.5
		c7.3,2.6,15.2,3,22.7,3h0.3c22.5,0,39.8-3.8,52.9-11.6l0,0c2-1.2,4-2.6,5.9-4c4-3.1,5.1-5.7,6.3-10.5c0.6-2.4-0.7-5.2-4-8.3
		l-0.1-0.1c-2.5-2.4-5.3-5-5.3-8.6c0.1-1.9,0.7-3.8,1.7-5.5c0.3-0.7,0.7-1.3,0.9-2c3.1-7.6-1.1-12.6-5.5-17.9
		c-2.8-3.3-5.6-6.6-6.7-10.8c-3-10.9-6.3-18.9-18.8-15.7c-0.7,0.2-1.4,0.4-2.1,0.6c-2.4,0.8-5,1.3-7.5,1.5c-1.7,0-3.4,0-5.1-0.3
		c-1.3-0.1-2.5-0.3-3.8-0.3L170.9,61.3z"/>
	<path class="st3" d="M125.5,173.6c0,0,8.2-44,16.3-51.4s29.8-7.4,41.2-7.8s28,3.6,35.5,11s15.2,54.6,15.2,54.6l-15.6-1.8l9.9,26.3
		c0,0-34.4,18.5-50.4,17.4s-41.2-22.7-41.2-22.7l1.4-29.1L125.5,173.6z"/>
	<path class="st2" d="M213.9,170.9L213.9,170.9c-0.2,0-0.4-0.2-0.4-0.5c0,0,0,0,0,0c0.7-13.6-4.2-40.1-4.3-40.3
		c0-0.2,0.1-0.5,0.4-0.5s0.5,0.1,0.5,0.4c0,0.3,5,26.8,4.3,40.6C214.4,170.7,214.1,170.9,213.9,170.9
		C213.9,170.9,213.9,170.9,213.9,170.9z"/>
	<path class="st2" d="M153.2,161.7c-0.3,0-0.5-0.2-0.5-0.4c0-0.2-0.3-19.7,3.2-32.4c0.1-0.2,0.3-0.4,0.6-0.3
		c0.2,0.1,0.4,0.3,0.3,0.5c0,0,0,0,0,0c-3.5,12.6-3.2,32-3.2,32.2C153.7,161.5,153.5,161.7,153.2,161.7L153.2,161.7z"/>
	<path class="st1" d="M189.4,120l1.7,16.6c0,0-0.8,9.5-11.2,7.6c-6.2-1.2-11.6-5.1-14.6-10.7c-0.5-1-0.2-3.2-0.2-4.3l-0.5-9.8
		c-0.3-4.9-0.9-10-0.8-14.9s0-10.1,0.2-15.1c0-0.3,0.1-0.6,0.2-0.8c0.2-0.2,0.4-0.3,0.6-0.3c1.4-0.3,2.8-0.2,4.2,0.1
		c0.1-3.5-0.3-6.9-1.2-10.2c2.9,2.2,5.2,5.1,6.6,8.5c3.4-0.2,6.9,0,10.3,0.5c0.4-2.4,0.1-4.8-0.9-7c1.5,1.8,2.8,3.7,4,5.7
		c0,0.3,4.6,0.9,4.9,0.7c0.8-0.7,0.5-5.5,0.6-6.6c2.4,3,4,6.5,4.7,10.2c0.8,3.4,0.7,17.5,0.7,21.1
		C198.8,116.5,195.1,120.7,189.4,120z"/>
	<path class="st2" d="M182.5,144.9c-0.9,0-1.8-0.1-2.7-0.3c-6.3-1.2-11.8-5.2-14.8-10.9c-0.3-1-0.4-2.2-0.3-3.2c0-0.5,0-0.9,0-1.2
		l-0.5-9.7c-0.1-1.6-0.2-3.3-0.4-4.9c-0.3-3.3-0.5-6.7-0.4-10c0.1-2.4,0.1-4.8,0.1-7.2c0-2.6,0-5.3,0.1-8c0-0.4,0.1-0.8,0.4-1.1
		c0.3-0.2,0.6-0.4,0.9-0.4c1.3-0.2,2.6-0.2,3.9,0c0-3.2-0.4-6.4-1.2-9.6c-0.1-0.2,0.1-0.5,0.3-0.6c0.1,0,0.3,0,0.4,0.1
		c2.9,2.2,5.2,5.1,6.6,8.4c3.2-0.1,6.5,0,9.6,0.5c0.3-2.1-0.1-4.3-1-6.3c-0.1-0.2,0-0.5,0.2-0.6c0.2-0.1,0.4,0,0.6,0.1
		c1.4,1.8,2.8,3.7,3.9,5.6c1.4,0.4,2.9,0.5,4.4,0.6c0.4-0.6,0.4-3.6,0.4-4.7c0-0.7,0-1.2,0-1.6c0-0.2,0.1-0.3,0.3-0.4
		c0.2-0.1,0.4,0,0.5,0.1c2.2,2.5,3.7,5.8,4.8,10.4c0.7,3,0.7,14.1,0.7,19.4v1.7c0.1,2.8-1,5.4-3,7.3c-1.7,1.5-4,2.2-6.3,1.9
		l1.6,16.1c-0.3,2.6-1.5,5-3.5,6.6C186.5,144.3,184.5,144.9,182.5,144.9z M166.7,88.6c-0.6,0-1.2,0.1-1.8,0.2
		c-0.1,0-0.3,0.1-0.4,0.1c-0.1,0.2-0.1,0.4-0.1,0.5c-0.1,2.6-0.1,5.3-0.1,7.9c0,2.4,0,4.8-0.1,7.2c0,3.3,0.1,6.6,0.4,9.9
		c0.1,1.6,0.3,3.3,0.4,4.9l0.5,9.7c0,0.4,0,0.8,0,1.3c-0.1,0.9,0,1.9,0.2,2.8c2.9,5.4,8.1,9.3,14.2,10.4c3.1,0.6,5.6,0.1,7.5-1.3
		c1.8-1.5,2.9-3.6,3.1-5.9L189,120c0-0.1,0-0.3,0.1-0.4c0.1-0.1,0.2-0.1,0.4-0.1c2.2,0.4,4.4-0.2,6.1-1.7c1.8-1.7,2.8-4.1,2.7-6.6
		v-1.7c0-4.9,0-16.3-0.7-19.2c-0.6-3.3-1.9-6.3-3.8-9.1v0.3c0,2.7-0.1,4.9-0.8,5.5s-4.7-0.2-5.3-0.5c-0.2-0.1-0.3-0.2-0.4-0.3
		c-0.7-1.1-1.4-2.3-2.2-3.3c0.3,1.5,0.3,3.1,0.1,4.6c0,0.2-0.3,0.4-0.5,0.4c-3.4-0.5-6.8-0.7-10.2-0.5c-0.2,0-0.4-0.1-0.4-0.3
		c-1.2-2.9-3-5.5-5.4-7.5c0.7,3,1,6,0.9,9c0,0.1-0.1,0.3-0.2,0.3c-0.1,0.1-0.3,0.1-0.4,0.1C168.3,88.7,167.5,88.6,166.7,88.6z"/>
	<path class="st2" d="M190.1,128.1c0,0-6.7,0.9-11.5-3.2s-4.6-8.7-4.6-8.7s7.8,4.2,15.4,3.7L190.1,128.1z"/>
	<path class="st2" d="M188.4,128.7c-3.6,0.1-7.2-1.1-10-3.4c-4.9-4.2-4.7-8.8-4.7-9c0-0.2,0.2-0.4,0.5-0.4c0.1,0,0.1,0,0.2,0.1
		c0.1,0,7.7,4.2,15.1,3.6c0.2,0,0.4,0.2,0.5,0.4l0.7,8.2c0,0.2-0.2,0.4-0.4,0.5C189.6,128.7,189,128.7,188.4,128.7z M174.6,117
		c0.4,3,2,5.7,4.4,7.6c3.9,3.3,9.2,3.2,10.7,3.1l-0.6-7.3C182.8,120.7,176.6,118,174.6,117z"/>
	<path class="st2" d="M184.1,107c-0.6,0-1.1,0-1.7-0.1c-0.2,0-0.4-0.3-0.4-0.5c0-0.2,0.3-0.4,0.5-0.4c0,0,0,0,0,0
		c0.9,0.2,3.6,0.3,4.4-0.8c0.6-0.7-2.1-5-5-8.5c-0.2-0.2-0.1-0.5,0.1-0.6c0.2-0.2,0.5-0.1,0.6,0.1c1.5,1.8,6.2,7.9,5,9.5
		C186.9,106.8,185.3,107,184.1,107z"/>
	<path class="st1" d="M168.6,95.5c-0.8-2-2.1-3.8-3.6-5.3c-1.7-1.4-4.2-2-6-0.9c-2,1.3-2.5,4-2.3,6.4c0.3,2.7,1.1,5.4,2.2,7.8
		c0.5,1.5,1.5,2.9,2.7,3.9c1.3,1.1,3.1,1.1,4.4,0.2"/>
	<path class="st2" d="M164,108.8c-1,0-2-0.4-2.8-1c-1.3-1.1-2.2-2.5-2.8-4.1c-1.2-2.5-1.9-5.2-2.2-8c-0.1-1.5-0.2-5.2,2.5-6.9
		c2.2-1.3,4.9-0.5,6.6,0.9c1.6,1.6,2.9,3.4,3.8,5.5c0.1,0.2,0.1,0.5-0.1,0.6c-0.2,0.1-0.5,0.1-0.6-0.1c0,0,0-0.1-0.1-0.1
		c-0.8-2-2-3.7-3.5-5.2c-1.4-1.2-3.7-1.9-5.5-0.8c-2.3,1.4-2.2,4.9-2.1,6c0.3,2.7,1,5.3,2.2,7.7c0.5,1.4,1.4,2.7,2.5,3.8
		c1.1,0.9,2.7,1,3.9,0.2c0.2-0.2,0.5-0.1,0.6,0.1c0,0,0,0,0,0c0.2,0.2,0.1,0.5-0.1,0.6C165.6,108.5,164.8,108.8,164,108.8z"/>
	<ellipse class="st2" cx="176" cy="96" rx="1" ry="2.5"/>
	<ellipse class="st2" cx="190.8" cy="95.5" rx="1" ry="2.5"/>
	<path class="st1" d="M179.6,136.1c0,0,4.3-12.1,2.2-15.4s-7.8-6.5-8.9-9.5s0.8-10.3-1.6-11.1s-4.1,6-2.4,11.4c0,0-2.7-3.3-2.7-6.5
		s2.1-7.2-0.2-8.1s-5.7,6.4-4.9,12.2s8.3,14.1,7.8,15.7s-41.3,41.2-45,47.7c-3.4,6-1.3,19.5,10.5,18.1S171.7,156.6,179.6,136.1z"/>
	<path class="st2" d="M132.7,191.2c-3.4,0.1-6.6-1.6-8.5-4.4c-2.7-4.4-2.9-9.8-0.7-14.5c2.3-4,18.1-20,30.8-32.9
		c7.1-7.2,13.8-14,14.2-14.8c0.1-0.4-1.3-2.6-2.4-4.4c-2.2-3.4-4.9-7.6-5.4-11.2c-0.6-4.8,1.5-10.7,3.7-12.3
		c0.5-0.5,1.2-0.6,1.9-0.4c1.8,0.8,1.4,3,0.9,5.2c-0.3,1.1-0.4,2.2-0.5,3.3c0.1,1.5,0.5,2.9,1.2,4.1c-0.5-3.8,0.3-7.6,1.7-9
		c0.5-0.5,1.2-0.7,1.8-0.5c1.7,0.6,1.6,3.4,1.6,6.4c-0.2,1.7-0.1,3.4,0.3,5c0.6,1.5,2.5,3.2,4.4,4.8c1.7,1.3,3.2,2.9,4.5,4.7
		c2.1,3.5-2,15.3-2.2,15.8l0,0c-3.8,9.9-12,23.1-21.3,34.5c-9.9,12.2-18.8,19.6-24.3,20.3C133.9,191.1,133.3,191.2,132.7,191.2z
		 M165.7,97.3c-0.3,0-0.5,0.1-0.7,0.3c-1.8,1.4-4,6.8-3.3,11.5c0.4,3.3,3.2,7.6,5.3,10.8c1.9,2.9,2.8,4.3,2.5,5.1
		s-4.1,4.7-14.4,15.1c-12,12.1-28.4,28.8-30.7,32.7c-2.1,4.3-1.8,9.4,0.6,13.5c1.4,2.1,4.2,4.5,9.4,3.9c11.6-1.4,37-34,44.8-54.2
		c1.2-3.3,3.9-12.4,2.3-15c-1.2-1.7-2.7-3.2-4.3-4.4c-2-1.8-4-3.4-4.6-5.2c-0.4-1.8-0.5-3.6-0.4-5.3c0.1-2.4,0.1-5.1-0.9-5.5
		c-0.1,0-0.4-0.2-0.9,0.3c-1.5,1.5-2.2,6.5-0.9,10.6c0.1,0.2-0.1,0.5-0.3,0.6c-0.2,0.1-0.4,0-0.5-0.1c-0.1-0.1-2.8-3.5-2.8-6.8
		c0-1.2,0.2-2.3,0.5-3.5c0.5-2.3,0.7-3.8-0.4-4.2C165.9,97.3,165.8,97.3,165.7,97.3L165.7,97.3z M179.6,136.2L179.6,136.2z"/>
	<path class="st1" d="M189.2,135.4c0,0-4.3-12.1-2.2-15.4c1.9-3,5.3-4.8,7.6-7.5c2.4-2.8,2.1-7.8,3.5-11.3c0.3-0.7,0.9-1.6,1.6-1.3
		c0.3,0.1,0.5,0.4,0.7,0.7c1.1,2.2,1.8,4.5,2.1,6.9c0.5,2.1,0.7,4.2,0.8,6.3c0,1.9-0.4,3.8-1.1,5.6c-0.4,1.1-2.6,3.6-2.2,4.8
		c0.5,1.6,3.2,9.7,7.6,15.3s27.2,27.4,30.4,41.2c1.7,7.3,0.6,16.1-11.2,14.6S197.1,155.9,189.2,135.4z"/>
	<path class="st2" d="M229.1,195.9c-0.8,0-1.7-0.1-2.5-0.1c-12.1-1.5-30-40-37.8-60.1l0,0c-0.2-0.5-4.3-12.3-2.2-15.8
		c1.2-1.7,2.7-3.3,4.4-4.6c1.2-0.9,2.2-1.9,3.2-3c1.4-1.7,1.9-4.2,2.3-6.6c0.2-1.6,0.6-3.1,1.1-4.6c0.4-1,1.2-2,2.2-1.6
		c0.4,0.2,0.7,0.5,0.9,0.9c1.1,2.2,1.8,4.6,2.2,7c0.5,2.1,0.7,4.2,0.8,6.4c0,2-0.4,3.9-1.1,5.7c-0.3,0.5-0.5,1-0.9,1.5
		c-0.6,0.9-1.5,2.4-1.3,3c0.1,0.4,2.8,9.1,7.5,15.1c0.9,1.2,2.7,3.1,4.9,5.5c8.6,9.3,23,24.9,25.6,35.9c0.7,3.2,1.5,9-1.7,12.6
		C234.9,194.9,232.4,195.9,229.1,195.9z M189.6,135.3c9,23.2,26.3,58.2,37.1,59.5c4.2,0.5,7.3-0.3,9.2-2.4c2.9-3.2,2.2-8.7,1.5-11.7
		c-2.5-10.7-17.4-26.9-25.4-35.5c-2.2-2.4-4-4.3-4.9-5.5c-4.9-6.1-7.6-15-7.7-15.4c-0.3-1,0.6-2.5,1.4-3.8c0.3-0.4,0.6-0.9,0.8-1.3
		c0.7-1.7,1.1-3.6,1.1-5.4c0-2.1-0.3-4.2-0.8-6.2c-0.3-2.3-1-4.6-2.1-6.8c-0.1-0.2-0.3-0.4-0.4-0.5c-0.4-0.2-0.9,0.6-1,1.1
		c-0.5,1.4-0.8,2.9-1.1,4.4c-0.4,2.6-0.9,5.2-2.5,7c-1,1.1-2.1,2.2-3.3,3.1c-1.6,1.2-3,2.7-4.2,4.3
		C185.8,122.8,188.4,132,189.6,135.3z"/>
	<path class="st2" d="M173.1,208.8c0,0-43.6-41.2-62.1-33s-18.1,31.6-8.2,45.1s46.8,24.5,77.4,21.6s72.7-14.2,80.9-24.8
		s2.1-28.4-12.4-33S196.9,209.8,173.1,208.8z"/>
	<path class="st2" d="M170.4,243.3c-27.7,0-58.7-9.8-67.9-22.3c-6.1-8.2-8.4-19.7-5.8-29.1c1.9-7.5,7.1-13.6,14.2-16.6
		c18.2-8,59.4,30.1,62.4,33c12,0.5,27.7-7.1,41.6-13.7c13.7-6.5,26.6-12.7,33.9-10.4c7.3,2.4,13.1,8.1,15.3,15.5
		c2.1,6.6,1.1,13.2-2.7,18.2c-8.1,10.6-50.3,22.1-81.2,25C177,243.2,173.8,243.3,170.4,243.3z M116.6,175.1c-1.8,0-3.7,0.3-5.4,1
		c-6.8,2.9-11.9,8.8-13.7,16c-2.4,9.2-0.2,20.4,5.7,28.4c10.1,13.8,47.5,24.2,76.9,21.5c30.7-2.9,72.6-14.3,80.6-24.7
		c3.6-4.7,4.5-11.1,2.6-17.4c-2.2-7.1-7.7-12.6-14.8-14.9c-7-2.2-19.7,3.9-33.2,10.4c-14.1,6.7-30,14.3-42.2,13.8
		c-0.1,0-0.2,0-0.3-0.1C172.4,208.7,136.5,175.1,116.6,175.1z"/>
	<path class="st2" d="M146.1,237.7l28.2,13.6l12.6-31.9c0,0-40.4-28.4-50.4-20.2S142.9,235.2,146.1,237.7z"/>
	<path class="st2" d="M174.3,251.8c-0.1,0-0.1,0-0.2,0l-28.2-13.6l-0.1-0.1c-2.6-2-12.7-18.8-12.9-30.4c-0.1-4,1.1-6.9,3.3-8.8
		c10.1-8.3,49.3,19,50.9,20.2c0.2,0.1,0.2,0.3,0.2,0.5l-12.6,31.9C174.6,251.7,174.5,251.8,174.3,251.8z M146.3,237.3l27.8,13.4
		l12.3-31.2c-3.6-2.5-40.4-27.6-49.6-20c-2,1.7-3.1,4.4-3,8.1C134,218.7,143.8,235.3,146.3,237.3z"/>
	<path class="st4" d="M185.5,248.5c0,0,19.3,6.4,37.3,3.7c20.2-3,26.3-12.1,16-20.2s-52.2-1.2-52.2-1.2L185.5,248.5z"/>
	<path class="st2" d="M213.5,253.3c-9.5-0.1-19-1.6-28.1-4.4c-0.2-0.1-0.3-0.3-0.3-0.5l1.1-17.7c0-0.2,0.2-0.4,0.4-0.4
		c1.7-0.3,42.2-6.9,52.5,1.3c4.1,3.2,5.8,6.7,4.9,10c-1.4,5.2-9.1,9.3-21.1,11C219.7,253.1,216.6,253.3,213.5,253.3z M186,248.2
		c2.6,0.8,20.3,6,36.7,3.6c11.6-1.7,19-5.5,20.3-10.4c0.8-2.9-0.8-6.1-4.6-9c-9.5-7.6-47.3-1.9-51.4-1.2L186,248.2z"/>
	<path class="st1" d="M175.9,247.1c0,0,16.7,5.3,19.9-4.3s-3.7-10.5-12.4-12.4L175.9,247.1z"/>
	<path class="st2" d="M185.3,249h-0.6c-3-0.1-6-0.6-8.9-1.4c-0.1,0-0.2-0.1-0.3-0.3c-0.1-0.1-0.1-0.3,0-0.4l7.5-16.7
		c0.1-0.2,0.3-0.3,0.5-0.3l1.5,0.3c5.1,1.1,9.6,2.1,11.3,5.2c1,1.8,1,4.3,0,7.5C194.9,247,191.1,249,185.3,249z M176.6,246.8
		c2.8,0.8,16.1,4,18.8-4.2c1-3,1-5.2,0.1-6.8c-1.5-2.7-5.8-3.6-10.7-4.7l-1.1-0.3L176.6,246.8z"/>
	<path class="st1" d="M142,235.9c-0.1,0-0.2,0-0.2-0.1c-0.2-0.1-21.7-13.4-34-18.9c-0.2-0.1-0.3-0.4-0.2-0.6c0,0,0,0,0,0
		c0.1-0.2,0.4-0.3,0.6-0.2c0,0,0,0,0,0c12.4,5.5,33.9,18.8,34.1,18.9c0.2,0.1,0.3,0.4,0.2,0.6c0,0,0,0,0,0
		C142.3,235.8,142.2,235.9,142,235.9z"/>
	<path class="st3" d="M130.7,228.3c0,0-9-1.8-11.4,5s0,20,6,22.4c6,2.4,15.3-7.3,18.8-8.2s12.7-4.5,12.7-4.5L130.7,228.3z"/>
	<path class="st2" d="M127.4,256.4c-0.8,0-1.5-0.1-2.2-0.4c-6.4-2.5-8.6-16.1-6.3-22.9c2.4-7,11.8-5.3,11.9-5.3l0.1,0.1l26.1,14.6
		c0.2,0.1,0.3,0.3,0.2,0.4c0,0.2-0.1,0.3-0.3,0.4c-0.4,0.1-9.2,3.6-12.7,4.5c-1.1,0.3-2.9,1.5-4.9,2.9
		C135.7,253.3,131.3,256.4,127.4,256.4z M128.2,228.5c-2.7,0-7,0.7-8.4,4.9c-1.1,3.2-1.1,8.1-0.1,12.6c1.1,4.9,3.3,8.2,5.9,9.2
		c3.8,1.5,9.1-2.2,13.3-5.1c2.1-1.5,3.9-2.7,5.2-3c2.8-0.7,9.3-3.2,11.7-4.1l-25.2-14.1C129.7,228.6,128.9,228.5,128.2,228.5
		L128.2,228.5z"/>
	<path class="st1" d="M183.4,230.9h-0.1c-0.2-0.1-0.4-0.3-0.3-0.6c0,0,0,0,0,0l2.9-8.4c-2.1-2.1-20.2-20.8-32.5-29.8
		c-0.2-0.1-0.2-0.4-0.1-0.6s0.4-0.2,0.6-0.1l0,0c13.1,9.6,32.6,29.9,32.8,30.1c0.1,0.1,0.2,0.3,0.1,0.5l-3,8.6
		C183.7,230.7,183.6,230.9,183.4,230.9z"/>
	<path class="st2" d="M184.2,111.4c-2.3,0-4.6-0.6-6.5-1.8c-0.2-0.1-0.3-0.4-0.1-0.6c0,0,0,0,0,0c0.1-0.2,0.4-0.3,0.6-0.1
		c0,0,0,0,0,0c3.6,2.1,8,2.1,11.6,0.2c0.2-0.1,0.5,0,0.6,0.2c0.1,0.2,0,0.5-0.2,0.6l0,0C188.3,110.8,186.3,111.4,184.2,111.4z"/>
	<path class="st1" d="M232.2,107.3c-0.9-0.4-2-0.5-3-0.2c-1,0.3-1.7,1.2-1.8,2.2c0,1,0.8,1.8,1.8,1.8c0.1,0,0.1,0,0.2,0
		c-2.3,1.5,2.7,5.5,4.9,1.3c0.9-1.7,0.3-3.9-1.4-4.8C232.7,107.4,232.4,107.3,232.2,107.3z"/>
	<path class="st0" d="M288.3,174.4c0.2-2.3-0.3-4.5-1.4-6.6c-0.9-1.5-2.2-2.6-2.9-4.1c-1.2-2.7-0.4-5.8-0.7-8.7
		c-0.3-2.4-1.3-4.7-3.1-6.5c-1.5-1.5-3.5-2.6-5-4.2c-2.4-2.6-3.1-6.4-4.4-9.6c-1.9-4.7-5.3-8.6-9.6-11.3c2.6,5.3-3.3,11.9-0.6,17.1
		c0.9,1.6,2.5,2.9,3.1,4.6c1.5,4.2-3.5,8.8-1.9,13c0.8,2.1,3,3.3,4.1,5.3c1.4,2.7,0.3,5.9,0.4,8.9c0.2,4.2,2.7,7.9,5.7,10.8
		c1.9,1.8,4,3.4,6,5c2.4,2,3.4,4,5.6,0.9C286.5,184.7,288.1,179.6,288.3,174.4z"/>
	<path class="st0" d="M291,176.8c-0.8-3.2-1.3-6.7,0-9.8c1.5-3.4,5.2-5.9,5.6-9.6c0.3-2.4-1-4.9-0.5-7.3s2.5-4.1,4.1-5.8
		c3.7-4.1,6-9.4,6.3-14.9c2.3,3.1,4.7,6.3,6,9.9s1.3,8-0.9,11.2c-0.6,0.7-1.1,1.6-1.5,2.5c-0.7,2.4,1.3,4.6,2.4,6.8
		c1.3,2.6,1,5.7-0.7,8.1c-2.1,2.7-6.2,3.7-7.3,6.9c-0.3,1.2-0.4,2.4-0.4,3.7c-0.5,4.4-3.5,8-7.8,9.2c-2.5,0.6-2.5-0.4-2.9-2.5
		C292.8,182.4,291.7,179.6,291,176.8z"/>
	<path class="st0" d="M283,153.6c-1.8-6.2-2.5-12.7-4.4-18.8c-1.6-4.8-3.6-9.5-5.9-14l7.7,3.2c2.5,1,5.1,2.3,6.3,4.7
		c2,4.2-1.6,9.6,0.5,13.7c0.8,1.4,2.1,2.5,3,3.8c2.3,3.2,1.9,7.5,0.7,11.2c-0.5,1.6-2.9,9.8-4.9,7.5c-0.8-0.9-0.9-4.3-1.3-5.6
		C284.2,157.4,283.5,155.5,283,153.6z"/>
	<path class="st0" d="M287.1,235.8c-1.5-10.1-6.3-45.8-6.4-46.1l1.3-0.2c0,0.4,4.8,36,6.4,46.1L287.1,235.8z"/>
	<path class="st0" d="M289,245.4h-1.3c0.1-12,5.1-57.9,8-61.1l1,0.9C294.7,187.3,289.1,228.9,289,245.4z"/>
	<path class="st0" d="M291.6,243.1l-1.3-0.1c1.1-25.9-4.3-80.3-4.4-80.8l1.3-0.1C287.2,162.6,292.7,217.1,291.6,243.1z"/>
	<path class="st1" d="M274,211.4h28.6l-2,28.9c-0.3,5-4.5,8.9-9.5,8.9h-5.5c-5,0-9.2-3.9-9.5-8.9L274,211.4z"/>
	<path class="st0" d="M291.1,249.8h-5.5c-5.3,0-9.6-4.1-10-9.4l-2-28.9c0-0.1,0-0.3,0.1-0.4c0.1-0.1,0.2-0.1,0.3-0.1h28.6
		c0.3,0,0.5,0.2,0.5,0.5c0,0,0,0,0,0l-2,28.9C300.7,245.7,296.3,249.8,291.1,249.8z M274.5,212l2,28.4c0.3,4.7,4.3,8.4,9,8.4h5.5
		c4.7,0,8.7-3.7,9-8.4l2-28.4H274.5z"/>
</g>
</svg>
